<?xml version="1.0" encoding="utf-8"?>
<!-- Generator: Adobe Illustrator 24.2.3, SVG Export Plug-In . SVG Version: 6.00 Build 0)  -->
<svg version="1.1" id="Layer_1" xmlns="http://www.w3.org/2000/svg" xmlns:xlink="http://www.w3.org/1999/xlink" x="0px" y="0px"
	 viewBox="0 0 614.6 315.3" style="enable-background:new 0 0 614.6 315.3;" xml:space="preserve">
<style type="text/css">
	.st0{fill:#263238;}
	.st1{fill:#1AECCF;}
	.st2{fill:#FF725E;}
	.st3{fill:#455A64;}
	.st4{fill:#EBEBEB;}
	.st5{fill:#FAFAFA;}
	.st6{fill:#13A4D1;}
	.st7{fill:#FFBE9D;}
	.st8{fill:#FFFFFF;}
	.st9{fill:#EB996E;}
</style>
<g id="freepik--Floor--inject-116">
	<path class="st0" d="M614.6,288.2c0,0.1-137.6,0.3-307.3,0.3S0,288.3,0,288.2s137.6-0.3,307.3-0.3S614.6,288,614.6,288.2z"/>
</g>
<g>
	<g id="freepik--Envelopes--inject-208">
		<polygon class="st1" points="363.3,29.2 450.7,5.8 468.6,64.7 377.8,87.4 		"/>
		<path class="st0" d="M377.8,87.4c-0.1-0.1,4.7-9.1,10.7-20.2c6-11.1,11-20,11.1-20c0.1,0.1-4.7,9.1-10.7,20.2
			C382.9,78.6,377.9,87.5,377.8,87.4z"/>
		<path class="st0" d="M468.6,64.7c-0.1,0.1-8.9-5.6-19.6-12.9s-19.4-13.1-19.4-13.2c0.1-0.1,8.9,5.6,19.6,12.9
			C460,58.7,468.7,64.6,468.6,64.7z"/>
		<path class="st0" d="M363.3,29.2c0.1,0,0.2,0.1,0.3,0.1l0.8,0.4l3.2,1.5l11.7,5.7l38.5,19l0.5,0.2l-0.3,0.1L441,20.5
			c3-4.5,5.3-8.2,7-10.8l1.9-2.9l0.5-0.8c0.1-0.1,0.1-0.2,0.2-0.2c0,0.1-0.1,0.2-0.2,0.3l-0.5,0.8l-1.9,3l-6.9,10.9l-23,35.8
			l-0.1,0.2l-0.2-0.1l-0.5-0.2l-38.4-19.1l-11.6-5.8l-3.1-1.6l-0.8-0.4C363.5,29.4,363.4,29.3,363.3,29.2z"/>
		<polygon class="st1" points="62,53.9 147.7,62.5 143.8,121 55.2,110.6 		"/>
		<path class="st0" d="M55.2,110.6c-0.1-0.1,7.2-6.5,16.4-14.4s16.6-14.1,16.7-14S81,88.7,71.9,96.6S55.3,110.7,55.2,110.6z"/>
		<path class="st0" d="M143.9,121c-0.1,0.1-6-8-13.2-18.1c-7.2-10.1-12.9-18.3-12.8-18.3c0.1-0.1,6,8,13.2,18.1
			S143.9,120.9,143.9,121z"/>
		<path class="st0" d="M62,53.9c0,0,0.1,0.1,0.2,0.2l0.6,0.6l2.3,2.4l8.5,9l27.9,29.9l0.3,0.4h-0.3l32.6-24.1l9.9-7.3l2.7-1.9
			l0.7-0.5c0.1-0.1,0.2-0.1,0.2-0.2c0,0-0.1,0.1-0.2,0.2l-0.7,0.5l-2.7,2c-2.3,1.8-5.7,4.3-9.8,7.4l-32.5,24.2l-0.2,0.1l-0.1-0.2
			l-0.3-0.4l-27.8-30L65,57.3l-2.3-2.5l-0.6-0.7C62.1,54.1,62,54,62,53.9z"/>
	</g>
	<g id="freepik--Plants--inject-208">
		<path class="st1" d="M553.3,151.9c0,0-6.3-4.1-13.8,11c-7.5,15.1-10.4,23.7-10.4,23.7s-2,3.2-4.2,1.1c-2.2-2-5.2-7.8-8.8-6.8
			c-3.8,1.1-5,5.4-4.2,11.6c0.8,6.2,2,20,2.1,21.2c0.1,1.2-0.6,3-2.3,1.9c-1.7-1.2-11.6-11.9-16.4-7c-4.8,5,0.2,22,0.7,23.9
			s0.2,2.7-0.7,3.1c-0.9,0.5-3.9-3.5-6.8-6.4c-2.9-3-6.8-5.8-9.4-2.8c-2.5,3.1-3.3,15.9,9.1,36.6l6.4,9.2l11.2-0.7
			c23.9-3,33.6-11.5,34.5-15.4c0.9-3.9-3.8-5.2-8-5.7c-4.1-0.5-9.1-0.4-9.2-1.4c-0.2-1,0.2-1.8,2-2.5s18.3-7.3,19.2-14.1
			c0.9-6.9-13.6-8-15.6-8.6c-2-0.6-1-2.3,0.1-3s12.6-8.2,18-11.4c5.4-3.2,8-6.8,6.6-10.5c-1.4-3.5-7.8-2.3-10.8-2.8
			c-3-0.5-1.7-4-1.7-4s5.1-7.6,12.4-22.8C560.5,154.3,553.2,151.8,553.3,151.9"/>
		<path class="st0" d="M546.5,165.4c0,0.1-0.1,0.2-0.1,0.3l-0.4,0.9l-1.7,3.6c-1.5,3.1-3.6,7.7-6.3,13.2
			c-5.4,11.1-12.9,26.5-21.3,43.4c-8.4,16.9-16,32.2-21.4,43.4c-2.7,5.5-4.9,10-6.4,13.2c-0.7,1.5-1.3,2.7-1.7,3.6l-0.5,0.9
			l-0.2,0.3c0-0.1,0.1-0.2,0.1-0.3l0.4-0.9l1.7-3.6c1.5-3.1,3.6-7.6,6.3-13.2c5.4-11.2,12.9-26.5,21.3-43.4s16-32.2,21.4-43.3
			l6.4-13.2l1.7-3.6l0.5-0.9L546.5,165.4z"/>
		<path class="st0" d="M519.9,189.3c0.1,0.2,0.2,0.5,0.3,0.7c0.2,0.5,0.4,1.2,0.6,2.1c0.5,1.8,1.2,4.3,1.9,7
			c0.7,2.8,1.2,5.2,1.7,7.1c0.2,0.8,0.4,1.6,0.5,2.1c0.1,0.3,0.1,0.5,0.2,0.8c-0.1-0.2-0.2-0.5-0.3-0.7c-0.2-0.5-0.4-1.2-0.6-2.1
			c-0.5-1.8-1.1-4.3-1.8-7c-0.7-2.8-1.3-5.2-1.7-7c-0.2-0.8-0.4-1.5-0.5-2.1C520,189.8,520,189.5,519.9,189.3z"/>
		<path class="st0" d="M526.2,209.3c0-0.1,5-1.7,11.3-3.5c6.3-1.9,11.4-3.3,11.4-3.2c0,0.1-5,1.7-11.3,3.5
			C531.3,208,526.2,209.4,526.2,209.3z"/>
		<path class="st0" d="M512.1,234.7c0.3-0.1,0.6-0.1,0.8-0.1h2.2c1.9,0,4.5,0,7.4-0.2c2.9-0.1,5.5-0.3,7.4-0.5l2.2-0.2
			c0.3,0,0.5,0,0.8,0c-0.3,0.1-0.5,0.2-0.8,0.2c-0.5,0.1-1.3,0.2-2.2,0.3c-1.9,0.2-4.5,0.5-7.4,0.6c-2.9,0.1-5.5,0.1-7.4,0.1
			c-1,0-1.7-0.1-2.3-0.1C512.7,234.9,512.4,234.8,512.1,234.7z"/>
		<path class="st0" d="M502.5,217.8c0.2,0.2,0.3,0.4,0.4,0.6c0.3,0.4,0.6,1,1.1,1.8c0.9,1.5,2.2,3.6,3.5,5.9
			c1.3,2.3,2.6,4.4,3.4,5.9l1,1.8c0.1,0.2,0.2,0.5,0.3,0.7c-0.2-0.2-0.3-0.4-0.5-0.6c-0.3-0.4-0.6-1-1.1-1.8
			c-0.9-1.5-2.2-3.6-3.5-5.9c-1.3-2.3-2.6-4.4-3.4-5.9c-0.4-0.8-0.8-1.4-1-1.8C502.7,218.3,502.6,218.1,502.5,217.8z"/>
		<path class="st0" d="M487.2,238.7c0.2,0.2,0.4,0.5,0.6,0.8l1.5,2.3c1.2,1.9,2.8,4.6,4.6,7.5s3.3,5.6,4.5,7.6
			c0.5,0.9,1,1.7,1.3,2.3c0.2,0.3,0.3,0.6,0.4,0.9c-0.2-0.2-0.4-0.5-0.6-0.8l-1.5-2.3c-1.2-1.9-2.8-4.6-4.6-7.5s-3.3-5.6-4.5-7.6
			l-1.3-2.3C487.5,239.3,487.4,239,487.2,238.7z"/>
		<path class="st0" d="M499.8,259.4c0.4-0.1,0.7-0.1,1.1-0.1l2.8-0.1c2.4-0.1,5.7-0.3,9.4-0.5c3.7-0.3,7-0.6,9.4-0.8l2.8-0.3
			c0.3-0.1,0.7-0.1,1-0.1c-0.3,0.1-0.7,0.2-1,0.2c-0.7,0.1-1.6,0.3-2.8,0.4c-2.4,0.3-5.7,0.7-9.4,1c-3.7,0.3-7,0.4-9.4,0.4
			c-1.2,0-2.2,0-2.9,0C500.6,259.4,500.2,259.4,499.8,259.4z"/>
		<path class="st2" d="M108.1,266.5c-4.2,0.6-8,2.9-11.1,5.9c-1.6,1.6-3.2,3.6-3.5,5.8c-0.3,2.2,1.2,4.9,3.5,5.1
			c1.4,0,2.7-0.5,3.7-1.4c2.7-1.9,5.3-4.5,8.6-4.4c1.9,0.1,3.8,1,5.6,0.5c1.8-0.7,2.9-2.5,2.7-4.4c-0.3-1.8-1.2-3.5-2.7-4.7
			C113.2,267,110.7,266.2,108.1,266.5z"/>
		<g>
			<path class="st1" d="M108.1,266.5c-4.2,0.6-8,2.9-11.1,5.9c-1.6,1.6-3.2,3.6-3.5,5.8c-0.3,2.2,1.2,4.9,3.5,5.1
				c1.4,0,2.7-0.5,3.7-1.4c2.7-1.9,5.3-4.5,8.6-4.4c1.9,0.1,3.8,1,5.6,0.5c1.8-0.7,2.9-2.5,2.7-4.4c-0.3-1.8-1.2-3.5-2.7-4.7
				C113.2,267,110.7,266.2,108.1,266.5z"/>
		</g>
		<path class="st2" d="M105.6,247.8c0,4-4.3,5.7-7.2,5.3c-2.9-0.5-5.3-2.3-7.5-4.2c-5.2-4.2-10.5-8.6-13.1-14.7
			c-0.9-1.8-1.2-3.8-1-5.8c0.2-2,1.5-3.7,3.4-4.6c2.2-0.8,4.6,0.2,6.7,1.4c6.1,3.4,11.3,8.1,15.3,13.7
			C103.9,241.6,105.6,244.6,105.6,247.8"/>
		<g>
			<path class="st1" d="M105.6,247.8c0,4-4.3,5.7-7.2,5.3c-2.9-0.5-5.3-2.3-7.5-4.2c-5.2-4.2-10.5-8.6-13.1-14.7
				c-0.9-1.8-1.2-3.8-1-5.8c0.2-2,1.5-3.7,3.4-4.6c2.2-0.8,4.6,0.2,6.7,1.4c6.1,3.4,11.3,8.1,15.3,13.7
				C103.9,241.6,105.6,244.6,105.6,247.8"/>
		</g>
		<path class="st1" d="M113.6,248c-3.8-1-6.7-4.3-7.9-8c-1.1-3.8-1.1-7.8-0.1-11.5c1.1-4.5,3-8.7,5.6-12.4c1-1.5,2.3-2.8,3.8-3.8
			c1.6-1,3.5-1.1,5.2-0.3c2.4,1.2,3,4.2,3.3,6.9c0.5,4.7,0.7,9.4,0.4,14.1c-0.2,3.8-0.7,7.7-2.8,10.8c-2.1,3.1-5.2,5.1-8.1,4.2"/>
		<path class="st0" d="M134.4,288.6c-0.4-0.3-0.7-0.7-1-1.1l-2.7-3.1c-1.3-1.5-2.7-3-4.2-4.4c-1.8-1.7-3.8-3.2-5.9-4.6
			c-2.1-1.4-4.3-2.4-6.7-3.2c-1.9-0.6-4-0.8-6-0.5c-1.3,0.2-2.6,0.6-3.9,1.2c-0.4,0.3-0.9,0.5-1.4,0.7c0.4-0.3,0.8-0.6,1.2-0.9
			c1.2-0.7,2.5-1.2,3.9-1.5c2.1-0.4,4.2-0.2,6.2,0.4c2.4,0.7,4.7,1.8,6.8,3.2c2.1,1.4,4.1,2.9,5.9,4.7c1.5,1.4,2.9,2.9,4.2,4.5
			c1.1,1.4,2,2.5,2.5,3.3C133.9,287.7,134.2,288.2,134.4,288.6z"/>
		<path class="st0" d="M132.4,286.2c-0.2-0.2-0.3-0.4-0.4-0.6l-1.1-1.6c-1-1.4-2.4-3.5-4.3-6c-3.7-5-9-11.7-15.3-18.8
			C105,252.2,99,246,94.5,241.8c-1.1-1.1-2.1-2-3.1-2.8c-0.9-0.8-1.7-1.5-2.3-2.1l-1.5-1.3c-0.2-0.1-0.4-0.3-0.5-0.5
			c0.2,0.1,0.4,0.2,0.6,0.4l1.6,1.2c0.7,0.5,1.5,1.2,2.4,2s2,1.7,3.1,2.8c5.9,5.5,11.6,11.3,16.9,17.4c6.2,7.1,11.5,13.9,15.2,18.9
			c1.8,2.5,3.2,4.6,4.1,6.1l1,1.7C132.2,285.7,132.3,286,132.4,286.2z"/>
		<path class="st0" d="M122.9,272.7c-0.4-0.5-0.8-1.1-1.2-1.7c-0.7-1.1-1.7-2.8-2.7-5c-1.2-2.5-2.3-5.1-3.2-7.8
			c-1.2-3.2-2.1-6.6-2.8-10c-1.4-6.1-1.6-12.5-0.8-18.7c0.2-1.1,0.4-2.1,0.7-3.2c0.1-0.5,0.2-0.9,0.3-1.3l0.4-1
			c0.2-0.7,0.5-1.3,0.8-1.9c0.2,0.1-1.1,2.8-1.8,7.5c-0.7,6.2-0.4,12.4,0.9,18.5c0.7,3.3,1.6,6.7,2.7,9.9c0.9,2.6,1.9,5.3,3.1,7.8
			c1,2.2,1.9,3.9,2.5,5.1C122.2,271.4,122.6,272,122.9,272.7z"/>
	</g>
	<g id="freepik--Device--inject-208">
		<path class="st0" d="M146,92.2h308.6c6.7,0,12.1,5.4,12.1,12.1v195.9c0,6.7-5.4,12.1-12.1,12.1H146c-6.7,0-12.1-5.4-12.1-12.1
			V104.2C134,97.6,139.4,92.2,146,92.2z"/>
		<path class="st0" d="M120,295.9h360.5l0,0v4.5c0,8.1-6.6,14.7-14.7,14.7h-331c-8.1,0-14.7-6.6-14.7-14.7L120,295.9L120,295.9
			L120,295.9z"/>
		<rect x="142.9" y="100.9" class="st3" width="314" height="185.8"/>
		<polygon class="st3" points="267.5,295.9 272,303.1 335,303.1 339.1,295.9 		"/>
		<path class="st4" d="M152.1,107.2h296.3c1.5,0,2.7,1.2,2.7,2.7v173.5c0,1.5-1.2,2.7-2.7,2.7H152.1c-1.5,0-2.7-1.2-2.7-2.7V109.9
			C149.4,108.4,150.6,107.2,152.1,107.2z"/>
		<rect x="149.4" y="120.3" class="st5" width="301.7" height="165.8"/>
		<path class="st3" d="M174.1,114.1c0,1.3-1.1,2.4-2.4,2.4c-1.3,0-2.4-1.1-2.4-2.4c0-1.3,1.1-2.4,2.4-2.4
			C173,111.7,174.1,112.8,174.1,114.1L174.1,114.1z"/>
		<path class="st3" d="M159.5,114.1c0,1.3-1.1,2.4-2.4,2.4c-1.3,0-2.4-1.1-2.4-2.4c0-1.3,1.1-2.4,2.4-2.4
			C158.4,111.7,159.5,112.8,159.5,114.1L159.5,114.1z"/>
		<path class="st3" d="M166.5,114.1c0,1.3-1.1,2.4-2.4,2.4c-1.3,0-2.4-1.1-2.4-2.4c0-1.3,1.1-2.4,2.4-2.4c0,0,0,0,0,0
			C165.4,111.7,166.5,112.8,166.5,114.1C166.5,114.1,166.5,114.1,166.5,114.1z"/>
		<path class="st3" d="M463.9,295.9c0,0.1-73.9,0.2-164.9,0.2S134,296.1,134,295.9c0-0.1,73.8-0.2,165-0.2S463.9,295.8,463.9,295.9z
			"/>
	</g>
	<g id="freepik--Character--inject-208">
		<path class="st5" d="M206.6,232.3c-0.1-1.8,0-3.7,0.2-5.5c0.1-1.8,0.2-3.7,0.6-5.5c0.1,1.8,0,3.7-0.2,5.5
			C207.1,228.6,206.9,230.5,206.6,232.3z"/>
		<path class="st6" d="M399.9,217.6c-15.5-23.9-31.5-50.8-31.5-50.8c-14-17-25.3-23-47.3-23.9l0,0l-42.9-0.2
			c-8.4,0.5-28-3.9-46.1,22.2l-0.1-0.1c0,0-16.1,26.8-31.5,50.8c-17.3,26.8-7,54.7,11.6,56.3c18.7,1.6,30.4,2.1,36.6,2.3l-0.3,12
			l99.4-0.2l-1-13.5c10,0,37.6-0.1,41.6-0.6C406.7,269.6,417.2,244.4,399.9,217.6z M249.9,212.3l-0.6,27.9l-17.4,0.1L249.9,212.3z
			 M348.5,242.2l2.7-26.5l17.1,26.6L348.5,242.2z"/>
		<path class="st0" d="M319.3,141.6c0,0.2,0,0.4,0,0.6c0,0.6,0,1.2-0.1,1.8c-0.1,0.9-0.3,1.9-0.5,2.8c-0.3,1.2-0.8,2.4-1.3,3.5
			c-1.4,3-3.4,5.6-6,7.7c-3.1,2.5-7,4-11,4.3c-4,0.3-8.1-0.8-11.4-3c-2.7-1.9-4.9-4.4-6.4-7.3c-1-2-1.6-4.1-1.9-6.3
			c-0.1-0.6-0.1-1.2-0.1-1.8c0-0.2,0-0.4,0-0.6c0,0.2,0.1,0.4,0.1,0.6c0,0.4,0.1,1,0.2,1.8c0.4,2.1,1,4.2,2,6.2
			c1.5,2.9,3.7,5.3,6.3,7.2c3.3,2.2,7.3,3.2,11.2,2.9c4-0.2,7.7-1.7,10.8-4.2c2.5-2,4.5-4.6,5.9-7.5c1-2,1.6-4.1,1.9-6.2
			c0.1-0.6,0.2-1.2,0.2-1.8C319.3,142,319.3,141.8,319.3,141.6z"/>
		<path class="st0" d="M350.9,219.5c-0.1,0,0.3-11.5,0.9-25.6c0.6-14.1,1.2-25.5,1.3-25.5s-0.3,11.5-0.9,25.6
			C351.5,208.1,351,219.5,350.9,219.5z"/>
		<path class="st0" d="M251.9,168.4c0,0.2,0,0.3,0,0.5v1.3c0,1.1,0,2.8,0,4.8c0,4.1-0.1,9.7-0.4,15.9c-0.3,6.2-0.7,11.8-1.1,15.9
			c-0.2,2-0.3,3.7-0.5,4.8c-0.1,0.5-0.1,1-0.2,1.3c0,0.2,0,0.3-0.1,0.5c0-0.2,0-0.3,0-0.5c0-0.3,0.1-0.8,0.1-1.3
			c0.1-1.2,0.2-2.8,0.4-4.8c0.3-4,0.7-9.7,1-15.8c0.3-6.2,0.4-11.8,0.5-15.9c0-2,0.1-3.6,0.1-4.8c0-0.5,0-1,0-1.3
			C251.9,168.7,251.9,168.6,251.9,168.4z"/>
		<path class="st0" d="M342.9,271.5c0-0.2-0.1-0.4-0.1-0.6c0-0.4-0.1-0.9-0.2-1.6c-0.1-1.5-0.3-3.5-0.5-6.1c-0.4-5.2-1-12.6-1.7-21
			V242h0.2l9.8,0.2l27.7,0.5l8.4,0.2l2.3,0.1h0.6c0.1,0,0.1,0,0.2,0c-0.1,0-0.1,0-0.2,0h-0.6h-2.3l-8.4-0.1l-27.7-0.3l-9.8-0.2
			l0.2-0.2c0.6,8.4,1.1,15.7,1.5,21c0.2,2.6,0.3,4.7,0.4,6.1c0,0.7,0.1,1.2,0.1,1.6C342.9,271.1,342.9,271.3,342.9,271.5z"/>
		<path class="st0" d="M385.9,237.2c0,0.1-1.1,0-2.8,0.1c-2.2,0.1-4.4,0.5-6.6,1.2c-2.1,0.7-4.2,1.6-6.1,2.7
			c-1.5,0.9-2.3,1.5-2.4,1.5s0.2-0.2,0.6-0.5c0.5-0.4,1.1-0.8,1.7-1.2c1.9-1.2,4-2.2,6.1-2.8c2.2-0.7,4.4-1,6.7-1.1
			c0.7,0,1.4,0,2.1,0.1C385.4,237.1,385.6,237.2,385.9,237.2z"/>
		<path class="st0" d="M254.2,274.3c0-0.1,0-0.1,0-0.2c0-0.1,0-0.3,0.1-0.5c0.1-0.5,0.1-1.1,0.2-2c0.2-1.7,0.6-4.2,1-7.2
			c0.9-6.1,2.1-14.7,3.4-24.3l0.2,0.2l-5.3-0.1c-11-0.1-20.9,0.1-28.1,0.1c-3.6,0-6.5-0.1-8.5-0.1l-2.3-0.1h-0.6H214
			c0.1,0,0.1,0,0.2,0h2.9h8.5c7.2,0,17.1-0.3,28.1-0.2l5.3,0.1h0.2v0.2c-1.4,9.6-2.7,18.2-3.6,24.3c-0.5,3-0.8,5.5-1.1,7.2
			c-0.1,0.8-0.2,1.5-0.3,1.9C254.3,273.9,254.3,274.1,254.2,274.3C254.2,274.4,254.2,274.3,254.2,274.3z"/>
		<path class="st0" d="M231.5,240.5c-0.6-0.4-1.1-0.8-1.5-1.3c-0.9-0.9-2.1-2.1-3.3-3.5c-1.2-1.4-2.3-2.8-3-3.8
			c-0.4-0.5-0.8-1.1-1-1.7c0.5,0.5,0.9,1,1.3,1.6c0.8,1,1.8,2.3,3,3.7s2.4,2.7,3.2,3.6C230.6,239.5,231.1,240,231.5,240.5z"/>
		<path class="st5" d="M275.9,175.9c-1.2-1.9-2.2-3.8-3.1-5.7c-1-1.9-2-3.9-2.8-5.9c1.2,1.9,2.2,3.8,3.1,5.7
			C274.2,171.9,275.1,173.9,275.9,175.9z"/>
		<path class="st5" d="M318.5,175.3c-0.4,0.6-1,1.1-1.5,1.6c-2.6,2.4-5.4,4.5-8.5,6.2c-0.6,0.4-1.3,0.7-2,1c0.6-0.4,1.2-0.8,1.8-1.2
			c1.1-0.7,2.7-1.7,4.3-2.9s3.1-2.4,4.1-3.2C317.3,176.2,317.9,175.7,318.5,175.3z"/>
		<path class="st5" d="M338.9,171.6c-1.5-1.7-3-3.5-4.3-5.4c-1.4-1.8-2.8-3.7-4-5.6c1.5,1.7,3,3.5,4.3,5.4
			C336.4,167.8,337.7,169.7,338.9,171.6z"/>
		<path class="st5" d="M337.5,198.2c-1.4,1-2.9,1.9-4.4,2.6c-1.5,0.9-3,1.7-4.6,2.3c1.4-1,2.9-1.9,4.5-2.6
			C334.4,199.6,335.9,198.8,337.5,198.2z"/>
		<path class="st5" d="M367,200.4c-0.1-2.4-0.2-4.8,0-7.2c0-2.4,0.1-4.8,0.3-7.2c0.1,2.4,0.2,4.8,0,7.2
			C367.4,195.6,367.3,198,367,200.4z"/>
		<path class="st5" d="M379.3,221c-2.6,0.4-5.2,0.6-7.8,0.7c-4.3,0.3-7.8,0.4-7.8,0.3c2.6-0.4,5.2-0.6,7.8-0.7
			C375.8,221,379.3,220.9,379.3,221z"/>
		<path class="st5" d="M399.1,236.3c-0.4-2.5-0.6-4.9-0.7-7.4c-0.2-2.5-0.3-5-0.3-7.4c0.4,2.5,0.6,4.9,0.7,7.4
			C399,231.4,399.1,233.9,399.1,236.3z"/>
		<path class="st5" d="M390.7,255.6c-1.7,1.9-3.6,3.8-5.5,5.5c-1.8,1.8-3.8,3.6-5.8,5.2c-0.1-0.1,2.4-2.6,5.5-5.5
			S390.6,255.5,390.7,255.6z"/>
		<path class="st5" d="M357.8,261.7c-0.5-0.1-1-0.3-1.4-0.6c-2.2-1.2-4-2.9-5.4-5c-0.3-0.4-0.6-0.9-0.8-1.3c1.1,1.4,2.2,2.6,3.4,3.9
			C354.9,259.8,356.3,260.8,357.8,261.7z"/>
		<path class="st5" d="M271.4,193.1c-1.6,1.6-3.2,3.1-5,4.5c-1.7,1.5-3.4,2.9-5.2,4.2c1.6-1.6,3.2-3.1,5-4.5
			C267.8,195.8,269.6,194.4,271.4,193.1z"/>
		<path class="st5" d="M292.3,203.4c-1.7-1.9-2.7-4.3-3-6.8c0.1,0,0.5,1.6,1.4,3.5C291.5,202,292.4,203.4,292.3,203.4z"/>
		<path class="st5" d="M255.6,151.1c0.1,0.1-2.7,2.5-6.3,5.3s-6.5,5.1-6.5,5c-0.1-0.1,2.7-2.5,6.3-5.3S255.5,151.1,255.6,151.1z"/>
		<path class="st5" d="M241,190.9c-0.1,0-1-2.5-2.4-5.4c-1.4-2.9-2.9-5.2-2.8-5.2c0.4,0.4,0.8,0.9,1.1,1.4c0.8,1.2,1.5,2.4,2.1,3.7
			c0.6,1.3,1.2,2.6,1.6,3.9C240.8,189.8,241,190.3,241,190.9z"/>
		<path class="st5" d="M235,207.6c-0.6,0.3-1.2,0.6-1.9,0.8c-3.1,1.1-6.4,1.6-9.7,1.6c-0.7,0-1.4,0-2-0.1c0.7-0.1,1.4-0.1,2-0.1
			c1.6-0.1,3.3-0.2,4.9-0.5c1.6-0.3,3.2-0.6,4.8-1.1C233.7,207.9,234.4,207.7,235,207.6z"/>
		<path class="st5" d="M219.1,249.7c-2.1,1.6-4.3,3-6.5,4.3c-3.7,2.3-6.7,4.1-6.7,4c2.1-1.6,4.3-3,6.5-4.3
			C214.5,252.3,216.8,250.9,219.1,249.7z"/>
		<path class="st5" d="M239.8,265c-0.1,0-1.6-3.9-3.4-8.9c-1.8-4.9-3.1-8.9-3-9c0.1,0,1.6,3.9,3.4,8.9
			C238.5,260.9,239.9,264.9,239.8,265z"/>
		<path class="st5" d="M262,233.2c-0.9-1.6-1.8-3.2-2.5-4.8c-0.8-1.6-1.5-3.3-2.1-5c0.9,1.6,1.8,3.2,2.5,4.8
			C260.8,229.8,261.5,231.5,262,233.2z"/>
		<path class="st5" d="M346.2,219.5c-0.2,0.6-0.4,1.2-0.6,1.7c-0.4,1-1,2.5-1.6,4c-0.6,1.6-1.1,3-1.5,4.1c-0.2,0.6-0.4,1.1-0.7,1.7
			c0.1-0.6,0.2-1.2,0.4-1.8c0.3-1.1,0.8-2.5,1.4-4.1s1.2-3,1.7-4C345.6,220.5,345.9,220,346.2,219.5z"/>
		<path class="st5" d="M275.5,280.9c-0.7,0-1.4,0-2.1,0c-1.7,0-3.3,0.1-5,0.2c-1.7,0.2-3.3,0.5-4.9,0.8c-0.7,0.2-1.3,0.3-2,0.4
			c0.6-0.3,1.3-0.6,2-0.7c1.6-0.5,3.3-0.8,5-0.9c1.7-0.2,3.4-0.2,5-0.1C274.1,280.7,274.8,280.8,275.5,280.9z"/>
		<path class="st5" d="M295.9,282.4c-0.1,0.1-1.3-2.1-3.2-4.3c-2-2.2-3.9-3.7-3.8-3.8c0.5,0.2,0.9,0.5,1.3,0.9
			c1,0.8,1.9,1.7,2.8,2.7c0.9,1,1.6,2,2.3,3.1C295.5,281.4,295.7,281.9,295.9,282.4z"/>
		<path class="st5" d="M318.4,276.5c-1.5,1.1-3,2.1-4.6,3c-1.5,1-3.2,1.9-4.8,2.7c1.5-1.1,3-2.1,4.6-3
			C315.1,278.1,316.7,277.2,318.4,276.5z"/>
		<path class="st5" d="M342.3,281.3c-1.1,0.1-2.2,0-3.4-0.2c-1.1-0.1-2.2-0.2-3.3-0.5c1.1-0.1,2.2,0,3.4,0.2
			C340.1,280.9,341.2,281,342.3,281.3z"/>
		<path class="st0" d="M313.4,90c-0.4,1.8,0.7,3.6,2.5,4c0.8,0.2,1.7,0.1,2.5-0.4c2.1-1.2,2.3-4.3,1.7-6.7c-0.6-2.4-1.6-5-0.7-7.3
			c0.7-1.8,2.3-3,3.6-4.4c2.2-2.5,3.1-5.9,2.5-9.2c-0.8-3.3-3.3-5.9-6.6-6.7c-3.3-0.8-7.2,0.5-9.8-1.7c-1.9-1.6-2.1-4.4-3.6-6.3
			c-2.3-3-6.8-3.3-10.5-2.6s-7.5,2.1-11.2,1.4c-3.1-0.6-5.8-2.6-8.7-3.8c-8.6-3.3-18.2,0.9-21.5,9.5c-1.8,4.8-1.4,10.1,1.2,14.5
			c1.2,2.2,3.1,3.9,5.4,4.8"/>
		<path class="st7" d="M300.9,160.3L300.9,160.3c-10.4,0.9-19.5-6.8-20.4-17.2c-0.5-5.9-0.9-10.9-0.9-10.9s-15.1-1.3-16.4-16.2
			s-1.1-47.6-1.1-47.6v-2c16.8-8.7,37.1-5.9,52.9,4.5l0.2,3.1l3,67.2C318.3,151.1,310.8,159.4,300.9,160.3z"/>
		<path class="st0" d="M269.5,91.7c1.1-0.5,1.6-1.8,1.2-2.9c-0.2-0.6-0.7-1-1.3-1.2c-0.5-0.2-1-0.2-1.5,0c-1.1,0.5-1.6,1.8-1.2,2.9
			c0.2,0.6,0.7,1,1.3,1.2C268.4,91.9,269,91.9,269.5,91.7z"/>
		<path class="st0" d="M264.1,88.6c0.2,0.2,1.6-1,3.7-1.1c2.1-0.2,3.6,0.8,3.8,0.5c0.1-0.1-0.2-0.6-0.9-1c-1.9-1.2-4.4-1-6.1,0.5
			C264.1,88,264,88.5,264.1,88.6z"/>
		<path class="st0" d="M288.9,88.2c-1,0.7-1.2,2.1-0.5,3c0.7,1,2.1,1.2,3,0.5c1-0.7,1.2-2.1,0.5-3c0,0,0,0,0,0
			C291.3,87.7,289.9,87.5,288.9,88.2z"/>
		<path class="st0" d="M286.1,88.9c0.2,0.2,1.6-1,3.7-1.1c2.1-0.2,3.6,0.8,3.8,0.5c0.1-0.1-0.2-0.6-0.9-1c-1.9-1.2-4.4-1-6.1,0.5
			C286.1,88.3,285.9,88.8,286.1,88.9z"/>
		<path class="st0" d="M279,106.5c0-0.2-1.3-0.3-3.4-0.5c-0.5,0-1-0.1-1.1-0.4c-0.1-0.5,0-1.1,0.3-1.6l1.3-4.3
			c1.8-6.1,3.1-11.2,2.8-11.3c-0.3-0.1-2,4.8-3.9,10.9c-0.4,1.5-0.8,2.9-1.2,4.3c-0.3,0.7-0.4,1.5-0.1,2.3c0.2,0.4,0.5,0.7,1,0.8
			c0.3,0.1,0.6,0.1,0.9,0.1C277.7,106.8,279,106.7,279,106.5z"/>
		<path class="st8" d="M285.8,108.3c2.1-1.4-5.7,3.6-9.9,3.6c0,0,2.7,3.7,6.9,1.8C287.2,111.8,285.8,108.3,285.8,108.3z"/>
		<path class="st9" d="M279.5,131.9c0,0,9.5,0.1,19.1-6.9c0,0-3.9,11.1-18.9,10.8L279.5,131.9z"/>
		<path class="st7" d="M315,84c0.3-0.1,11.1-1.6,10.2,11.1s-13.5,7.6-13.5,7.2S315,84,315,84z"/>
		<path class="st9" d="M315.9,98.2c0.1,0,0.2,0.2,0.6,0.4c0.5,0.3,1.1,0.3,1.7,0.2c1.4-0.4,2.7-2.5,2.9-4.8c0.1-1.1,0-2.2-0.4-3.2
			c-0.2-0.8-0.8-1.5-1.6-1.8c-0.5-0.2-1.1,0-1.4,0.5c-0.2,0.3-0.1,0.6-0.2,0.6c-0.1,0-0.3-0.2-0.1-0.8c0.1-0.3,0.3-0.6,0.6-0.8
			c0.4-0.2,0.8-0.3,1.2-0.2c1.1,0.3,1.9,1.1,2.2,2.1c0.5,1.1,0.6,2.4,0.5,3.6c-0.3,2.6-1.8,4.9-3.6,5.3c-0.7,0.2-1.4,0-2-0.5
			C315.9,98.5,315.9,98.2,315.9,98.2z"/>
		<path class="st0" d="M294.8,80.9c-0.3,0.5-2.6-0.7-5.5-0.6s-5.2,1-5.5,0.6c-0.1-0.2,0.3-0.8,1.2-1.4c2.7-1.5,5.9-1.5,8.6,0.1
			C294.5,80,294.9,80.7,294.8,80.9z"/>
		<path class="st0" d="M271.3,81.7c-0.1,0.5-1.7,0.6-3.6,0.7c-1.9,0.1-3.5,0-3.6-0.5c-0.2-0.5,1.4-1.4,3.6-1.5
			C269.8,80.3,271.4,81.2,271.3,81.7z"/>
		<path class="st0" d="M258.9,74.7c0,0,9.2,4,20.8-2.3c7.6-4.1,16.5-6.4,18.6-4.9c2,1.5,2.8,9.4,10.5,11.5c0,0,0,15.2,6.1,14.4
			s1.4-24.2,1.4-24.2L302,59.8l-16.3-2.5L267.9,60l-9.9,6.5L258.9,74.7z"/>
		<path class="st0" d="M316.8,56.5c-1.1,0.1-2.3,0.3-3.3,0.8c-1,0.5-2,1.2-2.8,2c0,0,0.1-0.4,0.6-0.9c1.2-1.2,2.8-2,4.5-2
			C316.4,56.4,316.8,56.5,316.8,56.5z"/>
		<path class="st0" d="M310.4,50.8c0.2,0.4,0.3,0.9,0.3,1.4c0.2,1.1,0.2,2.3,0.1,3.4c-0.1,1.1-0.4,2.2-0.9,3.3
			c-0.2,0.4-0.4,0.8-0.8,1.2c0.1-0.4,0.3-0.9,0.5-1.3c0.4-1,0.6-2.1,0.8-3.2c0.1-1.1,0.1-2.2,0-3.3
			C310.4,51.7,310.4,51.2,310.4,50.8z"/>
		<path class="st3" d="M309.8,57.3c0,0.1-0.1,0.3-0.1,0.4c-0.1,0.4-0.3,0.8-0.4,1.1c-1.2,2.5-3.4,4.4-6.1,5.1
			c-1.3,0.4-2.7,0.4-4,0.1c-1.5-0.3-3-1.1-4.2-2.1c-1.3-1.2-2.3-2.7-2.8-4.4c-0.3-0.9-0.3-1.9-0.2-2.8c0.2-1,0.6-1.9,1.4-2.6
			c0.8-0.8,1.8-1.2,2.9-1.1c1.1,0.1,2.1,0.7,2.8,1.6c0.7,0.9,1,2.1,0.9,3.2c-0.1,1.2-0.6,2.3-1.3,3.2c-1.5,1.9-3.5,3.3-5.7,4.1
			c-2.3,0.9-4.9,1.2-7.4,1c-2.6-0.2-5.1-1.1-7.3-2.6c-1.1-0.8-2.1-1.8-2.7-2.9c-0.3-0.6-0.6-1.3-0.7-2c-0.1-0.7-0.1-1.4,0.1-2.1
			c0.2-0.7,0.5-1.3,0.9-1.9c0.5-0.6,1.1-1,1.7-1.2c1.4-0.4,2.9-0.1,4.1,0.8c1.2,0.8,2.1,2,2.6,3.3c0.5,1.3,0.7,2.7,0.4,4.1
			c-0.5,2.7-2.2,5.1-4.7,6.4c-2.3,1.3-5,1.7-7.6,1.3c-2.5-0.3-4.9-1.4-6.8-3c-0.9-0.8-1.7-1.8-2.2-2.9c-0.5-1.1-0.7-2.3-0.5-3.5
			c0.1-1.2,0.7-2.2,1.6-3c0.8-0.8,2-1.2,3.1-1.1c1.1,0.2,2.1,0.8,2.7,1.8c0.6,0.9,0.8,2,0.8,3c-0.1,2-1.2,3.8-2.9,4.8
			c-1.5,0.9-3.3,1.3-5.1,1.1c-1.6-0.1-3.1-0.6-4.4-1.4c-2.6-1.4-4.1-3.8-4.3-5.9c-0.2-1.6,0.3-3.2,1.3-4.5c0.3-0.3,0.6-0.6,0.9-0.8
			l0.4-0.2c-0.4,0.3-0.8,0.7-1.2,1.1c-0.9,1.3-1.4,2.8-1.2,4.4c0.2,2,1.7,4.3,4.2,5.7c1.3,0.7,2.8,1.2,4.4,1.3
			c1.7,0.2,3.4-0.2,4.9-1.1c1.6-1,2.6-2.7,2.8-4.6c0.1-1-0.2-2-0.8-2.8c-0.5-0.9-1.4-1.4-2.4-1.6c-1.1-0.1-2.1,0.3-2.9,1
			c-0.8,0.7-1.3,1.8-1.4,2.8c-0.1,1.1,0,2.3,0.5,3.3c0.5,1.1,1.2,2,2.1,2.7c1.9,1.5,4.2,2.5,6.6,2.9c2.5,0.4,5.1,0,7.4-1.2
			c2.3-1.3,4-3.5,4.5-6.1c0.2-1.3,0.1-2.7-0.4-3.9c-0.5-1.3-1.3-2.4-2.4-3.1c-1.1-0.8-2.5-1.1-3.8-0.8c-0.6,0.2-1.2,0.6-1.6,1.1
			c-0.4,0.5-0.7,1.1-0.9,1.7c-0.2,0.6-0.2,1.3-0.1,1.9c0.1,0.6,0.3,1.3,0.6,1.8c0.7,1.1,1.5,2.1,2.6,2.8c2.1,1.4,4.6,2.3,7.1,2.6
			c2.4,0.2,4.9-0.1,7.2-1c2.2-0.8,4.1-2.1,5.6-4c0.7-0.9,1.1-1.9,1.2-3c0.1-1-0.2-2.1-0.8-2.9c-0.6-0.9-1.5-1.4-2.5-1.5
			c-1,0-1.9,0.4-2.6,1.1c-0.7,0.7-1.1,1.5-1.3,2.5c-0.1,0.9-0.1,1.8,0.1,2.7c0.5,1.7,1.4,3.1,2.7,4.3c1.2,1,2.5,1.7,4,2.1
			c1.3,0.3,2.7,0.3,3.9,0c1.1-0.3,2.1-0.8,3-1.4c1.3-0.9,2.3-2.1,3-3.5c0.2-0.4,0.3-0.7,0.5-1.1C309.7,57.4,309.8,57.3,309.8,57.3z"
			/>
		<path class="st3" d="M324.6,72.2c0,0,0,0-0.1,0.1c-0.1,0.1-0.2,0.2-0.3,0.3c-0.4,0.3-0.9,0.6-1.5,0.8c-0.8,0.3-1.7,0.5-2.6,0.4
			c-1.2,0-2.3-0.4-3.3-1.1c-1.2-0.8-2.1-2-2.5-3.4c-0.3-0.8-0.4-1.6-0.2-2.4c0.1-0.4,0.3-0.8,0.7-1.1c0.4-0.3,0.9-0.4,1.4-0.2
			c0.4,0.2,0.8,0.6,1,1c0.2,0.4,0.3,0.9,0.3,1.4c0,3-2.2,5.6-5.2,6.1c-2,0.3-4-0.5-5.3-2c-0.6-0.7-0.9-1.7-0.8-2.7
			c0.1-1,0.9-1.7,1.9-1.9c0.9-0.1,1.8,0.3,2.4,1c0.5,0.6,0.8,1.4,0.8,2.3c0,1.5-0.7,2.9-1.9,3.8c-0.9,0.8-2.1,1.1-3.3,1.1
			c-0.9-0.1-1.7-0.4-2.5-0.9c-0.5-0.3-0.9-0.7-1.2-1.2c-0.1-0.2-0.2-0.3-0.3-0.5c0.4,0.6,0.9,1.1,1.6,1.5c0.7,0.5,1.6,0.7,2.4,0.8
			c1.1,0.1,2.3-0.3,3.1-1.1c1.1-0.9,1.7-2.1,1.7-3.5c0-0.8-0.2-1.5-0.7-2.1c-0.5-0.6-1.3-0.9-2-0.8c-0.8,0.2-1.4,0.8-1.5,1.6
			c-0.1,0.9,0.1,1.7,0.7,2.4c1.3,1.4,3.1,2.1,5,1.8c2.8-0.4,4.9-2.8,4.9-5.7c0-0.8-0.4-1.6-1.1-2c-0.3-0.1-0.7-0.1-1,0.1
			c-0.3,0.2-0.5,0.6-0.6,0.9c-0.2,0.7-0.1,1.5,0.2,2.2c0.4,1.3,1.3,2.5,2.4,3.3c0.9,0.7,2,1,3.2,1.1c0.9,0,1.7-0.1,2.5-0.4
			C323.4,73,324,72.7,324.6,72.2z"/>
		<polygon class="st3" points="268.6,224.2 332.2,225.3 332.9,268.6 267,266.4 		"/>
		<polyline class="st0" points="268.6,224.2 301.5,198.9 332.2,225.3 		"/>
		<path class="st0" d="M267,266.4c-0.1-0.1,5.2-5.5,11.7-12.1c6.5-6.6,11.9-11.9,12-11.9c0.1,0.1-5.1,5.5-11.7,12.1
			C272.5,261.2,267.1,266.4,267,266.4z"/>
		<path class="st0" d="M332.9,268.6c-0.1,0.1-4.9-5.5-10.8-12.4c-5.9-6.9-10.6-12.6-10.5-12.7s4.9,5.5,10.8,12.4
			C328.3,262.8,333,268.5,332.9,268.6z"/>
		<polyline class="st0" points="332.2,225.3 299.6,250 268.6,224.2 		"/>
		<polygon class="st4" points="271.7,226.7 272.1,208.2 327.8,208.2 327.9,228.4 299.6,249.7 		"/>
		<path class="st7" d="M268,239.8c0,0-1,9.6,1.4,9.6c4.1-0.1,19.7-4.1,20.8-1.1c1.1,3-4,5.8-4,5.8s5,0.9,2.5,3.5
			c-2.5,2.6-10.8,15.4-16.2,15.6c-7.7,0.4-17.7-2.2-17.7-2.2l4.1-28.2L268,239.8z"/>
		<path class="st9" d="M288,252.7c-0.2,0.2-0.4,0.3-0.7,0.5c-0.4,0.3-1.1,0.7-1.9,1.1c-4.3,2.3-8.9,4-13.7,4.9
			c-0.9,0.2-1.7,0.3-2.2,0.3c-0.3,0-0.5,0.1-0.8,0.1c0-0.1,1.1-0.3,2.9-0.7c4.7-1.1,9.3-2.7,13.6-4.8C287,253.2,288,252.6,288,252.7
			z"/>
		<path class="st9" d="M287.6,259.5c-0.2,0.2-0.3,0.4-0.5,0.6c-0.5,0.5-1.1,1-1.7,1.4c-3.9,3-8.4,5-13.3,5.7
			c-0.7,0.1-1.5,0.2-2.2,0.2c-0.3,0-0.5,0-0.8,0c0-0.1,1.1-0.2,3-0.5c4.8-0.9,9.3-2.8,13.2-5.6C286.7,260.2,287.6,259.4,287.6,259.5
			z"/>
		<path class="st7" d="M332.4,239.6c0,0,0.9,8-2.2,9.1c-3.8,1.4-19.7-4.1-20.8-1.1c-1.1,3,4,5.8,4,5.8s-5,0.9-2.5,3.5
			c2.5,2.6,10.8,15.4,16.2,15.6c5.3,0.2,10.6-0.2,15.8-1.1l-2.2-29.3L332.4,239.6z"/>
		<path class="st9" d="M311.5,252c0-0.1,1,0.5,2.7,1.3c4.3,2.2,8.9,3.8,13.6,4.8c1.8,0.4,3,0.6,2.9,0.7c-0.3,0-0.5,0-0.8-0.1
			c-0.5-0.1-1.3-0.2-2.2-0.3c-4.8-0.9-9.4-2.5-13.7-4.9c-0.8-0.4-1.5-0.8-1.9-1.1C312,252.3,311.7,252.2,311.5,252z"/>
		<path class="st9" d="M312.4,258.8c0-0.1,0.9,0.7,2.3,1.8c1.9,1.4,3.9,2.6,6.1,3.6c2.2,1,4.4,1.6,6.7,2.1c1.8,0.3,2.9,0.4,2.9,0.5
			c-0.3,0-0.5,0-0.8,0c-0.7,0-1.4-0.1-2.2-0.2c-2.4-0.4-4.7-1-6.9-2c-2.2-1-4.2-2.2-6.1-3.7c-0.7-0.6-1.3-1.1-1.6-1.4
			C312.8,259.2,312.6,259,312.4,258.8z"/>
		<g>
			<path class="st0" d="M279.9,225.8c0,0.1-0.1,0.1-0.2,0c-0.1-0.2-0.3-0.5-0.1-1c0.3-1,1.3-3,2.2-4.4c-0.4,0-0.6-0.2-0.7-0.4
				c-0.1-0.1,0-0.2,0.1-0.2c0.9-0.1,1.7-0.5,2.4-0.6c0.5,0,1,0.1,1.3,0.9c0.2,0.6,0.1,1.3-0.3,1.8c-0.6,0.8-1.7,1.4-2.9,1.7
				c0.4,0.5,0.8,1,1,1.5c0.1,0.3,0.2,0.6,0.1,0.9c-0.1,0.1-0.1,0.1-0.2,0c-0.7-1-1.2-1.6-1.7-2.2C280.5,224.3,280.2,225,279.9,225.8
				z M282,221.5c-0.3,0.5-0.6,1-0.8,1.5c2.3-0.5,3.5-2.1,3.2-2.8c-0.2-0.6-1.3,0-2,0.1C282.4,220.6,282.3,221,282,221.5z"/>
			<path class="st0" d="M285.9,219.7c0-0.1,0-0.1,0.1-0.1c0.9,0.1,2-0.3,2.6-0.3c0.4,0,0.7,0.2,0.8,0.5c0,0.1,0,0.2-0.1,0.1
				c-0.8,0-1.5,0.2-2.2,0.3c-0.4,0.6-0.9,1.6-1.5,2.5c0.3-0.1,0.6-0.1,0.8-0.1c0.5,0,0.8,0.1,0.9,0.5c0,0.1,0,0.2-0.1,0.2
				c-0.6,0-1.4,0.1-2,0.3c-0.3,0.6-0.6,1.2-0.8,1.7c0.5-0.2,1.2-0.3,1.6-0.3c0.5,0,0.8,0.1,0.9,0.5c0,0.1,0,0.2-0.1,0.2
				c-0.6,0-1.7,0.3-2.3,0.4c-0.2,0.1-0.3,0.1-0.4-0.1c-0.1-0.1-0.1-0.3-0.2-0.4c-0.1-0.2-0.1-0.3,0-0.6c0.5-1.3,1.5-3.3,2.4-4.7
				C286.1,220.1,286,219.9,285.9,219.7z"/>
			<path class="st0" d="M289.8,219.7c0-0.1,0-0.1,0.1-0.1c0.9,0,2-0.3,2.6-0.3c0.5,0,0.7,0.2,0.9,0.5c0,0.1,0,0.2-0.1,0.2
				c-0.8,0-1.5,0.2-2.2,0.3c-0.4,0.6-0.9,1.5-1.4,2.4c0.3-0.1,0.5-0.1,0.7-0.1c0.5,0,0.8,0.2,0.9,0.5c0,0.1,0,0.2-0.1,0.2
				c-0.5,0-1.3,0.1-1.9,0.3c-0.4,0.8-0.8,1.6-1.1,2.3c0,0.1-0.1,0.1-0.2,0c-0.2-0.2-0.3-0.5-0.1-1.2c0.3-0.9,1.4-3,2.4-4.5
				C290,220.1,289.9,219.9,289.8,219.7z"/>
			<path class="st0" d="M293.7,219.7c0-0.1,0-0.1,0.1-0.1c0.9,0.1,2-0.3,2.6-0.3c0.4,0,0.7,0.2,0.8,0.5c0,0.1,0,0.2-0.1,0.1
				c-0.8,0-1.5,0.2-2.2,0.3c-0.4,0.6-0.9,1.6-1.5,2.5c0.3-0.1,0.6-0.1,0.8-0.1c0.5,0,0.8,0.1,0.9,0.5c0,0.1,0,0.2-0.1,0.2
				c-0.6,0-1.4,0.1-2,0.3c-0.3,0.6-0.6,1.2-0.8,1.7c0.5-0.2,1.2-0.3,1.6-0.3c0.5,0,0.8,0.1,0.9,0.5c0,0.1,0,0.2-0.1,0.2
				c-0.6,0-1.7,0.3-2.3,0.4c-0.2,0.1-0.3,0.1-0.4-0.1c-0.1-0.1-0.1-0.3-0.2-0.4c-0.1-0.2-0.1-0.3,0-0.6c0.5-1.3,1.5-3.3,2.4-4.7
				C293.9,220.1,293.7,219.9,293.7,219.7z"/>
			<path class="st0" d="M296.2,225.8c0,0.1-0.1,0.1-0.2,0c-0.1-0.2-0.3-0.5-0.1-1c0.3-1,1.3-3,2.2-4.4c-0.4,0-0.6-0.2-0.7-0.4
				c-0.1-0.1,0-0.2,0.1-0.2c0.9-0.1,1.7-0.5,2.4-0.6c0.5,0,1,0.1,1.3,0.9c0.2,0.6,0.1,1.3-0.3,1.8c-0.6,0.8-1.7,1.4-2.9,1.7
				c0.4,0.5,0.8,1,1,1.5c0.1,0.3,0.2,0.6,0.1,0.9c-0.1,0.1-0.1,0.1-0.2,0c-0.7-1-1.3-1.6-1.7-2.2C296.9,224.3,296.6,225,296.2,225.8
				z M298.4,221.5c-0.3,0.5-0.6,1-0.8,1.5c2.3-0.5,3.5-2.1,3.2-2.8c-0.2-0.6-1.3,0-2,0.1C298.8,220.6,298.7,221,298.4,221.5z"/>
			<path class="st0" d="M300.7,225.8c0,0.1-0.1,0.1-0.2,0c-0.1-0.2-0.3-0.5-0.1-1c0.3-1,1.3-3,2.2-4.4c-0.4,0-0.6-0.2-0.7-0.4
				c-0.1-0.1,0-0.2,0.1-0.2c0.9-0.1,1.7-0.5,2.4-0.6c0.5,0,1,0.1,1.3,0.9c0.2,0.6,0.1,1.3-0.3,1.8c-0.6,0.8-1.7,1.4-2.9,1.7
				c0.4,0.5,0.8,1,1,1.5c0.1,0.3,0.2,0.6,0.1,0.9c-0.1,0.1-0.1,0.1-0.2,0c-0.7-1-1.2-1.6-1.7-2.2C301.3,224.3,301,225,300.7,225.8z
				 M302.8,221.5c-0.3,0.5-0.6,1-0.8,1.5c2.3-0.5,3.5-2.1,3.2-2.8c-0.2-0.6-1.3,0-2,0.1C303.3,220.6,303.1,221,302.8,221.5z"/>
			<path class="st0" d="M305.4,224.3c-0.3,0.5-0.6,1.1-0.8,1.5c0,0.1-0.1,0.1-0.2,0c-0.1-0.2-0.2-0.5,0.1-1.1
				c0.1-0.2,0.2-0.4,0.3-0.6c-0.2-0.1-0.3-0.3-0.4-0.4c-0.1-0.1,0-0.2,0.1-0.2c0.1,0,0.3,0,0.5,0.1c0.8-1.4,2.3-3.5,3.4-4.5
				c0.2-0.1,0.3-0.1,0.4,0c0.1,0.1,0.1,0.2,0.2,0.4c0.1,0.3,0.1,0.5,0,0.8c-0.3,0.8-0.6,1.9-0.8,3.1c0.3,0.1,0.4,0.3,0.5,0.5
				c0,0.1,0,0.1-0.1,0.1c-0.1,0-0.3-0.1-0.5-0.1c-0.1,0.6-0.1,1.1-0.2,1.7c0,0.1-0.1,0.1-0.2,0.1c-0.2-0.1-0.4-0.4-0.4-1
				c0-0.2,0-0.5,0-0.8C306.8,224.2,305.9,224.3,305.4,224.3z M307.6,223.5c0.2-1.1,0.5-2.4,0.8-3.3c-0.8,0.9-1.8,2.2-2.6,3.4
				C306.5,223.6,307.1,223.5,307.6,223.5z"/>
			<path class="st0" d="M311.1,224.9c0.5,0,0.8,0.2,0.9,0.5c0,0.1,0,0.2-0.1,0.2c-0.5,0-1.7,0.3-2.3,0.4c-0.3,0.1-0.4,0.1-0.5-0.1
				c-0.1-0.1-0.2-0.3-0.3-0.5c-0.1-0.2-0.1-0.3,0-0.6c0.5-1.3,2.3-4.5,2.9-5.4c0.1-0.1,0.2-0.1,0.3,0c0.1,0.3,0.2,0.7-0.3,1.5
				c-0.6,1-1.5,2.6-2.3,4.3C310.1,225.1,310.7,225,311.1,224.9z"/>
			<path class="st0" d="M313.1,224.6c0.4,0.3,1.1,0.9,1.8,0.9c0.3,0,0.5-0.1,0.7-0.2c0.2-0.2,0.1-0.4,0-0.6
				c-0.6-0.5-2.2-1.1-2.2-2.2c0-1.5,1.6-2.7,2.6-3.1c0.5-0.2,1-0.3,1.4,0c0.3,0.2,0.5,0.6,0.5,0.9c0.1,0.4-0.1,0.8-0.3,1.1
				c-0.3,0.4-0.6,0.9-0.7,1.2c-0.1,0.1-0.1,0.1-0.2,0c-0.2-0.2-0.3-0.5-0.1-1c0.2-0.5,1-1.4,0.8-1.7c-0.4-0.4-3,1.2-3,2.6
				c0,0.7,1.3,1.2,1.9,1.7c0.4,0.3,0.3,0.8-0.1,1.3c-0.6,0.7-2.5,0.9-4-0.9c-0.1-0.1-0.1-0.2,0-0.2
				C312.3,224.3,312.8,224.4,313.1,224.6z"/>
		</g>
	</g>
	<g id="freepik--Sparkles--inject-208">
		<path class="st3" d="M168.3,186.3c-2.6,0.3-5.1,0.3-7.7,0C163.2,186,165.8,186,168.3,186.3L168.3,186.3z"/>
		<path class="st3" d="M172.4,174c0.3,3,0.3,6.1,0,9.1C172.1,180.1,172.1,177.1,172.4,174z"/>
		<path class="st3" d="M176.7,186c2.6-0.3,5.1-0.3,7.7,0C181.9,186.3,179.3,186.3,176.7,186z"/>
		<path class="st3" d="M172.7,198.2c-0.3-3-0.3-6.1,0-9.1C173,192.1,173,195.2,172.7,198.2z"/>
		<path class="st3" d="M178.9,193c-0.1,0.1-0.8-0.7-1.6-1.8c-0.5-0.6-0.9-1.3-1.2-2.1c0.1-0.1,0.8,0.7,1.6,1.8
			C178.2,191.5,178.6,192.2,178.9,193z"/>
		<path class="st3" d="M178.5,179.1c0.1,0.1-0.5,0.9-1.2,1.8s-1.5,1.6-1.6,1.5c-0.1-0.1,0.5-0.9,1.2-1.8
			C177.7,179.7,178.4,179,178.5,179.1z"/>
		<path class="st3" d="M169.7,182.6c-0.1,0.1-0.8-0.4-1.5-1.2c-0.8-0.7-1.3-1.4-1.2-1.5c0.1-0.1,0.8,0.4,1.5,1.2
			S169.8,182.5,169.7,182.6z"/>
		<path class="st3" d="M169.4,188.7c0.1,0.1-0.4,0.9-1.1,1.8c-0.7,0.9-1.4,1.6-1.5,1.5c0.2-0.7,0.6-1.3,1.1-1.8
			C168.6,189.3,169.3,188.7,169.4,188.7z"/>
		<path class="st3" d="M418.5,142.7c-1.7,0.3-3.4,0.3-5.2,0C415.1,142.4,416.8,142.4,418.5,142.7z"/>
		<path class="st3" d="M421.3,135.7c0.3,1.7,0.3,3.5,0,5.2C421,139.2,421,137.5,421.3,135.7z"/>
		<path class="st3" d="M424.2,142.6c1.7-0.3,3.5-0.3,5.2,0C427.6,142.9,425.9,142.9,424.2,142.6z"/>
		<path class="st3" d="M421.5,149.6c-0.3-1.7-0.3-3.5,0-5.2C421.8,146.1,421.8,147.8,421.5,149.6z"/>
		<path class="st3" d="M425.6,146.6c-0.1,0.1-0.6-0.3-1.1-1s-0.8-1.2-0.7-1.2c0.1-0.1,0.6,0.3,1.1,0.9S425.7,146.5,425.6,146.6z"/>
		<path class="st3" d="M425.4,138.6c0.1,0.1-0.3,0.6-0.8,1.1c-0.5,0.5-1,0.9-1.1,0.8c-0.1-0.1,0.3-0.6,0.8-1.1
			C424.8,138.9,425.3,138.5,425.4,138.6z"/>
		<path class="st3" d="M419.5,140.6c-0.1,0.1-0.6-0.2-1-0.6c-0.5-0.4-0.8-0.8-0.8-0.9c0.1-0.1,0.6,0.2,1.1,0.6
			C419.2,140.1,419.6,140.6,419.5,140.6z"/>
		<path class="st3" d="M419.2,144.1c0.1,0.1-0.2,0.6-0.7,1.1c-0.5,0.5-0.9,0.9-1,0.8c-0.1-0.1,0.2-0.6,0.7-1.1
			C418.7,144.4,419.2,144.1,419.2,144.1z"/>
		<path class="st3" d="M455,136.7l0.2,0.6c0.4,1.1,1.3,1.9,2.4,2.3l0.7,0.3l-0.6,0.3c-1.1,0.4-1.9,1.3-2.4,2.4L455,143l-0.3-0.6
			c-0.5-1-1.4-1.8-2.4-2.2l-0.6-0.2l0.8-0.4c0.9-0.5,1.7-1.2,2.1-2.2L455,136.7z"/>
		<path class="st3" d="M207.1,147.9l0.2,0.6c0.4,1.1,1.3,1.9,2.4,2.3l0.7,0.3l-0.6,0.3c-1.1,0.4-1.9,1.3-2.4,2.4l-0.2,0.4l-0.3-0.6
			c-0.5-1-1.4-1.8-2.4-2.2l-0.6-0.2l0.8-0.4c0.9-0.5,1.7-1.3,2.1-2.2L207.1,147.9z"/>
		<path class="st3" d="M175.7,232.9l0.1,0.3c0.2,0.5,0.6,1,1.2,1.2l0.3,0.1l-0.3,0.1c-0.5,0.2-1,0.6-1.2,1.2l-0.1,0.2l-0.1-0.3
			c-0.2-0.5-0.7-0.9-1.2-1.1l-0.3-0.1l0.4-0.2c0.5-0.2,0.8-0.6,1-1.1L175.7,232.9z"/>
		<path class="st3" d="M391,110.4l0.2,0.6c0.4,1.1,1.3,1.9,2.4,2.3l0.7,0.3l-0.6,0.3c-1.1,0.4-1.9,1.3-2.4,2.4l-0.2,0.4l-0.3-0.6
			c-0.5-1-1.4-1.8-2.4-2.2l-0.6-0.2l0.8-0.4c0.9-0.5,1.7-1.3,2.1-2.2L391,110.4z"/>
	</g>
</g>
</svg>
