<?xml version="1.0" encoding="utf-8"?>
<!-- Generator: Adobe Illustrator 24.2.3, SVG Export Plug-In . SVG Version: 6.00 Build 0)  -->
<svg version="1.1" id="Layer_1" xmlns="http://www.w3.org/2000/svg" xmlns:xlink="http://www.w3.org/1999/xlink" x="0px" y="0px"
	 viewBox="0 0 529.7 327.9" style="enable-background:new 0 0 529.7 327.9;" xml:space="preserve">
<style type="text/css">
	.st0{fill:#1AECCF;}
	.st1{fill:#263238;}
	.st2{fill:#455A64;}
	.st3{fill:#FAFAFA;}
	.st4{fill:#EBEBEB;}
	.st5{fill:#20BCA1;}
	.st6{opacity:0.5;}
	.st7{fill:#FFBE9D;}
	.st8{fill:#13A4D1;}
	.st9{opacity:0.3;}
	.st10{opacity:0.2;}
	.st11{opacity:0.6;}
	.st12{fill:#FFFFFF;}
	.st13{fill:#EB996E;}
</style>
<g>
	<g id="freepik--Plant--inject-171">
		<g>
			<path class="st0" d="M450.8,223.7c-3.2-2-6.9-3.3-10.7-3.7c-1.8-0.2-3.7-0.1-5.1,0.9c-0.3,0.2-0.5,0.5-0.5,0.9
				c0.1,0.3,0.3,0.5,0.5,0.6C439.6,225.8,445.7,226.2,450.8,223.7"/>
			<path class="st0" d="M450.5,223.4c-2.5-1.8-4.8-3.9-6.9-6.1c-2.1-2.2-3.6-5-4.3-8c-0.3-0.9-0.2-1.9,0.3-2.7
				C445.1,210.8,449.5,216.4,450.5,223.4"/>
			<path class="st0" d="M450.8,223.6c-0.5-3-0.5-6.1,0.1-9.1c0.6-3,2.3-5.7,4.9-7.5c1,2.2,0.5,4.8-0.1,7.1c-1,3.6-2.7,7-4.8,10.1"/>
			<path class="st0" d="M456.2,233.4c-3.3,0.4-6.2,2.1-8.6,4.4c-2.5,2.2-4.2,5.2-4.9,8.5c3.2-0.2,6-2.5,7.9-5
				C452.5,238.6,453.9,235.8,456.2,233.4"/>
			<path class="st0" d="M457.3,234.9c-2.6-6.7-1.7-14.2,2.5-20.1C461.7,221.5,461,229,457.3,234.9"/>
			<path class="st0" d="M464.5,243.4c-6.1-0.4-11.9,3-14.7,8.5c-0.2,0.3-0.3,0.8-0.1,1.1c0.3,0.2,0.6,0.4,1,0.3
				c2.9-0.2,5.5-1.9,7.6-3.9C460.4,247.4,462.2,245.1,464.5,243.4"/>
			<path class="st0" d="M464.3,243c-1.5-5-1.6-10.3-0.3-15.3c0.5-2,1.4-4,3.3-5c0.1-0.1,0.3-0.1,0.5-0.1c0.1,0.1,0.3,0.2,0.3,0.4
				c0.6,1.4,0.9,2.9,0.8,4.4c-0.1,1.5-0.3,3-0.7,4.4c-0.6,2.7-0.9,5.6-2.4,8c-0.4,0.6-0.7,1.1-0.9,1.8c-0.3,0.6-0.3,0.8-0.5,1.3"/>
			<path class="st0" d="M483.2,245.8c-1.4-5.3,0.1-11.8,3.5-16.2c0.2-0.3,0.6-0.7,1-0.6c0.6,0.1,0.8,0.9,0.8,1.5
				C488.2,236,486.4,241.3,483.2,245.8"/>
			<path class="st0" d="M485,246.9c6.7,1.6,13.8,0.1,19.3-4c-3.2-1.6-6.9-2.1-10.5-1.3C490.3,242.5,487.1,244.1,485,246.9"/>
			<path class="st0" d="M486.4,243.4c3.6-5.9,10.6-9.8,17.6-10.1c-0.8,2.8-3.1,5-5.7,6.3c-2.7,1.2-5.5,2.1-8.4,2.5
				C488.7,242.3,487.1,242.5,486.4,243.4"/>
			<path class="st0" d="M483.6,226.1c1.1-3.3,1.9-6.8,2.2-10.3c0.4-3.5-0.3-7.1-2.1-10.2c-3.4,6.6-3.7,14.3-0.3,20.8"/>
			<path class="st0" d="M495,220.3c4-7.2,12.1-13,20.3-13.8C512.1,214.4,503.5,220.5,495,220.3"/>
			<path class="st0" d="M492.5,221.8c5.9,0.9,11,4.7,16.5,7c1.2,0.6,2.4,0.8,3.7,0.7c1.6,0,2.9-1.3,2.9-2.9c0-0.9-0.4-1.7-1.1-2.2
				c-0.8-0.7-1.7-1.3-2.7-1.6c-6-2.5-12.5-2.6-18.8-1.1"/>
			<path class="st0" d="M489.1,225.9c1.3,0.4,1.8,1.1,2.9,2c3.6,3.1,7.9,5.3,12.5,6.4c0.5,0.1,1.1,0.2,1.3-0.3
				c0.2-0.4-0.1-0.8-0.3-1.2c-2-2.4-4.6-4.1-7.6-5.1c-2.9-1.1-5.4-2.4-8.8-2.1"/>
			<path class="st0" d="M485.3,200.9c4.9,4.5,11.5,6.8,18.2,6.2c0.3,0,0.6-0.1,0.8-0.3c0.5-0.5-0.1-1.3-0.6-1.7
				C498.3,200.9,491.8,199.2,485.3,200.9"/>
			<path class="st0" d="M489.8,199.1c6.5-4.8,14.9-6.2,22.7-3.7c-3,2.8-6.8,4.4-10.8,4.8C497.7,200.5,493.7,200.2,489.8,199.1"/>
			<path class="st0" d="M488,187.6c-0.5-5.3-0.2-9.5-0.6-14.9c0-0.4-0.1-0.9-0.5-1.1c-0.6-0.2-1,0.5-1.2,1c-1.6,5-0.7,10.5,2.3,14.8
				"/>
			<path class="st0" d="M487.7,188.2c3.5-2.2,6.5-5.2,8.8-8.6c1.7-2.4,3.2-5.2,2.8-8.2c-2.5,0.1-4.8,1.2-6.3,3.2
				c-1.5,1.9-2.6,4.1-3.2,6.5C489,183.5,488.5,185.9,487.7,188.2"/>
			<path class="st0" d="M496.3,185.8c7.9-2.9,15.3-7.3,21.7-12.8c-2.6-1-5.6-0.4-8.2,0.6c-5.9,2.2-10.8,6.5-13.7,12.1"/>
			<path class="st0" d="M490,191.1c4,0.6,8.1,0.6,12.1,0.1c3.9-0.7,7.6-2.2,11.3-3.7c0.3-0.1,0.6-0.3,0.8-0.6c0.1-0.3,0-0.7-0.3-1
				c-0.3-0.2-0.6-0.4-1-0.5c-4-1.1-8.3-0.6-12.2,0.7C497,187.4,493.4,189.1,490,191.1"/>
			<path class="st0" d="M467.2,201c-2.7-5.6-2.6-12-0.2-17.7c1.7,2.5,1.9,5.8,1.6,8.8c-0.3,3-1.2,6.1-1.3,9.2"/>
			<path class="st0" d="M456.2,195.5c-6.9-0.1-13.6,2.7-18.3,7.8c3.5,0.4,6.9-0.2,10-1.9c3.1-1.6,5.9-3.5,8.6-5.7"/>
			<path class="st0" d="M448.9,193c-3.3-0.3-6.6-0.7-9.8,0.3c-3.3,0.9-6,3.2-7.4,6.3c3.2,0.3,6.3-0.3,9.2-1.7
				C443.6,196.6,446.3,194.9,448.9,193"/>
			<path class="st0" d="M459.8,193.1c-3-2-6.1-4-9.6-4.8c-3.5-0.8-7.6-0.2-10,2.4c2.8,1.7,6.3,1.9,9.5,1.9s7.3,0,10.4,1.1"/>
			<path class="st0" d="M459.8,193.3c-5.1-5.1-7.1-14.1-5-21C458.8,178.5,460.6,185.9,459.8,193.3"/>
			<path class="st0" d="M473.9,179c1-2.3,1.6-4.6,2.5-6.9c0.8-2.3,2-4.5,3.6-6.3c1.6-1.9,3.9-3.1,6.3-3.3c-1.6,7-6.1,13.1-12.4,16.7
				"/>
			<path class="st0" d="M471.4,182c-1.6-2.2-3.5-5.2-5.6-6.9c-2.2-1.6-5-2.6-7.7-2C460.8,178,465.8,181.3,471.4,182"/>
			<path class="st0" d="M471.9,179.2c-1.2-2.6-2-5.4-2.5-8.2c-0.5-2.8-0.1-5.8,1.3-8.3c2.8,5.3,3.7,11.1,1.4,16.7"/>
			<path class="st0" d="M473.9,162.6c1.6-5.3,6.4-9.2,11.7-11c0.6-0.3,1.3-0.4,2-0.3c0.7,0.1,1.3,0.6,1.5,1.3
				c0.2,0.9-0.5,1.7-1.3,2.3C483.8,158.4,479.1,161,473.9,162.6"/>
			<path class="st0" d="M474,158.3c0.2-3.4,0.4-6.9,1.5-10.1c1.1-3.2,3.3-6.3,6.3-7.7c0.5,3.4-1,6.9-2.8,9.8c-1.8,3-4,5.8-5.1,9.1"
				/>
			<path class="st0" d="M473.9,160.7c-1.3-3.9-1.5-8.7-3.8-12.1c-1.6-2.4-4.2-4-5.6-6.4c-0.8,2.4-0.7,5,0.3,7.3
				c1.1,2.3,2.5,4.3,4.3,6.1C470.9,157.3,472.4,158.7,473.9,160.7"/>
		</g>
		<path class="st1" d="M473.9,274.1c-0.1,0-0.2-25.7-0.2-57.4s0.1-57.4,0.2-57.4c0.1,0,0.2,25.7,0.2,57.4S474,274.1,473.9,274.1z"/>
		<path class="st1" d="M496.4,197.1c-0.3,0.1-0.6,0.3-1,0.4l-2.7,0.9c-2.2,0.8-5.3,1.9-8.7,3.2c-3.3,1.4-6.4,2.6-8.2,4.1
			c-0.7,0.6-1.3,1.3-1.6,2.2c-0.3,0.6-0.3,1-0.3,1s0-0.1,0-0.3c0-0.3,0.1-0.5,0.2-0.7c0.3-0.9,0.9-1.7,1.6-2.3
			c1.1-0.9,2.3-1.7,3.6-2.2c1.4-0.7,3-1.4,4.7-2c3.4-1.4,6.5-2.4,8.7-3.2c1.1-0.3,2.1-0.6,2.7-0.8
			C495.7,197.2,496,197.2,496.4,197.1z"/>
		<path class="st1" d="M503.8,179c-0.1,0.1-0.2,0.2-0.3,0.3l-0.8,0.8l-3.1,2.8l-10.3,9.1c-4,3.6-7.5,7-9.8,9.5
			c-1.2,1.3-2.1,2.3-2.8,3.1l-0.7,0.9c-0.1,0.1-0.2,0.2-0.3,0.3c0,0,0.1-0.1,0.2-0.3c0.2-0.2,0.4-0.5,0.7-0.9
			c0.6-0.8,1.5-1.9,2.7-3.2c3.1-3.4,6.4-6.6,9.8-9.6c4-3.6,7.7-6.7,10.3-9l3.2-2.7c0.3-0.3,0.6-0.5,0.9-0.7
			C503.6,179.2,503.7,179.1,503.8,179z"/>
		<path class="st1" d="M485,195.6c-0.1,0,0.7-2,1.6-4.4c0.9-2.4,1.2-4.5,1.3-4.5c-0.1,1.6-0.4,3.1-1,4.6c-0.4,1.1-0.8,2.1-1.2,3.1
			C485.5,194.9,485.3,195.3,485,195.6z"/>
		<path class="st1" d="M474,211.2c-0.2-0.2-0.4-0.5-0.6-0.7l-1.6-2c-1.3-1.7-3.2-4.1-5.2-6.7c-2-2.6-4-4.9-5.3-6.6l-1.6-2
			c-0.2-0.2-0.4-0.5-0.6-0.8c0.2,0.2,0.5,0.4,0.7,0.7c0.4,0.4,1,1.1,1.7,1.9c1.4,1.6,3.3,4,5.4,6.5c2.1,2.6,3.9,5,5.1,6.7
			c0.6,0.9,1.1,1.6,1.5,2.1C473.7,210.6,473.8,210.9,474,211.2z"/>
		<path class="st1" d="M469,204.9c-1-1.1-1.7-2.4-2.1-3.9c-0.4-1.3-0.5-2.6-0.5-3.9h0.2c-0.1,0.3-0.1,0.5-0.2,0.4s0-0.2,0-0.5h0.2
			c0.1,1.3,0.3,2.6,0.7,3.8C467.8,202.3,468.4,203.6,469,204.9z"/>
		<path class="st1" d="M462.7,196.9c-0.4-0.3-0.9-0.6-1.4-0.8c-1.3-0.4-2.6-0.5-4-0.3c-1.4,0.1-2.7,0.3-4,0.7
			c-0.5,0.2-1.1,0.3-1.7,0.4c0.5-0.3,1-0.5,1.6-0.7c1.3-0.4,2.7-0.7,4.1-0.8c1.4-0.2,2.8,0,4.1,0.4
			C461.9,196,462.4,196.4,462.7,196.9z"/>
		<path class="st1" d="M461.2,194.9c0,0.1-0.8-0.3-2.2-0.8c-3.6-1.2-7.4-1.5-11.1-0.8c-1.4,0.3-2.3,0.5-2.3,0.5
			c0.2-0.1,0.4-0.2,0.6-0.3c0.5-0.2,1.1-0.3,1.7-0.5c3.8-0.8,7.7-0.5,11.3,0.9c0.5,0.2,1.1,0.4,1.6,0.7
			C460.8,194.7,461,194.8,461.2,194.9z"/>
		<path class="st1" d="M473.9,186.7c-0.7-1.8-1.2-3.7-1.6-5.6c-0.5-1.9-1-3.8-1.3-5.7c0.6,1.8,1.2,3.7,1.6,5.6
			C473.2,182.9,473.6,184.8,473.9,186.7z"/>
		<path class="st1" d="M474,186.7c-0.5-1.2-1.1-2.3-1.8-3.3c-0.8-1-1.6-1.9-2.6-2.7c0.4,0.1,0.7,0.3,1,0.5c0.7,0.5,1.4,1.2,1.9,2
			C473.3,184.2,473.8,185.5,474,186.7z"/>
		<path class="st1" d="M473.9,260.4c0,0-0.1-0.6-0.4-1.7c-0.4-1.5-1-3-1.7-4.5c-2.5-4.7-5.5-9-9.1-12.8c-2-2.3-4-4.5-5.7-6.6
			c-1.5-1.8-2.9-3.8-4.1-5.9c-0.8-1.4-1.5-2.8-2.1-4.3c-0.2-0.5-0.3-1-0.4-1.2c-0.1-0.1-0.1-0.3-0.1-0.4c0,0,0.2,0.6,0.6,1.6
			c0.6,1.5,1.3,2.9,2.1,4.3c1.2,2,2.6,4,4.1,5.8c1.7,2.1,3.7,4.3,5.7,6.6c4.1,4.6,7.3,9.3,9.1,13c0.7,1.4,1.2,3,1.6,4.5
			c0.1,0.4,0.2,0.9,0.2,1.3C473.9,260.1,473.9,260.3,473.9,260.4z"/>
		<path class="st1" d="M494.2,237.5c-0.3,0.2-0.7,0.4-1,0.6c-1,0.5-1.9,1.2-2.8,1.8c-1.3,1-2.5,2.1-3.6,3.3
			c-1.3,1.3-2.6,2.9-3.9,4.6c-2.7,3.4-5.2,6.3-6.7,8.7c-0.8,1.2-1.3,2.2-1.7,2.9c-0.2,0.4-0.4,0.7-0.6,1.1c0,0,0-0.1,0.1-0.3
			s0.2-0.5,0.4-0.8c0.5-1,1-2,1.6-2.9c2-3.1,4.2-6,6.6-8.8c1.3-1.7,2.7-3.2,4-4.6c1.1-1.2,2.4-2.3,3.7-3.3c0.9-0.7,1.9-1.2,2.8-1.7
			c0.4-0.2,0.6-0.3,0.8-0.4C494.1,237.6,494.2,237.5,494.2,237.5z"/>
		<path class="st1" d="M494.6,244.9c-0.7,0.2-1.5,0.3-2.2,0.3c-1.8,0.2-3.6,0.5-5.3,1.1c-1.7,0.6-3.3,1.4-4.8,2.5
			c-1.1,0.8-1.6,1.6-1.7,1.5c0.1-0.2,0.2-0.4,0.3-0.5c0.3-0.4,0.7-0.8,1.2-1.2c1.4-1.2,3.1-2.1,4.8-2.7c1.8-0.5,3.6-0.9,5.4-1
			C493.2,244.9,493.9,244.9,494.6,244.9z"/>
		<path class="st1" d="M481.3,249.5c-0.1-0.1,0.9-1.6,1.7-3.7c0.8-2.1,0.9-4,1-3.9c0.1,0.4,0.1,0.8,0,1.2c-0.1,1-0.3,1.9-0.7,2.8
			c-0.3,0.9-0.8,1.8-1.3,2.6C481.6,249.2,481.3,249.5,481.3,249.5z"/>
		<path class="st1" d="M500.8,217.5c-0.1,0.1-0.2,0.1-0.4,0.2l-1.1,0.5c-0.5,0.2-1,0.5-1.7,0.8c-0.6,0.3-1.4,0.7-2.1,1.1l-1.2,0.7
			c-0.4,0.2-0.8,0.5-1.3,0.8c-0.9,0.6-1.8,1.2-2.8,1.9c-2.1,1.6-4,3.3-5.8,5.1c-1.8,1.9-3.4,3.9-4.9,6c-0.7,1-1.3,1.9-1.8,2.8
			c-0.3,0.5-0.5,0.9-0.8,1.3c-0.3,0.4-0.4,0.9-0.7,1.3c-0.4,0.8-0.7,1.5-1.1,2.2s-0.5,1.2-0.7,1.7c-0.2,0.5-0.3,0.8-0.4,1.1
			c0,0.1-0.1,0.3-0.2,0.4c0-0.1,0.1-0.3,0.1-0.4c0.1-0.3,0.2-0.7,0.4-1.1s0.4-1.1,0.7-1.7s0.6-1.4,1-2.2l0.6-1.3
			c0.2-0.4,0.5-0.9,0.8-1.3c0.5-0.9,1.1-1.9,1.8-2.9c1.5-2.1,3.1-4.2,4.9-6c1.8-1.8,3.8-3.6,5.9-5.1c1-0.7,1.9-1.4,2.8-1.9
			c0.5-0.3,0.9-0.6,1.3-0.8c0.4-0.2,0.8-0.5,1.2-0.7c0.8-0.4,1.5-0.8,2.2-1.1c0.5-0.3,1.1-0.5,1.7-0.7l1.1-0.4
			C500.6,217.6,500.7,217.5,500.8,217.5z"/>
		<path class="st1" d="M484.8,228.3c0.1-0.5,0.5-1,0.9-1.3c1-0.9,2.3-1.3,3.6-1.4c1.3,0,2.6,0.2,3.7,0.7c0.5,0.2,1,0.4,1.4,0.7
			c-0.5-0.1-1-0.2-1.5-0.4c-1.2-0.4-2.4-0.6-3.6-0.6c-1.2,0-2.4,0.4-3.4,1.2C485.4,227.5,485.1,227.9,484.8,228.3z"/>
		<path class="st1" d="M482.3,230.8c1.1-2.1,1.4-4.5,0.8-6.7c0.2,0.3,0.4,0.6,0.4,1c0.2,0.8,0.3,1.7,0.2,2.5
			c-0.1,0.8-0.4,1.6-0.8,2.4C482.7,230.5,482.4,230.8,482.3,230.8z"/>
		<path class="st2" d="M456.2,264.1c0.6,9.8,3.5,19.8,8.1,29.9h19.8c4.3-10,7.1-20,7.6-29.9H456.2z"/>
		<path class="st3" d="M488.5,280c0,0.1-6.5,0.2-14.6,0.2s-14.6-0.1-14.6-0.2s6.5-0.2,14.6-0.2S488.5,279.9,488.5,280z"/>
		<path class="st3" d="M488,283.6c0,0.1-6.1,0.2-13.7,0.2c-7.5,0-13.6-0.1-13.6-0.2s6.1-0.2,13.6-0.2S488,283.5,488,283.6z"/>
	</g>
	<g id="freepik--Device--inject-171">
		<path class="st2" d="M118.5,87.7h281.8c6.4,0,11.6,5.2,11.6,11.6v178.5c0,6.4-5.2,11.6-11.6,11.6H118.5c-6.4,0-11.6-5.2-11.6-11.6
			V99.3C107,92.9,112.1,87.7,118.5,87.7z"/>
		<path class="st2" d="M95,276.3h330.3l0,0v3.5c0,7.8-6.3,14.1-14.1,14.1H109.2c-7.8,0-14.1-6.3-14.1-14.1L95,276.3L95,276.3
			L95,276.3z"/>
		<rect x="115.1" y="95.7" class="st1" width="287.7" height="170.3"/>
		<polygon class="st1" points="229.4,274.4 233.5,280.9 291.1,280.9 294.9,274.4 		"/>
		<path class="st4" d="M123.7,101.5h271.2c1.4,0,2.6,1.2,2.6,2.6v158.8c0,1.4-1.2,2.6-2.6,2.6H123.7c-1.4,0-2.6-1.2-2.6-2.6V104.1
			C121.1,102.6,122.2,101.5,123.7,101.5z"/>
		<polygon class="st3" points="397.2,265.7 120.8,265.7 121.1,113.7 397.2,113.7 		"/>
		<path class="st1" d="M143.7,107.8c0,1.2-1,2.2-2.2,2.2c-1.2,0-2.2-1-2.2-2.2c0-1.2,1-2.2,2.2-2.2c0,0,0,0,0,0
			C142.8,105.6,143.7,106.6,143.7,107.8C143.7,107.8,143.7,107.8,143.7,107.8z"/>
		<path class="st1" d="M130.4,107.8c0,1.2-1,2.2-2.2,2.2c-1.2,0-2.2-1-2.2-2.2c0-1.2,1-2.2,2.2-2.2c0,0,0,0,0,0
			C129.4,105.6,130.4,106.6,130.4,107.8C130.4,107.8,130.4,107.8,130.4,107.8z"/>
		<path class="st1" d="M136.8,107.8c0,1.2-1,2.2-2.2,2.2c-1.2,0-2.2-1-2.2-2.2c0-1.2,1-2.2,2.2-2.2c0,0,0,0,0,0
			C135.8,105.6,136.8,106.6,136.8,107.8C136.8,107.8,136.8,107.8,136.8,107.8z"/>
		<path class="st1" d="M409.2,274.4c0,0.1-67.7,0.2-151.1,0.2S107,274.5,107,274.4s67.7-0.2,151.2-0.2S409.2,274.3,409.2,274.4z"/>
		<polygon class="st0" points="209.6,173.1 322,172 325.3,248.5 208.9,247.7 		"/>
		<path class="st5" d="M209.6,173.1l53.1-43.2c2.2-1.8,5.5-1.8,7.7,0l51.6,42.1"/>
		<path class="st1" d="M208.9,247.6c-0.1-0.1,8.8-10,20.1-22c11.2-12,20.4-21.6,20.6-21.5c0.1,0.1-8.8,10-20.1,22
			S209,247.8,208.9,247.6z"/>
		<path class="st1" d="M325.3,248.5c-0.1,0.1-8.9-9.5-19.6-21.5s-19.3-21.8-19.1-21.9c0.1-0.1,8.9,9.5,19.6,21.5
			C316.9,238.5,325.5,248.4,325.3,248.5z"/>
		<g class="st6">
			<polyline points="322,172 265.7,217.3 209.6,173.1 			"/>
		</g>
		<polygon class="st3" points="215.3,177.3 215,142.1 313.5,140.8 314.7,177.7 265.7,216.7 		"/>
		<path class="st1" d="M215.3,177.3c0,0,0.3,0.2,0.9,0.7l2.7,2.1l10.2,7.9c8.8,6.9,21.4,16.7,36.7,28.6h-0.2l49-39l-0.1,0.2
			c-0.2-7-0.5-14.4-0.7-22c-0.2-5.1-0.3-10.1-0.5-15l0.2,0.2l-98.5,1.3l0.1-0.1c0,11,0.1,19.8,0.1,25.8c0,3,0,5.3,0,6.9
			c0,0.8,0,1.4,0,1.8S215.3,177.3,215.3,177.3c0,0,0-0.2,0-0.6c0-0.4,0-1,0-1.8c0-1.6,0-3.9-0.1-6.9c-0.1-6-0.1-14.8-0.2-25.9V142
			h0.1l98.4-1.4h0.2v0.2c0.2,4.9,0.3,9.9,0.5,15c0.2,7.5,0.5,14.9,0.7,22v0.1l-0.1,0.1l-49,38.9l-0.1,0.1l-0.1-0.1l-36.6-28.8
			l-10.1-8l-2.6-2.1L215.3,177.3z"/>
		<path class="st1" d="M298,158.5c0,0.1-15.1,0.3-33.6,0.5c-18.6,0.2-33.6,0.2-33.6,0.1c0-0.1,15.1-0.3,33.6-0.5
			C282.9,158.4,298,158.4,298,158.5z"/>
		<path class="st1" d="M298,168.4c0,0.1-15.1,0.3-33.6,0.5s-33.6,0.2-33.6,0.1c0-0.1,15.1-0.3,33.6-0.5
			C282.9,168.3,298,168.3,298,168.4z"/>
		<path class="st1" d="M298,179.8c0,0.1-15.1,0.3-33.6,0.5c-18.6,0.2-33.6,0.2-33.6,0.1s15.1-0.3,33.6-0.5
			C282.9,179.8,298,179.7,298,179.8z"/>
		<path class="st1" d="M298,191.3c0,0.1-14.4,0.3-32.1,0.5c-17.7,0.1-32.1,0.2-32.1,0.1s14.4-0.3,32.1-0.5
			C283.7,191.2,298,191.2,298,191.3z"/>
		<path class="st1" d="M285.5,201.3c-0.1,0-0.3,0.1-0.4,0l-1.1,0l-4.2,0.1l-13.7,0.3c-5.4,0.1-10.2,0.1-13.7,0.1h-4.2H247
			c-0.1,0-0.3,0-0.4,0c0.1,0,0.3-0.1,0.4,0l1.1,0l4.2-0.1l13.7-0.2c5.4-0.1,10.2-0.1,13.7-0.1h4.2h1.1
			C285.2,201.3,285.3,201.3,285.5,201.3z"/>
		<path class="st1" d="M272.8,211c-2.4,0.2-4.8,0.3-7.1,0.2c-2.4,0.1-4.8,0-7.1-0.2c2.4-0.2,4.8-0.3,7.1-0.2
			C268,210.8,270.4,210.8,272.8,211z"/>
	</g>
	<g id="freepik--Floor--inject-171">
		<path class="st1" d="M529.7,293.3c0,0.1-118.6,0.2-264.8,0.2S0,293.4,0,293.3s118.6-0.2,264.8-0.2S529.7,293.2,529.7,293.3z"/>
	</g>
	<g id="freepik--envelope-3--inject-171">
		<path class="st1" d="M286.1,140.5c0.1,0,0.2,0.5,0.1,1s-0.2,1-0.3,1c-0.1,0-0.2-0.5-0.1-1S285.9,140.4,286.1,140.5z"/>
		<path class="st1" d="M287.1,132.7c0.1,0.6,0.1,1.3-0.1,2c0,0.7-0.2,1.3-0.5,1.9C286.5,135.3,286.7,134,287.1,132.7z"/>
		<path class="st1" d="M288.7,125.1c0.1,0.7,0,1.3-0.2,2c-0.1,0.7-0.3,1.3-0.6,1.9c-0.1-0.7,0-1.3,0.2-1.9
			C288.1,126.3,288.3,125.7,288.7,125.1z"/>
		<path class="st1" d="M290.8,117.6c-0.1,1.3-0.5,2.6-1.1,3.7c0-0.7,0.1-1.3,0.4-1.9C290.2,118.8,290.4,118.1,290.8,117.6z"/>
		<path class="st1" d="M293.5,110.3c0,0.7-0.2,1.3-0.5,1.9c-0.2,0.6-0.5,1.2-0.9,1.7c0.1-0.7,0.2-1.3,0.5-1.9
			C292.8,111.4,293.1,110.8,293.5,110.3z"/>
		<path class="st1" d="M296.9,103.3c-0.3,1.3-0.9,2.4-1.8,3.5c0.1-0.7,0.3-1.3,0.7-1.8C296.3,104,296.8,103.2,296.9,103.3z"/>
		<path class="st1" d="M301,96.6c-0.2,0.6-0.5,1.2-0.9,1.7c-0.6,0.9-1.1,1.6-1.2,1.5c0.2-0.6,0.5-1.2,0.9-1.8
			C300.3,97.2,300.9,96.6,301,96.6z"/>
		<path class="st1" d="M305.8,90.5c-0.2,0.6-0.6,1.2-1.1,1.6c-0.7,0.8-1.3,1.4-1.4,1.4c-0.1-0.1,0.4-0.8,1.1-1.6
			C305.1,91,305.7,90.4,305.8,90.5z"/>
		<path class="st1" d="M311.3,85c0.1,0.1-0.5,0.8-1.3,1.5c-0.8,0.7-1.5,1.3-1.6,1.2s0.5-0.7,1.3-1.5C310.5,85.4,311.2,84.9,311.3,85
			z"/>
		<path class="st1" d="M317.4,80.2c0.1,0.1-0.6,0.7-1.5,1.3c-0.5,0.4-1.1,0.8-1.7,1c-0.1-0.1,0.6-0.7,1.5-1.3
			C316.2,80.7,316.8,80.4,317.4,80.2z"/>
		<path class="st1" d="M324.1,76.2c-1,0.9-2.2,1.5-3.4,1.9c-0.1-0.1,0.7-0.6,1.6-1.1C322.8,76.6,323.5,76.3,324.1,76.2z"/>
		<path class="st1" d="M331.3,73.3c-0.5,0.4-1.1,0.7-1.8,0.9c-0.6,0.3-1.2,0.4-1.9,0.5c0.5-0.4,1.1-0.7,1.8-0.9
			C330,73.5,330.7,73.3,331.3,73.3z"/>
		<path class="st1" d="M338.9,71.5c-0.6,0.3-1.2,0.5-1.9,0.5c-0.6,0.2-1.3,0.3-1.9,0.2C336.3,71.7,337.6,71.4,338.9,71.5z"/>
		<path class="st1" d="M346.7,71.1c-0.6,0.2-1.3,0.3-1.9,0.2c-0.7,0.1-1.3,0-2-0.2c0.6-0.2,1.3-0.3,1.9-0.2
			C345.4,70.8,346.1,70.9,346.7,71.1z"/>
		<path class="st1" d="M354.4,72c-0.7,0.1-1.3,0.1-2-0.1c-0.7,0-1.3-0.2-1.9-0.5C351.9,71.3,353.2,71.5,354.4,72L354.4,72z"/>
		<path class="st1" d="M361.9,74.2c-1.3-0.2-2.6-0.6-3.7-1.3c0.7,0,1.3,0.2,1.9,0.4C360.8,73.5,361.4,73.8,361.9,74.2z"/>
		<path class="st1" d="M368.8,77.8c-0.6-0.1-1.3-0.4-1.8-0.8c-0.6-0.3-1.1-0.7-1.6-1.1c0.6,0.1,1.3,0.4,1.8,0.8
			C368.2,77.2,368.9,77.7,368.8,77.8z"/>
		<path class="st1" d="M374.9,82.6c-0.6-0.3-1.1-0.7-1.6-1.1c-0.8-0.7-1.4-1.3-1.3-1.4s0.8,0.4,1.6,1.1
			C374.4,81.9,375,82.5,374.9,82.6z"/>
		<path class="st1" d="M378.8,87c-0.1,0.1-0.4-0.2-0.8-0.7s-0.5-0.8-0.4-0.9c0.1-0.1,0.4,0.2,0.8,0.7C378.7,86.6,378.9,87,378.8,87z
			"/>
		<path class="st1" d="M415.5,134.8c-0.7-0.1-1.3-0.3-1.9-0.7c-1-0.5-1.8-0.9-1.7-1c0.7,0.1,1.3,0.3,1.9,0.7
			C414.4,134,415,134.3,415.5,134.8z"/>
		<path class="st1" d="M422.9,137.4c-1.3-0.1-2.6-0.5-3.8-1.2C420.5,136.4,421.8,136.8,422.9,137.4z"/>
		<path class="st1" d="M430.8,138.7c-0.7,0.1-1.3,0.1-2,0c-0.7,0-1.3-0.1-1.9-0.4c0.7-0.1,1.3-0.1,2,0
			C429.5,138.2,430.2,138.4,430.8,138.7z"/>
		<path class="st1" d="M438.7,138.4c-0.6,0.2-1.3,0.4-2,0.3c-0.7,0.1-1.3,0.1-2-0.1c0.6-0.2,1.3-0.4,2-0.4
			C437.4,138.2,438,138.3,438.7,138.4z"/>
		<path class="st1" d="M446.5,137c-0.6,0.3-1.2,0.6-1.9,0.7c-0.6,0.2-1.3,0.3-2,0.2c0.6-0.3,1.2-0.5,1.9-0.6
			C445.1,137,445.8,136.9,446.5,137z"/>
		<path class="st1" d="M453.8,134c0.1,0.1-0.7,0.6-1.7,1c-0.6,0.3-1.2,0.6-1.9,0.6C451.3,134.9,452.5,134.3,453.8,134z"/>
		<path class="st1" d="M460.4,129.6c0.1,0.1-0.5,0.7-1.4,1.4c-0.5,0.5-1.1,0.8-1.7,1c-0.1-0.1,0.6-0.7,1.5-1.3
			C459.2,130.2,459.8,129.9,460.4,129.6z"/>
		<path class="st1" d="M465.8,123.8c-0.2,0.6-0.6,1.2-1.1,1.7c-0.7,0.8-1.4,1.4-1.5,1.4c-0.1-0.1,0.5-0.8,1.1-1.6
			S465.7,123.8,465.8,123.8z"/>
		<path class="st1" d="M469.5,116.8c0,0.7-0.2,1.3-0.5,1.9c-0.2,0.6-0.6,1.2-1.1,1.7c0.1-0.7,0.3-1.3,0.7-1.9
			C468.8,117.9,469.1,117.3,469.5,116.8z"/>
		<path class="st1" d="M471,109.1c0.2,0.6,0.2,1.3,0.1,2c0,0.7-0.2,1.3-0.5,1.9c-0.1-0.7-0.1-1.3,0.1-2
			C470.7,110.4,470.8,109.7,471,109.1z"/>
		<path class="st1" d="M469.8,101.3c0.4,0.6,0.6,1.2,0.7,1.9c0.2,0.6,0.3,1.3,0.2,2c-0.3-0.6-0.5-1.2-0.6-1.9
			C469.9,102.6,469.8,101.9,469.8,101.3z"/>
		<path class="st1" d="M466.4,94.2c0.1-0.1,0.7,0.6,1.2,1.6c0.4,0.5,0.7,1.2,0.7,1.8c-0.1,0.1-0.6-0.7-1.1-1.6
			C466.9,95.4,466.6,94.8,466.4,94.2z"/>
		<path class="st1" d="M460.9,88.5c0.6,0.2,1.2,0.6,1.7,1.1c0.8,0.7,1.4,1.4,1.3,1.5c-0.1,0.1-0.8-0.5-1.6-1.2
			S460.8,88.6,460.9,88.5z"/>
		<path class="st1" d="M453.7,85.3c0.7-0.1,1.4,0,2,0.3c0.7,0.2,1.3,0.5,1.8,0.9c-0.7-0.1-1.3-0.2-1.9-0.5
			C454.9,85.9,454.3,85.6,453.7,85.3z"/>
		<path class="st1" d="M445.8,85.4c0.6-0.4,1.2-0.6,1.9-0.6c0.7-0.2,1.4-0.1,2,0.1C448.4,85.2,447.1,85.4,445.8,85.4L445.8,85.4z"/>
		<path class="st1" d="M439,89.2c-0.1-0.1,0.5-0.8,1.4-1.5c0.5-0.5,1.1-0.8,1.8-0.9c0.1,0.1-0.7,0.6-1.6,1.2S439.1,89.3,439,89.2z"
			/>
		<path class="st1" d="M435.9,96.4c-0.2-0.7-0.1-1.4,0.1-2c0.1-0.7,0.4-1.3,0.8-1.8c-0.1,0.7-0.2,1.3-0.4,1.9
			C436.3,95.1,436.1,95.7,435.9,96.4z"/>
		<path class="st1" d="M437.4,104c-0.5-0.5-0.8-1.1-1-1.8c-0.3-0.6-0.4-1.3-0.3-2c0.3,0.6,0.6,1.2,0.7,1.8
			C437.1,102.7,437.3,103.4,437.4,104z"/>
		<path class="st1" d="M442.6,109.9c-0.7-0.2-1.2-0.6-1.7-1.1c-0.8-0.7-1.4-1.5-1.3-1.5c0.1-0.1,0.7,0.5,1.5,1.2
			C442,109.3,442.6,109.8,442.6,109.9z"/>
		<path class="st1" d="M449.8,113.2c-0.7,0-1.4-0.1-2-0.4c-0.7-0.1-1.3-0.5-1.8-0.9c0.7,0.1,1.3,0.2,1.9,0.5
			C448.6,112.6,449.2,112.8,449.8,113.2z"/>
		<path class="st1" d="M457.6,113.9c-1.3,0.3-2.7,0.3-4-0.1c0.7-0.1,1.3-0.2,2-0.1C456.3,113.7,457,113.7,457.6,113.9z"/>
		<path class="st1" d="M465.5,112.5c-1.2,0.7-2.5,1-3.8,1c0.6-0.3,1.2-0.5,1.9-0.6C464.1,112.6,464.8,112.5,465.5,112.5z"/>
		<path class="st1" d="M472.6,109.2c-0.5,0.5-1,0.9-1.7,1.1c-0.6,0.4-1.2,0.6-1.8,0.7C470.1,110.2,471.3,109.6,472.6,109.2
			L472.6,109.2z"/>
		<path class="st1" d="M478.9,104.5c0.1,0.1-0.5,0.7-1.4,1.4c-0.5,0.5-1,0.8-1.7,1.1c-0.1-0.1,0.6-0.7,1.4-1.4
			C477.8,105.1,478.3,104.7,478.9,104.5z"/>
		<path class="st1" d="M484.4,98.7c0.1,0.1-0.4,0.8-1.1,1.6s-1.4,1.5-1.4,1.4c-0.1-0.1,0.4-0.8,1.1-1.6S484.3,98.6,484.4,98.7z"/>
		<path class="st1" d="M488.7,92c-0.2,0.7-0.4,1.3-0.8,1.8c-0.6,0.9-1.1,1.7-1.2,1.6c0.2-0.7,0.4-1.3,0.8-1.8
			C488.1,92.7,488.6,92,488.7,92z"/>
		<path class="st1" d="M491.9,84.8c0,0.7-0.2,1.3-0.5,1.9c-0.2,0.6-0.5,1.3-0.9,1.8c0.1-0.7,0.3-1.3,0.5-1.9
			C491.2,85.9,491.5,85.3,491.9,84.8z"/>
		<path class="st1" d="M494.2,77.2c0,0.7-0.1,1.3-0.3,2c-0.1,0.7-0.3,1.3-0.7,1.9C493.2,79.7,493.6,78.4,494.2,77.2z"/>
		<path class="st1" d="M495.5,69.4c0.1,0.7,0.1,1.3-0.1,2c0,0.7-0.2,1.3-0.5,1.9c-0.1-0.7-0.1-1.3,0.1-2
			C495.1,70.6,495.3,70,495.5,69.4z"/>
		<path class="st1" d="M496.3,61.5c0.2,1.3,0.1,2.7-0.3,4c-0.1-0.7-0.2-1.3-0.1-2C495.9,62.8,496,62.1,496.3,61.5z"/>
		<path class="st1" d="M496.5,53.6c0.2,0.6,0.3,1.3,0.2,2c0.1,0.7,0,1.3-0.2,2c-0.2-0.6-0.2-1.3-0.2-2
			C496.2,54.9,496.3,54.2,496.5,53.6z"/>
		<path class="st1" d="M496.5,45.6c0.2,0.6,0.3,1.3,0.2,2c0.1,0.7,0,1.3-0.2,2c-0.2-0.6-0.3-1.3-0.2-2
			C496.2,47,496.3,46.3,496.5,45.6z"/>
		<path class="st1" d="M496.4,40.8c0.1,0,0.2,0.2,0.2,0.5c0,0.3-0.1,0.5-0.2,0.5c-0.1,0-0.2-0.2-0.2-0.5S496.2,40.8,496.4,40.8z"/>
		<rect x="461.6" y="20" transform="matrix(0.9942 -0.108 0.108 0.9942 -1.2793 53.0091)" class="st0" width="54.2" height="36.5"/>
		<path class="st1" d="M463.8,59.4L463.8,59.4l-4-36.3l0,0l53.9-5.9l0,0l4,36.4l0,0L463.8,59.4z M459.9,23.1l4,36.3l53.9-5.9
			l-4-36.3L459.9,23.1z"/>
		<path class="st1" d="M513.9,17.7c-0.1,0.2-0.3,0.4-0.5,0.5l-1.4,1.5l-5.1,5.4l-16.9,17.6l-0.1,0.2l-0.2-0.1l-0.4-0.3l-20.8-13.3
			l-6.3-4.1l-1.7-1.1c-0.2-0.1-0.4-0.3-0.6-0.4c0.2,0.1,0.4,0.2,0.6,0.3l1.7,1.1l6.3,4l20.9,13.2l0.4,0.3h-0.3l17-17.5l5.2-5.3
			l1.4-1.4C513.6,18,513.8,17.8,513.9,17.7z"/>
		<path class="st1" d="M464,59.8c-0.1-0.1,3.4-5.5,7.8-12.1c4.4-6.6,8.1-11.9,8.3-11.8c0.1,0.1-3.4,5.5-7.8,12.1
			C467.8,54.6,464.1,59.9,464,59.8z"/>
		<path class="st1" d="M498,33.6c0.1-0.1,4.6,4.4,10.1,10.1s9.9,10.3,9.8,10.4c-0.1,0.1-4.6-4.4-10.1-10.1
			C502.3,38.3,497.9,33.6,498,33.6z"/>
	</g>
	<g id="freepik--envelope-2--inject-171">
		<path class="st1" d="M267.6,127.4c0.1,0,0.3,0.4,0.4,0.9c0.1,0.5,0.1,1,0,1c-0.1,0-0.3-0.4-0.4-1S267.5,127.4,267.6,127.4z"/>
		<path class="st1" d="M266.3,119.7c0.3,0.6,0.5,1.2,0.5,1.9c0.2,0.6,0.2,1.3,0.1,2c-0.3-0.6-0.5-1.2-0.5-1.9
			C266.3,121,266.2,120.3,266.3,119.7z"/>
		<path class="st1" d="M265.2,111.9c0.3,0.6,0.5,1.2,0.5,1.9c0.2,0.6,0.2,1.3,0.1,2c-0.3-0.6-0.5-1.2-0.5-1.9
			C265.1,113.2,265.1,112.6,265.2,111.9z"/>
		<path class="st1" d="M264.3,104.1c0.3,0.6,0.4,1.3,0.4,1.9c0.1,0.6,0.1,1.3,0,2c-0.3-0.6-0.4-1.3-0.4-1.9
			C264.2,105.4,264.2,104.8,264.3,104.1z"/>
		<path class="st1" d="M263.8,96.3c0.3,1.3,0.4,2.6,0.2,3.9C263.6,98.9,263.6,97.6,263.8,96.3z"/>
		<path class="st1" d="M263.7,88.4c0.3,1.3,0.3,2.7,0,4c-0.2-0.6-0.3-1.3-0.2-2C263.4,89.8,263.5,89.1,263.7,88.4z"/>
		<path class="st1" d="M264.2,80.6c0.1,0.6,0.2,1.3,0,2c0,0.7-0.1,1.3-0.4,1.9c-0.2-0.6-0.2-1.3,0-2
			C263.8,81.9,263.9,81.2,264.2,80.6z"/>
		<path class="st1" d="M265.3,72.9c0.1,0.7,0.1,1.3-0.1,2c0,0.7-0.2,1.3-0.5,1.9C264.6,75.4,264.9,74.1,265.3,72.9L265.3,72.9z"/>
		<path class="st1" d="M267.3,65.3c0,0.7-0.1,1.3-0.4,1.9c-0.1,0.7-0.4,1.3-0.8,1.8c0-0.7,0.1-1.3,0.4-1.9
			C266.7,66.5,267,65.9,267.3,65.3z"/>
		<path class="st1" d="M270.3,58c-0.1,0.7-0.3,1.3-0.6,1.9c-0.2,0.6-0.5,1.2-1,1.7C269,60.3,269.5,59.1,270.3,58L270.3,58z"/>
		<path class="st1" d="M274.1,51.2c-0.2,0.6-0.4,1.3-0.8,1.8c-0.6,0.9-1.1,1.6-1.2,1.6c0.2-0.6,0.4-1.3,0.8-1.8
			C273.5,51.8,274,51.1,274.1,51.2z"/>
		<path class="st1" d="M278.8,44.9c0.1,0.1-0.4,0.8-1.1,1.7c-0.7,0.9-1.3,1.5-1.4,1.4c0.2-0.6,0.6-1.2,1.1-1.7
			C278.1,45.5,278.7,44.9,278.8,44.9z"/>
		<path class="st1" d="M284.4,39.4c0.1,0.1-0.5,0.8-1.3,1.5c-0.8,0.7-1.5,1.2-1.6,1.2c-0.1-0.1,0.5-0.7,1.3-1.5
			C283.6,39.9,284.3,39.3,284.4,39.4z"/>
		<path class="st1" d="M290.8,34.9c0.1,0.1-0.6,0.7-1.5,1.2c-0.5,0.4-1.1,0.7-1.8,0.9c-0.1-0.1,0.6-0.6,1.5-1.2
			C289.5,35.4,290.1,35.1,290.8,34.9z"/>
		<path class="st1" d="M297.9,31.7c-0.5,0.4-1.1,0.7-1.8,0.9c-0.6,0.3-1.2,0.5-1.9,0.5c0.5-0.4,1.1-0.7,1.8-0.9
			C296.6,31.9,297.3,31.7,297.9,31.7z"/>
		<path class="st1" d="M303.6,30.3c0,0.1-0.4,0.3-0.9,0.4s-1,0.1-1,0c0-0.1,0.4-0.3,0.9-0.4C303.2,30.2,303.6,30.2,303.6,30.3z"/>
		
			<rect x="261.9" y="0.2" transform="matrix(0.3606 -0.9327 0.9327 0.3606 152.4802 281.7991)" class="st0" width="39.7" height="58.9"/>
		<path class="st1" d="M302.1,58.9L302.1,58.9l-55-21.3l0,0l14.3-37.1l0,0l55,21.3l0,0L302.1,58.9z M247.2,37.6l55,21.2l14.3-37
			l-55-21.2L247.2,37.6z"/>
		<path class="st1" d="M316.4,22.3c-0.2,0.1-0.5,0.2-0.7,0.3l-2.1,0.7l-7.6,2.7L281,34.6l-0.2,0.1l-0.1-0.2l-0.3-0.5l-13.5-23.3
			l-4-7.1l-1.1-1.9c-0.1-0.2-0.3-0.5-0.3-0.7c0.2,0.2,0.3,0.4,0.4,0.6l1.2,1.9l4.1,7c3.5,6,8.3,14.2,13.6,23.2l0.3,0.5l-0.3-0.1
			l25.2-8.5l7.6-2.5l2.1-0.7C316,22.4,316.2,22.3,316.4,22.3z"/>
		<path class="st1" d="M247.1,38.1c-0.1-0.1,6-3.6,13.6-7.8c7.6-4.2,13.8-7.4,13.9-7.3c0.1,0.1-6,3.6-13.6,7.8
			C253.4,35,247.2,38.2,247.1,38.1z"/>
		<path class="st1" d="M293.1,29.6c0.1,0,2.3,6.6,4.8,14.8s4.4,14.9,4.3,14.9c-0.1,0-2.3-6.6-4.8-14.8
			C294.9,36.3,293,29.7,293.1,29.6z"/>
	</g>
	<g id="freepik--envelope-1--inject-171">
		<path class="st1" d="M244.5,136.1c0.1,0,0.2,0.5,0.1,1s-0.2,1-0.3,1c-0.1,0-0.2-0.5-0.1-1S244.4,136.1,244.5,136.1z"/>
		<path class="st1" d="M244.7,128c0.2,0.7,0.3,1.3,0.2,2c0.1,0.7,0,1.4-0.2,2c-0.2-0.7-0.3-1.3-0.2-2
			C244.4,129.3,244.5,128.7,244.7,128z"/>
		<path class="st1" d="M244.2,120c0.4,1.3,0.5,2.7,0.4,4c-0.3-0.6-0.4-1.3-0.4-2C244,121.3,244,120.7,244.2,120z"/>
		<path class="st1" d="M242.8,112c0.3,0.6,0.5,1.3,0.6,1.9c0.2,0.7,0.3,1.3,0.2,2c-0.3-0.6-0.5-1.3-0.6-1.9
			C242.8,113.4,242.7,112.7,242.8,112z"/>
		<path class="st1" d="M240.6,104.2c0.7,1.2,1.1,2.5,1.2,3.8c-0.4-0.6-0.7-1.2-0.8-1.9C240.8,105.6,240.6,104.9,240.6,104.2z"/>
		<path class="st1" d="M237.5,96.8c0.5,0.5,0.8,1.1,1,1.8c0.3,0.6,0.6,1.2,0.6,1.9c-0.4-0.5-0.8-1.1-1-1.8
			C237.8,98.1,237.6,97.5,237.5,96.8z"/>
		<path class="st1" d="M233.5,89.8c0.1-0.1,0.7,0.7,1.3,1.6c0.4,0.6,0.7,1.2,0.9,1.8c-0.1,0.1-0.6-0.7-1.2-1.6
			C234,91.1,233.7,90.4,233.5,89.8z"/>
		<path class="st1" d="M228.6,83.4c0.1-0.1,0.7,0.6,1.5,1.4c0.5,0.5,0.9,1.1,1.1,1.7c-0.1,0.1-0.7-0.6-1.5-1.4
			C229.2,84.6,228.9,84.1,228.6,83.4z"/>
		<path class="st1" d="M222.8,77.8c0.1-0.1,0.8,0.5,1.6,1.2c0.8,0.7,1.4,1.4,1.4,1.5c-0.6-0.3-1.2-0.7-1.6-1.2
			C223.3,78.6,222.7,77.9,222.8,77.8z"/>
		<path class="st1" d="M216.3,73.1c0.7,0.2,1.3,0.5,1.8,0.9c0.9,0.6,1.6,1.2,1.6,1.3c-0.7-0.2-1.3-0.5-1.8-1
			C216.9,73.8,216.2,73.2,216.3,73.1z"/>
		<path class="st1" d="M209.1,69.4c0.7,0.1,1.3,0.3,1.9,0.7c0.6,0.2,1.2,0.6,1.7,1c-0.7-0.1-1.3-0.3-1.9-0.7
			C210.2,70.2,209.6,69.9,209.1,69.4z"/>
		<path class="st1" d="M201.4,67c0.7,0,1.4,0.1,2,0.3c0.7,0.1,1.3,0.4,1.9,0.7c-0.7,0-1.4-0.1-2-0.3C202.6,67.6,202,67.4,201.4,67z"
			/>
		<path class="st1" d="M193.4,66c1.3-0.2,2.7-0.1,4,0.3C196.1,66.4,194.7,66.3,193.4,66z"/>
		<path class="st1" d="M185.4,66.5c1.3-0.4,2.7-0.6,4-0.5c-0.6,0.3-1.3,0.4-2,0.4C186.7,66.6,186,66.7,185.4,66.5z"/>
		<path class="st1" d="M177.6,68.6c0.6-0.4,1.2-0.7,1.9-0.8c0.6-0.3,1.3-0.4,2-0.4c-0.6,0.4-1.2,0.7-1.9,0.8
			C178.9,68.5,178.2,68.6,177.6,68.6z"/>
		<path class="st1" d="M170.3,72.1c-0.1-0.1,0.7-0.6,1.7-1.1c0.6-0.4,1.2-0.7,1.9-0.8C172.8,71,171.6,71.7,170.3,72.1L170.3,72.1z"
			/>
		<path class="st1" d="M163.9,76.9c-0.1-0.1,0.6-0.7,1.4-1.5c0.5-0.5,1.1-0.9,1.7-1.1c0.1,0.1-0.6,0.7-1.4,1.5
			C165.1,76.3,164.5,76.7,163.9,76.9z"/>
		<path class="st1" d="M158.6,83c0.2-0.7,0.6-1.3,1-1.8c0.7-0.9,1.4-1.5,1.4-1.4c0.1,0.1-0.4,0.8-1.1,1.7S158.7,83.1,158.6,83z"/>
		<path class="st1" d="M155.6,88.3c-0.1,0,0-0.5,0.2-1c0.2-0.5,0.5-0.9,0.6-0.8c0.1,0.1,0,0.5-0.2,1C156,88,155.8,88.3,155.6,88.3z"
			/>
		<path class="st1" d="M105.3,135c0-0.1,0.4-0.3,1-0.3c0.5-0.1,1,0,1,0.1c0,0.1-0.4,0.3-1,0.3C105.7,135.2,105.3,135.2,105.3,135z"
			/>
		<path class="st1" d="M97.4,134.2c0.7,0,1.3,0.1,2,0.3c0.7,0.1,1.3,0.2,1.9,0.5C100,135.1,98.6,134.8,97.4,134.2L97.4,134.2z"/>
		<path class="st1" d="M90.3,130.7c0.6,0.2,1.2,0.5,1.8,0.9c0.9,0.6,1.7,1,1.6,1.1c-0.7-0.1-1.3-0.4-1.8-0.8
			C90.9,131.4,90.2,130.8,90.3,130.7z"/>
		<path class="st1" d="M84.4,125.4c0.1-0.1,0.7,0.5,1.5,1.3c0.8,0.8,1.4,1.4,1.3,1.5c-0.1,0.1-0.8-0.4-1.6-1.2
			S84.3,125.4,84.4,125.4z"/>
		<path class="st1" d="M79.7,118.9c0.1-0.1,0.7,0.6,1.3,1.6c0.4,0.5,0.7,1.1,0.9,1.8c-0.1,0.1-0.7-0.6-1.3-1.5
			C80.2,120.2,79.9,119.6,79.7,118.9z"/>
		<path class="st1" d="M76.3,111.8c0.4,0.5,0.8,1.1,1,1.7c0.3,0.6,0.5,1.2,0.6,1.9c-0.4-0.5-0.8-1.1-1-1.7
			C76.6,113.1,76.4,112.5,76.3,111.8z"/>
		<path class="st1" d="M74,104.2c0.4,0.6,0.6,1.2,0.7,1.9c0.2,0.6,0.3,1.3,0.3,2c-0.4-0.6-0.6-1.2-0.7-1.9
			C74.1,105.5,74,104.8,74,104.2z"/>
		<path class="st1" d="M72.7,96.3c0.3,0.6,0.5,1.3,0.5,1.9c0.2,0.7,0.2,1.3,0.1,2c-0.3-0.6-0.5-1.3-0.5-1.9
			C72.6,97.7,72.6,97,72.7,96.3z"/>
		<path class="st1" d="M71.9,88.4c0.4,1.3,0.5,2.6,0.3,4c-0.3-0.6-0.4-1.3-0.4-2C71.7,89.8,71.7,89.1,71.9,88.4z"/>
		<path class="st1" d="M71.6,82.5c0.1,0,0.2,0.4,0.3,1s0,1-0.2,1c-0.1,0-0.2-0.4-0.3-1C71.4,82.9,71.5,82.5,71.6,82.5z"/>
		
			<rect x="36.5" y="35.9" transform="matrix(0.9989 -4.710645e-02 4.710645e-02 0.9989 -2.6635 3.3392)" class="st0" width="66" height="44.5"/>
		<path class="st1" d="M37.6,82L37.6,82l-2.1-44.5l0,0l66-3.1l0,0l2.1,44.5l0,0L37.6,82z M35.5,37.5l2.1,44.4l65.9-3.1l-2.1-44.4
			L35.5,37.5z"/>
		<path class="st1" d="M101.7,34.9c-0.2,0.2-0.4,0.4-0.6,0.6l-1.8,1.7l-6.5,6.2L70.9,63.6l-0.2,0.2l-0.2-0.1l-0.5-0.3L45.7,45.5
			c-3.1-2.3-5.6-4.1-7.3-5.4l-2-1.5c-0.2-0.2-0.5-0.3-0.7-0.6c0.3,0.1,0.5,0.3,0.7,0.5l2,1.4l7.5,5.3l24.5,17.6l0.5,0.3h-0.4
			l21.9-20.1l6.7-6l1.8-1.6C101.2,35.3,101.4,35.1,101.7,34.9z"/>
		<path class="st1" d="M37.8,82.5c-0.1-0.1,4.5-6.4,10.4-14.1S59,54.5,59.2,54.6c0.1,0.1-4.5,6.4-10.4,14.1S38,82.6,37.8,82.5z"/>
		<path class="st1" d="M81.1,53c0.1-0.1,5.3,5.7,11.6,13s11.3,13.3,11.1,13.4c-0.2,0.1-5.3-5.7-11.6-13C85.9,59.1,80.9,53.1,81.1,53
			z"/>
	</g>
	<g id="freepik--Character--inject-171">
		<path class="st7" d="M153.5,192.3c0.1-0.9-0.5-1.8-1.4-2l-1.8,0.1l-6.3-2.2c-1-0.3-2,0.3-2.3,1.3c0,0.1-0.1,0.2-0.1,0.4
			c0,1.8-0.8,6.8-2.2,5.2l-0.1-0.1c-2.1-2.3-4.5-3.4-5.4-3.3c-0.6,0.1-1,0.7-0.8,1.2c0,0.2,0.2,0.5,0.4,0.6c0.1,0.1,0.2,0.2,0.4,0.3
			c0.1,0,0.1,0.1,0.2,0.1c0.9,0.6,1.7,1.4,2.4,2.2c0.7,0.7,1.2,1.5,1.6,2.4c0.4,1,0.8,1.8,1,2.6l0.1,5.8l-2.5,27.2
			c0,0-16.7-17.6-16.3-17.7l1,27.4l10.1,8.4c5.4,4.5,13.4,3.8,17.9-1.7c2-2.3,3-5.3,2.9-8.4l-0.6-35.1l0.4-4.6L153.5,192.3z"/>
		<path class="st7" d="M59.6,230.9l-18.3,41.9L26.8,303L16,306.6c0,0-8.5,2.5-8.5,4.2c0,1.8,2.2,1.4,2.2,1.4c0.4,2.6,4.1,1.1,6.6,0
			c2.6-1.1,8.2-1.5,8.2-1.5c-1.1,0.7-1.3,2.2-0.6,3.2c0.1,0.2,0.3,0.3,0.4,0.5c0.9,0.6,2.5-0.1,3.5-1.3s3.8-1.7,6.9-2.8
			c3.1-1.1,3.6-5.2,3.6-5.2L75,243.5L59.6,230.9z"/>
		<path class="st8" d="M120.3,246.1l4.6,6.1l10-22.1c0,0-9.7-11.8-13.2-16.8c-3.5-5-6.1-5.8-6.1-5.8s-6.4-1.9-9.7-1.9l-15.9,1
			l-16.2,7c-4,1.7-7.3,4.6-9.7,8.2l-15.2,24.4l21.5,9.2l7.2,41.4c1.4,6.2,2.6,12,8.3,14.9l39.9-38.4l-4.7-7.4L120.3,246.1z"/>
		<path class="st1" d="M82.1,238.5c0.1,0.1-2.4,3.9-5.5,8.5c-3.1,4.7-5.7,8.4-5.8,8.3c-0.1-0.1,2.4-3.9,5.5-8.5
			C79.4,242.2,82,238.5,82.1,238.5z"/>
		<path class="st1" d="M115.6,277.8c-0.3,0.2-0.7,0.5-1.1,0.6c-0.7,0.4-1.7,0.9-3,1.6c-2.5,1.3-6,3.1-10,4.9
			c-3.9,1.8-7.5,3.4-10.1,4.6c-1.3,0.6-2.4,1-3.1,1.3c-0.4,0.2-0.8,0.3-1.2,0.4c0.4-0.2,0.7-0.4,1.1-0.6l3.1-1.4
			c2.6-1.2,6.2-2.8,10.1-4.7c3.9-1.8,7.4-3.6,10-4.8l3-1.5C114.9,278.1,115.2,277.9,115.6,277.8z"/>
		<path class="st1" d="M80.9,229.6c-0.5-0.6-1-1.1-1.4-1.8c-1.1-1.5-2.2-2.8-3.5-4c-1.3-1.2-2.9-2.1-4.6-2.7
			c-1.3-0.4-2.2-0.4-2.2-0.5c0.2-0.1,0.4-0.1,0.6,0c0.6,0,1.1,0.1,1.6,0.2c1.8,0.5,3.4,1.4,4.8,2.7c1.3,1.3,2.5,2.7,3.5,4.2
			C80.2,228.3,80.6,228.9,80.9,229.6z"/>
		<path class="st1" d="M113.7,249.7c0,0.1,0,0.3,0,0.4c0,0.3,0,0.7,0,1.3c-0.1,1.5-0.3,3.1-0.6,4.6c-2.2,10.2-9,18.7-18.5,23
			c-1.4,0.6-2.8,1.2-4.3,1.6c-0.5,0.2-0.9,0.2-1.2,0.3c-0.1,0-0.3,0.1-0.4,0.1c0,0,0.6-0.2,1.6-0.5c1.5-0.5,2.9-1.1,4.3-1.7
			c9.3-4.4,16-12.8,18.3-22.8c0.4-1.5,0.6-3,0.8-4.5C113.7,250.3,113.7,249.7,113.7,249.7z"/>
		<g class="st9">
			<path d="M73.2,271.4c-0.1-0.4,5.1-27.2,5.1-27.2l-7.8,11.8"/>
		</g>
		<path class="st1" d="M119.3,220.3c0,0.2,0.1,0.3,0.1,0.5c0,0.3,0,0.8,0.1,1.3c0.1,1.2,0.1,2.9,0.2,4.9c0.2,4.2,0.5,9.8,0.8,16.1
			s0.5,12,0.7,16.1c0.1,2.1,0.1,3.7,0.1,4.9v1.3c0,0.2,0,0.3,0,0.5c0-0.2-0.1-0.3-0.1-0.5c0-0.3,0-0.8-0.1-1.3
			c-0.1-1.2-0.1-2.9-0.2-4.9c-0.2-4.2-0.5-9.8-0.8-16.1c-0.3-6.3-0.5-12-0.7-16.1c-0.1-2.1-0.1-3.7-0.1-4.9v-1.3
			C119.3,220.7,119.3,220.5,119.3,220.3z"/>
		<g class="st10">
			<path d="M87.4,291.1c-1.3-1.1-1-3.2,0.1-4.5c1.1-1.2,2.8-1.7,4.4-2.3c7.6-2.5,15.2-5.9,20.2-12.1c0.6-0.9,1.4-1.7,2.2-2.4
				c0.9-0.7,2.1-0.9,3.1-0.4c1.5,0.8,1.6,3,0.9,4.6c-0.8,2-2.3,3.6-4.2,4.6"/>
		</g>
		<g class="st10">
			<polygon points="119.5,225.1 123.9,250.8 120.4,246.3 			"/>
		</g>
		<path class="st8" d="M161.6,292.7l-7.5,25.7l31.9,9.5c0.7-3.1-14-14.1-14-14.1l5.5-16.3L161.6,292.7z"/>
		<g class="st11">
			<path class="st12" d="M162.6,309.4c-0.7,0-1.3,0.5-1.3,1.2c0,0.7,0.5,1.3,1.2,1.3c0.7,0,1.3-0.6,1.4-1.3
				c-0.1-0.7-0.7-1.3-1.4-1.3"/>
		</g>
		<g class="st11">
			<path class="st12" d="M154.1,318.4l0.9-2.6l30.3,10.1c0,0,1.2,1,0.8,2L154.1,318.4z"/>
		</g>
		<path class="st1" d="M172.7,313.7c0,0.2-0.8,0-1.8,0.3c-0.9,0.3-1.5,0.8-1.6,0.7s0.4-0.9,1.5-1.2S172.7,313.6,172.7,313.7z"/>
		<path class="st1" d="M175.6,316.1c0,0.2-0.8,0.2-1.5,0.7s-1.1,1.2-1.2,1.1c-0.2-0.1,0-1,0.9-1.6S175.6,316,175.6,316.1z"/>
		<path class="st1" d="M176.3,320.7c-0.2,0-0.1-0.9,0.5-1.6c0.7-0.7,1.5-0.9,1.5-0.7s-0.6,0.5-1.1,1.1
			C176.7,320.1,176.5,320.7,176.3,320.7z"/>
		<path class="st1" d="M173.5,309.9c-0.1,0.1-0.8-0.3-1.7-0.5c-0.9-0.2-1.7-0.1-1.7-0.3c0-0.2,0.8-0.5,1.8-0.3
			C173,309.1,173.7,309.8,173.5,309.9z"/>
		<path class="st1" d="M173.9,305.9c-0.6,0-1.1-0.2-1.6-0.5c-0.5-0.3-1.1-0.6-1.5-1c-0.3-0.2-0.5-0.5-0.8-0.8
			c-0.1-0.2-0.3-0.3-0.4-0.5c-0.1-0.3-0.1-0.6,0.2-0.9c0.2-0.2,0.5-0.2,0.8-0.2c0.2,0.1,0.4,0.1,0.6,0.3c0.3,0.2,0.6,0.4,0.9,0.6
			c0.5,0.4,0.9,0.9,1.2,1.4C173.6,304.8,173.8,305.4,173.9,305.9c-0.2,0.1-0.4-0.5-1-1.3c-0.3-0.5-0.7-0.9-1.2-1.2
			c-0.3-0.2-0.5-0.4-0.8-0.6c-0.3-0.2-0.6-0.3-0.7-0.2s-0.1,0.1,0,0.2c0.1,0.1,0.2,0.3,0.3,0.4c0.2,0.3,0.5,0.5,0.7,0.7
			c0.4,0.4,0.9,0.7,1.4,1.1C173.3,305.5,173.9,305.8,173.9,305.9z"/>
		<path class="st1" d="M173.6,306c-0.2-0.5-0.2-1.1,0-1.7c0.1-0.6,0.4-1.2,0.7-1.7c0.2-0.3,0.4-0.6,0.7-0.8c0.3-0.4,0.8-0.6,1.3-0.5
			c0.3,0.1,0.5,0.3,0.5,0.6c0,0.2,0,0.4,0,0.6c-0.1,0.4-0.2,0.7-0.3,1.1c-0.3,0.6-0.7,1.1-1.2,1.5c-0.9,0.6-1.6,0.6-1.6,0.6
			s0.6-0.2,1.3-0.9c0.4-0.4,0.7-0.8,1-1.3c0.1-0.3,0.2-0.6,0.2-0.9c0.1-0.4,0-0.7-0.1-0.7c-0.1,0-0.5,0.1-0.7,0.4
			c-0.2,0.2-0.5,0.5-0.7,0.7c-0.3,0.5-0.6,1-0.8,1.5C173.7,305.4,173.7,306,173.6,306z"/>
		<path class="st1" d="M194.4,254.4c0.8,5.9-1.2,12.6-3.4,18.2l-14,32.9l-15.5-2.4c0,0-3.2,3.6-7.4,5c-1.8,0.6-7.9,1.8-12.9-1.8l0,0
			c0,0-7.1,9.9-18.2,12.8c-11.2,3-28,4.6-36.2-8.4l38.9-37.5c0.8,0.2,33.5-21.9,51.1-26.9C176.9,246.4,192.9,243.5,194.4,254.4z"/>
		<path class="st2" d="M160.4,303c0,0,0.1,0,0.2-0.1l0.6-0.3c0.6-0.3,1.4-0.7,2.4-1.3c1.3-0.7,2.5-1.5,3.7-2.3
			c1.6-1.1,3-2.4,4.2-3.9c1.4-1.8,2.4-4,2.7-6.3c0.4-2.6,0.3-5.3-0.3-7.9c-0.5-2.9-2-5.5-4.3-7.4c-2.5-1.9-5.6-2.9-8.7-3.1
			c-1.6-0.1-3.2-0.1-4.8,0c-1.6,0.2-3.1,0.4-4.6,0.8c-2.9,0.7-5.7,1.7-8.4,2.9c-5.2,2.3-9.7,4.7-13.6,6.4c-3.1,1.4-6.3,2.5-9.6,3.2
			c-0.6,0.1-1.1,0.2-1.6,0.3c-0.5,0.1-0.8,0.1-1.2,0.2l-0.7,0.1h-0.2l0.2-0.1l0.7-0.1c0.3,0,0.7-0.1,1.1-0.2s1-0.2,1.6-0.3
			c3.3-0.8,6.5-1.9,9.5-3.3c3.9-1.7,8.4-4.2,13.6-6.5c2.7-1.2,5.5-2.2,8.4-2.9c1.5-0.4,3.1-0.6,4.7-0.8c1.6-0.2,3.3-0.2,4.9,0
			c3.2,0.2,6.4,1.3,9,3.2c1.2,1,2.2,2.2,2.9,3.5c0.7,1.3,1.2,2.7,1.5,4.1c0.6,2.6,0.7,5.4,0.3,8.1c-0.4,2.3-1.4,4.6-2.8,6.4
			c-1.2,1.5-2.7,2.8-4.3,3.9c-1.2,0.8-2.5,1.6-3.8,2.2c-1.1,0.6-1.9,1-2.5,1.2l-0.7,0.3C160.6,303,160.5,303,160.4,303z"/>
		<path class="st2" d="M170.1,259.8c-1,1.8-2,3.6-3.3,5.3c-1.1,1.8-2.3,3.5-3.6,5.1c1-1.8,2.1-3.6,3.3-5.3
			C167.6,263.1,168.8,261.4,170.1,259.8z"/>
		<path class="st2" d="M158.9,300.4c-0.9,0.3-1.9,0.5-2.8,0.7c-1.7,0.4-4.1,1.1-6.7,2c-2.6,0.9-4.9,1.9-6.5,2.6
			c-1.6,0.7-2.6,1.2-2.7,1.2c0.2-0.2,0.4-0.3,0.7-0.4c0.4-0.3,1.1-0.6,1.9-1c4.2-2.1,8.7-3.7,13.3-4.6c0.9-0.2,1.6-0.3,2.1-0.4
			C158.4,300.4,158.7,300.4,158.9,300.4z"/>
		<path class="st2" d="M176.8,303.4c-0.1,0-0.3-0.7-0.9-1.7c-1.7-2.6-5-3.7-8-2.6c-1.1,0.4-1.7,0.9-1.7,0.8c0-0.1,0.1-0.2,0.4-0.4
			c0.4-0.3,0.8-0.5,1.2-0.7c3.1-1.3,6.7-0.2,8.3,2.7c0.2,0.4,0.4,0.8,0.6,1.3C176.8,303.2,176.8,303.4,176.8,303.4z"/>
		<path class="st2" d="M109.7,291.1c0.1,0.2,0.2,0.5,0.2,0.7c0.1,0.7,0.2,1.4,0.2,2.1c0,2.3-0.6,4.6-1.8,6.6c-1.2,2-3.1,3.5-5.3,4.3
			c-0.7,0.2-1.4,0.4-2.1,0.4c-0.3,0-0.5,0-0.8,0c0.9-0.1,1.8-0.3,2.7-0.6c2.1-0.8,3.9-2.3,5.1-4.3c1.2-1.9,1.8-4.1,1.9-6.4
			C109.9,292.2,109.6,291.1,109.7,291.1z"/>
		<path class="st2" d="M92.2,308.9c-0.1,0.1-0.5-0.3-0.9-0.8c-0.4-0.5-0.6-1.1-0.5-1.1c0.1-0.1,0.5,0.3,0.8,0.9
			C92.1,308.4,92.3,308.8,92.2,308.9z"/>
		<path class="st2" d="M95.5,312.3c-0.1,0.1-0.5-0.2-1-0.7c-0.5-0.5-0.8-0.9-0.7-1c0.1-0.1,0.5,0.2,1,0.7
			C95.2,311.8,95.6,312.2,95.5,312.3z"/>
		<path class="st2" d="M99.3,315.1c-0.1,0.1-0.6-0.1-1.1-0.5s-1-0.7-0.9-0.8c0.1-0.1,0.6,0.1,1.1,0.5C99,314.7,99.4,315,99.3,315.1z
			"/>
		<path class="st2" d="M103.7,317c0,0.1-0.6,0-1.2-0.2c-0.6-0.2-1.1-0.5-1-0.6c0-0.1,0.6,0,1.2,0.2
			C103.2,316.6,103.7,316.9,103.7,317z"/>
		<path class="st2" d="M108.4,317.7c0,0.1-0.5,0.2-1.2,0.1s-1.2-0.2-1.2-0.3s0.6-0.2,1.2-0.1C107.9,317.5,108.4,317.6,108.4,317.7z"
			/>
		<path class="st2" d="M113.1,317.5c0,0.1-0.5,0.2-1.2,0.3c-0.3,0-0.6,0-0.9,0l0,0c-0.2,0-0.3,0-0.3-0.1c0-0.1,0.1-0.1,0.3-0.2l0,0
			c0.3-0.1,0.6-0.1,0.9-0.1C112.6,317.3,113.1,317.3,113.1,317.5z"/>
		<path class="st2" d="M117.8,316.6c0,0.1-0.5,0.3-1.1,0.5c-0.7,0.1-1.2,0.2-1.2,0c0-0.1,0.5-0.3,1.1-0.5
			C117.2,316.5,117.8,316.5,117.8,316.6z"/>
		<path class="st2" d="M122.4,315.2c0,0.1-0.4,0.4-1.1,0.6c-0.6,0.2-1.2,0.3-1.2,0.2c0-0.1,0.4-0.4,1.1-0.6
			C121.8,315.2,122.3,315.1,122.4,315.2z"/>
		<path class="st2" d="M126.7,313.4c0.1,0.1-0.4,0.4-1,0.7c-0.6,0.3-1.1,0.4-1.2,0.3c0-0.1,0.4-0.4,1-0.7
			C126.1,313.4,126.7,313.3,126.7,313.4z"/>
		<path class="st2" d="M130.9,311.1c0.1,0.1-0.4,0.4-0.9,0.8c-0.6,0.3-1.1,0.5-1.1,0.4c0-0.1,0.4-0.5,0.9-0.8
			C130.3,311.2,130.8,311,130.9,311.1z"/>
		<path class="st2" d="M134.8,308.4c0.1,0.1-0.3,0.5-0.8,0.9c-0.5,0.4-1,0.6-1.1,0.5c-0.1-0.1,0.3-0.5,0.8-0.9
			C134.2,308.6,134.7,308.3,134.8,308.4z"/>
		<path class="st2" d="M138.5,305.4c0.1,0.1-0.3,0.5-0.8,0.9c-0.5,0.4-1,0.7-1,0.6c-0.1-0.1,0.3-0.5,0.8-0.9
			C138,305.6,138.4,305.3,138.5,305.4z"/>
		<path class="st2" d="M141.9,302.1c0.1,0.1-0.2,0.5-0.7,1c-0.5,0.4-0.9,0.7-1,0.7c-0.1-0.1,0.2-0.5,0.7-1
			C141.4,302.3,141.9,302,141.9,302.1z"/>
		<path class="st2" d="M145.7,299.2c0.1,0.1-0.3,0.5-0.8,0.9c-0.5,0.4-1,0.6-1.1,0.5c-0.1-0.1,0.3-0.5,0.8-0.9
			C145.1,299.3,145.6,299.1,145.7,299.2z"/>
		<path class="st2" d="M149.9,296.9c0,0.1-0.4,0.4-1,0.7c-0.6,0.3-1.1,0.4-1.2,0.3s0.4-0.4,1-0.7S149.8,296.8,149.9,296.9z"/>
		<path class="st2" d="M154.4,295.5c0,0.1-0.5,0.3-1.1,0.5c-0.6,0.2-1.2,0.2-1.2,0.1c0-0.1,0.5-0.3,1.1-0.5
			C153.8,295.4,154.4,295.4,154.4,295.5z"/>
		<path class="st2" d="M159.1,295.2c0,0.1-0.5,0.2-1.2,0.1c-0.7,0-1.2-0.1-1.2-0.2s0.5-0.2,1.2-0.2S159.2,295.1,159.1,295.2z"/>
		<path class="st2" d="M163.7,296.4c-0.1,0.1-0.6,0-1.2-0.3c-0.6-0.2-1.1-0.4-1.1-0.5s0.6-0.1,1.2,0.2
			C163.3,296,163.8,296.3,163.7,296.4z"/>
		<path class="st2" d="M162.7,299.9c-0.1-0.1,0.3-0.5,0.7-1c0.4-0.5,0.8-0.9,0.9-0.8c0.1,0.1-0.1,0.6-0.6,1.1
			C163.3,299.7,162.8,300,162.7,299.9z"/>
		<path class="st2" d="M158.5,302.1c0-0.1,0.4-0.4,1-0.6c0.6-0.2,1.1-0.4,1.2-0.3s-0.4,0.4-1,0.6S158.6,302.2,158.5,302.1z"/>
		<path class="st2" d="M154,303.5c0-0.1,0.4-0.4,1.1-0.6s1.2-0.3,1.2-0.2c0,0.1-0.4,0.4-1.1,0.6C154.6,303.5,154,303.6,154,303.5z"
			/>
		<path class="st2" d="M149.5,305.2c0-0.1,0.4-0.4,1-0.6c0.6-0.2,1.1-0.3,1.2-0.2c0,0.1-0.4,0.4-1,0.6
			C150.1,305.2,149.6,305.3,149.5,305.2z"/>
		<path class="st2" d="M145.2,307.1c0-0.1,0.4-0.4,1-0.7s1.1-0.4,1.2-0.3c0,0.1-0.4,0.4-1,0.7C145.7,307.1,145.2,307.2,145.2,307.1z
			"/>
		<path class="st2" d="M136.3,171.1c0,0,5.2-1.6,12.1-9.2c6.9-7.7,9.7-17.4,10.6-17.4c0.9,0,4.8-2.2,13.5,13.7
			c8.7,15.8,6.1,19.9,4.6,20c-1.5,0.1-11.9-2-18.2-0.8c-6.3,1.2-14.3,5.1-14.3,5.1L136.3,171.1z"/>
		<path class="st1" d="M125.8,180.9l2.1,3.3l0.9,1.5c1.3,2,3.9,2.7,6,1.5l11-4.8l-7.7-14.5l-10.8,6.8
			C125.1,176,124.4,178.8,125.8,180.9C125.8,180.9,125.8,180.9,125.8,180.9z"/>
		<path class="st1" d="M132.7,185.9l4.1,6.8l1.8-0.6l12.5,8.7l2.8-6.7c0,0-7.1-2.5-8.6-4.9c-1.5-2.4,0-3.1,0-3.1l-3.5-3.5
			L132.7,185.9z"/>
		<path class="st1" d="M171.9,158.5c4.7,8.6,6.9,16.4,5,17.4c-1.9,1.1-7.2-5.1-11.9-13.7c-4.7-8.6-6.9-16.4-5-17.4
			C161.9,143.7,167.2,149.9,171.9,158.5z"/>
		<polygon class="st2" points="125.2,185.9 128.2,184.7 126,181.2 123.8,182.8 		"/>
		<polygon class="st2" points="142.9,183.8 135,189.7 133.8,187.8 		"/>
		<polygon class="st2" points="126,181.2 128.2,184.7 127.5,184.9 125.7,181.4 		"/>
		<path class="st2" d="M128.2,181.9c1.2-0.4,2.3-0.9,3.3-1.6c1.1-0.5,2.2-1.2,3.1-1.9c-1.2,0.4-2.3,0.9-3.3,1.6
			C130.2,180.5,129.1,181.2,128.2,181.9z"/>
		<path class="st2" d="M127.1,179.8c1.1-0.4,2.1-0.9,3-1.5c1-0.5,1.9-1.1,2.8-1.9C130.8,177.3,128.8,178.5,127.1,179.8L127.1,179.8z
			"/>
		<path class="st2" d="M129.5,184.1c0.3,0,0.6-0.1,0.9-0.3l1-0.4c0.4-0.2,0.7-0.4,1.1-0.6c1-0.5,1.9-1.1,2.8-1.8c-1,0.4-2,0.9-3,1.5
			c-0.4,0.2-0.8,0.5-1.1,0.6s-0.7,0.3-0.9,0.5C129.8,183.8,129.5,184,129.5,184.1z"/>
		<path class="st2" d="M163.5,157.1c0,0,4.4-3.2,7.3,2.8c3,6-1.8,7.4-1.8,7.4C166.8,164.2,164.9,160.7,163.5,157.1z"/>
		<path class="st1" d="M158.1,150.1c0,0.4,0.1,0.8,0.3,1.2c0.2,0.7,0.5,1.8,0.9,3.2c0.2,0.7,0.5,1.4,0.8,2.1l0.4,1.2
			c0.1,0.2,0.2,0.4,0.2,0.6s0.2,0.4,0.3,0.6l1.2,2.6c0.1,0.2,0.2,0.5,0.3,0.7s0.2,0.4,0.4,0.7l0.8,1.4l0.8,1.4
			c0.1,0.2,0.3,0.4,0.4,0.7c0.1,0.2,0.3,0.4,0.4,0.6l1.6,2.4c0.1,0.2,0.3,0.4,0.4,0.5l0.4,0.5l0.8,1l1.5,1.7c1,1,1.8,1.8,2.3,2.3
			c0.3,0.3,0.6,0.6,0.9,0.8c-0.2-0.3-0.5-0.6-0.8-0.9l-2.2-2.4l-1.4-1.8l-0.8-1l-0.4-0.5c-0.1-0.2-0.3-0.4-0.4-0.5l-1.6-2.4
			l-0.4-0.6c-0.2-0.2-0.3-0.4-0.4-0.7l-0.8-1.3c-0.3-0.5-0.5-0.9-0.8-1.3c-0.1-0.2-0.3-0.4-0.4-0.7s-0.2-0.5-0.3-0.7l-1.2-2.6
			c-0.1-0.2-0.2-0.4-0.3-0.6c-0.1-0.2-0.2-0.4-0.2-0.6c-0.2-0.4-0.3-0.8-0.5-1.2l-0.8-2.1c-0.4-1.3-0.8-2.4-1-3.1
			C158.4,150.8,158.3,150.4,158.1,150.1z"/>
		<path class="st7" d="M146.3,186.1c0.7,0.2,1.1,0.9,0.9,1.6c-0.3,1.3-0.9,3.5-1.3,4.8c-0.1,0.4-0.3,0.8-0.6,1.2
			c-0.3,0.5-1,0.6-1.5,0.3c-0.3-0.2-0.5-0.5-0.5-0.9c-0.1-0.5,0-0.9,0.1-1.4c0.3-1.3,0.8-3.2,1.2-4.7
			C144.9,186.4,145.6,185.9,146.3,186.1C146.3,186.1,146.3,186.1,146.3,186.1L146.3,186.1z"/>
		<path class="st7" d="M148.5,188.3c0.7,0.2,1.1,0.9,0.9,1.6c-0.3,1.3-0.9,3.5-1.3,4.8c-0.1,0.4-0.3,0.8-0.6,1.2
			c-0.3,0.4-0.7,0.5-1.2,0.4c-0.5-0.2-0.8-0.5-0.8-1c-0.1-0.5,0-0.9,0.1-1.4c0.3-1.3,0.8-3.2,1.2-4.7
			C147,188.5,147.8,188.1,148.5,188.3L148.5,188.3z"/>
		<path class="st7" d="M150.5,189.6c0.6,0.2,0.9,0.8,0.8,1.4c-0.3,1.2-0.8,3-1.2,4.1c-0.1,0.4-0.3,0.7-0.5,1
			c-0.3,0.4-0.9,0.5-1.3,0.2c-0.2-0.2-0.4-0.4-0.4-0.7c0-0.4,0-0.8,0.1-1.2c0.2-1.1,0.7-2.7,1.1-4.1
			C149.3,189.8,149.9,189.5,150.5,189.6L150.5,189.6z"/>
		<path class="st7" d="M152.9,189.9c0.6,0.2,1,0.8,0.8,1.4c-0.3,1.2-0.8,3-1.2,4.1c-0.1,0.4-0.3,0.7-0.5,1c-0.3,0.4-0.9,0.6-1.3,0.3
			c-0.3-0.2-0.4-0.5-0.4-0.8c0-0.4,0-0.8,0.1-1.2c0.2-1.1,0.7-2.7,1.1-4.1C151.6,190.1,152.3,189.7,152.9,189.9
			C152.9,189.9,152.9,189.9,152.9,189.9L152.9,189.9z"/>
		<path class="st13" d="M145.6,193.7c0.1-0.9,0.3-1.7,0.6-2.5c0.2-0.9,0.5-1.7,1-2.4c-0.1,0.9-0.3,1.7-0.6,2.5
			C146.4,192.2,146,193,145.6,193.7z"/>
		<path class="st13" d="M150,195.5c0.4-1.7,0.9-3.4,1.5-5C151.4,192.3,150.9,194,150,195.5L150,195.5z"/>
		<path class="st13" d="M147.8,195.2c0.4-1.7,0.9-3.4,1.5-5C149.2,192,148.7,193.7,147.8,195.2z"/>
		<path class="st1" d="M188.1,128.2c0.1,0.1-3.2,4.5-7.3,9.9c-4.1,5.4-7.5,9.7-7.6,9.6c-0.1-0.1,3.2-4.5,7.3-9.9
			C184.6,132.4,188,128.1,188.1,128.2z"/>
		<path class="st1" d="M209.4,140.8c0,0.1-6.8,3.4-15.3,7.3c-8.5,3.9-15.4,7-15.4,6.9c0-0.1,6.8-3.4,15.3-7.3
			C202.4,143.8,209.3,140.7,209.4,140.8z"/>
		<path class="st1" d="M206.2,167c0,0.1-4.9-0.3-10.9-0.8s-10.9-1.1-10.8-1.3s4.9,0.3,10.9,0.8C201.4,166.3,206.2,166.8,206.2,167z"
			/>
		<path class="st7" d="M81.2,181.6l5.4,30.6c1,5.3,6,8.9,11.3,8.2l0,0c5.5-0.7,9.3-5.7,8.6-11.1c0-0.1,0-0.2,0-0.3l-0.9-5.3
			c0,0,7.5-2,6.7-9.6c-0.4-3.6-1.8-11.1-3.1-17.8c-1.6-7.6-8.9-12.5-16.5-11.3l0,0c-7.7,1.2-12.9,8.5-11.7,16.2
			C81.1,181.3,81.2,181.5,81.2,181.6z"/>
		<path class="st13" d="M105.6,203.7c-3.5,0.5-7.1-0.1-10.3-1.7c0,0,3,5.2,10.6,3.6L105.6,203.7z"/>
		<path class="st1" d="M107.6,181.4c0.1,0.6-0.3,1.1-0.9,1.2c-0.6,0.1-1.1-0.3-1.2-0.8c0,0,0,0,0,0c-0.1-0.6,0.3-1.1,0.9-1.2
			C106.9,180.4,107.5,180.8,107.6,181.4C107.6,181.4,107.6,181.4,107.6,181.4z"/>
		<path class="st1" d="M107.8,179.5c-0.1,0.2-1-0.4-2.2-0.2s-2,0.8-2.1,0.7c-0.1-0.1,0-0.3,0.4-0.6c0.5-0.4,1.1-0.7,1.7-0.7
			c0.6-0.1,1.2,0.1,1.8,0.4C107.8,179.2,107.9,179.5,107.8,179.5z"/>
		<path class="st1" d="M96.5,182.7c0.1,0.6-0.3,1.1-0.9,1.2c-0.6,0.1-1.1-0.3-1.2-0.8c0,0,0,0,0,0c-0.1-0.6,0.3-1.1,0.9-1.2
			C95.9,181.7,96.4,182.1,96.5,182.7C96.5,182.7,96.5,182.7,96.5,182.7z"/>
		<path class="st1" d="M96.5,181c-0.1,0.2-1-0.4-2.2-0.2c-1.2,0.1-2,0.8-2.1,0.7c-0.1-0.1,0-0.3,0.4-0.6c0.5-0.4,1.1-0.7,1.7-0.7
			c0.6-0.1,1.2,0.1,1.8,0.3C96.4,180.8,96.5,181,96.5,181z"/>
		<path class="st1" d="M101.8,189.9c0.6-0.3,1.2-0.4,1.9-0.6c0.3-0.1,0.6-0.2,0.6-0.4c0-0.3-0.1-0.6-0.3-0.9l-1.1-2.2
			c-1.6-3.1-2.8-5.6-2.7-5.7s1.5,2.4,3.2,5.5c0.4,0.8,0.8,1.5,1.1,2.2c0.2,0.3,0.3,0.7,0.3,1.1c-0.1,0.2-0.2,0.4-0.4,0.5
			c-0.2,0.1-0.3,0.1-0.5,0.1C103.1,189.8,102.4,189.9,101.8,189.9z"/>
		<path class="st1" d="M98.4,191.1c0.2,0,0.3,1.2,1.5,2c1.2,0.8,2.5,0.5,2.6,0.7c0,0.2-0.3,0.3-0.8,0.4c-0.7,0.1-1.5-0.1-2.1-0.5
			c-0.6-0.4-1-1-1.2-1.7C98.2,191.4,98.3,191.1,98.4,191.1z"/>
		<path class="st1" d="M96.3,177.2c-0.1,0.3-1.3,0.3-2.6,0.6s-2.4,0.8-2.6,0.6c-0.1-0.1,0.1-0.5,0.5-0.8c1.1-0.9,2.6-1.2,4-0.9
			C96,176.8,96.3,177,96.3,177.2z"/>
		<path class="st1" d="M107.2,176.9c-0.2,0.3-1,0.1-2,0.2s-1.8,0.4-2,0.1c-0.1-0.1,0-0.4,0.3-0.7c0.4-0.4,1-0.6,1.6-0.6
			c0.6-0.1,1.2,0.1,1.7,0.3C107.1,176.5,107.3,176.8,107.2,176.9z"/>
		<path class="st1" d="M109.3,163.3c-1.1-0.8-2.5-0.7-3.5,0.2c0.6-1.1,0.3-2.5-0.7-3.2c-1-0.7-2.3-0.9-3.5-0.5
			c-1.2,0.4-2.3,0.9-3.2,1.6c0.1-0.5-0.1-1-0.5-1.2c-0.4-0.3-0.9-0.4-1.4-0.4c-2-0.1-4,0.3-5.7,1.3c-1.9,1-3.6,2.2-5.3,3.6l0,0
			c-1.8,1.5-3.5,3.2-4.8,5.2l-0.1,0.1c-1.1,1-2.1,4-1.9,5.5c0.6,5.4,2.4,8.6,3.4,13.7c0,0.4,0.2,0.7,0.4,1c0.6,0.7,1.8,0.1,2.4-0.6
			c1.3-1.8,2.1-3.9,2-6.1c0.1-2.2-0.2-4.4-0.2-6.6v-0.2c0-0.6,0.1-1.1,0.2-1.7c0.1-0.4,1-3.5,4-4c3.2-0.5,9.5,2.6,12.6,2.1
			s3.3-2.7,3.3-2.7l1.8,3.7c0.4-1.5,0.5-3.1,0.3-4.7c0.8-0.7,1.3-1.7,1.6-2.7C110.8,165.5,110.3,164.2,109.3,163.3z"/>
		<path class="st7" d="M84.2,184.9c-0.1,0-5.4-0.9-4.7,4.2c0.8,5.1,5.9,3.3,5.8,3.2C85.4,192.1,84.2,184.9,84.2,184.9z"/>
		<path class="st13" d="M83.5,190.6c0,0-0.1,0.1-0.2,0.2c-0.2,0.1-0.4,0.2-0.7,0.1c-0.7-0.3-1.3-1-1.3-1.8c-0.1-0.4-0.1-0.9,0.1-1.3
			c0-0.3,0.3-0.6,0.6-0.8c0.2-0.1,0.4,0,0.6,0.2c0.1,0.1,0.1,0.2,0.1,0.2c0,0,0.1-0.1,0-0.3c-0.1-0.1-0.1-0.2-0.3-0.3
			c-0.2-0.1-0.3-0.1-0.5-0.1c-0.4,0.2-0.7,0.5-0.8,0.9c-0.2,0.5-0.2,1-0.1,1.5c0.1,0.9,0.7,1.7,1.7,2c0.3,0,0.6-0.1,0.8-0.3
			C83.5,190.7,83.5,190.6,83.5,190.6z"/>
		<path class="st3" d="M72.5,222.2c0.1-0.1,0.3-0.1,0.5-0.1c0.5,0,0.9,0.2,1.2,0.6c0.5,0.5,0.7,1.2,0.7,2c-0.1,0.9-0.3,1.8-0.6,2.7
			c-0.4,1-0.3,2.1,0.2,3.1c0.6,1,1.7,1.7,2.2,3.1c0.5,1.4,0,3-1.1,4c-0.6,0.5-1.4,0.8-2.1,0.8c-0.8,0-1.6-0.1-2.3-0.4
			c-0.7-0.2-1.4-0.3-2.1-0.1c-0.7,0.2-1.2,0.7-1.6,1.3c-0.4,0.6-0.8,1.2-1.3,1.7c-0.5,0.5-1.3,0.8-2,0.7c-1.3-0.1-2.5-0.9-3.2-2.1
			c-0.5-1-0.8-2.1-0.8-3.2c-0.1-1,0-1.9,0-2.7c0-0.7-0.1-1.4-0.2-2c-0.1-0.6-0.3-1.1-0.5-1.7c0.1,0.1,0.2,0.3,0.2,0.4
			c0.2,0.4,0.3,0.8,0.4,1.2c0.1,0.7,0.2,1.4,0.3,2c0,0.8,0,1.7,0.1,2.7c0,1.1,0.3,2.1,0.8,3.1c0.6,1.1,1.7,1.8,2.9,1.9
			c0.6,0,1.3-0.2,1.7-0.7c0.5-0.5,0.9-1,1.3-1.6c0.4-0.7,1-1.2,1.8-1.4c0.8-0.2,1.6-0.1,2.4,0.1c0.7,0.2,1.4,0.3,2.2,0.4
			c0.7,0,1.4-0.3,1.9-0.7c1-0.9,1.5-2.3,1-3.5c-0.4-1.2-1.5-2-2.1-3.1c-0.3-0.5-0.5-1.1-0.5-1.7c0-0.5,0.1-1.1,0.3-1.6
			c0.3-0.8,0.5-1.7,0.7-2.6c0.1-0.7-0.1-1.3-0.6-1.8c-0.3-0.3-0.6-0.5-1.1-0.6C72.6,222.1,72.5,222.2,72.5,222.2z"/>
		<path class="st3" d="M74.7,277.7c0,0,0.1,0.2,0.2,0.5c0.3,0.4,0.7,0.7,1.2,0.9c0.8,0.2,1.6,0,2.3-0.5c0.8-0.7,1.3-1.7,1.5-2.8
			c0.3-1.2,0.2-2.5,0.4-4c0.1-0.8,0.4-1.5,0.7-2.2c0.4-0.7,1-1.3,1.8-1.6c0.8-0.3,1.7-0.4,2.5-0.2c0.9,0.1,1.7,0.3,2.6,0.4
			c0.9,0.1,1.7,0.1,2.6-0.1c0.9-0.2,1.7-0.7,2.3-1.3c0.7-0.6,1.2-1.4,1.4-2.2c0.2-0.8,0.2-1.7,0-2.5c-0.5-1.6-1.8-2.8-3.4-3.1
			c-1.6-0.2-3,0.6-4.5,0.6c-0.7,0-1.4-0.1-2.1-0.5c-0.6-0.3-1.1-0.6-1.6-1.1c-0.8-0.7-1.8-1.3-2.8-1.7c-0.8-0.3-1.6-0.2-2.4,0.2
			c-0.5,0.2-0.8,0.6-1,1.1c-0.1,0.2-0.1,0.4-0.1,0.5c0-0.2,0-0.4,0-0.6c0.2-0.5,0.5-1,1-1.2c0.3-0.2,0.7-0.3,1.1-0.4
			c0.5,0,0.9,0,1.4,0.2c1.1,0.4,2,1,2.9,1.7c1,0.9,2.2,1.4,3.5,1.4c0.7-0.1,1.5-0.2,2.2-0.4c0.8-0.2,1.6-0.3,2.4-0.3
			c1.8,0.3,3.3,1.6,3.8,3.3c0.3,0.9,0.3,1.9,0.1,2.8c-0.3,0.9-0.8,1.7-1.5,2.4c-0.7,0.6-1.6,1.1-2.5,1.4c-0.9,0.2-1.8,0.3-2.8,0.1
			c-0.9-0.1-1.7-0.3-2.6-0.4c-0.8-0.1-1.6-0.1-2.4,0.2c-0.7,0.3-1.3,0.8-1.6,1.5c-0.4,0.6-0.6,1.3-0.7,2c-0.2,1.4-0.2,2.8-0.5,4
			c-0.2,1.1-0.8,2.1-1.7,2.9c-0.7,0.5-1.6,0.7-2.5,0.4c-0.5-0.1-1-0.5-1.3-1C74.7,278,74.6,277.8,74.7,277.7z"/>
		<path class="st3" d="M101.6,229.6c0.1-0.3,0.3-0.5,0.5-0.7c0.6-0.6,1.5-1.1,2.4-1.2c1.4-0.2,2.9,0.4,3.8,1.5
			c0.6,0.7,0.9,1.6,1,2.5c0,1,0.2,1.9,0.6,2.8c0.3,0.4,0.7,0.7,1.2,0.9c0.5,0.1,1,0.2,1.6,0.2c0.6,0,1.1,0,1.7,0.1
			c0.6,0,1.2,0.2,1.7,0.6c0.3,0.2,0.5,0.5,0.6,0.8c0.1,0.3,0.2,0.7,0.2,1c-0.1,0.7-0.4,1.3-0.8,1.8c-0.4,0.5-1,0.9-1.6,1.2
			c-0.6,0.3-1.2,0.5-1.8,0.8c-0.6,0.3-1.2,0.6-1.7,1c-0.5,0.4-0.8,1-1,1.7c-0.3,1.3,0,2.8-0.1,4.3c0,0.8-0.2,1.5-0.6,2.2
			c-0.4,0.7-1.1,1.3-1.9,1.4c-0.8,0.1-1.7-0.2-2.3-0.8c-0.6-0.5-1.1-1.1-1.5-1.8c-0.4-0.7-0.8-1.3-1.2-1.9c-0.4-0.6-1-1.1-1.7-1.3
			c-0.7-0.2-1.4-0.2-2.1,0.1c-0.7,0.3-1.3,0.6-1.9,1c-0.6,0.4-1.3,0.7-2,1c-0.7,0.3-1.4,0.4-2.2,0.4c-1.4,0-2.8-0.5-4-1.4
			c-1.1-0.8-1.9-2-2.2-3.4c-0.3-1.3,0-2.7,0.9-3.6c0.5-0.4,1-0.7,1.6-0.8c0.6-0.1,1.1-0.2,1.7-0.3c1,0,2.1-0.4,2.9-1
			c0.7-0.6,1.3-1.5,1.6-2.4c0.3-0.8,0.6-1.7,0.9-2.5c0.2-0.7,0.6-1.4,1.1-2c0.4-0.5,0.9-0.9,1.4-1.3c0.7-0.6,1.5-1,2.4-1.1
			c0.3,0,0.6,0,0.9,0.2c-0.3-0.1-0.6-0.2-0.9-0.2c-0.9,0.2-1.6,0.6-2.3,1.2c-0.5,0.4-0.9,0.8-1.3,1.3c-0.4,0.6-0.8,1.3-1,2
			c-0.3,0.8-0.5,1.6-0.8,2.5c-0.3,0.9-0.9,1.8-1.6,2.5c-0.9,0.6-2,1-3.1,1.1c-1.1,0.2-2.3,0.3-3.2,1.1c-0.8,0.9-1.1,2.1-0.8,3.3
			c0.3,1.3,1,2.4,2,3.1c1.1,0.8,2.4,1.3,3.8,1.3c0.7,0,1.4-0.1,2-0.3c0.7-0.3,1.3-0.6,1.9-1c0.6-0.4,1.2-0.7,1.8-1
			c0.8-0.3,1.6-0.4,2.4-0.1c0.8,0.3,1.4,0.8,1.9,1.5c0.5,0.6,0.9,1.3,1.3,2c0.4,0.7,0.9,1.2,1.4,1.7c0.5,0.5,1.2,0.7,2,0.7
			c0.7-0.1,1.3-0.6,1.6-1.2c0.3-0.6,0.5-1.3,0.6-2c0.1-1.4-0.2-2.9,0.1-4.4c0.2-0.7,0.6-1.4,1.1-1.9c0.5-0.5,1.1-0.8,1.8-1.1
			c0.6-0.3,1.2-0.5,1.8-0.8c0.6-0.3,1.1-0.7,1.5-1.1c0.4-0.4,0.7-1,0.8-1.6c0-0.3,0-0.5-0.1-0.8c-0.1-0.3-0.3-0.5-0.5-0.7
			c-0.5-0.3-1-0.5-1.6-0.5c-0.6-0.1-1.1-0.1-1.7-0.1c-0.6,0-1.1-0.1-1.7-0.3c-0.5-0.2-1-0.5-1.3-1c-0.4-0.9-0.6-1.9-0.6-2.9
			c0-0.9-0.3-1.7-0.9-2.4c-0.8-1.1-2.2-1.7-3.6-1.5c-0.9,0.1-1.7,0.5-2.3,1.1C102,229.1,101.8,229.4,101.6,229.6z"/>
		<path class="st3" d="M88.2,216.2c-0.4,0.4-1,0.7-1.6,0.8c-0.7,0.1-1.3,0.1-2,0c-0.8-0.1-1.6-0.6-2.2-1.2c-0.5-0.7-0.8-1.5-0.8-2.4
			c-0.1-0.7,0-1.3,0.1-2c0.1-0.6,0.4-1.2,0.8-1.6c-0.3,0.5-0.4,1.1-0.6,1.7c-0.1,0.6-0.1,1.3-0.1,1.9c0.1,0.8,0.3,1.5,0.7,2.1
			c0.5,0.6,1.2,1,1.9,1.1c0.6,0.1,1.3,0.2,1.9,0.1C87.1,216.6,87.7,216.5,88.2,216.2z"/>
		<path class="st3" d="M122.4,214.2c0,0,0,0.1-0.1,0.2c-0.1,0.2-0.2,0.4-0.3,0.6c-0.5,0.7-1.2,1.1-2,1.3c-0.6,0.1-1.1,0.1-1.7,0
			c-0.6-0.2-1.2-0.5-1.7-0.9c-0.5-0.4-1.1-0.8-1.7-1c-0.6-0.2-1.3,0.1-1.7,0.7c-0.4,0.6-0.7,1.3-1,1.9c-0.3,0.6-0.8,1.2-1.4,1.6
			c-1.7,1.2-4,0.7-5.2-1c0,0-0.1-0.1-0.1-0.1c-0.2-0.2-0.3-0.5-0.3-0.8c0,0,0.1,0.3,0.5,0.7c0.5,0.6,1.1,1.1,1.8,1.3
			c1.7,0.6,3.6-0.2,4.4-1.9c0.3-0.7,0.6-1.4,1-2c0.2-0.4,0.6-0.6,0.9-0.8c0.4-0.1,0.8-0.2,1.2,0c0.7,0.3,1.3,0.6,1.8,1.1
			c0.4,0.4,1,0.7,1.5,0.9c0.5,0.1,1,0.1,1.5,0c0.7-0.2,1.4-0.6,1.9-1.1C122.2,214.5,122.4,214.2,122.4,214.2z"/>
		<path class="st3" d="M128,245.3c-0.3-0.2-0.6-0.3-0.9-0.6c-0.8-0.6-1.5-1.2-2.2-1.9c-0.5-0.5-0.9-1-1.3-1.6
			c-0.4-0.7-0.7-1.4-0.8-2.2c-0.1-0.9,0-1.8,0.4-2.5c0.2-0.4,0.5-0.8,0.9-1.1c0.4-0.3,0.8-0.5,1.2-0.7c0.4-0.2,0.7-0.5,1.1-0.8
			c0.3-0.3,0.5-0.7,0.6-1c0.2-0.8,0.2-1.6,0.1-2.4c-0.1-0.8-0.2-1.5-0.2-2.3c0-0.7,0.3-1.4,0.7-1.9c0.7-0.7,1.7-1,2.7-1.1
			c0.4,0,0.7,0.1,1,0.4c-0.3-0.2-0.6-0.2-1-0.2c-0.9,0.1-1.8,0.5-2.5,1.1c-0.4,0.5-0.6,1.1-0.6,1.7c0,0.7,0.1,1.5,0.2,2.2
			c0.2,0.8,0.1,1.7-0.1,2.6c-0.1,0.5-0.4,0.9-0.7,1.2c-0.3,0.3-0.7,0.6-1.1,0.8c-0.8,0.4-1.5,0.9-1.9,1.7c-0.4,0.7-0.5,1.5-0.4,2.3
			c0.2,1.4,0.9,2.6,1.9,3.6C126.9,244.4,128.1,245.3,128,245.3z"/>
		<path class="st3" d="M111.5,261.1c0.1,0,0.2,0,0.4,0c0.4,0,0.7,0,1.1,0.1c1.3,0.1,2.6,0.5,3.8,1.1c1.8,0.9,3.1,2.5,3.6,4.5
			c0.3,1.2,0.1,2.4-0.5,3.4c-0.6,1.1-1.7,1.9-3,2.2c-0.6,0.1-1.3,0.1-1.9-0.1c-0.5-0.2-1.1-0.2-1.6,0c-0.5,0.2-0.9,0.6-1.3,1
			c-0.3,0.4-0.6,0.9-0.8,1.3c-0.4,1-1.2,1.8-2.1,2.4c-0.8,0.4-1.8,0.5-2.7,0.3c-0.8-0.2-1.4-0.6-1.9-1.2c-0.4-0.5-0.6-1-0.7-1.5
			c-0.1-0.4-0.1-0.7-0.1-1.1c0-0.1,0-0.2,0.1-0.4c0,0.5,0,0.9,0.1,1.4c0.1,0.5,0.4,1,0.8,1.4c0.4,0.5,1.1,0.9,1.7,1.1
			c0.8,0.2,1.7,0.1,2.5-0.3c0.8-0.5,1.5-1.3,1.9-2.2c0.5-1.1,1.3-2,2.4-2.6c0.6-0.2,1.3-0.2,1.9,0c0.6,0.2,1.2,0.2,1.8,0.1
			c1.1-0.3,2.1-1,2.7-2c0.5-1,0.7-2.1,0.5-3.2c-0.4-1.9-1.6-3.4-3.3-4.3c-1.1-0.6-2.4-1-3.6-1.2C112,261.1,111.4,261.1,111.5,261.1z
			"/>
		<path class="st3" d="M96.6,287.3c-0.2-0.6-0.4-1.1-0.7-1.6c-0.4-0.5-0.9-0.9-1.5-1.2c-1.4-0.7-3.2-0.3-4.1,1.1
			c-0.4,0.5-0.6,1.1-0.7,1.7c0,0.6,0,1.2,0.2,1.8c0,0-0.1-0.1-0.3-0.4c-0.2-0.4-0.2-0.9-0.2-1.4c0-0.7,0.3-1.4,0.7-2
			c1-1.6,3-2.1,4.6-1.2c0.6,0.3,1.2,0.8,1.6,1.4c0.3,0.4,0.4,0.8,0.5,1.3C96.7,287.1,96.6,287.3,96.6,287.3z"/>
		<path class="st3" d="M99.1,298.8c0,0-0.1-0.4-0.4-1c-0.4-0.8-1.1-1.5-1.9-2c-1.3-0.6-2.7-0.5-3.9,0.3c-0.6,0.5-1.2,1.1-1.6,1.8
			c-0.3,0.4-0.6,0.7-0.9,1c-0.4,0.3-0.9,0.5-1.4,0.5c-1-0.1-1.8-0.6-2.4-1.4c-0.5-0.7-1-1.3-1.7-1.8c-0.6-0.4-1.3-0.5-2.1-0.4
			c-0.6,0.1-1.2,0.4-1.7,0.7c-0.7,0.6-1.4,1.3-1.8,2.1c-0.2,0.3-0.3,0.6-0.5,0.9c0.1-0.3,0.2-0.7,0.4-1c0.4-0.9,1-1.6,1.8-2.3
			c0.5-0.4,1.2-0.7,1.9-0.8c0.8-0.2,1.6,0,2.3,0.4c0.7,0.5,1.3,1.1,1.8,1.8c0.5,0.7,1.2,1.2,2.1,1.3c0.8,0,1.5-0.7,2-1.4
			c0.4-0.7,1-1.4,1.7-1.9c1.9-1.3,4.4-0.8,5.7,1.1c0.2,0.3,0.3,0.5,0.4,0.8c0.1,0.3,0.2,0.5,0.2,0.8
			C99.2,298.7,99.2,298.8,99.1,298.8z"/>
		<path class="st3" d="M105.2,270c-0.7-0.4-1.5-0.8-2.3-1c-0.9-0.2-1.8-0.3-2.7-0.1c-1.1,0.1-2.1,0.5-3,1.2
			c-0.9,0.7-1.5,1.5-1.9,2.6c-0.3,0.8-0.4,1.7-0.3,2.6c0.1,0.8,0.4,1.6,0.8,2.3c0,0-0.2-0.2-0.4-0.5c-0.3-0.5-0.6-1.1-0.7-1.8
			c-0.3-2.1,0.5-4.3,2.2-5.6c0.9-0.7,2-1.1,3.2-1.2c0.9-0.1,1.9,0,2.8,0.2c0.6,0.2,1.2,0.4,1.7,0.8C105.1,269.8,105.2,270,105.2,270
			z"/>
	</g>
</g>
</svg>
