<?xml version="1.0" encoding="utf-8"?>
<!-- Generator: Adobe Illustrator 24.2.3, SVG Export Plug-In . SVG Version: 6.00 Build 0)  -->
<svg version="1.1" id="Layer_1" xmlns="http://www.w3.org/2000/svg" xmlns:xlink="http://www.w3.org/1999/xlink" x="0px" y="0px"
	 viewBox="0 0 614.6 315.3" style="enable-background:new 0 0 614.6 315.3;" xml:space="preserve">
<style type="text/css">
	.st0{fill:#1AECCF;}
	.st1{opacity:0.34;}
	.st2{opacity:0.5;fill:#1AECCF;}
	.st3{opacity:0.72;fill:#1AECCF;}
	.st4{opacity:0.5;}
	.st5{opacity:0.3;}
	.st6{opacity:0.76;fill:#1AECCF;}
	.st7{fill:#263238;}
	.st8{fill:#455A64;}
	.st9{fill:#FAFAFA;}
	.st10{fill:#13A4D1;}
	.st11{opacity:0.4;}
	.st12{fill:#FF725E;}
	.st13{fill:#B78876;}
	.st14{fill:#AA6550;}
	.st15{fill:#E0E0E0;}
	.st16{fill:#F5F5F5;}
	.st17{fill:#EBEBEB;}
	.st18{opacity:0.4;fill-rule:evenodd;clip-rule:evenodd;fill:#13A4D1;}
	.st19{opacity:0.42;fill-rule:evenodd;clip-rule:evenodd;fill:#1AECCF;}
</style>
<g id="freepik--Screens--inject-420">
	<path class="st0" d="M185.3,134.4c0,0,0-0.6,0-1.8v-5.1c0-4.5,0-11.1-0.1-19.6c0-16.9-0.1-41.2-0.1-70.8l0.2,0.2L40.1,37.4l0,0
		l0.3-0.3c0,34.7,0,67.6,0,97.3l-0.2-0.2l104.7,0.1l29.9,0.1h8h2.1l0,0h-2h-7.9l-29.9,0.1l-104.8,0.1h-0.2v-0.2
		c0-29.7,0-62.6,0-97.3v-0.3h0.3l145.3,0.1h0.2V37c0,29.7-0.1,54-0.1,70.9c0,8.4,0,15,0,19.5c0,2.2,0,3.9,0,5.1
		S185.3,134.4,185.3,134.4z"/>
	<path class="st0" d="M40,45.8c0-0.1,32.5-0.3,72.6-0.3s72.6,0.1,72.6,0.3S152.7,46,112.6,46S40,46,40,45.8z"/>
	<g>
		<path class="st0" d="M45.8,41.4c0,0.6-0.5,1.2-1.2,1.2c-0.6,0-1.2-0.5-1.2-1.2c0-0.6,0.5-1.2,1.2-1.2c0,0,0,0,0,0
			C45.3,40.2,45.8,40.7,45.8,41.4C45.8,41.4,45.8,41.4,45.8,41.4z"/>
	</g>
	<g>
		<path class="st0" d="M49.8,41.4c0,0.6-0.5,1.2-1.2,1.2c-0.6,0-1.2-0.5-1.2-1.2c0-0.6,0.5-1.2,1.2-1.2c0,0,0,0,0,0
			C49.2,40.2,49.8,40.7,49.8,41.4C49.8,41.4,49.8,41.4,49.8,41.4z"/>
	</g>
	<g>
		<path class="st0" d="M53.7,41.4c0,0.6-0.5,1.2-1.2,1.2c-0.6,0-1.2-0.5-1.2-1.2c0-0.6,0.5-1.2,1.2-1.2c0,0,0,0,0,0
			C53.2,40.2,53.7,40.7,53.7,41.4C53.7,41.4,53.7,41.4,53.7,41.4z"/>
	</g>
	<rect x="52.5" y="55.9" class="st0" width="38.8" height="38.8"/>
	<path class="st0" d="M165.4,66.9c0,0.1-15.1,0.3-33.8,0.3S97.9,67,97.9,66.9s15.1-0.3,33.8-0.3S165.4,66.7,165.4,66.9z"/>
	<path class="st0" d="M165.4,74.1c0,0.1-15.1,0.3-33.8,0.3s-33.8-0.1-33.8-0.3s15.1-0.3,33.8-0.3S165.4,74,165.4,74.1z"/>
	<path class="st0" d="M165.4,81.3c0,0.1-15.1,0.3-33.8,0.3s-33.8-0.1-33.8-0.3S113,81,131.6,81S165.4,81.1,165.4,81.3z"/>
	<path class="st0" d="M137.8,88.5c-0.5,0.1-1,0.1-1.6,0.1l-4.3,0.1c-3.6,0.1-8.6,0.1-14.1,0.1s-10.5,0-14.1-0.1l-4.3-0.1
		c-0.5,0-1.1,0-1.6-0.1c0.5-0.1,1-0.1,1.6-0.1l4.3-0.1c3.6-0.1,8.6-0.1,14.1-0.1s10.5,0,14.1,0.1l4.3,0.1
		C136.7,88.4,137.3,88.4,137.8,88.5z"/>
	<g class="st1">
		<rect x="55" y="107.7" class="st0" width="18.2" height="18.2"/>
	</g>
	<rect x="88" y="107.7" class="st2" width="18.2" height="18.2"/>
	<rect x="121" y="107.7" class="st3" width="18.2" height="18.2"/>
	<rect x="154" y="107.7" class="st0" width="18.2" height="18.2"/>
	<g>
		<rect x="52.5" y="55.9" class="st0" width="38.8" height="38.8"/>
	</g>
	<g class="st4">
		<rect x="154" y="107.7" class="st0" width="18.2" height="18.2"/>
	</g>
	<path class="st0" d="M560.7,117.3c0,0,0-0.3,0-0.9s0-1.5,0-2.7c0-2.4,0-5.9,0-10.5c0-9.1,0-22.2-0.1-38.4l0.1,0.1l-129.4,0.1l0,0
		l0.2-0.2c0,18.4,0,36.2,0,52.6l-0.2-0.2l92.8,0.1l26.9,0.1h7.2h1.9h-1.8h-7.2l-26.9,0.1l-92.9,0.1h-0.3V64.6h0.2l129.4,0.1h0.2v0.1
		c0,16.3-0.1,29.4-0.1,38.5c0,4.5,0,8,0,10.4c0,1.2,0,2.1,0,2.7S560.7,117.3,560.7,117.3z"/>
	<path class="st0" d="M431.4,71.8c0-0.1,28.9-0.2,64.6-0.2s64.6,0.1,64.6,0.2S531.7,72,496,72S431.4,71.9,431.4,71.8z"/>
	<g class="st5">
		<path class="st0" d="M436.8,68.7c0,0.5-0.4,0.9-0.9,0.9c-0.5,0-0.9-0.4-0.9-0.9c0-0.5,0.4-0.9,0.9-0.9
			C436.4,67.7,436.8,68.1,436.8,68.7L436.8,68.7z"/>
	</g>
	<g class="st5">
		<path class="st0" d="M440.1,68.7c0,0.5-0.4,0.9-0.9,0.9c-0.5,0-0.9-0.4-0.9-0.9s0.4-0.9,0.9-0.9C439.7,67.7,440.1,68.1,440.1,68.7
			L440.1,68.7z"/>
	</g>
	<g class="st5">
		<path class="st0" d="M443.2,68.7c0,0.5-0.4,0.9-0.9,0.9s-0.9-0.4-0.9-0.9s0.4-0.9,0.9-0.9S443.2,68.1,443.2,68.7L443.2,68.7z"/>
	</g>
	<rect x="442.3" y="80.4" class="st6" width="31.3" height="31.3"/>
	<path class="st0" d="M551.8,88.8c0,0.1-16.1,0.2-35.9,0.2c-19.8,0-35.9-0.1-35.9-0.2s16.1-0.2,35.9-0.2
		C535.7,88.6,551.8,88.6,551.8,88.8z"/>
	<path class="st0" d="M551.8,95.1c0,0.1-16.1,0.2-35.9,0.2c-19.8,0-35.9-0.1-35.9-0.2s16.1-0.2,35.9-0.2
		C535.7,94.9,551.8,95,551.8,95.1z"/>
	<path class="st0" d="M526.2,101.5c-0.2,0-0.3,0-0.5,0h-1.4l-5,0.1l-16.4,0.1l-16.4-0.1l-5-0.1h-1.3c-0.2,0-0.3,0-0.5,0
		c0.2,0,0.3,0,0.5,0h1.3l5-0.1l16.4-0.1l16.4,0.1l5,0.1h1.4C525.8,101.5,526,101.5,526.2,101.5z"/>
</g>
<g id="freepik--Floor--inject-116">
	<path class="st7" d="M614.6,288.2c0,0.1-137.6,0.3-307.3,0.3S0,288.3,0,288.2s137.6-0.3,307.3-0.3S614.6,288,614.6,288.2z"/>
</g>
<g id="freepik--Plant--inject-393">
	<path class="st0" d="M495.1,215.9c8,2.8,18.5,0.3,25.3-4.7c6.9-5,11.8-12.2,16.2-19.5c1.9-3.1,3.7-6.3,4.3-9.9
		c0.6-3.6-0.3-7.6-3.1-9.9c-4.3-3.6-10.9-1.8-15.8,1C506.5,181.9,496.4,198,495.1,215.9"/>
	<path class="st0" d="M503.8,235.1c4.8,6.4,13.1,9.2,21.1,9.5c8,0.4,15.8-1.8,23.3-4.7c2.7-1,5.7-2.5,6.6-5.2
		c0.6-2.2,0.1-4.5-1.4-6.1c-1.5-1.6-3.3-2.9-5.4-3.7c-7.3-3.1-15.7-3.3-23.4-1.3C516.8,225.7,510,230.2,503.8,235.1"/>
	<path class="st0" d="M495,181.6c6.7,0.1,11.7-5.7,14.7-11.6c4.2-8.3,5.6-17.7,4-26.8c-0.6-3.4-1.9-7.1-4.9-8.7s-7.1-0.6-9.7,1.8
		s-4,5.7-5,9.1C490.4,156.9,491.2,170.1,495,181.6"/>
	<path class="st0" d="M473.2,218.3c11.3-19.3,13.2-42.8,6.5-64.1c-1.1-3.5-3.1-7.4-6.7-7.6c-4-0.3-6.5,4.2-7.6,8.1
		c-3.9,13.5-3.1,27.9-2.2,42C463.7,205.2,466.6,212.6,473.2,218.3"/>
	<path class="st0" d="M461.4,226.2c-4.3-13.4-14.4-24.1-27.5-29.1c-3-1.1-6.8-1.8-9.1,0.5s-1.5,6-0.1,8.8c2.3,4.5,6,8.2,9.7,11.7
		c3.3,3.2,6.8,6.4,11.1,8.3C449.8,228.2,457.6,228.7,461.4,226.2"/>
	<path class="st7" d="M531.6,176.7c0,0-0.1,0.1-0.2,0.2l-0.6,0.5l-2.4,1.8l-1.7,1.3c-0.6,0.5-1.3,1-2,1.6c-1.4,1.2-3.1,2.4-4.7,4
		l-2.7,2.4c-0.9,0.8-1.8,1.8-2.8,2.8c-2,1.9-3.8,4.1-5.8,6.3c-8.6,10-15.6,21.3-20.7,33.5c-1.1,2.8-2.2,5.5-3,8.1
		c-0.4,1.3-0.9,2.5-1.2,3.7l-1,3.5c-0.7,2.2-1.1,4.2-1.5,6c-0.2,0.9-0.4,1.7-0.6,2.5s-0.3,1.5-0.4,2.1c-0.2,1.2-0.4,2.2-0.5,2.9
		c-0.1,0.3-0.1,0.6-0.2,0.8c0,0.2-0.1,0.3-0.1,0.3c0-0.1,0-0.2,0-0.3c0-0.2,0.1-0.5,0.1-0.8c0.1-0.7,0.3-1.7,0.4-2.9
		c0.1-0.6,0.2-1.4,0.3-2.1s0.3-1.6,0.5-2.5c0.4-1.8,0.8-3.8,1.4-6.1c0.3-1.1,0.6-2.3,1-3.5c0.3-1.2,0.8-2.4,1.2-3.7
		c0.8-2.6,1.9-5.3,3-8.1c5.1-12.3,12.1-23.6,20.8-33.6c2-2.3,4-4.4,5.9-6.3c1-1,1.9-1.9,2.8-2.7l2.7-2.4c1.7-1.6,3.3-2.8,4.8-4
		c0.7-0.6,1.4-1.1,2-1.6l1.8-1.2l2.4-1.7l0.6-0.4C531.5,176.8,531.6,176.7,531.6,176.7z"/>
	<path class="st7" d="M546.6,230.1c-0.3,0-0.5-0.1-0.8-0.1c-0.5-0.1-1.2-0.3-2.2-0.5c-21-4.2-42.6,3.1-56.7,19.2
		c-1.8,2.1-3.5,4.2-5.1,6.5c-0.6,0.8-0.9,1.5-1.2,1.9c-0.1,0.2-0.3,0.4-0.5,0.6c0.1-0.2,0.2-0.5,0.4-0.7c0.3-0.4,0.6-1.1,1.2-1.9
		c1.5-2.3,3.1-4.6,5-6.7c12.2-14.1,30.3-21.7,48.9-20.3c2.8,0.2,5.5,0.6,8.2,1.2c1,0.2,1.7,0.4,2.2,0.5
		C546.1,229.9,546.3,230,546.6,230.1z"/>
	<path class="st7" d="M504.8,142.2c0,0.1,0,0.2,0,0.3c-0.1,0.2-0.1,0.5-0.2,0.8c-0.2,0.8-0.4,1.9-0.7,3.3c-0.7,2.9-1.7,7-2.9,12.2
		c-2.5,10.3-6.1,24.4-9.9,40c-1.9,7.8-3.6,15.3-5,22.1c-1.4,6.8-2.7,13-3.6,18.2c-0.5,2.6-0.8,5-1.2,7c-0.4,2.1-0.6,3.8-0.8,5.3
		c-0.2,1.5-0.4,2.6-0.5,3.3c-0.1,0.4-0.1,0.6-0.2,0.8c0,0.2-0.1,0.3-0.1,0.3c0-0.1,0-0.2,0-0.3c0-0.2,0.1-0.5,0.1-0.9
		c0.1-0.8,0.2-1.9,0.4-3.3c0.2-1.4,0.4-3.3,0.8-5.3c0.3-2.1,0.7-4.4,1.1-7c0.8-5.2,2.1-11.4,3.5-18.2c1.4-6.8,3.1-14.3,5-22.2
		c3.8-15.6,7.5-29.8,10-40l3.1-12.1c0.4-1.4,0.6-2.5,0.8-3.3c0.1-0.4,0.2-0.6,0.2-0.8C504.7,142.3,504.7,142.2,504.8,142.2z"/>
	<path class="st7" d="M478.8,254.4c0-0.1-0.1-0.2-0.1-0.2l-0.2-0.7c-0.1-0.7-0.3-1.6-0.6-2.7c-0.5-2.3-1.1-5.7-1.8-9.9
		c-1.5-8.4-3.2-20-4.2-33c-0.5-6.5-0.8-12.7-0.9-18.3s0-10.7,0.1-14.9c0.1-2.1,0.2-4,0.3-5.7c0.1-1.7,0.2-3.1,0.3-4.3
		c0.1-1.2,0.2-2.1,0.3-2.7c0-0.3,0.1-0.5,0.1-0.7s0-0.2,0.1-0.2c0,0.1,0,0.2,0,0.3c0,0.2,0,0.4,0,0.7c0,0.7-0.1,1.6-0.2,2.7
		c-0.1,1.2-0.2,2.6-0.2,4.3c-0.1,1.7-0.2,3.6-0.2,5.7c-0.1,4.2-0.1,9.3,0,14.9c0.1,5.6,0.5,11.8,1,18.2c1.1,12.9,2.7,24.6,4.1,32.9
		c0.7,4.2,1.3,7.6,1.7,9.9c0.2,1.1,0.4,2,0.5,2.7c0,0.3,0.1,0.5,0.1,0.7C478.8,254.3,478.8,254.3,478.8,254.4z"/>
	<path class="st7" d="M479.6,256.9c-0.1-0.2-0.2-0.4-0.3-0.7l-0.7-1.9c-0.2-0.4-0.3-0.9-0.5-1.4l-0.7-1.6c-0.3-0.6-0.5-1.2-0.8-1.9
		s-0.7-1.3-1-2.1s-0.8-1.5-1.2-2.2l-1.4-2.4c-0.9-1.7-2.1-3.3-3.2-5.1c-2.6-3.8-5.4-7.4-8.5-10.9c-3.1-3.4-6.4-6.7-9.8-9.8
		c-1.6-1.4-3.1-2.7-4.6-3.9l-2.1-1.7l-2-1.5c-1.3-1-2.5-1.8-3.6-2.5s-2-1.3-2.7-1.8l-1.8-1.2c-0.2-0.1-0.4-0.3-0.6-0.4
		c0.2,0.1,0.4,0.2,0.7,0.3l1.8,1c0.8,0.4,1.7,1,2.8,1.7s2.3,1.5,3.6,2.4l2.1,1.5l2.2,1.7c1.5,1.1,3,2.5,4.7,3.9
		c3.5,3.1,6.8,6.4,9.9,9.8c3.1,3.5,5.9,7.2,8.5,11c1.1,1.8,2.3,3.5,3.2,5.2c0.5,0.8,0.9,1.6,1.4,2.4l1.1,2.3c0.4,0.7,0.7,1.4,1,2.1
		l0.8,1.9l0.7,1.7c0.2,0.5,0.3,1,0.5,1.4c0.3,0.8,0.5,1.5,0.7,2C479.6,256.4,479.6,256.6,479.6,256.9z"/>
	<path class="st7" d="M527.4,199.1c0,0.1-1.4,0.1-3.6,0.2c-2.9,0.2-5.7,0.5-8.5,1c-2.8,0.5-5.6,1.3-8.3,2.2
		c-2.1,0.7-3.3,1.2-3.4,1.1c0.3-0.2,0.5-0.3,0.8-0.5c0.6-0.3,1.4-0.6,2.4-1c5.4-2,11.2-3.1,17-3.2c1.1,0,2,0,2.6,0.1
		C526.7,198.9,527.1,199,527.4,199.1z"/>
	<path class="st7" d="M535.9,240.8c-0.2,0.1-1.4-3.6-4.7-7c-3.2-3.4-6.8-5-6.7-5.2c0.8,0.2,1.6,0.6,2.3,1c3.5,2,6.4,5.1,8.2,8.8
		C535.5,239.1,535.8,239.9,535.9,240.8z"/>
	<path class="st7" d="M506.8,157.8c0.1,0.1-2,2.2-4.2,5s-3.9,5.2-4,5.2c-0.1-0.1,1.3-2.7,3.6-5.5
		C503.5,160.7,505.1,159.1,506.8,157.8z"/>
	<path class="st7" d="M500,146c0.2,0,0.6,2,1,4.5c0.4,2.5,0.7,4.5,0.5,4.6c-0.1,0-0.6-2-1-4.5C500.1,148.1,499.8,146,500,146z"/>
	<path class="st7" d="M478.8,183.1c0.1,0.1-1.4,3.2-3.3,7s-3.7,6.8-3.8,6.7s1.4-3.2,3.3-7C477,186,478.7,183,478.8,183.1z"/>
	<path class="st7" d="M466.2,170.5c0.1-0.1,1.4,2.2,2.8,5s2.5,5.2,2.3,5.3c-0.1,0.1-1.4-2.2-2.8-5
		C467.2,172.9,466.1,170.5,466.2,170.5z"/>
	<path class="st7" d="M447.7,213.5c0,0.2-2.3-0.3-5.1-0.5c-2.8-0.2-5.1-0.1-5.1-0.2c0-0.2,2.3-0.5,5.1-0.3S447.7,213.4,447.7,213.5z
		"/>
	<path class="st7" d="M460.3,251.5l6.3,33.1c0.4,2.2,2.3,3.8,4.6,3.8h18.6c2.3,0,4.2-1.6,4.6-3.9l5.5-33H460.3z"/>
	<polygon class="st8" points="462.4,262.3 498,262.3 499.9,251.5 460.3,251.5 	"/>
	<polygon class="st9" points="462.4,262.3 463.1,266.2 497.4,266.2 498,262.3 	"/>
</g>
<g id="freepik--Character--inject-393">
	<path class="st10" d="M262.3,310.3l2.2-9.3l18.1,0.4l-1.5,13.2l-1.1,0.1c-5.1,0.3-26,1.4-29.5,0.4
		C246.7,314,262.3,310.3,262.3,310.3z"/>
	<g class="st11">
		<path d="M274.4,314.6c0.3-1.6,1.1-3,2.3-4c1.2-1,2.8-1.5,4.3-1.4l0.1,5.2L274.4,314.6z"/>
	</g>
	<g class="st11">
		<path d="M254.7,312.4c0,0-5.5,1.7-4.8,2.5s21.9,0.6,31.2-0.3v-0.4l-24.7,0.5C256.4,314.7,255.8,312.4,254.7,312.4z"/>
	</g>
	<path class="st7" d="M281.3,314.2c-0.1,0-0.2,0-0.3,0l-0.9,0.1l-3.4,0.2c-2.8,0.1-6.7,0.3-11.1,0.3c-4.4,0.1-8.3,0-11.1,0l-3.4-0.1
		h-0.9h-0.3c0.1,0,0.2,0,0.3,0h0.9h3.4c2.8,0,6.7,0,11.1,0c4.4,0,8.3-0.2,11.1-0.3l3.4-0.1h0.9L281.3,314.2z"/>
	<path class="st7" d="M256.4,315.1c-0.2-0.6-0.4-1.1-0.6-1.6c-0.3-0.5-0.7-0.9-1.2-1.3c0.6,0.2,1.1,0.6,1.4,1.2
		C256.2,313.8,256.4,314.5,256.4,315.1z"/>
	<path class="st7" d="M261.8,312.2c-0.1,0-0.3-0.3-0.6-0.7c-0.3-0.4-0.5-0.8-0.4-0.8c0.1-0.1,0.3,0.3,0.6,0.7
		S261.8,312.2,261.8,312.2z"/>
	<path class="st7" d="M263.3,311.4c0,0-0.3-0.2-0.7-0.4c-0.3-0.3-0.6-0.6-0.5-0.6c0,0,0.3,0.1,0.7,0.4
		C263.1,311.1,263.3,311.4,263.3,311.4z"/>
	<path class="st7" d="M264.2,309.6c-0.3,0.1-0.6,0.2-1,0.1c-0.3,0-0.7,0-1-0.1c0.3-0.1,0.6-0.2,1-0.1
		C263.6,309.5,263.9,309.5,264.2,309.6z"/>
	<path class="st7" d="M264.5,308.4c-0.7,0.4-1.5,0.4-2.2,0.2c0.4-0.1,0.7-0.1,1.1-0.1C263.8,308.4,264.2,308.4,264.5,308.4z"/>
	<path class="st7" d="M261.1,310.6c-0.4,0.1-0.8,0.1-1.2,0c-0.4,0-0.9-0.1-1.3-0.3c-0.3-0.1-0.5-0.2-0.7-0.3
		c-0.1-0.1-0.3-0.2-0.3-0.3c0-0.2,0-0.4,0.2-0.5c0.9-0.5,2.1-0.2,2.7,0.6c0.2,0.2,0.3,0.5,0.4,0.8c0.1,0.2,0.1,0.3,0,0.3
		c-0.1-0.4-0.3-0.7-0.6-1c-0.3-0.3-0.6-0.5-1-0.6c-0.5-0.2-1-0.1-1.4,0.1c-0.2,0.1-0.1,0.4,0.1,0.5c0.2,0.1,0.4,0.2,0.7,0.3
		c0.4,0.1,0.8,0.2,1.2,0.3C260.7,310.5,261.1,310.5,261.1,310.6z"/>
	<path class="st7" d="M260.8,310.7c-0.1-0.3-0.2-0.6-0.1-0.8c0-0.3,0.1-0.6,0.3-0.8c0.2-0.4,0.6-0.6,1-0.6c0.3,0.1,0.4,0.3,0.4,0.5
		c0,0.2-0.1,0.4-0.2,0.5c-0.2,0.3-0.3,0.5-0.6,0.7c-0.4,0.4-0.7,0.5-0.7,0.5c0,0,0.2-0.2,0.6-0.6c0.2-0.2,0.4-0.5,0.5-0.7
		c0.2-0.3,0.3-0.7,0-0.8c-0.3-0.1-0.6,0.3-0.8,0.5c-0.2,0.2-0.3,0.5-0.3,0.8C260.8,310.1,260.8,310.4,260.8,310.7z"/>
	<path class="st7" d="M280.9,309.2c0,0-0.5,0-1.4,0.1c-2.2,0.3-4.1,1.8-4.8,3.9c-0.3,0.8-0.3,1.3-0.3,1.3c0-0.1,0-0.2,0-0.4
		c0-0.3,0.1-0.7,0.2-1c0.7-2.2,2.6-3.8,4.9-4c0.3,0,0.7,0,1,0C280.7,309.1,280.8,309.1,280.9,309.2z"/>
	<path class="st7" d="M278.9,301.5c0.1,1.3,0.2,2.5,0.2,3.8c0.1,1.3,0.1,2.5,0,3.8c-0.1-1.3-0.2-2.5-0.2-3.8
		C278.8,304,278.8,302.7,278.9,301.5z"/>
	<path class="st7" d="M272,312.8c-1.8,0.4-3.6,0.4-5.4,0.1c0-0.1,1.2,0,2.7,0S272,312.8,272,312.8z"/>
	<path class="st7" d="M275.6,312.8c0.1,0-0.1,0.3-0.2,0.5c-0.1,0.3-0.2,0.5-0.3,0.5c-0.1,0-0.1-0.3,0-0.6
		C275.3,312.9,275.6,312.7,275.6,312.8z"/>
	<path class="st7" d="M277,311c0.1,0-0.1,0.2-0.3,0.4s-0.4,0.3-0.4,0.3c0,0,0.1-0.2,0.3-0.4C276.7,311.1,276.9,311,277,311z"/>
	<path class="st7" d="M278.9,310.2c0,0.1-0.3,0.1-0.5,0.2c-0.3,0.1-0.5,0.3-0.5,0.2c-0.1,0,0.1-0.3,0.4-0.4
		C278.7,310.1,278.9,310.2,278.9,310.2z"/>
	<path class="st7" d="M280.3,309.9c0,0.1-0.1,0.2-0.2,0.2s-0.3,0.1-0.3,0s0.1-0.2,0.2-0.2S280.3,309.8,280.3,309.9z"/>
	<path class="st10" d="M336.3,310.3l0.1-9.9l-18.6-0.2l-0.2,14.5l1.2,0.1c5.1,0.3,26,1.4,29.5,0.4
		C352,314.1,336.3,310.3,336.3,310.3z"/>
	<g class="st11">
		<path d="M324.2,314.6c-0.3-1.6-1.1-3-2.3-4c-1.2-1-2.8-1.5-4.3-1.4l-0.1,5.2L324.2,314.6z"/>
	</g>
	<path class="st7" d="M317.3,314.3h0.3l0.9,0.1l3.4,0.2c2.8,0.1,6.7,0.3,11.1,0.3s8.3,0,11.1,0l3.4-0.1h0.9h0.3c-0.1,0-0.2,0-0.3,0
		h-0.9h-3.4c-2.8,0-6.8,0-11.1,0c-4.4,0-8.3-0.2-11.1-0.3l-3.4-0.1h-0.9L317.3,314.3z"/>
	<path class="st7" d="M342.3,315.1c0.2-0.6,0.4-1.1,0.6-1.6c0.3-0.5,0.7-0.9,1.2-1.3c-0.6,0.2-1.1,0.6-1.4,1.2
		C342.4,313.9,342.2,314.5,342.3,315.1z"/>
	<path class="st7" d="M336.8,312.2c0.1,0,0.3-0.3,0.6-0.7c0.3-0.4,0.5-0.8,0.4-0.8c-0.1-0.1-0.3,0.3-0.6,0.7
		S336.8,312.2,336.8,312.2z"/>
	<path class="st7" d="M335.3,311.5c0,0,0.3-0.1,0.7-0.4s0.5-0.5,0.5-0.6s-0.3,0.1-0.7,0.4C335.5,311.1,335.3,311.4,335.3,311.5z"/>
	<path class="st7" d="M334.4,309.7c0.3,0.1,0.6,0.2,1,0.1c0.3,0,0.7,0,1-0.1c-0.3-0.1-0.6-0.2-1-0.1
		C335.1,309.6,334.7,309.6,334.4,309.7z"/>
	<path class="st7" d="M334.1,308.5c0.7,0.4,1.5,0.4,2.2,0.2c-0.4-0.1-0.7-0.1-1.1-0.1C334.9,308.5,334.5,308.4,334.1,308.5z"/>
	<path class="st7" d="M337.5,310.7c0.4,0.1,0.8,0.1,1.2,0c0.4,0,0.9-0.1,1.3-0.3c0.2-0.1,0.5-0.2,0.7-0.3c0.1-0.1,0.2-0.2,0.3-0.4
		c0-0.2,0-0.4-0.2-0.5c-0.9-0.5-2.1-0.2-2.7,0.6c-0.2,0.2-0.3,0.5-0.4,0.8c0,0.1,0,0.2,0,0.3c0.1-0.4,0.3-0.7,0.6-1
		c0.3-0.3,0.6-0.5,1-0.6c0.5-0.2,1-0.1,1.4,0.1c0.2,0.1,0.1,0.4-0.1,0.5c-0.2,0.1-0.4,0.2-0.7,0.3c-0.4,0.1-0.8,0.2-1.2,0.3
		C337.9,310.6,337.5,310.6,337.5,310.7z"/>
	<path class="st7" d="M337.8,310.7c0.1-0.3,0.2-0.6,0.1-0.8c0-0.3-0.1-0.6-0.3-0.8c-0.2-0.4-0.6-0.6-1-0.6c-0.2,0.1-0.4,0.3-0.4,0.5
		c0,0.2,0.1,0.4,0.2,0.5c0.2,0.3,0.3,0.5,0.6,0.7c0.4,0.4,0.7,0.5,0.7,0.5c0,0-0.2-0.2-0.6-0.6c-0.2-0.2-0.4-0.5-0.5-0.7
		c-0.2-0.3-0.3-0.7,0-0.8c0.3-0.1,0.6,0.3,0.8,0.5c0.2,0.2,0.3,0.5,0.3,0.8C337.8,310.2,337.8,310.5,337.8,310.7z"/>
	<path class="st7" d="M317.7,309.2c0,0,0.5,0,1.4,0.1c2.2,0.3,4.1,1.8,4.8,3.9c0.3,0.8,0.3,1.3,0.3,1.3c0-0.1,0-0.2,0-0.4
		c0-0.3-0.1-0.7-0.2-1c-0.3-1.1-1-2.1-1.8-2.8c-0.9-0.7-2-1.2-3.1-1.3c-0.3,0-0.7,0-1,0C318,309.1,317.9,309.2,317.7,309.2z"/>
	<path class="st7" d="M319.8,301.5c-0.1,1.3-0.2,2.5-0.2,3.8c-0.1,1.3-0.1,2.5,0,3.8c0.1-1.3,0.2-2.5,0.2-3.8
		C319.8,304.1,319.8,302.8,319.8,301.5z"/>
	<path class="st7" d="M326.6,312.9c1.8,0.4,3.6,0.4,5.4,0.1c0-0.1-1.2,0-2.7,0S326.6,312.8,326.6,312.9z"/>
	<path class="st7" d="M323,312.8c-0.1,0,0.1,0.3,0.2,0.5c0.1,0.3,0.2,0.5,0.3,0.5s0.1-0.3,0-0.6C323.3,312.9,323,312.8,323,312.8z"
		/>
	<path class="st7" d="M321.7,311.1c-0.1,0,0.1,0.2,0.3,0.4c0.2,0.2,0.4,0.3,0.4,0.3s-0.1-0.2-0.3-0.4
		C321.9,311.2,321.7,311,321.7,311.1z"/>
	<path class="st7" d="M319.7,310.3c0,0.1,0.3,0.1,0.5,0.2c0.3,0.1,0.5,0.2,0.5,0.2s-0.1-0.3-0.4-0.4
		C320,310.1,319.7,310.2,319.7,310.3z"/>
	<path class="st7" d="M318.3,309.9c0,0.1,0.1,0.2,0.2,0.2s0.3,0.1,0.3,0s-0.1-0.2-0.2-0.2S318.3,309.9,318.3,309.9z"/>
	<polygon class="st7" points="346.8,129.5 338.4,308 315.2,308.6 317.1,153.8 282.4,308.9 262.7,308 293.6,129.9 	"/>
	<path class="st8" d="M322.7,131.9c0,1-0.1,2-0.2,2.9c-0.2,1.8-0.5,4.3-0.8,7c-0.1,1.3-0.3,2.6-0.6,3.9c-0.3,1.1-0.9,2-1.7,2.8
		c-0.6,0.5-1.2,0.8-2,1c-0.3,0.1-0.5,0.1-0.8,0c2-0.3,3.6-1.9,4-3.9c0.3-1.3,0.5-2.5,0.6-3.8c0.4-2.7,0.7-5.2,1-7
		C322.3,133.8,322.5,132.9,322.7,131.9z"/>
	<path class="st8" d="M317,133c0.1,0-0.2,0.3,0,0.8c0.1,0.3,0.2,0.5,0.5,0.6c0.3,0.1,0.6,0,0.8-0.2c0.2-0.2,0.3-0.5,0.2-0.8
		c-0.1-0.2-0.3-0.4-0.5-0.5c-0.5-0.2-0.8,0-0.8,0s0.2-0.4,0.9-0.3c0.4,0.1,0.7,0.3,0.8,0.7c0.2,0.7-0.1,1.4-0.8,1.6
		c-0.3,0.1-0.6,0.1-0.9,0c-0.3-0.2-0.6-0.5-0.6-0.9C316.6,133.2,317,132.9,317,133z"/>
	<path class="st8" d="M302.3,136.1c-0.7-1.6-0.6-3.5,0.3-4.9c0.1,0.1-0.2,1.1-0.3,2.5S302.5,136,302.3,136.1z"/>
	<path class="st8" d="M305.6,135.7c-0.7-1.7-0.6-3.5,0.2-5.1c0,0.8-0.1,1.7-0.2,2.5C305.7,134,305.7,134.9,305.6,135.7z"/>
	<path class="st8" d="M334.1,135.4c-0.1-0.9,0-1.8,0.1-2.7c-0.1-0.9-0.1-1.8,0-2.7C334.8,131.8,334.8,133.7,334.1,135.4L334.1,135.4
		z"/>
	<path class="st8" d="M337.7,135.1c-0.1-0.1,0.3-1.2,0.3-2.7c0-1.5-0.3-2.7-0.1-2.7c0.5,0.8,0.7,1.8,0.6,2.7
		C338.6,133.3,338.3,134.3,337.7,135.1z"/>
	<path class="st7" d="M332.4,17.6c0.9-1.1,1.7-3.1,1.1-4.5c1.1-0.6,1.2-1.6,1.2-2.8c-0.1-1.3-0.4-2.5-1.1-3.6
		c-0.9-1.9-2.3-3.4-4.1-4.5c-1.8-1-4.1-0.9-5.8,0.3c-2.5-3-6.9-3.3-9.9-0.8c-0.1,0-0.1,0.1-0.2,0.1c-0.4,0.5-1,1-1.5,1.4
		c-1,0.6-2.2,0.3-3.4,0.5c-3.2,0.3-5.7,3.1-5.4,6.4c0.1,0.6,0.2,1.3,0.5,1.8c-1.6,1.1-2.6,2.9-2.7,4.9c-0.1,1.9,0.1,3.9,0.7,5.8
		c0.5,2.3,1.1,4.8,2.8,6.5c1.1,1.2,2.7,1.9,4.3,2c2.4,0.2,4.7-0.9,6.1-2.9"/>
	<path class="st13" d="M307.8,57.4l18.7-0.8c0.1-2-0.9-14.3-0.9-14.3s7.1-1.1,7.2-8.2s-1.1-23.3-1.1-23.3l0,0
		c-8.2-3.5-17.7-2.3-24.7,3.1l-1,0.8L307.8,57.4z"/>
	<path class="st14" d="M325.6,42.2c-3.3,0.1-6.5-0.8-9.3-2.6c0,0,2.2,5.1,9.3,4.5V42.2z"/>
	<path class="st13" d="M306.7,22c-0.1-0.1-4.9-1.4-4.7,3.4s5,3.7,5,3.5C307,28.8,306.7,22,306.7,22z"/>
	<path class="st14" d="M305.4,27.2c0,0-0.1,0.1-0.2,0.1c-0.2,0.1-0.4,0.1-0.6,0c-0.7-0.4-1-1.1-1-1.8c0-0.4,0-0.8,0.2-1.2
		c0.1-0.3,0.3-0.6,0.6-0.7c0.2-0.1,0.4,0,0.5,0.2c0.1,0.1,0,0.2,0.1,0.2c0,0,0.1-0.1,0.1-0.3c0-0.1-0.1-0.2-0.2-0.3
		c-0.1-0.1-0.3-0.1-0.5-0.1c-0.4,0.1-0.7,0.4-0.8,0.8c-0.2,0.4-0.3,0.9-0.3,1.4c0,0.9,0.5,1.7,1.3,2c0.3,0.1,0.5,0,0.8-0.2
		C305.4,27.2,305.5,27.2,305.4,27.2z"/>
	<path class="st7" d="M330,21.8c0,0.5-0.4,1-1,1c-0.5,0-1-0.4-1-0.9c0,0,0,0,0,0c0-0.5,0.4-1,1-1C329.5,20.9,330,21.3,330,21.8
		C330,21.8,330,21.8,330,21.8z"/>
	<path class="st7" d="M330.3,20.7c-0.1,0.1-0.9-0.4-2-0.4c-1.1,0-1.9,0.5-2,0.4c-0.1-0.1,0.1-0.3,0.4-0.5c0.5-0.3,1-0.5,1.6-0.5
		c0.6,0,1.1,0.2,1.6,0.5C330.2,20.4,330.3,20.6,330.3,20.7z"/>
	<path class="st7" d="M319.4,22.1c0,0.5-0.4,1-1,1c-0.5,0-1-0.4-1-0.9c0,0,0,0,0,0c0-0.5,0.4-1,1-1
		C318.9,21.1,319.3,21.5,319.4,22.1C319.4,22.1,319.4,22.1,319.4,22.1z"/>
	<path class="st7" d="M319.6,20.9c-0.1,0.1-0.9-0.4-2-0.4c-1.1,0-1.9,0.5-2,0.4c-0.1-0.1,0.1-0.3,0.4-0.5c0.5-0.3,1-0.5,1.6-0.5
		c0.6,0,1.1,0.2,1.6,0.5C319.5,20.6,319.6,20.8,319.6,20.9z"/>
	<path class="st7" d="M323.5,29c0.6-0.2,1.2-0.3,1.8-0.3c0.3,0,0.5-0.1,0.6-0.3c0-0.3,0-0.6-0.2-0.8l-0.8-2.1
		c-0.8-1.8-1.4-3.6-1.8-5.5c0.9,1.7,1.7,3.5,2.3,5.4l0.8,2.1c0.2,0.3,0.2,0.7,0.1,1.1c-0.1,0.2-0.2,0.3-0.5,0.4
		c-0.2,0-0.3,0.1-0.5,0.1C324.7,29,324.1,29,323.5,29z"/>
	<path class="st7" d="M320.3,29.8c0.2,0,0.2,1.2,1.2,2c1,0.8,2.3,0.7,2.3,0.8c0,0.1-0.3,0.2-0.8,0.2c-0.7,0-1.4-0.2-1.9-0.7
		c-0.5-0.4-0.8-1-0.9-1.7C320.1,30,320.2,29.8,320.3,29.8z"/>
	<path class="st7" d="M319.9,16.6c-0.1,0.3-1.2,0.2-2.5,0.3c-1.3,0.2-2.3,0.5-2.5,0.2c-0.1-0.1,0.1-0.4,0.5-0.7
		c0.6-0.4,1.2-0.6,1.8-0.6c0.7-0.1,1.3,0,1.9,0.2C319.7,16.3,319.9,16.5,319.9,16.6z"/>
	<path class="st7" d="M329.9,17.6c-0.2,0.3-0.9,0-1.8,0s-1.7,0.2-1.8-0.1c-0.1-0.1,0-0.4,0.4-0.6c0.9-0.6,2.1-0.5,3,0.1
		C329.9,17.2,330,17.4,329.9,17.6z"/>
	<path class="st7" d="M305.4,14.3c0.1,2.1-0.4,4.4,0,6.4c0.1,0.3,0.8,1.1,0.9,1.4c0.4,1.8,1.2,2.5,2.2,0.7c0.4-1.1,0.7-2.3,0.8-3.5
		l1.3-6.5c1.7,0.9,3.5,1.3,5.4,1.3c1.9-0.1,3.6-1.1,4.6-2.7c1.6,2.7,5.1,3.6,7.8,1.9c0.4-0.2,0.7-0.5,1-0.8c0.7,1,2.1,1.3,3.2,0.7
		c1-0.7,1.5-1.9,1.2-3.1c-0.5-1.7-2.3-2.7-4.1-3.2c-6.7-2-14.2-0.4-20.2,3.1c-0.9,0.5-1.7,1.1-2.4,1.8c-0.7,0.8-1.6,1.7-1.7,2.7"/>
	<path class="st8" d="M321.5,26c0,0,0.3-0.3,0.6-0.9c0.5-0.8,0.6-1.8,0.5-2.8c-0.3-2.3-2.5-3.9-4.8-3.6c-2.3,0.3-3.9,2.5-3.6,4.8
		c0.3,1.9,1.7,3.3,3.6,3.6c1,0.1,1.9,0,2.8-0.5C321.2,26.2,321.4,25.9,321.5,26s-0.1,0.1-0.2,0.2c-0.2,0.2-0.4,0.4-0.6,0.5
		c-0.9,0.6-1.9,0.8-2.9,0.7c-2.5-0.3-4.3-2.6-4-5.1c0.3-2.5,2.6-4.3,5.1-4c2.1,0.3,3.7,1.9,4,4c0.1,1-0.1,2-0.7,2.9
		c-0.1,0.2-0.3,0.4-0.5,0.6C321.6,25.9,321.5,26,321.5,26z"/>
	<path class="st8" d="M332.7,26c0,0,0.3-0.3,0.6-0.9c0.5-0.8,0.6-1.8,0.5-2.8c-0.3-2.3-2.5-3.9-4.8-3.6c-2.3,0.3-3.9,2.5-3.6,4.8
		c0.3,1.9,1.7,3.3,3.6,3.6c1,0.1,1.9,0,2.8-0.5C332.4,26.2,332.6,25.9,332.7,26c0.1,0-0.1,0.1-0.2,0.2c-0.2,0.2-0.4,0.4-0.6,0.5
		c-0.9,0.6-1.9,0.8-2.9,0.7c-2.5-0.3-4.3-2.6-4-5.1c0.3-2.5,2.6-4.3,5.1-4c2.1,0.3,3.7,1.9,4,4c0.1,1-0.1,2-0.7,2.9
		c-0.1,0.2-0.3,0.4-0.5,0.6C332.8,25.9,332.7,26,332.7,26z"/>
	<path class="st8" d="M325.3,22.5c0,0.1-0.6,0.2-1.2,0.2c-0.7,0-1.3-0.1-1.3-0.2c0-0.1,0.6-0.2,1.3-0.2
		C324.7,22.3,325.3,22.4,325.3,22.5z"/>
	<path class="st8" d="M306.4,22.2c1.3-0.3,2.6-0.4,3.9-0.4c1.3-0.1,2.6-0.1,3.9,0.1c-1.3,0.3-2.6,0.4-3.9,0.3
		C308.9,22.4,307.7,22.4,306.4,22.2z"/>
	<path class="st13" d="M310.4,20.8l-6.1-2.2l-5.7,2l-7.9,8.3l-5.2,4.9l8.4,3.7l4.5-1.8l7.1-4.8l4-7.6c0,0-1.1-0.5-2.4,1.3l-1.2,1.6
		l-1.1-4.4v-1.3l3.6,1.1c0.7,0.2,1.5,0,2-0.6L310.4,20.8z"/>
	<path class="st14" d="M299.1,27.2c0.1,0,0.3,0.3,0.5,1c0.6,1.7,0.5,3.6-0.3,5.2c-0.3,0.6-0.6,0.9-0.6,0.9c0.4-1.1,0.7-2.3,0.8-3.5
		C299.5,29.6,299.4,28.4,299.1,27.2z"/>
	<path class="st14" d="M299.1,27.3c0.7-0.2,1.5-0.4,2.2-0.5l0,0h0.1c0.3,0.2,0.4,0.5,0.4,0.8c-0.1,0.3-0.2,0.6-0.4,0.8
		c-0.2,0.2-0.2,0.5-0.2,0.8c0.1,0.3,0.3,0.5,0.6,0.7h-0.3c0.6-0.4,1.1-0.9,1.5-1.5c0.6-0.9-0.1-1.9-0.4-2.8
		c-0.1-0.2-0.2-0.4-0.3-0.6c-0.1-0.1-0.3-0.1-0.5-0.1l-1.2,0.2c-0.8,0.2-1.6,0.3-2.4,0.3c0.8-0.3,1.5-0.5,2.3-0.6l1.2-0.2
		c0.3-0.1,0.6,0,0.8,0.2c0.2,0.2,0.3,0.4,0.4,0.7c0.2,0.5,0.4,0.9,0.6,1.4c0.2,0.6,0.1,1.2-0.2,1.8c-0.4,0.7-1,1.2-1.7,1.6l-0.1,0.1
		l-0.1-0.1c-0.3-0.2-0.6-0.5-0.7-0.9c-0.1-0.4,0-0.8,0.2-1.1c0.2-0.2,0.3-0.5,0.4-0.7c0.1-0.2,0-0.4-0.2-0.5h0.1
		C300.6,27.2,299.9,27.3,299.1,27.3z"/>
	<path class="st14" d="M303.6,28c0,0,0.1,0.2,0.4,0.3c0.4,0.1,0.8-0.1,0.9-0.5c0,0,0,0,0,0c0.1-0.6,0-1.3-0.4-1.9
		c-0.3-0.7-0.6-1.6-1-2.3c-0.4-0.8-1.3-0.6-2.1-0.6c-0.8,0.1-1.5,0.2-2,0.3c-0.6,0.1-1.3,0.2-1.9,0.3c0.6-0.3,1.2-0.5,1.8-0.6
		c0.6-0.1,1.3-0.3,2.1-0.4c0.4-0.1,0.8-0.1,1.3-0.1c0.5,0,1,0.4,1.2,0.8c0.4,0.8,0.7,1.7,1,2.4c0.1,0.4,0.3,0.7,0.4,1.1
		c0.1,0.3,0,0.7-0.1,1c-0.1,0.3-0.3,0.5-0.6,0.6c-0.2,0.1-0.5,0.1-0.7-0.1C303.6,28.2,303.6,28,303.6,28z"/>
	<path class="st14" d="M306,26.3c-0.3-0.5-0.5-1.1-0.6-1.6c-0.2-0.6-0.3-1.2-0.5-1.8c-0.1-0.3-0.2-0.7-0.3-1
		c-0.1-0.3-0.4-0.6-0.7-0.7c-0.7-0.1-1.4-0.1-2.1,0.2l-1.8,0.5c-0.5,0.2-1.1,0.3-1.7,0.3c0.5-0.3,1-0.5,1.6-0.6l1.8-0.6
		c0.7-0.3,1.6-0.4,2.4-0.2c0.4,0.2,0.8,0.5,0.9,1c0.1,0.4,0.2,0.7,0.3,1.1l0.4,1.8C305.9,25.1,305.9,25.7,306,26.3z"/>
	<path class="st14" d="M290.7,28.9c0-0.1,0.1-0.1,0.1-0.2c0.1-0.1,0.2-0.3,0.4-0.4l1.6-1.7l5.8-6.1l0,0l0,0l5.7-2l0,0h0l6.1,2.2h0.1
		v0.4l0,0c-0.2,0.3-0.6,0.5-1,0.6c-0.4,0.1-0.8,0.1-1.2,0l0,0l-2.5-0.8l-1.1-0.3l0.2-0.1c0,0.4,0,0.8,0,1.3v0c0.4,1.5,0.8,3,1.1,4.4
		h-0.2c0.5-0.7,1-1.4,1.5-2c0.5-0.7,1.4-1.1,2.3-0.9h0.1l-0.1,0.1l-4,7.6l0,0l0,0l-5.2,3.5l-1.5,1c-0.3,0.2-0.5,0.3-0.5,0.3
		s0.2-0.1,0.5-0.4l1.4-1l5.2-3.6l0,0l4-7.6l0.1,0.2c-0.4-0.1-0.7-0.1-1.1,0.1c-0.3,0.2-0.7,0.4-0.9,0.7c-0.5,0.6-1,1.3-1.5,2
		l-0.2,0.2l-0.1-0.3c-0.4-1.4-0.8-2.9-1.2-4.4l0,0c0-0.4,0-0.8,0-1.3v-0.2l0.2,0.1l1.1,0.3l2.5,0.8l0,0c0.4,0.1,0.7,0.1,1.1,0
		c0.3-0.1,0.6-0.3,0.8-0.6v0.1v-0.3l0.1,0.1l-6.1-2.2h0.1l-5.7,2l0,0l-5.8,6l-1.6,1.7l-0.4,0.4C290.8,28.9,290.8,28.9,290.7,28.9z"
		/>
	<path class="st10" d="M293.2,82.3l-0.4-29.1l7.6-2.5c2.4-0.5,4.7-1.3,7.5-1.4l0,0c5.3,4.2,12.7,4.3,18.1,0.2l0.3-0.2
		c0.7,0.1,1.7,0.2,2.9,0.3h0.2c3,0.4,5.9,1.5,8.3,3.3l0,0l37.7,22.5l22.1-16.9l11.2,8.8c0,0-29,29-31.8,29.7
		c-1.9,0.5-21.3-10.1-33-16.6c0.5,7,3.1,46.1,3,51.4h-53.9l0-24.6v-6.7L293.2,82.3z"/>
	<path class="st7" d="M343.1,63.7c-0.1,0.4-0.1,0.9,0,1.3c0,0.9,0.1,2.1,0.1,3.5c0.1,3,0.3,7.1,0.5,11.6c0.2,4.5,0.5,8.6,0.7,11.6
		c0.1,1.4,0.2,2.5,0.3,3.5c0,0.4,0.1,0.9,0.2,1.3c0.1-0.4,0.1-0.9,0-1.3c0-0.9-0.1-2.1-0.1-3.5c-0.1-3-0.3-7.1-0.5-11.6
		c-0.2-4.5-0.5-8.6-0.7-11.6c-0.1-1.4-0.2-2.5-0.3-3.5C343.2,64.6,343.2,64.1,343.1,63.7z"/>
	<path class="st7" d="M391.5,63.3c-0.1,0.1,2.3,2.4,5.4,5.2c3.1,2.7,5.7,4.8,5.8,4.7c0.1-0.1-2.3-2.4-5.5-5.1c-1.6-1.4-3-2.5-4-3.4
		C392.7,64.2,392.1,63.7,391.5,63.3z"/>
	<path class="st7" d="M388.9,65.3c-0.1,0.1,2.4,2.4,5.5,5.2c1.6,1.4,3,2.6,4,3.5c0.5,0.5,1.1,1,1.8,1.3c-0.4-0.6-1-1.1-1.5-1.6
		c-1-0.9-2.4-2.2-4-3.6c-1.6-1.4-3-2.6-4.1-3.5C390.2,66.1,389.6,65.6,388.9,65.3z"/>
	<path class="st10" d="M287.3,29c0,0-21.6,20.1-28.4,28.4c-3.1,3.7-3.8,9.3-1.3,13.4l0,0c2,3.3,5.6,5.2,9.5,5l26-1.7l2-21.6
		l-15.7,4.9l18.3-19.1L287.3,29z"/>
	<path class="st7" d="M292.9,91.2c-0.1,0-0.2-4.6-0.1-10.3c0.1-5.7,0.2-10.3,0.4-10.3s0.2,4.6,0.1,10.3
		C293.2,86.5,293,91.2,292.9,91.2z"/>
	<path class="st7" d="M286.4,49.9c-0.2,0.3-0.4,0.6-0.6,0.8l-1.9,2.1c-1.6,1.8-3.9,4.3-6.6,7.1l0.1-0.1c-0.3,0.9-0.6,1.8-0.9,2.8
		c-0.7,2-1.7,4-2.9,5.8c-1,1.5-2.3,2.7-3.8,3.6c-1,0.7-2.1,1.1-3.3,1.3c-0.3,0.1-0.6,0.1-1,0.1c-0.2,0-0.3,0-0.3,0s0.5-0.1,1.3-0.3
		c1.1-0.3,2.2-0.8,3.2-1.4c1.4-1,2.7-2.2,3.7-3.6c1.1-1.8,2.1-3.7,2.8-5.7c0.3-0.9,0.6-1.9,0.9-2.7v-0.1l0,0c2.6-2.8,5-5.3,6.7-7
		l2-2C285.9,50.4,286.1,50.2,286.4,49.9z"/>
	<path class="st7" d="M276.1,63.3c0.8,2.7,0.4,5.5-1,7.9c-0.1-0.1,0.6-1.7,0.8-3.9C276.2,65,275.9,63.3,276.1,63.3z"/>
	<path class="st9" d="M300.7,131.3c0-0.1-0.1-0.1-0.1-0.2l-0.3-0.5l-1.2-2c-0.7-1.1-1.3-2.2-1.8-3.3c-0.8-1.5-1-3.2-0.8-4.9
		c0.3-1.9,1.5-3.6,2.3-5.6c0.4-1,0.7-2.1,0.7-3.2c0-1.2-0.1-2.3-0.4-3.5c-0.5-2.4-1.4-4.8-1.6-7.4c-0.2-2.7,0.1-5.5,0.7-8.2
		c0.6-2.7,1.4-5.4,1.9-7.9c0.3-1.3,0.5-2.5,0.6-3.8c0-0.6,0.1-1.2,0.1-1.9c0-0.6,0-1.2,0-1.8c-0.3-4.3-1-8.5-2.1-12.6
		c-0.8-3.6-1.4-6.5-1.7-8.5c-0.1-1-0.2-1.8-0.3-2.4c0-0.2,0-0.4,0-0.6c0-0.1,0-0.1,0-0.2c0,0,0,0.1,0,0.2c0,0.1,0.1,0.4,0.1,0.6
		c0.1,0.5,0.2,1.3,0.3,2.3c0.3,2,1,4.9,1.8,8.5c1.2,4.2,1.9,8.4,2.2,12.7c0,0.6,0,1.2,0,1.9c0,0.6-0.1,1.3-0.1,1.9
		c-0.1,1.3-0.3,2.5-0.6,3.9c-0.5,2.6-1.3,5.2-1.9,7.9c-0.7,2.6-0.9,5.3-0.7,8c0.2,2.6,1.1,5,1.6,7.4c0.3,1.2,0.4,2.4,0.3,3.6
		c0,1.1-0.3,2.3-0.7,3.3c-0.8,2-1.9,3.7-2.3,5.5c-0.3,1.6,0,3.3,0.7,4.7c0.5,1.1,1.1,2.2,1.7,3.3l1.1,2.1l0.3,0.5
		C300.7,131.2,300.7,131.3,300.7,131.3z"/>
	<path class="st9" d="M312.4,52.5c0,0.1,0,0.1,0.1,0.2l0.1,0.6c0.1,0.5,0.3,1.3,0.4,2.3c0.5,2.8,0.7,5.7,0.7,8.6
		c0.1,4.3-0.3,8.6-1.1,12.8c-0.8,4.7-2.2,9.9-2.7,15.4c-0.5,5.5,0.4,10.8,1,15.6c0.7,4.2,1.1,8.5,1.3,12.7c0.1,2.9-0.3,5.8-1,8.6
		l-0.2,0.7l-0.2,0.6l-0.4,0.9l-0.2,0.6c-0.1,0.1-0.1,0.2-0.1,0.2c0-0.1,0-0.1,0-0.2l0.2-0.6l0.3-0.9c0.1-0.2,0.1-0.4,0.2-0.6
		c0.1-0.2,0.1-0.5,0.2-0.7c0.7-2.8,1-5.7,0.8-8.5c-0.2-4.2-0.7-8.5-1.4-12.6c-0.7-4.8-1.5-10.1-1.1-15.7c0.4-5.6,1.9-10.7,2.7-15.4
		c0.8-4.2,1.2-8.4,1.2-12.7c0-2.9-0.2-5.7-0.6-8.6c-0.1-1-0.3-1.8-0.3-2.3c0-0.2-0.1-0.4-0.1-0.6C312.4,52.6,312.4,52.5,312.4,52.5z
		"/>
	<path class="st9" d="M332.2,131.3l-0.1-0.2l-0.3-0.5c-0.2-0.3-0.3-0.6-0.4-0.9c-0.1-0.2-0.2-0.4-0.2-0.6c-0.1-0.2-0.1-0.5-0.2-0.7
		c-0.3-1.2-0.4-2.5-0.3-3.8c0.1-1.7,0.4-3.4,0.7-5c0.4-2,0.6-4,0.8-6c0-2.3-0.4-4.6-1.2-6.7c-1-2.4-1.7-4.9-2.3-7.4
		c-0.4-2.8-0.4-5.6,0.2-8.3c0.4-2.8,1-5.5,1.2-8.2c0.1-2.6-0.1-5.1-0.6-7.6c-0.9-4.8-2.3-9.1-2.7-12.8c-0.5-2.9-0.4-5.9,0.3-8.8
		c0.2-1.1,0.6-2.1,1.1-3.1c0,0.1,0,0.1-0.1,0.2l-0.2,0.6c-0.3,0.7-0.5,1.5-0.7,2.3c-0.6,2.9-0.6,5.8-0.1,8.7
		c0.5,3.7,1.8,7.9,2.8,12.8c0.5,2.5,0.7,5.1,0.6,7.7c-0.2,2.7-0.7,5.4-1.2,8.2c-0.5,2.7-0.6,5.5-0.2,8.2c0.6,2.5,1.4,5,2.3,7.3
		c0.4,1.1,0.7,2.3,0.9,3.5c0.2,1.1,0.3,2.3,0.2,3.4c-0.1,2-0.4,4.1-0.8,6.1c-0.3,1.6-0.6,3.3-0.7,5c-0.1,1.3,0,2.5,0.2,3.8
		C331.4,129.4,331.7,130.4,332.2,131.3z"/>
	<path class="st9" d="M339.4,55.5c0,0.1,0.1,0.1,0.1,0.2l0.2,0.6c0.2,0.5,0.3,1.2,0.5,2.2c0.4,2.7,0.5,5.5,0.3,8.3
		c-0.2,3.5-0.9,7.6-1.5,12.2c-0.7,5-1,10-0.9,15c0.2,9.1,1,18.2,2.4,27.3c0.5,3.4,0.9,6.2,1.2,8.2c0.1,0.9,0.2,1.7,0.3,2.2
		c0,0.2,0.1,0.4,0.1,0.6c0,0.1,0,0.1,0,0.2c0-0.1,0-0.1-0.1-0.2c0-0.2-0.1-0.3-0.1-0.6c-0.1-0.5-0.2-1.3-0.4-2.2
		c-0.3-1.9-0.8-4.7-1.4-8.2c-1.5-9-2.3-18.2-2.5-27.3c0-5,0.3-10.1,1-15.1c0.7-4.6,1.4-8.7,1.6-12.2c0.2-2.8,0.2-5.5-0.2-8.3
		c-0.2-1-0.3-1.7-0.4-2.2l-0.1-0.6C339.4,55.7,339.4,55.6,339.4,55.5z"/>
	<path class="st9" d="M352.4,85.7c-0.1-0.3-0.1-0.6-0.1-0.8c-0.1-0.6-0.1-1.4-0.2-2.4c-0.1-2-0.2-4.8-0.2-7.8c0-3.1,0.1-5.8,0.1-7.8
		c0.1-1,0.1-1.8,0.1-2.4c0-0.3,0-0.6,0.1-0.8c0.1,0.3,0.1,0.6,0.1,0.8v2.4c0,2.1,0,4.8,0,7.8c0,3,0.1,5.7,0.1,7.8c0,0.9,0,1.7,0,2.4
		C352.4,85.1,352.4,85.4,352.4,85.7z"/>
	<path class="st9" d="M360.5,66.7c-0.1,0.3-0.2,0.5-0.4,0.8c-0.3,0.7-0.5,1.5-0.5,2.2c0,1,0.2,2.2,0.3,3.4c0.1,1.3,0.4,2.7,0.6,4.2
		c0.2,1.4,0.2,2.9,0.1,4.3c-0.1,1.2-0.4,2.3-0.8,3.4c-0.3,0.7-0.7,1.4-1.2,2c-0.4,0.4-0.6,0.6-0.6,0.6c0.6-0.9,1.1-1.8,1.6-2.8
		c0.8-2.4,1-5,0.6-7.6c-0.2-1.5-0.5-2.9-0.6-4.2c-0.1-1.2-0.2-2.3-0.2-3.5c0-0.8,0.2-1.6,0.6-2.3C360.1,67.1,360.3,66.9,360.5,66.7z
		"/>
	<path class="st9" d="M269.7,74.4c0.4,0,0.8,0,1.1,0c1,0,2-0.1,3-0.3c1.4-0.4,2.7-1.3,3.6-2.4c1.1-1.3,2.2-2.8,3.5-4.3
		c2.5-3.1,4.7-5.9,6.3-7.9l2-2.4c0.2-0.3,0.5-0.6,0.8-0.8c-0.2,0.3-0.4,0.6-0.6,0.9l-1.8,2.5c-1.6,2-3.8,4.9-6.2,8
		c-1.2,1.5-2.4,3-3.5,4.3c-1,1.2-2.4,2.1-3.9,2.5c-1,0.2-2.1,0.2-3.1,0.1C270.4,74.5,270,74.5,269.7,74.4z"/>
	<path class="st9" d="M291.1,34.1c-0.1,0.2-0.1,0.3-0.2,0.5c-0.2,0.5-0.4,0.9-0.7,1.3c-1,1.6-2.3,3-3.7,4.2
		c-1.8,1.5-4.2,3.1-6.7,4.9c-2.5,1.8-5.2,4.1-6.8,7.3c-0.7,1.6-1.6,3.2-2.5,4.7c-1,1.4-2.2,2.5-3.6,3.4c-1.3,0.9-2.6,1.7-3.7,2.5
		c-1.1,0.7-2,1.6-2.8,2.5c-1.2,1.4-1.8,3.3-1.6,5.1c0.1,0.7,0.4,1.3,0.7,1.9c0,0,0,0-0.1-0.1c-0.1-0.1-0.2-0.2-0.2-0.3
		c-0.3-0.4-0.4-0.9-0.5-1.4c-0.3-1.9,0.3-3.9,1.5-5.3c0.8-1,1.8-1.9,2.9-2.6c1.1-0.8,2.4-1.6,3.7-2.5c1.4-0.9,2.5-2,3.5-3.4
		c0.9-1.5,1.7-3,2.4-4.6c1.7-3.3,4.4-5.6,7-7.4c2.5-1.8,4.9-3.4,6.7-4.8c1.5-1.1,2.7-2.5,3.8-4c0.3-0.4,0.6-0.8,0.8-1.3
		C290.9,34.3,291,34.2,291.1,34.1z"/>
	<g class="st5">
		<path d="M265.6,73.4c7.3,0.1,13.4-5.7,13.5-13.1c0,0,0-0.1,0-0.1c0-0.4-0.1-1-0.5-1.2c-0.4-0.1-0.8,0-1.1,0.4
			c-0.2,0.3-0.3,0.7-0.4,1.1c-1.2,5.8-5.1,10.8-10.5,13.2"/>
	</g>
	<g class="st5">
		<path d="M369.3,72.8c-0.6,0.5-1,1-1.3,1.7c-1.8,2.9-5.4,4-7.9,6.5c-1.8,1.8-3.3,4-3.3,6.6l4,1.8l10.3-16
			C370.9,72.6,369.9,72.4,369.3,72.8z"/>
	</g>
	<path class="st15" d="M184.3,272.2c0,0-13.9,3-6.7,19.8c7.2,16.9,2.9,21.5-2.1,22.6l38-0.2l3.4-42.4L184.3,272.2z"/>
	<path class="st16" d="M211.9,314.6c-2.7,0-5.3-1-7.3-2.7c-3.1-2.7-7-7.9-7.8-16.8c-1.6-18.9-12.6-22.9-12.6-22.9l32.6-0.1
		c0,0,10.6,0,11.5,16.8c0.9,17.6,25.3,27.6,40.3,25.7L211.9,314.6z"/>
	<path class="st17" d="M260.5,243c0,0-17.1-2-19,35.8c-1.9,37.9-30.5,35.8-30.5,35.8h57.1c0,0,11.9-2.6,9.1-29.4
		c-1.2-11.2,19-42.3,19-42.3L260.5,243z"/>
	<path class="st15" d="M251,247.3c-1.8,2.2-1.1,5.7,0.5,8c1.6,2.4,4.1,4,6.6,5.3c2.5,1.3,5.2,2.4,7.4,4.2c3.5,2.7,5.8,6.7,7.3,10.8
		c1.3,4.2,2.2,8.6,2.6,13c0,0-1.9-31.4-7.4-40.1C262.5,239.7,254.5,243.1,251,247.3z"/>
	<path class="st16" d="M295,314.6c0,0-16.9,0.8-19.2-18.7s-4.3-51.7-15.3-52.9h34.6c4.9,0,9.2,3,11,7.5c1.5,3.9,3,9.6,4,17.9
		c2,17.6,11.9,46.5,36.9,46.2L295,314.6z"/>
	<path class="st7" d="M306.4,298.5c0,0.1-5.1,0.2-11.3,0.2c-6.2,0-11.3-0.1-11.3-0.2c0-0.1,5.1-0.2,11.3-0.2
		C301.3,298.3,306.4,298.4,306.4,298.5z"/>
	<path class="st7" d="M312.1,299.9c-0.1-1.1-0.2-2.2-0.2-3.3l0.2,0.2h-3.3l0.2-0.2l0,0v0.8c0,0.3,0,0.6,0,0.8c0,0.5,0,1.1,0,1.6
		l-0.2-0.2c1.1,0,2.2,0.1,3.3,0.2c-1.1,0.1-2.2,0.2-3.3,0.2h-0.2v-0.2c0-0.5,0-1,0-1.6c0-0.3,0-0.6,0-0.8v-0.8l0,0l0.2-0.2h3.3h0.2
		v0.2C312.3,297.6,312.3,298.7,312.1,299.9z"/>
	<path class="st7" d="M311.5,305.8c0,0.1-5.1,0.2-11.2,0.2s-11.3-0.1-11.3-0.2s5.1-0.2,11.3-0.2S311.5,305.6,311.5,305.8z"/>
	<path class="st7" d="M317.3,307.1c-0.1-1.1-0.2-2.2-0.2-3.3l0.2,0.2H314l0.2-0.2l0,0v1.7c0,0.6,0,1.1,0,1.6l-0.2-0.2
		C315.1,306.9,316.2,307,317.3,307.1c-1.1,0.1-2.2,0.2-3.3,0.1h-0.2v-0.2c0-0.5,0-1,0-1.6v-1.7l0,0c-0.2,0.2,0.3-0.3,0.2-0.2h3.3
		h0.2v0.2C317.5,304.9,317.4,306,317.3,307.1z"/>
	<path class="st7" d="M302,280.2c0,0.1-5.1,0.2-11.2,0.2s-11.3-0.1-11.3-0.2c0-0.1,5.1-0.2,11.3-0.2S302,280.1,302,280.2z"/>
	<path class="st7" d="M307.8,281.6c-0.1-1.1-0.2-2.2-0.2-3.3l0.2,0.2h-3.3l0.2-0.2l0,0v1.7c0,0.5,0,1.1,0,1.6l-0.2-0.2
		C305.6,281.3,306.7,281.3,307.8,281.6c-1.1,0.1-2.2,0.1-3.3,0.1h-0.2v-0.2c0-0.5,0-1,0-1.6v-1.7l0,0c-0.2,0.2,0.3-0.3,0.2-0.2h3.3
		h0.2v0.2C308,279.3,307.9,280.4,307.8,281.6z"/>
	<path class="st7" d="M300.8,270.7c0,0.1-5.1,0.2-11.3,0.2s-11.3-0.1-11.3-0.2c0-0.1,5.1-0.2,11.3-0.2S300.8,270.5,300.8,270.7z"/>
	<path class="st7" d="M306.5,272c-0.1-1.1-0.2-2.2-0.2-3.3l0.2,0.2h-3.3l0.2-0.2l0,0v0.8c0,0.3,0,0.6,0,0.8c0,0.5,0,1.1,0,1.6
		l-0.2-0.2C304.4,271.7,305.5,271.8,306.5,272c-1.1,0-2.2,0.1-3.3,0.1h-0.2v-0.2c0-0.5,0-1,0-1.6c0-0.3,0-0.6,0-0.8v-0.8l0,0
		c-0.2,0.2,0.3-0.3,0.2-0.2h3.3h0.2v0.2C306.8,269.8,306.7,270.9,306.5,272z"/>
	<path class="st7" d="M299.1,261.9c0,0.1-5.1,0.2-11.3,0.2s-11.3-0.1-11.3-0.2c0-0.1,5.1-0.2,11.3-0.2S299.1,261.8,299.1,261.9z"/>
	<path class="st7" d="M304.9,263.3c-0.1-1.1-0.2-2.2-0.2-3.3l0.2,0.2h-3.3l0.2-0.2l0,0v0.8c0,0.3,0,0.6,0,0.8c0,0.5,0,1.1,0,1.6
		l-0.2-0.2C302.7,263,303.8,263,304.9,263.3c-1.1,0.1-2.2,0.1-3.3,0.1h-0.2v-0.2c0-0.5,0-1,0-1.6c0-0.3,0-0.6,0-0.8v-0.8l0,0
		c-0.2,0.2,0.3-0.3,0.2-0.2h3.3h0.2v0.3C305.1,261.1,305,262.2,304.9,263.3z"/>
	<path class="st7" d="M296.8,253.9c0,0.1-5.1,0.2-11.3,0.2c-6.2,0-11.3-0.1-11.3-0.2c0-0.1,5.1-0.2,11.3-0.2
		C291.8,253.7,296.8,253.8,296.8,253.9z"/>
	<path class="st7" d="M302.6,255.2c-0.1-1.1-0.2-2.2-0.2-3.3l0.2,0.2h-3.3l0.2-0.2l0,0v0.9c0,0.3,0,0.6,0,0.8c0,0.5,0,1.1,0,1.6
		l-0.2-0.2C300.4,255,301.5,255.1,302.6,255.2c-1.1,0.1-2.2,0.1-3.3,0.1h-0.2v-0.2c0-0.5,0-1,0-1.6c0-0.3,0-0.6,0-0.8v-0.9l0,0
		l0.2-0.2h3.3h0.2v0.2C302.8,253,302.7,254.1,302.6,255.2z"/>
	<path class="st7" d="M292.9,247.2c0,0.1-5.1,0.2-11.3,0.2s-11.3-0.1-11.3-0.2s5.1-0.2,11.3-0.2S292.9,247,292.9,247.2z"/>
	<path class="st7" d="M298.7,248.5c-0.1-1.1-0.2-2.2-0.2-3.3l0.2,0.2h-3.3l0.2-0.2l0,0v0.8c0,0.3,0,0.6,0,0.8c0,0.5,0,1.1,0,1.6
		l-0.2-0.2C296.5,248.2,297.6,248.3,298.7,248.5c-1.1,0.1-2.2,0.1-3.3,0.1h-0.2v-0.2c0-0.5,0-1,0-1.6c0-0.3,0-0.6,0-0.8v-0.8l0,0
		l0.2-0.2h3.3h0.2v0.2C298.9,246.3,298.8,247.4,298.7,248.5z"/>
	<path class="st10" d="M300.8,264.5c0.4-0.8,0.9-1.5,1.5-2.2c0.2-0.2,0.4-0.4,0.6-0.7l0.1-0.2l0.2,0.1c0.8,0.7,1.3,1.2,1.2,1.3
		s-0.7-0.4-1.5-1h0.3l-0.5,0.7C302.2,263.3,301.5,263.9,300.8,264.5z"/>
	<path class="st10" d="M302.6,272.8c0.4-0.8,0.9-1.5,1.5-2.2l0.6-0.7l0.1-0.2l0.2,0.1c0.8,0.7,1.3,1.2,1.2,1.3s-0.7-0.4-1.5-1h0.3
		l-0.5,0.7C303.9,271.6,303.3,272.2,302.6,272.8z"/>
	<path class="st10" d="M307.5,301.2c0.4-0.8,0.9-1.5,1.5-2.2c0.2-0.2,0.4-0.4,0.6-0.7l0.1-0.2l0.2,0.1c0.8,0.7,1.3,1.2,1.2,1.3
		c-0.1,0.1-0.7-0.4-1.5-1h0.3l-0.5,0.7C308.8,300,308.2,300.6,307.5,301.2z"/>
	<path class="st10" d="M303.8,282.3c0.4-0.8,0.9-1.5,1.5-2.2l0.6-0.7l0.1-0.2l0.2,0.1c0.8,0.7,1.3,1.2,1.2,1.3
		c-0.1,0.1-0.7-0.4-1.5-1h0.3l-0.5,0.7C305.1,281.1,304.5,281.8,303.8,282.3z"/>
	<path class="st7" d="M304.2,289.4c0,0.1-5.1,0.2-11.3,0.2c-6.2,0-11.3-0.1-11.3-0.2c0-0.1,5.1-0.2,11.3-0.2
		C299.1,289.1,304.2,289.2,304.2,289.4z"/>
	<path class="st7" d="M309.9,290.7c-0.1-1.1-0.2-2.2-0.2-3.3l0.2,0.2h-3.3l0.2-0.2l0,0v0.8c0,0.3,0,0.6,0,0.8c0,0.5,0,1.1,0,1.6
		l-0.2-0.2C307.7,290.4,308.8,290.5,309.9,290.7c-1.1,0.1-2.2,0.1-3.3,0.1h-0.2v-0.2c0-0.5,0-1,0-1.6c0-0.3,0-0.6,0-0.8v-0.8l0,0
		c-0.2,0.2,0.3-0.3,0.2-0.2h3.3h0.2v0.2C310.2,288.5,310.1,289.6,309.9,290.7z"/>
	<path class="st10" d="M305.5,291.8c0.4-0.8,0.9-1.5,1.5-2.2c0.2-0.2,0.4-0.4,0.6-0.7l0.1-0.2l0.2,0.1c0.8,0.7,1.3,1.2,1.2,1.3
		c-0.1,0.1-0.7-0.3-1.5-1h0.3l-0.5,0.7C306.8,290.6,306.2,291.3,305.5,291.8z"/>
	<path class="st7" d="M210.6,303.6c0-0.1,4.6-0.2,10.2-0.2c5.6,0,10.2,0.1,10.2,0.2s-4.6,0.2-10.2,0.2
		C215.2,303.8,210.6,303.7,210.6,303.6z"/>
	<path class="st7" d="M205.4,302.4c0.1,1,0.2,2,0.2,3l-0.2-0.2h3c0-0.1-0.4,0.4-0.2,0.2l0,0v-1.6c0-0.5,0-1,0-1.4l0.2,0.2
		C207.4,302.6,206.4,302.5,205.4,302.4c1-0.1,2-0.2,3-0.2h0.2v0.2c0,0.5,0,0.9,0,1.4v1.6l0,0l-0.2,0.2h-3h-0.2v-0.2
		C205.1,304.4,205.2,303.4,205.4,302.4z"/>
	<path class="st10" d="M210.1,301.2c-0.3,0.7-0.8,1.4-1.4,2l-0.5,0.6l-0.1,0.2l-0.2-0.1c-0.7-0.6-1.2-1.1-1.1-1.2
		c0.1-0.1,0.6,0.3,1.4,0.9h-0.3l0.5-0.6C209.3,301.9,210,301.2,210.1,301.2z"/>
	<path class="st7" d="M206.6,297.6c0-0.1,4.6-0.2,10.2-0.2s10.2,0.1,10.2,0.2s-4.6,0.2-10.2,0.2S206.6,297.7,206.6,297.6z"/>
	<path class="st10" d="M202,296.3c0.1,1,0.2,2,0.2,3l-0.2-0.2h3l-0.2,0.2l0,0v-0.8c0-0.3,0-0.5,0-0.8c0-0.5,0-1,0-1.4l0.2,0.2
		C204,296.5,203,296.5,202,296.3c1-0.1,2-0.2,3-0.1h0.2v0.2c0,0.5,0,0.9,0,1.4c0,0.3,0,0.5,0,0.8v0.8l0,0l-0.2,0.2h-3h-0.1v-0.2
		C201.8,298.3,201.9,297.3,202,296.3z"/>
	<path class="st12" d="M205.4,295.4c-0.3,0.7-0.8,1.4-1.4,2l-0.5,0.6l-0.1,0.2l-0.2-0.1c-0.7-0.6-1.2-1.1-1.1-1.2
		c0.1-0.1,0.6,0.3,1.4,0.9h-0.3l0.5-0.6C204.5,296,205.4,295.3,205.4,295.4z"/>
	<path class="st7" d="M205.2,290.8c0-0.1,4.6-0.2,10.2-0.2s10.2,0.1,10.2,0.2s-4.6,0.2-10.2,0.2C209.7,291.1,205.2,291,205.2,290.8z
		"/>
	<path class="st7" d="M200,289.6c0.1,1,0.2,2,0.2,3l-0.2-0.2h3l-0.2,0.2l0,0v-1.6c0-0.5,0-1,0-1.4l0.2,0.2
		C201.9,289.8,200.9,289.8,200,289.6c1-0.1,2-0.2,3-0.1h0.2v0.2c0,0.5,0,0.9,0,1.4v1.6l0,0c0.2-0.2-0.3,0.3-0.2,0.2h-3h-0.2v-0.2
		C199.7,291.6,199.8,290.6,200,289.6z"/>
	<path class="st10" d="M204.7,288.5c-0.3,0.7-0.8,1.4-1.3,2l-0.5,0.6l-0.1,0.2l-0.2-0.1c-0.7-0.6-1.2-1.1-1.1-1.2
		c0.1-0.1,0.6,0.3,1.4,0.9h-0.3l0.5-0.6C203.8,289.2,204.6,288.5,204.7,288.5z"/>
	<path class="st7" d="M203.7,283.9c0-0.1,4.6-0.2,10.2-0.2c5.6,0,10.2,0.1,10.2,0.2c0,0.1-4.6,0.2-10.2,0.2
		C208.2,284.1,203.7,284,203.7,283.9z"/>
	<path class="st7" d="M198.5,282.7c0.1,1,0.2,2,0.2,3l-0.2-0.2h3l-0.2,0.2l0,0v-0.8c0-0.3,0-0.5,0-0.8c0-0.5,0-1,0-1.4l0.2,0.2
		C200.4,282.9,199.4,282.8,198.5,282.7c1-0.1,2-0.2,3-0.1h0.2v0.2c0,0.5,0,0.9,0,1.4c0,0.3,0,0.5,0,0.8v0.8l0,0l-0.2,0.2h-3h-0.2
		v-0.2C198.2,284.7,198.3,283.7,198.5,282.7z"/>
	<path class="st12" d="M202.5,281.7c-0.3,0.7-0.8,1.4-1.4,2l-0.5,0.6l-0.1,0.2l-0.2-0.1c-0.7-0.6-1.2-1.1-1.1-1.2
		c0.1-0.1,0.6,0.3,1.4,0.9h-0.3l0.5-0.6C201.7,282.3,202.4,281.6,202.5,281.7z"/>
	<path class="st7" d="M199.8,277.1c0-0.1,4.6-0.2,10.2-0.2s10.2,0.1,10.2,0.2c0,0.1-4.6,0.2-10.2,0.2S199.8,277.2,199.8,277.1z"/>
	<path class="st7" d="M194.6,275.8c0.1,1,0.2,2,0.2,3l-0.2-0.2h3l-0.2,0.2l0,0v-0.8c0-0.3,0-0.5,0-0.8c0-0.5,0-1,0-1.4l0.2,0.2
		C196.6,276.1,195.6,276,194.6,275.8c1-0.1,2-0.2,3-0.2h0.2v0.2c0,0.5,0,0.9,0,1.4c0,0.3,0,0.5,0,0.8v0.8l0,0
		c0.2-0.2-0.3,0.3-0.2,0.2h-3h-0.1v-0.2C194.4,277.9,194.4,276.9,194.6,275.8z"/>
	<path class="st10" d="M198.7,274.8c-0.3,0.7-0.8,1.4-1.4,2l-0.5,0.6l-0.1,0.2l-0.2-0.1c-0.7-0.6-1.2-1.1-1.1-1.2s0.6,0.3,1.4,0.9
		h-0.3l0.5-0.6C197.8,275.5,198.6,274.7,198.7,274.8z"/>
	<path class="st7" d="M259.9,242.9h0.2h0.5h2l7.5-0.1H296l0,0c1.8-0.2,3.7,0.1,5.3,1c1.7,0.9,3.1,2.2,4.2,3.8
		c1.7,2.7,2.8,5.7,3.3,8.9c0.6,3,1,5.9,1.4,8.7c0.8,5.6,1.2,10.6,2.1,14.8c0.7,3.2,1.8,6.4,3.2,9.4c0.5,1.1,1,1.9,1.3,2.4
		c0.1,0.2,0.3,0.4,0.4,0.6c0,0.1,0.1,0.1,0.1,0.2c-0.1-0.1-0.1-0.1-0.2-0.2l-0.4-0.6c-0.5-0.8-1-1.6-1.4-2.4c-1.5-3-2.7-6.2-3.4-9.5
		c-0.9-4.2-1.4-9.2-2.2-14.8c-0.4-2.8-0.8-5.7-1.4-8.7c-0.5-3.1-1.6-6.1-3.2-8.7c-1-1.5-2.4-2.8-4-3.7c-1.5-0.8-3.3-1.2-5.1-1l0,0
		l-25.8-0.1l-7.5-0.1l-2,0h-0.5L259.9,242.9z"/>
	<path class="st7" d="M175.5,314.6c0.2,0,0.5-0.1,0.7-0.2c0.7-0.2,1.4-0.5,1.9-1c1-0.7,1.7-1.6,2.2-2.7c0.6-1.5,0.9-3.1,0.8-4.7
		c0-2-0.3-4-0.8-6c-0.7-2.3-1.5-4.6-2.5-6.7c-0.5-1.2-1-2.5-1.4-3.8c-0.5-1.4-0.8-2.8-1-4.2c-0.5-3.1,0.1-6.3,1.7-9.1
		c0.9-1.5,2.2-2.7,3.7-3.4c0.4-0.2,0.8-0.3,1.2-0.5c0.2-0.1,0.4-0.1,0.6-0.2l0.7-0.1c0.9-0.1,1.8,0.1,2.6,0.5c1.6,0.9,3,2.2,4,3.7
		c1.1,1.5,2.2,3.1,3,4.8c0.9,1.7,1.7,3.5,2.3,5.4c0.3,1,0.6,1.9,0.8,2.9c0.2,1,0.3,2,0.4,3c0.3,2.1,0.6,4.1,1.1,6.1
		c0.5,2.1,1.2,4.1,1.9,6.1c0.3,1,0.8,2,1.3,2.9c0.6,0.9,1.3,1.7,2.1,2.4c0.8,0.7,1.7,1.4,2.7,1.9c0.9,0.6,1.9,1.1,3,1.5
		c1,0.4,2.1,0.6,3.3,0.6c1.1,0,2.3-0.1,3.4-0.2c2.3-0.2,4.6-0.6,6.7-1.4c2.2-0.8,4.3-2,6.2-3.4c1.9-1.4,3.6-3.1,5-5.1
		c2.8-4,4.9-8.5,6.1-13.3c0.6-2.1,1-4.3,1.3-6.5c0.3-2.2,0.4-4.4,0.6-6.5c0.3-4.3,0.8-8.6,1.6-12.8c0.4-2.1,1-4.1,1.6-6.1
		c0.6-2,1.3-3.9,2.1-5.8c0.8-1.9,1.9-3.6,3.2-5.2c1.3-1.6,2.8-2.8,4.6-3.8l0,0c1.5-0.9,3.2-1.4,4.9-1.4c1.7,0,3.4,0.6,4.7,1.8
		c1.2,1.1,2.2,2.5,2.9,4c0.7,1.5,1.2,3,1.7,4.5c1.9,5.7,3.2,11.6,4,17.6c0.8,5.6,1.2,11,1.6,15.9c0.4,5,0.8,9.5,2.1,13.5
		c1,3.6,2.9,6.8,5.3,9.6c1.9,2,4.2,3.5,6.9,4.4c1.6,0.5,3.3,0.8,5.1,0.7c0.6-0.1,1-0.1,1.3-0.2l0.4-0.1l-0.4,0.1
		c-0.4,0.1-0.9,0.2-1.3,0.2c-1.7,0.1-3.5-0.1-5.1-0.6c-2.7-0.8-5-2.4-7-4.4c-2.5-2.8-4.4-6-5.4-9.6c-1.3-4-1.8-8.6-2.2-13.5
		s-0.8-10.3-1.6-15.9c-0.8-5.9-2.2-11.8-4.1-17.5c-0.5-1.5-1-3-1.7-4.5c-0.7-1.5-1.6-2.8-2.8-3.9c-1.2-1.1-2.8-1.7-4.5-1.7
		c-1.7,0-3.3,0.5-4.7,1.4l0,0c-1.7,0.9-3.2,2.2-4.5,3.7c-1.3,1.5-2.3,3.2-3.2,5.1c-0.8,1.9-1.5,3.8-2,5.8c-0.6,2-1.1,4-1.5,6.1
		c-0.8,4.2-1.3,8.5-1.6,12.7c-0.2,2.2-0.3,4.4-0.6,6.6c-0.3,2.2-0.7,4.4-1.3,6.6c-1.3,4.8-3.4,9.3-6.2,13.4c-1.4,2-3.1,3.8-5.1,5.2
		c-1.9,1.4-4,2.6-6.3,3.4c-2.2,0.8-4.5,1.3-6.9,1.4c-1.2,0.1-2.3,0.2-3.5,0.2c-1.2,0-2.3-0.3-3.4-0.7c-1.1-0.4-2.1-0.9-3.1-1.5
		c-1-0.6-1.9-1.2-2.7-2c-0.9-0.7-1.6-1.6-2.2-2.5c-0.6-0.9-1-2-1.3-3c-0.7-2-1.4-4.1-1.9-6.1c-0.5-2-0.9-4.1-1.1-6.1
		c-0.4-3.9-1.6-7.8-3.5-11.2c-0.9-1.7-1.9-3.3-3-4.8c-1-1.5-2.4-2.7-3.9-3.6c-1.5-0.9-3.4-0.5-4.9,0.2c-1.5,0.7-2.7,1.9-3.6,3.3
		c-1.6,2.7-2.2,5.8-1.7,8.9c0.2,1.4,0.5,2.8,0.9,4.1c0.4,1.3,0.8,2.5,1.4,3.8c1,2.2,1.8,4.5,2.5,6.8c0.5,2,0.8,4,0.8,6
		c0.1,1.6-0.3,3.3-0.9,4.7c-0.5,1.1-1.3,2-2.3,2.7c-0.6,0.4-1.3,0.7-2,0.9C176.1,314.6,175.8,314.6,175.5,314.6z"/>
	<path class="st7" d="M234.7,302.5c0,0-0.1,0-0.2-0.1c-0.1-0.1-0.2-0.2-0.4-0.3c-0.5-0.5-1-0.9-1.5-1.5c-0.8-0.8-1.5-1.6-2.1-2.5
		c-0.9-1.2-1.6-2.5-2.1-3.9c-0.5-1.7-0.9-3.4-1.2-5.2c-0.3-1.9-0.5-3.9-0.9-6c-0.3-2.2-1-4.3-2-6.3c-0.5-1-1.2-2-2-2.8
		c-0.4-0.4-0.8-0.8-1.4-1.1c-0.5-0.2-1.1-0.4-1.7-0.5c-2.4-0.3-4.7-0.5-7.1-0.4c-2.3,0-4.6,0.2-6.7,0.2l-11.3,0.1h-7.6h-2.1
		c-0.2,0-0.5,0-0.7,0c0.2,0,0.5,0,0.7-0.1l2.1-0.1l7.6-0.2l11.3-0.2c2.1,0,4.4-0.2,6.7-0.2c2.4-0.1,4.8,0,7.2,0.4
		c0.6,0.1,1.2,0.3,1.8,0.5c0.3,0.1,0.6,0.3,0.8,0.5c0.2,0.2,0.5,0.4,0.7,0.6c0.8,0.9,1.5,1.8,2.1,2.9c1,2,1.7,4.2,2,6.4
		c0.4,2.1,0.6,4.1,0.8,6c0.2,1.7,0.6,3.4,1.1,5.1c0.5,1.4,1.2,2.6,2,3.8c0.6,0.9,1.3,1.8,2,2.6c0.6,0.7,1.1,1.2,1.4,1.5
		C234.6,302.3,234.7,302.5,234.7,302.5z"/>
	<path class="st13" d="M411.9,47.6c0-2.1,1.2-3.9,3-4.9c0.3-0.2,0.6-0.3,0.9-0.3c0.3,0,0.6,0.2,0.8,0.5c0.1,0.3,0,0.7-0.3,1
		c-0.3,0.2-0.5,0.5-0.8,0.6c-0.9,0.7-1.2,1.8-1,2.9"/>
	<path class="st17" d="M396,11.4C388,12,382,19,382.5,27c0.8,11.4,0.5,26.8-4.9,36.3c-9.4,16.3-23.5,19.2-22.4,51.8
		c1.1,32.6,2.5,36-4,44.4s-20.6,4.1-26.8,23.2s-1.8,115.1-11.6,125.2c0,0-8,7.6-16.3,6.9h46.8c4,0.1,7.8-1.5,10.7-4.2
		c2.4-2.3,3.7-5.5,3.7-8.8c0-6.6,2.2-99.9,5.8-107.9c3.6-8,22.4-16.1,25.3-34.5c2.9-18.4,1.9-48.1,1.8-53.4c0-5.1,1-15,10.7-26.6
		c14.8-17.5,12.8-36.6,13.1-43.1s-2.5-26.1-2.5-26.1L396,11.4z"/>
	<path class="st15" d="M383.8,24.6c0.7-2.4,3.1-3.8,5.5-3.2c1,0.3,1.9,0.9,2.5,1.8c1.4,2,1.1,5.1,2.9,6.7c1.2,1,2.9,1.1,4.5,1.1
		c4.9-0.1,9.9-0.7,14.7-1.8l-1.1-15.4c0,0-23.4-2.1-26.2,1.8S383.8,24.6,383.8,24.6z"/>
	<path class="st16" d="M382.7,32.5c0-3.5,0.8-6.5,1.6-9.9c1-4.1,3.8-7.1,7.3-7.6c4.4-0.6,8.7,5.7,8.7,5.7s16.9-2.5,25-3.1
		c-0.6-2.1-4.8-7.5-7.9-8.2c-3.1-0.5-6.2-0.7-9.3-0.5c-5.6,0.2-11.3,0.3-16.3,2.7c-5,2.4-10.2,5.9-9,18.8"/>
	<path class="st7" d="M415.7,9.9c-0.3,0.1-0.6,0.1-0.8,0.1l-2.3,0.2c-1.9,0.1-4.6,0.3-7.6,0.7c-3,0.3-5.6,0.7-7.5,1l-2.3,0.4
		c-0.3,0.1-0.6,0.1-0.8,0.1c0.3-0.1,0.6-0.2,0.8-0.2c0.5-0.1,1.3-0.3,2.3-0.5c1.9-0.4,4.6-0.8,7.5-1.1c3-0.3,5.6-0.5,7.6-0.6
		l2.3-0.1C415.1,9.8,415.4,9.8,415.7,9.9z"/>
	<path class="st7" d="M363.2,195c0,0.1-7.2,1.3-16,2.6c-8.8,1.3-16.1,2.3-16.1,2.2s7.2-1.3,16-2.6S363.2,194.9,363.2,195z"/>
	<path class="st7" d="M364.9,191.5c0,0.1-6.6,0.3-14.7,0.3c-8.1,0.1-14.8,0-14.8-0.1c0-0.1,6.6-0.3,14.7-0.3
		C358.3,191.3,364.9,191.3,364.9,191.5z"/>
	<path class="st7" d="M298.7,314.9l0.8-0.1c0.8-0.1,1.6-0.3,2.3-0.5c2.9-0.9,5.7-2.3,8.2-4.1c0.9-0.6,1.7-1.3,2.5-2
		c0.8-0.8,1.5-1.8,1.9-2.9c0.9-2.5,1.6-5,2-7.6c1-6.4,1.7-12.8,2.1-19.2c1-14.3,1.4-31.3,2-50.3c0.3-9.5,0.6-19.4,1.4-29.7
		c0.2-2.5,0.4-5.2,0.8-7.8c0.3-2.6,0.8-5.2,1.5-7.8c0.4-1.3,0.9-2.5,1.4-3.8l0.9-1.8l0.5-0.9c0.2-0.3,0.4-0.6,0.5-0.8
		c1.4-2.4,3.3-4.4,5.5-6c2.2-1.6,4.7-2.9,7.2-3.8c2.5-0.9,5-2,7.3-3.3l0.8-0.5c0.3-0.2,0.5-0.4,0.8-0.6l0.8-0.6l0.7-0.7
		c0.2-0.2,0.4-0.5,0.6-0.7l0.6-0.8c0.4-0.5,0.8-1.1,1.1-1.6c0.7-1.1,1.3-2.2,1.8-3.4c0.4-1.2,0.7-2.4,0.9-3.7
		c0.3-2.5,0.5-5.1,0.4-7.6c0-2.5-0.1-5.1-0.2-7.5c-0.2-5-0.4-9.8-0.6-14.5c-0.1-2.4-0.2-4.7-0.2-7c0-1.2,0-2.3,0-3.4
		s0.1-2.3,0.2-3.4c0.1-2.3,0.5-4.4,0.7-6.6c0.4-2.1,0.9-4.2,1.5-6.3c1.2-3.9,3-7.6,5.3-11c2.2-3,4.6-6,7.1-8.8
		c2.2-2.6,4.3-5.2,6.2-8.1l1.3-2c0.4-0.7,0.7-1.4,1.1-2c0.6-1.3,1.2-2.7,1.6-4.1c1.4-4.7,2.3-9.5,2.5-14.3c0.3-4,0.3-7.1,0.2-9.2
		c0-1,0-1.8,0-2.4c0-0.6,0-0.8,0-0.8s0.1,1.1,0.1,3.2c0.1,2.1,0.1,5.2-0.2,9.2c-0.2,4.9-1.1,9.7-2.5,14.3c-0.5,1.4-1,2.8-1.6,4.1
		c-0.4,0.7-0.7,1.4-1.1,2c-0.4,0.7-0.8,1.3-1.3,2c-1.9,2.8-4,5.5-6.2,8.1c-2.5,2.8-4.9,5.7-7.1,8.8c-2.3,3.3-4.1,7-5.3,10.9
		c-0.6,2-1.1,4.1-1.5,6.2c-0.3,2.2-0.6,4.3-0.7,6.6c-0.1,1.1-0.2,2.2-0.2,3.4c0,1.1,0,2.3,0,3.4c0,2.3,0.1,4.6,0.2,7
		c0.2,4.7,0.4,9.6,0.6,14.5c0.1,2.5,0.2,5,0.2,7.5c0.1,2.6-0.1,5.1-0.4,7.7c-0.2,1.3-0.5,2.6-1,3.8c-0.5,1.2-1.1,2.4-1.8,3.5
		c-0.4,0.6-0.7,1.1-1.1,1.6l-0.6,0.8c-0.2,0.3-0.5,0.5-0.7,0.8l-0.7,0.8l-0.8,0.6c-0.3,0.2-0.5,0.4-0.8,0.6l-0.8,0.5
		c-2.4,1.3-4.8,2.4-7.3,3.3c-2.5,0.9-4.9,2.2-7.1,3.8c-2.2,1.6-4,3.6-5.4,5.9c-0.2,0.3-0.4,0.6-0.5,0.8l-0.4,0.9l-0.8,1.8
		c-0.5,1.2-1,2.5-1.4,3.7c-0.7,2.5-1.2,5.1-1.5,7.7c-0.3,2.6-0.6,5.2-0.8,7.7c-0.8,10.3-1.1,20.2-1.4,29.7c-0.6,18.9-1,36-2.1,50.3
		c-0.4,6.5-1.1,12.9-2.2,19.3c-0.4,2.6-1.1,5.2-2.1,7.7c-0.4,1.1-1.1,2.1-1.9,2.9c-0.8,0.7-1.7,1.4-2.5,2c-2.5,1.8-5.3,3.2-8.3,4
		c-0.8,0.2-1.6,0.4-2.4,0.4L298.7,314.9z"/>
	<path class="st7" d="M382.8,30.9l-0.1-1.1c0-0.7-0.1-1.8-0.2-3.1c0-0.8,0-1.5,0.1-2.3c0.1-0.8,0.3-1.8,0.5-2.7
		c0.5-2.3,1.6-4.4,3.1-6.2c2.1-2,4.6-3.6,7.4-4.6c3.3-1.2,6.7-1.9,10.2-2.1c1.9-0.2,3.8-0.2,5.8-0.3c2.1-0.1,4.1,0.1,6.1,0.6
		c1,0.3,2.1,0.6,3.1,1.1c1,0.5,1.9,1.1,2.8,1.9c0.9,0.7,1.7,1.6,2.4,2.5c0.4,0.5,0.7,1,1,1.5c0.3,0.5,0.5,1.1,0.5,1.7v0.1h-0.2
		c-3.8,0.3-7.8,1.2-12.1,1.7l0.2-0.2c0.5,4.1,1,8.4,1.3,12.8c0.1,1.1,0.1,2.2,0.1,3.4c0,1.1-0.1,2.3-0.1,3.4c0,2.3,0,4.6-0.2,7
		c-0.3,4.9-1.1,9.7-2.4,14.3c-1.5,4.9-3.6,9.6-6.4,13.9c-2.8,4.4-6.7,8.2-9.3,12.9c-2.8,4.7-4.6,9.9-5.2,15.4
		c-0.2,2.8-0.2,5.6-0.1,8.4c0,2.8,0.1,5.7,0.1,8.5c0,5.7,0,11.5-0.2,17.4c-0.2,6.7-0.6,13.5-1.5,20c-0.3,3.3-1.1,6.5-2.3,9.6
		c-1.3,3-2.9,5.8-4.9,8.3c-4,5.1-8.9,9.1-13.4,13.2l-1.6,1.6c-0.5,0.6-1,1.1-1.5,1.7l-0.7,0.9c-0.2,0.3-0.5,0.6-0.6,0.9l-0.5,1
		c-0.1,0.3-0.3,0.7-0.4,1c-0.6,2.9-1.1,5.8-1.3,8.8c-1.1,11.7-1.6,22.8-2.2,33.2s-0.8,20.1-1.1,29c-0.3,8.9-0.5,16.9-0.7,23.9
		c-0.1,3.5-0.2,6.8-0.2,9.8c0,1.5,0,2.9-0.2,4.3c-0.2,1.3-0.7,2.6-1.3,3.7c-1.1,1.9-2.7,3.5-4.6,4.7c-1.4,0.9-2.9,1.5-4.5,1.9
		c-1,0.2-1.9,0.4-2.9,0.4c-0.7,0-1,0-1,0h0.3c0.2,0,0.4,0,0.8,0c2.6-0.2,5.1-1,7.3-2.4c1.9-1.2,3.4-2.8,4.5-4.7
		c0.6-1.1,1.1-2.4,1.3-3.7c0.2-1.4,0.3-2.9,0.2-4.3c0.1-3,0.1-6.3,0.2-9.8c0.2-7,0.4-15.1,0.6-23.9c0.3-8.9,0.6-18.6,1.1-29
		c0.5-10.5,1-21.6,2.1-33.3c0.2-3,0.6-5.9,1.3-8.9c0.1-0.4,0.2-0.8,0.4-1.1l0.6-1c0.2-0.3,0.4-0.7,0.6-1l0.7-0.9
		c0.5-0.6,1-1.1,1.6-1.7l1.7-1.6c4.5-4.2,9.4-8.1,13.3-13.2c2-2.5,3.6-5.3,4.9-8.2c1.2-3,2-6.2,2.3-9.5c0.8-6.5,1.2-13.2,1.4-20
		c0.2-5.9,0.2-11.7,0.2-17.4c0-2.9-0.1-5.7-0.1-8.5c-0.1-2.8-0.1-5.6,0.1-8.4c0.6-5.5,2.4-10.8,5.3-15.6c2.6-4.8,6.5-8.5,9.3-12.9
		c2.8-4.3,4.9-8.9,6.4-13.7c1.3-4.6,2.2-9.4,2.4-14.2c0.1-2.4,0.2-4.7,0.2-7c0-1.1,0.1-2.3,0.1-3.4c0-1.1,0-2.2-0.1-3.4
		c-0.3-4.4-0.8-8.7-1.2-12.8v-0.2h0.2c4.2-0.5,8.3-1.3,12.1-1.7l-0.2,0.2c-0.2-1.1-0.7-2.2-1.4-3c-0.7-0.9-1.5-1.7-2.3-2.4
		c-0.8-0.7-1.7-1.3-2.7-1.8c-1-0.4-2-0.8-3-1.1c-2-0.5-4-0.7-6.1-0.6c-2,0-3.9,0.1-5.8,0.3c-3.5,0.2-6.9,0.9-10.1,2.1
		c-2.7,0.9-5.3,2.5-7.4,4.5c-1.6,1.7-2.6,3.8-3.1,6.1c-0.2,1-0.4,1.9-0.5,2.7c-0.1,0.8-0.1,1.5-0.1,2.3c0.1,1.4,0.1,2.4,0.2,3.1
		C382.8,30.6,382.8,30.9,382.8,30.9z"/>
	<path class="st7" d="M425.3,17.8c-0.2,0.1-0.3,0.1-0.5,0.1l-1.4,0.2l-5.1,0.7l-16.7,2l-1.3,0.2h-0.1l-0.1-0.1
		c-0.8-1.3-1.8-2.5-2.8-3.5c-1-1-2.2-1.7-3.5-2c-1.2-0.2-2.5-0.2-3.7,0.2c-1,0.3-2,0.9-2.7,1.7c-1.1,1.2-2,2.5-2.5,4
		c-0.2,0.5-0.3,0.9-0.4,1.2c0,0.1-0.1,0.3-0.1,0.4c0-0.2,0-0.3,0.1-0.4c0.1-0.4,0.2-0.8,0.4-1.3c0.5-1.5,1.3-3,2.4-4.1
		c0.8-0.8,1.8-1.4,2.8-1.8c1.2-0.4,2.6-0.5,3.9-0.3c1.4,0.3,2.7,1.1,3.7,2.1c1.1,1.1,2.1,2.3,2.9,3.6l-0.2-0.1l1.3-0.2l16.8-1.9
		l5.1-0.5l1.4-0.1C424.9,17.7,425.1,17.7,425.3,17.8z"/>
	<path class="st13" d="M414.5,49.1c0,0.4-0.3,0.8-0.7,1l-5.1,1.9c-0.8,0.3-1.8,0.5-2.3-0.2c-0.3-0.5-0.2-1.1,0.2-1.6
		c0.4-0.4,0.9-0.7,1.4-0.8c1.9-0.8,4.1-1.6,6.1-2.5c0.1-0.1,0.3,0,0.4,0.2c0,0,0,0.1,0,0.1L414.5,49.1z"/>
	<path class="st13" d="M414.7,50.8c0.2,1-0.3,2.1-1.3,2.5l-4.7,1.8c-0.8,0.3-1.8,0.5-2.3-0.2c-0.3-0.5-0.2-1.1,0.2-1.6
		c0.4-0.4,0.9-0.7,1.4-0.8c1.9-0.8,3.9-1.6,5.8-2.3c0.3-0.1,0.7,0,0.8,0.3c0,0,0,0.1,0,0.1L414.7,50.8z"/>
	<path class="st13" d="M413.8,53.3c0.4,1.5-0.5,3.1-1.9,3.6l-3.9,1.5c-0.8,0.3-1.8,0.5-2.3-0.2c-0.3-0.5-0.2-1.1,0.2-1.6
		c0.4-0.4,0.9-0.7,1.4-0.8C409.4,55,411.7,54.1,413.8,53.3L413.8,53.3z"/>
	<path class="st7" d="M393.1,93.3c0,0.1-6.2,2.4-13.9,5.1c-7.7,2.7-14,4.8-14,4.7c0-0.1,6.2-2.4,13.9-5.1
		C386.8,95.3,393.1,93.2,393.1,93.3z"/>
	<path class="st7" d="M389.8,96.7c-0.7,0.6-1.4,1.1-2.2,1.6c-1.4,0.9-3.4,2.2-5.6,3.5c-2.3,1.3-4.3,2.5-5.8,3.3
		c-0.8,0.5-1.6,0.9-2.5,1.2c0.7-0.5,1.5-1,2.3-1.5l5.7-3.4l5.7-3.4C388.2,97.5,389,97.1,389.8,96.7z"/>
</g>
<g id="freepik--speech-bubble--inject-393">
	<path class="st7" d="M217.6,21.6c0,0.1,0,0.2,0,0.3c0,0.2,0,0.5,0,0.8c0,0.7,0,1.7,0,2.8c0,2.4,0.1,5.8,0.1,9.8l-0.2-0.2h13.7
		c0.1,0-0.4,0.4-0.2,0.2l0,0v-7.3c0-2.3,0-4.5,0-6.5l0.2,0.2l-9.9-0.1l-2.8-0.1h-0.8L217.6,21.6c0.2,0,0.6,0,0.9,0l2.8-0.1l10-0.1
		h0.2v0.2c0,2,0,4.2,0,6.5v7.1l0,0c0.2-0.2-0.3,0.3-0.2,0.2h-13.7h-0.2v-0.2c0-4.1,0.1-7.5,0.1-10c0-1.2,0-2.1,0.1-2.8
		S217.6,21.6,217.6,21.6z"/>
	<path class="st10" d="M234.2,18.6c0.3,0.2-2.6,4.2-6.5,8.9c-0.8,1-1.6,1.9-2.3,2.8l-0.4,0.5l-0.5-0.4c-3.2-2.9-5.4-5.1-5.2-5.3
		c0.2-0.2,2.7,1.6,6,4.4l-0.9,0.1c0.7-0.9,1.5-1.8,2.3-2.8C230.5,22,233.9,18.3,234.2,18.6z"/>
	<path class="st8" d="M225.9,8.6h-0.3h-1c-0.2,0-0.5,0-0.7,0L223,8.7l-1,0.2l-1.2,0.3c-2,0.5-3.9,1.3-5.6,2.4
		c-5.1,3.3-8.5,8.7-9,14.8c-0.1,0.9-0.1,1.8-0.1,2.7c0,0.5,0,0.9,0.1,1.4c0.1,0.5,0.1,0.9,0.2,1.4c0.4,1.9,1,3.8,1.9,5.5
		c1,1.8,2.2,3.5,3.6,4.9c1.5,1.5,3.3,2.7,5.2,3.7c2,1,4.1,1.7,6.3,1.9c0.6,0.1,1.1,0.1,1.7,0.1c0.6,0,1.1,0,1.7,0
		c1.1,0,2.3-0.2,3.4-0.4c2.4-0.5,4.7-1.5,6.8-2.8h-0.2l6.9,2.8l0.4,0.2l-0.1-0.4c-0.7-2.5-1.4-5-2-7.4v0.2c1.8-2.5,3.1-5.3,3.6-8.4
		c0.3-1.4,0.4-2.9,0.3-4.3c0-0.7-0.1-1.4-0.2-2.1c-0.1-0.3-0.1-0.7-0.2-1s-0.2-0.7-0.2-1c-1.2-4.5-3.9-8.5-7.7-11.2
		c-1.4-1-2.9-1.8-4.6-2.4l-1-0.4l-1-0.3l-0.9-0.2l-0.8-0.1c-0.5-0.1-1-0.2-1.4-0.2h-1h-0.6L225.9,8.6c0,0,0.1,0,0.2,0l0.6,0.1l1,0.1
		c0.4,0,0.8,0.1,1.4,0.2c7.6,1.3,13.8,7,15.7,14.5c0.1,0.3,0.2,0.6,0.2,1c0.1,0.3,0.1,0.7,0.1,1c0.1,0.7,0.2,1.4,0.2,2
		c0.1,1.4,0,2.8-0.3,4.2c-0.6,3-1.8,5.8-3.6,8.2l-0.1,0.1v0.1l2,7.4l0.3-0.3l-6.8-2.8l-0.1-0.1l-0.1,0.1c-3,2-6.4,3.1-9.9,3.2
		c-0.6,0-1.1,0-1.7,0c-0.6,0-1.1-0.1-1.7-0.1c-2.1-0.3-4.2-0.9-6.2-1.9c-1.9-0.9-3.6-2.2-5.1-3.6c-1.4-1.4-2.6-3.1-3.5-4.8
		c-0.9-1.7-1.5-3.5-1.9-5.4c-0.1-0.5-0.1-0.9-0.2-1.4c-0.1-0.5-0.1-0.9-0.1-1.4c0-0.9,0-1.8,0-2.7c0.5-6,3.8-11.4,8.8-14.6
		c1.7-1.1,3.5-2,5.5-2.5l1.1-0.3l1-0.2l0.9-0.2l0.7-0.1l1-0.1C225.6,8.6,225.8,8.6,225.9,8.6z"/>
</g>
<g id="freepik--Gears--inject-420">
	<path class="st7" d="M89.5,227.7c0.5,0.1,1,0.2,1.5,0.5c2.3,1.1,3.7,3.4,3.6,5.9c0,1.2-0.4,2.3-1,3.3c-0.7,1.1-1.7,1.9-2.9,2.5
		c-2.6,1.2-5.7,0.5-7.5-1.7c-0.4-0.5-0.8-1.1-1-1.6c-0.3-0.6-0.4-1.2-0.5-1.8c-0.1-1.2,0-2.3,0.5-3.4c1-2.3,3.3-3.8,5.8-3.8
		C88.5,227.5,89.1,227.5,89.5,227.7c0.1,0-0.5-0.1-1.5-0.1c-1.4,0.1-2.8,0.6-3.8,1.5c-0.7,0.6-1.3,1.4-1.7,2.3
		c-0.4,1-0.6,2.1-0.4,3.2c0.1,0.6,0.2,1.2,0.5,1.7c0.2,0.6,0.6,1.1,1,1.6c1.8,2,4.6,2.7,7.1,1.6c0.6-0.2,1.1-0.6,1.6-1
		c0.5-0.4,0.9-0.8,1.2-1.3c1.9-2.9,1-6.8-1.9-8.6c-0.2-0.1-0.3-0.2-0.5-0.3C90.1,227.8,89.5,227.7,89.5,227.7z"/>
	<path class="st7" d="M94.6,220.9c0-0.1,0-0.1,0-0.2c0-0.2,0-0.4,0-0.7c0-0.6,0-1.5,0-2.7l0.1,0.1l-5.8-1.3l0.1,0l-1.5,3.2v0.1h-0.1
		c-1.3,0.1-2.5,0.3-3.8,0.7h-0.1l-0.1,0l-2.5-2.5h0l-5,3.2l0.1-0.2l1.2,3.4v0.1l-0.1,0.1c-0.9,0.9-1.6,2-2.2,3.1v0.1h0h-3.6l0.1-0.1
		c-0.4,1.8-0.8,3.8-1.3,5.8l-0.1-0.2l3.2,1.5l0.1,0v0.1c0.1,1.3,0.3,2.5,0.6,3.8v0.1l-0.1,0.1l-2.5,2.5v-0.2l3.2,5l-0.2-0.1l3.4-1.2
		H78l0.1,0.1c0.9,0.9,2,1.6,3.1,2.2l0,0c0.1,0.1-0.1-0.2,0.1,0.2l0,0v3.6l-0.1-0.2l5.8,1.3l-0.2,0.1c0.5-1.1,1-2.2,1.5-3.2l0.1-0.1
		h0.1c1.3,0,2.5-0.3,3.7-0.6h0.1l0.1,0.1l2.5,2.5h-0.2l5-3.1l-0.1,0.2c-0.4-1.1-0.8-2.3-1.2-3.4v-0.1l0.1-0.1c0.9-0.9,1.6-2,2.2-3.1
		v-0.1h3.7l-0.1,0.1c0.5-2,0.9-3.9,1.3-5.8l0.1,0.2l-3.2-1.5h-0.1v-0.1c0-1.3-0.3-2.5-0.6-3.8v-0.1v0l2.5-2.5v0.1l-3.1-5h0.1
		l-3.4,1.2l0,0l0,0c-0.7-0.7-1.5-1.2-2.3-1.8l-0.6-0.4L94.6,220.9l0.2,0.2l0.6,0.3c0.8,0.5,1.6,1.1,2.3,1.7h-0.1l3.4-1.2h0.1v0.1
		l3.2,5v0.1l-0.1,0.1l-2.5,2.5v-0.1c0.4,1.2,0.6,2.5,0.7,3.8l-0.1-0.1l3.2,1.5l0.1,0v0.1c-0.4,1.8-0.8,3.7-1.3,5.8v0.1h-3.7l0.1-0.1
		c-0.6,1.2-1.4,2.2-2.2,3.2v-0.2c0.4,1.1,0.8,2.2,1.2,3.4l0.1,0.1l-0.1,0.1l-5,3.2l-0.1,0.1l-0.1-0.1l-2.5-2.5h0.2
		c-1.2,0.4-2.5,0.6-3.8,0.7l0.1-0.1c-0.5,1.1-1,2.1-1.5,3.2l-0.1,0.1h-0.1l-5.8-1.3h-0.1v-3.8l0,0c0.2,0.3,0,0.1,0.1,0.2l0,0
		c-1.2-0.6-2.2-1.4-3.2-2.2H78l-3.4,1.2l-0.1,0l-0.1-0.1l-3.2-5l-0.1-0.1l0.1-0.1l2.5-2.5v0.2c-0.4-1.2-0.6-2.5-0.7-3.8l0.1,0.1
		L70,233l-0.1-0.1v-0.1l1.3-5.8v-0.1H75l-0.1,0.1c0.6-1.2,1.4-2.2,2.2-3.2v0.1l-1.2-3.4v-0.1l0.1-0.1l5-3.1l0.1,0l0.1,0.1l2.5,2.5
		h-0.1c1.2-0.4,2.5-0.6,3.8-0.6l-0.1,0.1l1.6-3.2v-0.1h0.1l5.8,1.3h0.1l0,0c0,1.1,0,2,0,2.6c0,0.3,0,0.5,0,0.7
		C94.7,220.7,94.7,220.8,94.6,220.9z"/>
	<path class="st18" d="M83.7,176c1.3,0.7,2.4,1.5,3.5,2.5l3.7-1.3l3.5,5.5l-2.8,2.8c0.4,1.4,0.7,2.8,0.7,4.2l3.6,1.7l-1.4,6.3h-3.9
		c-0.7,1.3-1.5,2.4-2.5,3.5l1.3,3.7l-5.5,3.5l-2.8-2.7c-1.4,0.4-2.8,0.7-4.2,0.7l-1.7,3.6l-6.4-1.4v-3.9c-1.3-0.7-2.4-1.5-3.5-2.5
		l-3.7,1.3l-3.5-5.5l2.8-2.8c-0.4-1.4-0.7-2.8-0.7-4.2l-3.6-1.7l1.4-6.4H62c0.7-1.3,1.5-2.4,2.4-3.5l-1.3-3.7l5.5-3.5l2.8,2.8
		c1.4-0.4,2.8-0.7,4.2-0.7l1.7-3.6l6.4,1.4L83.7,176L83.7,176z M78.1,183.5c-3.8-0.8-7.5,1.5-8.4,5.3c-0.8,3.8,1.5,7.5,5.3,8.4
		c3.8,0.8,7.5-1.5,8.4-5.3C84.3,188.1,81.9,184.4,78.1,183.5C78.1,183.5,78.1,183.5,78.1,183.5z"/>
	<path class="st19" d="M60.7,213.6c0.7,0.4,1.4,0.9,2,1.4l2.2-0.8l2,3.2l-1.6,1.6c0.2,0.8,0.4,1.6,0.4,2.4l2.1,1l-0.7,3.7h-2.3
		c-0.4,0.7-0.9,1.4-1.4,2l0.8,2.2l-3.2,2l-1.6-1.6c-0.8,0.2-1.6,0.4-2.4,0.4l-1,2.1l-3.7-0.8v-2.3c-0.7-0.4-1.4-0.9-2-1.4l-2.2,0.8
		l-2-3.2l1.6-1.6c-0.2-0.8-0.4-1.6-0.4-2.4l-2.1-1l0.8-3.7H48c0.4-0.7,0.9-1.4,1.4-2l-0.8-2.2l3.2-2l1.6,1.6
		c0.8-0.3,1.6-0.4,2.4-0.4l1-2.1l3.7,0.8L60.7,213.6L60.7,213.6z M57.4,217.9c-2.2-0.5-4.4,0.9-4.9,3.1c-0.5,2.2,0.9,4.4,3.1,4.9
		c2.2,0.5,4.4-0.9,4.9-3.1c0,0,0,0,0,0C61,220.6,59.6,218.4,57.4,217.9L57.4,217.9z"/>
</g>
<g id="freepik--Chart--inject-420">
	<rect x="160.1" y="213.8" class="st0" width="7" height="22.5"/>
	<rect x="172.9" y="204.5" class="st0" width="7" height="31.8"/>
	<rect x="186.6" y="200.2" class="st0" width="7" height="36.1"/>
	<rect x="200.2" y="195.6" class="st0" width="7" height="40.7"/>
</g>
</svg>
