<?xml version="1.0" encoding="utf-8"?>
<!-- Generator: Adobe Illustrator 24.2.3, SVG Export Plug-In . SVG Version: 6.00 Build 0)  -->
<svg version="1.1" id="Layer_1" xmlns="http://www.w3.org/2000/svg" xmlns:xlink="http://www.w3.org/1999/xlink" x="0px" y="0px"
	 viewBox="0 0 614.6 315.3" style="enable-background:new 0 0 614.6 315.3;" xml:space="preserve">
<style type="text/css">
	.st0{fill:#263238;}
	.st1{fill:#455A64;}
	.st2{fill:#E6E6E6;}
	.st3{fill:#FFFFFF;}
	.st4{fill:#E0E0E0;}
	.st5{fill:#F5F5F5;}
	.st6{fill:#1AECCF;}
	.st7{fill:#FAFAFA;}
	.st8{fill:#13A4D1;}
	.st9{fill:#E5BAAB;}
	.st10{fill:#D78776;}
	.st11{fill:#F0F0F0;}
	.st12{fill:#FFBE9D;}
	.st13{fill:#EA996D;}
	.st14{fill:#EBEBEB;}
	.st15{fill:#B78876;}
	.st16{opacity:0.2;enable-background:new    ;}
	.st17{fill:#A36957;}
</style>
<g id="freepik--Floor--inject-116">
	<path class="st0" d="M614.6,288.2c0,0.1-137.6,0.3-307.3,0.3S0,288.3,0,288.2s137.6-0.3,307.3-0.3S614.6,288,614.6,288.2z"/>
</g>
<g id="freepik--Device--inject-116">
	<path class="st0" d="M435.4,27.6H140.5c-5.1,0-9.2,4.1-9.2,9.2c0,0,0,0,0,0v208.3c0,5.1,4.1,9.2,9.2,9.2c0,0,0,0,0,0h113.2
		c0,0,7.2,22.3-15.1,33.8h105.8c0,0-25.2-8.7-18.7-33.8h109.7c5.1,0,9.2-4.1,9.2-9.2V36.8C444.6,31.7,440.5,27.6,435.4,27.6
		C435.4,27.6,435.4,27.6,435.4,27.6z"/>
	<path class="st1" d="M291.9,232.4c4,5.7-2.3,12-8,8c-0.2-0.1-0.4-0.3-0.5-0.5c-4-5.7,2.3-12,8-8C291.6,232,291.7,232.2,291.9,232.4
		z"/>
	<path class="st2" d="M140.8,40.1h293.7c1.6,0,2.8,1.3,2.8,2.8v171.9c0,1.6-1.3,2.8-2.8,2.8H140.8c-1.6,0-2.8-1.3-2.8-2.8V42.9
		C137.9,41.3,139.2,40.1,140.8,40.1z"/>
	<rect x="137.7" y="53.2" class="st3" width="299.4" height="164.6"/>
	<path class="st1" d="M162.5,46.9c0,1.3-1.1,2.4-2.4,2.4c-1.3,0-2.4-1.1-2.4-2.4s1.1-2.4,2.4-2.4c0,0,0,0,0,0
		C161.4,44.5,162.5,45.6,162.5,46.9z"/>
	<path class="st1" d="M148,46.9c0,1.3-1.1,2.4-2.4,2.4c-1.3,0-2.4-1.1-2.4-2.4s1.1-2.4,2.4-2.4c0,0,0,0,0,0
		C146.9,44.5,148,45.6,148,46.9z"/>
	<path class="st1" d="M154.9,46.9c0,1.3-1.1,2.4-2.4,2.4c-1.3,0-2.4-1.1-2.4-2.4s1.1-2.4,2.4-2.4c0,0,0,0,0,0
		C153.9,44.5,154.9,45.6,154.9,46.9z"/>
	<rect x="252.5" y="112.9" class="st4" width="23.3" height="3"/>
	<rect x="252.5" y="122.4" class="st5" width="110" height="49.5"/>
	<polygon class="st4" points="256.5,167.7 287.6,136.4 314.6,160.2 329.2,147.1 357.3,167.7 	"/>
	<path class="st4" d="M316.2,140.9c0,2-1.7,3.7-3.7,3.7c-2,0-3.7-1.7-3.7-3.7c0-2,1.7-3.7,3.7-3.7
		C314.5,137.2,316.2,138.9,316.2,140.9C316.2,140.9,316.2,140.9,316.2,140.9z"/>
	<path class="st4" d="M357,167.8c0-0.1,0-0.1,0-0.2c0-0.1,0-0.3,0-0.6c0-0.5,0-1.3-0.1-2.2c0-2-0.1-4.8-0.1-8.4
		c-0.1-7.2-0.1-17.5-0.2-29.9l0.5,0.2H257l0.6-0.2l0,0v11.1c0,3.6,0,7.2,0,10.7c0,6.9,0,13.5-0.1,19.5l-0.5-0.2l72.4,0.1l20.4,0.1
		h5.4L357,167.8c-0.1-0.1-0.2-0.1-0.4-0.1h-1.4h-5.3l-20.3,0.1l-72.7,0.1h-0.5v-0.2c0-6.1,0-12.6-0.1-19.5c0-3.5,0-7,0-10.7
		c0-1.8,0-3.7,0-5.5v-5.6l0,0l0.6-0.3h100.1h0.5v0.2c-0.1,12.4-0.2,22.8-0.3,30c-0.1,3.6-0.1,6.4-0.1,8.4c0,0.9,0,1.7-0.1,2.2
		c0,0.2,0,0.4,0,0.6C357.1,167.6,357,167.8,357,167.8z"/>
	<path class="st6" d="M263.4,187c0,2.4-2,4.3-4.4,4.3c-2.4,0-4.3-2-4.3-4.4c0-2.4,2-4.3,4.3-4.3C261.4,182.6,263.4,184.5,263.4,187
		C263.4,186.9,263.4,186.9,263.4,187z"/>
	<path class="st6" d="M335.2,184.6c0,0.1-15.3,0.2-34.2,0.2s-34.2-0.1-34.2-0.2c0-0.1,15.3-0.2,34.2-0.2
		C319.9,184.4,335.2,184.5,335.2,184.6z"/>
	<path class="st6" d="M335.2,187.7c0,0.1-15.3,0.2-34.2,0.2s-34.2-0.1-34.2-0.2c0-0.1,15.3-0.2,34.2-0.2
		C319.9,187.5,335.2,187.6,335.2,187.7z"/>
	<path class="st6" d="M303.4,191.3c-0.5,0.1-1,0.1-1.4,0.1l-3.9,0.1c-3.3,0-7.9,0.1-12.9,0.1s-9.6,0-12.9-0.1l-3.9-0.1
		c-0.5,0-1,0-1.4-0.1c0.5-0.1,1-0.1,1.4-0.1l3.9-0.1c3.3,0,7.9-0.1,12.9-0.1s9.6,0,12.9,0.1l3.9,0.1
		C302.4,191.2,302.9,191.3,303.4,191.3z"/>
	<circle class="st6" cx="259" cy="203.5" r="4.4"/>
	<path class="st6" d="M335.2,201.2c0,0.1-15.3,0.2-34.2,0.2s-34.2-0.1-34.2-0.2c0-0.1,15.3-0.2,34.2-0.2
		C319.9,200.9,335.2,201,335.2,201.2z"/>
	<path class="st6" d="M335.2,204.3c0,0.1-15.3,0.2-34.2,0.2s-34.2-0.1-34.2-0.2s15.3-0.2,34.2-0.2
		C319.9,204.1,335.2,204.2,335.2,204.3z"/>
	<path class="st6" d="M303.4,207.9c-0.5,0.1-1,0.1-1.4,0.1L298,208c-3.3,0-7.9,0.1-12.9,0.1s-9.6,0-12.9-0.1l-3.9-0.1
		c-0.5,0-1,0-1.4-0.1c0.5-0.1,1-0.1,1.4-0.1l3.9-0.1c3.3,0,7.9-0.1,12.9-0.1s9.6,0,12.9,0.1l3.9,0.1
		C302.4,207.8,302.9,207.8,303.4,207.9z"/>
	<rect x="137.9" y="52.9" class="st1" width="299.4" height="49.2"/>
	<rect x="270.6" y="69.9" class="st7" width="69.6" height="5.1"/>
	<path class="st7" d="M371.5,84.2h-0.4h-1l-4,0l-14.6,0.1l-48.2,0.1l-48.2-0.1l-14.6-0.1l-4,0h-1h-0.4h0.4h1l4,0l14.6-0.1l48.2-0.1
		l48.2,0.1l14.6,0.1l4,0h1H371.5z"/>
	<path class="st7" d="M342.2,89.5c-0.2,0-0.5,0-0.7,0h-2.1l-7.9,0.1l-26,0.1l-26-0.1l-7.9-0.1h-2.1c-0.2,0-0.5,0-0.7,0
		c0.2,0,0.5,0,0.7,0l2.1,0l7.9-0.1l26-0.1l26,0.1l7.9,0.1l2.1,0C341.7,89.5,342,89.5,342.2,89.5z"/>
	<path class="st7" d="M209.8,102.1c0,13.9-11.2,25.1-25.1,25.1s-25.1-11.2-25.1-25.1s11.2-25.1,25.1-25.1
		C198.6,76.9,209.8,88.2,209.8,102.1L209.8,102.1z"/>
	<path class="st0" d="M214.8,156.8c0,0.1-12.9,0.2-28.8,0.2s-28.8-0.1-28.8-0.2s12.9-0.3,28.8-0.3S214.8,156.6,214.8,156.8z"/>
	<path class="st0" d="M214.8,163.2c0,0.1-12.9,0.2-28.8,0.2s-28.8-0.1-28.8-0.2s12.9-0.2,28.8-0.2S214.8,163,214.8,163.2z"/>
	<path class="st0" d="M214.8,169.5c0,0.1-12.9,0.2-28.8,0.2s-28.8-0.1-28.8-0.2c0-0.1,12.9-0.2,28.8-0.2S214.8,169.4,214.8,169.5z"
		/>
	<path class="st0" d="M190.3,176c0,0.1-7.5,0.2-16.7,0.2c-9.2,0-16.7-0.1-16.7-0.2s7.5-0.2,16.7-0.2S190.3,175.9,190.3,176z"/>
	<rect x="157.2" y="143.8" class="st0" width="39.7" height="2.9"/>
	<path class="st8" d="M169,121.3c9.1,7.9,22.7,7.9,31.8,0c-1.3-4.5-4.6-9.9-12.4-11.1c3.6-1.6,5.9-5.2,5.9-9.1
		c0-5.5-4.1-9.9-9.2-9.9c-5.1,0-9.3,4.4-9.3,9.8c-0.1,4,2.3,7.6,5.9,9.2C173.7,111.3,170.4,116.8,169,121.3z"/>
	<rect x="157.2" y="186" class="st0" width="22.2" height="2.7"/>
</g>
<g id="freepik--speech-bubbles--inject-116">
	<path class="st6" d="M563.9,109.8H410c-3.3,0-6,2.7-6,6v48.8c0,3.3,2.7,6,6,6h3.5v17.7l17.5-17.7h133c3.3,0,6-2.7,6-6v-48.8
		C570,112.5,567.3,109.8,563.9,109.8C564,109.8,563.9,109.8,563.9,109.8z"/>
	<path class="st7" d="M523.2,148.7c-0.1-2.8,0-6.9,0.1-10.5l0,0c-1.7-4.3-0.6-9.2,2.8-12.5c5.8-5.9,9.6-4.6,11.8-4.6
		s12.5,2.5,15.4,14.8c0.2,0.8,0.3,1.6,0.3,2.4l0,0c0,0.6,0.1,1.2,0.2,1.6l0,0c0.2,4.5,2.8,8.5,6.7,10.6c5.7-12.8-0.2-27.8-13-33.5
		c-12.8-5.7-27.8,0.2-33.5,13c-5.2,11.8-0.8,25.6,10.3,32.1C523.1,157.7,522.8,153.2,523.2,148.7z"/>
	<path class="st0" d="M523.2,149.3c0-0.2,0-0.4,0-0.6c-0.5,4.5-0.1,9,1.1,13.4c1.7,1,3.5,1.8,5.3,2.4c-0.1-3.5-0.4-8.6-0.4-8.6
		S523.5,155.2,523.2,149.3z"/>
	<path class="st9" d="M544.6,138.5c0,0-9.4-1.1-10.9-9.9l-0.1,0c-0.6,1.3-1.6,4.2-1,6.5l-8.4,2.1l-0.9,0.9
		c-0.1,3.7-0.2,7.8-0.1,10.5c0,0.2,0,0.4,0,0.6c0.2,5.9,6,6.6,6,6.6c2.7-0.1,5.4-0.9,7.6-2.5c0,0-1.8,4.3-7.5,3.9l-0.1-1.4
		c0,0,0.3,5,0.4,8.6c2.5,0.8,5,1.2,7.6,1.2c2.2,0,4.3-0.3,6.4-0.8L544.6,138.5z M533,140c0-0.4,0.3-0.7,0.7-0.7
		c0.4,0,0.8,0.3,0.8,0.7s-0.3,0.8-0.7,0.8S533,140.4,533,140C533,140,533,140,533,140z M532.8,138.7c0.3-0.3,0.7-0.4,1.1-0.4
		c0.4,0,0.8,0.1,1.2,0.3c0.3,0.2,0.3,0.4,0.3,0.4s-0.7-0.3-1.5-0.3s-1.3,0.5-1.4,0.4S532.6,138.9,532.8,138.7L532.8,138.7z
		 M524.1,138.5c0.3-0.3,0.7-0.4,1.1-0.4c0.4,0,0.8,0.1,1.2,0.3c0.3,0.2,0.3,0.4,0.3,0.4s-0.7-0.3-1.5-0.3s-1.3,0.5-1.4,0.4
		S523.9,138.8,524.1,138.5z M524.5,139.8c0-0.4,0.3-0.7,0.7-0.7c0,0,0,0,0,0c0.4,0,0.7,0.3,0.7,0.7c0,0,0,0,0,0
		c0,0.4-0.3,0.7-0.7,0.7C524.8,140.6,524.5,140.2,524.5,139.8L524.5,139.8z M527.9,145.9c-0.2,0-0.3-0.2-0.3-0.3
		c-0.1-0.3,0-0.6,0.1-0.9l0.5-1.7c0.4-1.4,1-2.9,1.6-4.2c-0.3,1.5-0.7,2.9-1.3,4.3l-0.6,1.7c-0.1,0.2-0.1,0.4-0.1,0.6
		c0,0.1,0.2,0.2,0.4,0.2c0.4,0,0.9,0.1,1.3,0.2c-0.4,0.1-0.9,0.1-1.3,0C528.2,146,528.1,145.9,527.9,145.9L527.9,145.9z
		 M530.9,148.8c-0.9,0.4-2,0-2.6-0.8c1.6,0,4.6-1.8,3.8-1.3C532.4,147.6,531.9,148.5,530.9,148.8L530.9,148.8z"/>
	<path class="st0" d="M526,139.8c0-0.4-0.3-0.7-0.7-0.8c0,0,0,0,0,0c-0.4,0-0.8,0.3-0.8,0.7s0.3,0.8,0.7,0.8S526,140.3,526,139.8
		C526,139.9,526,139.9,526,139.8z"/>
	<path class="st0" d="M525.3,138.6c0.8,0,1.4,0.4,1.5,0.3s0-0.2-0.3-0.4c-0.3-0.2-0.7-0.4-1.2-0.3c-0.4,0-0.8,0.2-1.1,0.4
		c-0.2,0.2-0.3,0.4-0.3,0.4S524.5,138.6,525.3,138.6z"/>
	<path class="st0" d="M534.5,140c0-0.4-0.3-0.7-0.7-0.8c0,0,0,0,0,0c-0.4,0-0.8,0.3-0.8,0.8s0.3,0.8,0.8,0.8
		C534.2,140.7,534.5,140.4,534.5,140z"/>
	<path class="st0" d="M534,138.7c0.8,0,1.4,0.4,1.5,0.3s0-0.2-0.3-0.4c-0.3-0.2-0.7-0.4-1.2-0.3c-0.4,0-0.8,0.2-1.1,0.4
		c-0.2,0.2-0.3,0.4-0.3,0.5S533.2,138.8,534,138.7z"/>
	<path class="st0" d="M529.6,145.9c-0.4-0.1-0.8-0.2-1.3-0.2c-0.2,0-0.4,0-0.4-0.2c0-0.2,0-0.4,0.1-0.6l0.6-1.7
		c0.5-1.4,1-2.9,1.3-4.3c-0.6,1.4-1.2,2.8-1.6,4.2l-0.5,1.7c-0.1,0.3-0.2,0.6-0.1,0.9c0.1,0.1,0.2,0.3,0.3,0.3c0.1,0,0.2,0,0.3,0
		C528.8,146,529.2,146,529.6,145.9z"/>
	<path class="st3" d="M528.4,148c0.6,0.8,1.6,1.2,2.6,0.8c0.9-0.2,1.5-1.2,1.2-2.1c0,0,0,0,0,0C533,146.2,530,148,528.4,148z"/>
	<path class="st10" d="M536.8,153.4c-2.2,1.6-4.9,2.4-7.6,2.5l0.1,1.4C535.1,157.7,536.8,153.4,536.8,153.4z"/>
	<path class="st0" d="M553.8,139.9L553.8,139.9c0-0.4-0.1-1-0.2-1.6l0,0c-0.1-0.8-0.2-1.6-0.3-2.4c-2.9-12.3-13.3-14.7-15.4-14.8
		s-6.1-1.4-11.8,4.6c-3.4,3.2-4.4,8.1-2.8,12.5l0,0l0.9-0.9l8.4-2.1c-0.6-2.3,0.4-5.2,1-6.5l0.1,0c1.5,8.8,10.9,9.9,10.9,9.9
		l-0.9,26.3c0.3-0.1,0.7-0.2,1-0.3c7-2.2,12.8-7.3,15.8-14C556.5,148.4,554,144.3,553.8,139.9z"/>
	<rect x="422.8" y="127.7" class="st7" width="79.8" height="4.4"/>
	<rect x="422.8" y="139" class="st7" width="79.8" height="4.4"/>
	<rect x="422.8" y="150" class="st7" width="39.6" height="4.4"/>
</g>
<g id="freepik--character-2--inject-116">
	<path class="st8" d="M556.5,279.9l-1.9-9.5l-17.8,3.4l2.6,13.9l1.1-0.1c5-0.7,25.1-3.7,28.2-5.3
		C572.2,280.5,556.5,279.9,556.5,279.9z"/>
	<path class="st11" d="M545.8,286.3c-0.6-1.4-1.6-2.6-3-3.4c-1.3-0.7-2.9-0.9-4.4-0.5l0.9,5L545.8,286.3z"/>
	<path class="st11" d="M564.2,280.5c0,0,5.6,0.5,5.1,1.5s-20.8,4.8-29.9,5.8l0-0.4l23.7-4.3C563.1,283,563.2,280.7,564.2,280.5z"/>
	<path class="st0" d="M539.1,287.3h0.3l0.9-0.1l3.2-0.5c2.8-0.4,6.5-1,10.7-1.8s7.9-1.6,10.6-2.2l3.2-0.8l0.9-0.2l0.3-0.1l-0.3,0
		l-0.9,0.2l-3.2,0.7c-2.7,0.6-6.5,1.3-10.6,2.1s-7.9,1.4-10.7,1.9l-3.2,0.5l-0.9,0.2L539.1,287.3z"/>
	<path class="st0" d="M563.1,283.3c0-0.6,0.1-1.1,0.3-1.7c0.2-0.5,0.5-1,0.9-1.4c-0.5,0.3-0.9,0.8-1.1,1.4
		C563,282.2,562.9,282.8,563.1,283.3z"/>
	<path class="st0" d="M557.4,281.7c0.1,0,0.2-0.3,0.4-0.8s0.3-0.8,0.2-0.9c-0.2,0.2-0.3,0.5-0.4,0.8
		C557.5,281.1,557.4,281.3,557.4,281.7z"/>
	<path class="st0" d="M555.8,281.2c0,0,0.3-0.2,0.5-0.5s0.4-0.6,0.4-0.7s-0.3,0.2-0.5,0.5S555.8,281.1,555.8,281.2z"/>
	<path class="st0" d="M554.6,279.7c0.3,0.1,0.6,0,0.9-0.1c0.3,0,0.6-0.1,0.9-0.3c-0.3-0.1-0.7,0-1,0
		C555.1,279.4,554.8,279.5,554.6,279.7z"/>
	<path class="st0" d="M554,278.5c0.7,0.2,1.5,0.1,2.1-0.2c-0.4,0-0.7,0.1-1.1,0.1C554.8,278.4,554.4,278.5,554,278.5z"/>
	<path class="st0" d="M557.7,280c0.4,0,0.8-0.1,1.1-0.2c0.4-0.1,0.8-0.3,1.2-0.5c0.2-0.1,0.4-0.2,0.6-0.4c0.1-0.1,0.2-0.3,0.2-0.4
		c0-0.2-0.1-0.3-0.2-0.4c-1-0.3-2,0.2-2.5,1.1c-0.1,0.3-0.2,0.5-0.2,0.8c0,0.1,0,0.2,0,0.3c0.1-0.4,0.2-0.7,0.3-1.1
		c0.2-0.4,0.5-0.7,0.9-0.8c0.4-0.2,0.9-0.3,1.4-0.2c0.2,0.1,0.2,0.3,0,0.5c-0.2,0.2-0.4,0.3-0.6,0.4c-0.4,0.2-0.7,0.4-1.1,0.5
		C558.1,279.9,557.7,280,557.7,280z"/>
	<path class="st0" d="M558,280c0.1-0.3,0.1-0.6,0-0.8c-0.1-0.3-0.2-0.6-0.5-0.8c-0.3-0.3-0.7-0.5-1.1-0.4c-0.2,0.1-0.3,0.4-0.2,0.6
		c0.1,0.2,0.2,0.3,0.3,0.5c0.2,0.2,0.4,0.4,0.7,0.6C557.4,279.8,557.7,279.9,558,280c-0.1,0-0.4-0.2-0.7-0.5
		c-0.2-0.2-0.4-0.4-0.6-0.6c-0.2-0.2-0.4-0.6-0.1-0.7c0.3,0,0.6,0.1,0.8,0.3c0.2,0.2,0.4,0.4,0.5,0.7C557.9,279.5,558,279.7,558,280
		z"/>
	<path class="st0" d="M538.5,282.4c0,0,0.5-0.1,1.3-0.2c1.1-0.1,2.1,0.1,3.1,0.6c0.9,0.5,1.7,1.3,2.3,2.2c0.4,0.7,0.5,1.2,0.6,1.2
		c0-0.1,0-0.2-0.1-0.4c-0.1-0.3-0.2-0.6-0.4-0.9c-1.1-2-3.2-3.2-5.5-2.9c-0.3,0-0.7,0.1-1,0.2C538.8,282.3,538.6,282.4,538.5,282.4z
		"/>
	<path class="st0" d="M539,274.7c0.1,1.2,0.3,2.5,0.5,3.7c0.2,1.2,0.4,2.4,0.8,3.6c-0.1-1.2-0.3-2.5-0.5-3.7
		C539.6,277.1,539.3,275.9,539,274.7z"/>
	<path class="st0" d="M547.8,284.2c0.9,0,1.8,0,2.6-0.2c0.9-0.1,1.7-0.4,2.5-0.7c0-0.1-1.2,0.2-2.6,0.5S547.8,284.1,547.8,284.2z"/>
	<path class="st0" d="M544.3,284.9c0,0,0.1,0.2,0.3,0.5s0.3,0.5,0.3,0.5s0-0.3-0.2-0.6S544.3,284.8,544.3,284.9z"/>
	<path class="st0" d="M542.6,283.5c0,0,0.1,0.2,0.3,0.4s0.4,0.2,0.5,0.2s-0.1-0.2-0.3-0.4S542.7,283.4,542.6,283.5z"/>
	<path class="st0" d="M540.6,283.1c0,0.1,0.3,0,0.5,0s0.5,0.1,0.5,0.1s-0.2-0.3-0.5-0.3S540.6,283,540.6,283.1z"/>
	<path class="st0" d="M539.2,283c0,0.1,0.1,0.1,0.3,0.2s0.3,0,0.3-0.1s-0.1-0.1-0.3-0.2S539.2,282.9,539.2,283z"/>
	<path class="st0" d="M479.6,262.2c0,0,24.6-55,47.7-55.5c0,0,13.3-3,18.5,24.2c2.6,13.6,11.4,46.4,11.4,46.4l-23.3,4l-8.7-40.6
		l-11.1,25.2L479.6,262.2z"/>
	<polygon class="st1" points="532.3,279.2 533,282.2 558.4,277.4 557.8,274.3 	"/>
	<path class="st1" d="M516.8,229.2c0,0.1-0.3,0.4-0.9,0.5s-1.1,0.1-1-0.1s0.4-0.3,0.9-0.4S516.8,229.1,516.8,229.2z"/>
	<path class="st1" d="M524.6,227.8c-0.6,0.2-1.3,0.3-2,0.3c-1.1,0.1-2,0.2-2,0.1s0.8-0.5,1.9-0.6S524.6,227.6,524.6,227.8z"/>
	<path class="st1" d="M528.9,233.7c-0.1,0-0.5-0.8-0.9-1.8c-0.3-0.6-0.4-1.3-0.4-2c0.1-0.1,0.5,0.7,0.9,1.8S529.1,233.7,528.9,233.7
		z"/>
	<path class="st1" d="M531.1,241.4c-0.1,0-0.5-0.8-0.8-1.9s-0.4-2-0.3-2s0.5,0.8,0.8,1.9S531.2,241.4,531.1,241.4z"/>
	<path class="st1" d="M533,249.2c-0.1,0-0.5-0.8-0.7-1.9s-0.4-2-0.2-2s0.5,0.8,0.7,1.9C533,247.8,533.1,248.5,533,249.2z"/>
	<path class="st1" d="M534.9,256.9c-0.1,0-0.5-0.8-0.7-1.9c-0.3-1.1-0.3-2-0.2-2s0.5,0.8,0.7,1.9S535,256.9,534.9,256.9z"/>
	<path class="st1" d="M536.7,264.7c-0.1,0-0.5-0.8-0.7-1.9s-0.3-2-0.2-2s0.5,0.8,0.7,1.9S536.8,264.7,536.7,264.7z"/>
	<path class="st1" d="M538.4,272.5c-0.1,0-0.5-0.8-0.7-1.9s-0.3-2-0.2-2s0.5,0.8,0.7,1.9S538.6,272.5,538.4,272.5z"/>
	<path class="st1" d="M539.7,278.3c-0.1,0-0.3-0.4-0.5-0.9s-0.1-1,0-1s0.3,0.4,0.5,0.9S539.9,278.3,539.7,278.3z"/>
	<path class="st8" d="M441.2,186.3L441.2,186.3l-3.1,0.2l-8.5,19.3l5.3,21.2c2.8,9.8-5.1,22.4-6.4,31.1l45.5,1.2l2.2-29.9l1.5,13.3
		l19.7,2.5l-10.6-37.4c-5.7-21.5-24.2-21.3-24.2-21.3"/>
	<path class="st12" d="M461.4,186.3c-0.3-1.7,0.3-7.8,0.3-7.8s6.4-0.7,6.8-7.1s0-21.1,0-21.1l-11.7-5.7l-11.1,9.9l0.1,31.8
		L461.4,186.3z"/>
	<path class="st0" d="M466.8,161c0,0.5-0.4,0.8-0.8,0.8c-0.5,0-0.8-0.4-0.8-0.8c0-0.5,0.4-0.8,0.8-0.8S466.8,160.5,466.8,161
		L466.8,161z"/>
	<path class="st0" d="M468,160.3c-0.1,0.1-0.7-0.4-1.6-0.5s-1.5,0.4-1.6,0.3s0.1-0.2,0.4-0.5c0.4-0.2,0.8-0.4,1.3-0.3
		c0.5,0,0.9,0.2,1.3,0.5C468,160.1,468.1,160.3,468,160.3z"/>
	<path class="st0" d="M457.3,160.8c0,0.5-0.4,0.8-0.8,0.8c-0.5,0-0.8-0.4-0.8-0.8c0-0.5,0.4-0.8,0.8-0.8S457.3,160.4,457.3,160.8
		L457.3,160.8z"/>
	<path class="st0" d="M458.5,160.2c-0.1,0.1-0.7-0.4-1.6-0.5s-1.5,0.4-1.6,0.3s0.1-0.2,0.4-0.5c0.4-0.2,0.8-0.4,1.3-0.3
		c0.5,0,0.9,0.2,1.3,0.5C458.5,160,458.6,160.2,458.5,160.2z"/>
	<path class="st0" d="M461.5,167.6c0.5-0.1,1-0.2,1.4-0.2c0.2,0,0.4,0,0.5-0.2c0-0.2,0-0.5-0.1-0.7l-0.6-1.8c-0.6-1.5-1-3.1-1.3-4.8
		c0.7,1.5,1.2,3.1,1.7,4.6l0.6,1.8c0.1,0.3,0.2,0.6,0.1,0.9c-0.1,0.2-0.2,0.3-0.4,0.3c-0.1,0-0.3,0-0.4,0
		C462.5,167.6,462,167.6,461.5,167.6z"/>
	<path class="st3" d="M458.6,168.3c1.3,0.8,2.7,1.3,4.2,1.5c-0.7,0.9-1.9,1.3-2.9,0.8C458.1,169.9,458.6,168.3,458.6,168.3z"/>
	<path class="st13" d="M461.8,178.4c-3-0.1-6-1.1-8.5-2.9c0,0,1.9,4.7,8.3,4.4L461.8,178.4z"/>
	<path class="st0" d="M435.3,161c0-0.3,0.1-0.8,0.2-1.3s0-0.6,0-0.6l0,0c0.1-1.2,0.3-2.6,0.4-3.2c2.7-16.8,16.9-15.8,16.9-15.8
		c0.8,0,5.3-0.4,10.8,3.5c4.3,2.7,7,7.4,7.1,12.5c0,0.9,0,1.8-0.2,2.7c0,0.3-0.1,0.6-0.2,1c-0.1,0,0.2-1.4,0-3.6
		c-0.1-1.6-0.5-3.3-1.1-4.8c0.8,2.6,0.6,5.5-0.5,8l-11.4-1.8c0.7-2.5,0.2-6.5-0.1-8.4c-2,9.3-10,13.7-10,13.7l-1-0.1v14.1
		C436.5,174.7,435.4,165.1,435.3,161L435.3,161z"/>
	<path class="st0" d="M435.9,156.3c-2.9-3.2-7.8-3.6-11.2-0.9c-0.7,0.5-1.2,1.2-1.4,1.9c-0.3,0.8-0.1,1.6,0.4,2.3
		c0.6,0.6,1.5,0.7,2.2,0.1c-1,0.3-1.5,1.4-1.1,2.4c0.3,1,1.4,1.5,2.4,1.1c0.5-0.2,0.8-0.5,1-0.9c-0.2,0.6-0.3,1.2-0.3,1.8
		c0,0.6,0.4,1.2,1,1.5c0.7,0.2,1.5-0.1,2-0.7c0.5-0.6,0.9-1.2,1.2-1.9c1.1-1.6,3-2.6,5-2.6"/>
	<path class="st0" d="M426.1,151.6c0.5-0.2,1.1-0.4,1.7-0.3c2.8-0.1,5.5,1.2,7.1,3.6c0.4,0.4,0.6,1,0.7,1.5c-0.1,0-0.4-0.5-1-1.3
		c-0.8-1-1.9-1.8-3.1-2.4c-1.2-0.6-2.5-0.9-3.8-1C427.2,151.6,426.7,151.6,426.1,151.6z"/>
	<path class="st1" d="M436,155.9c0,1,0,2-0.2,2.9c0,1-0.1,2-0.4,2.9C435,159.8,435.2,157.8,436,155.9z"/>
	<path class="st12" d="M446.6,165.9c-1.1,0.6-2.4,0.5-3.3-0.5c-0.8-0.9-1.1-2.2-0.8-3.4c0.1-0.7,0.4-1.4,1-1.9
		c0.9-0.4,2-0.4,2.8,0.2L446.6,165.9z"/>
	<path class="st13" d="M445.2,164.9c0-0.1-0.3-0.1-0.7-0.4c-0.7-0.5-0.9-1.5-0.4-2.3c0.2-0.2,0.4-0.4,0.7-0.6
		c0.4-0.2,0.7-0.2,0.8-0.3s-0.3-0.2-0.9-0.1c-1,0.3-1.6,1.4-1.3,2.4c0.1,0.5,0.5,0.9,1,1.1C444.9,165.1,445.2,165,445.2,164.9z"/>
	<path class="st14" d="M442.8,165c-0.5,0.1-0.9,0.4-1.2,0.7c-0.3,0.4-0.4,0.9-0.3,1.4c0.3,0.9,1.2,1.3,2.1,1.1
		c0.8-0.2,1.3-1,1.1-1.8c-0.1-0.5-0.3-0.9-0.5-1.3c0,0,0.1,0.1,0.3,0.3c0.2,0.3,0.4,0.6,0.4,1c0.1,0.5,0,1.1-0.3,1.5
		c-0.4,0.5-1.1,0.8-1.8,0.7c-0.7-0.2-1.2-0.7-1.4-1.4c-0.1-0.5,0-1.1,0.3-1.5C441.8,165.2,442.3,164.9,442.8,165z"/>
	<path class="st8" d="M438.9,186.5c0,0-9.6,0.1-14.5,12.8c-2.2,6-2.3,12.6-0.1,18.6l1.8,4.9l19.4-5.6L438.9,186.5z"/>
	<path class="st0" d="M475.3,237.2c-0.1-0.4-0.1-0.9-0.1-1.3c0-1.2,0-2.4,0.2-3.6c0.2-1.8,0.5-3.6,0.9-5.3c0.5-2,1.2-4.1,1.8-6.3
		c0.5-2.1,0.4-4.3-0.3-6.4c-0.6-1.7-1.2-3.3-2-4.9l-1.7-3.2c-0.2-0.4-0.4-0.8-0.5-1.2c0.3,0.3,0.5,0.7,0.7,1.1
		c0.4,0.7,1.1,1.8,1.8,3.1c0.9,1.6,1.6,3.2,2.2,5c0.3,1,0.6,2.1,0.7,3.1c0.1,1.2,0,2.3-0.3,3.5c-0.6,2.3-1.3,4.4-1.8,6.3
		c-0.4,1.7-0.8,3.5-1,5.2c-0.2,1.5-0.3,2.8-0.3,3.6C475.4,236.3,475.4,236.7,475.3,237.2z"/>
	<rect x="445.5" y="182.6" class="st8" width="16.3" height="3.8"/>
	<path class="st0" d="M465.1,258.2c0-0.2-0.1-0.5-0.1-0.7c0-0.5-0.1-1.2-0.2-2.1c-0.1-1.9-0.3-4.5-0.5-7.7c-0.4-6.5-1-15.5-2-25.5
		s-2.1-18.9-3-25.4c-0.5-3.2-0.9-5.8-1.2-7.7c-0.1-0.9-0.2-1.5-0.3-2.1c0-0.2-0.1-0.5-0.1-0.7c0.1,0.2,0.1,0.5,0.2,0.7
		c0.1,0.5,0.2,1.2,0.4,2.1c0.3,1.8,0.8,4.4,1.3,7.6c1,6.5,2.2,15.4,3.2,25.4s1.5,19,1.8,25.5c0.2,3.3,0.3,5.9,0.3,7.8
		c0,0.9,0,1.6,0.1,2.1C465.2,257.7,465.1,257.9,465.1,258.2z"/>
	<path class="st0" d="M457.4,182.7c0.1,0.2,0.2,0.4,0.2,0.7c0.1,0.6,0.2,1.3,0.1,1.9c0,1-0.3,1.9-0.9,2.7c-0.4,0.5-0.9,0.8-1.4,1
		c-0.6,0.2-1.2,0.3-1.8,0.3c-2.1-0.1-4.1-0.6-6-1.6c-0.8-0.4-1.5-0.8-2.1-1.5c0-0.1,0.8,0.5,2.3,1.1c1.9,0.8,3.8,1.3,5.9,1.4
		c1.1,0.1,2.1-0.3,2.9-1.1c0.6-0.7,0.9-1.5,0.9-2.4C457.5,183.7,457.3,182.7,457.4,182.7z"/>
	<path class="st0" d="M461.9,185.9c0.1,0,0.1,0.6-0.5,1.4c-0.3,0.5-0.8,0.8-1.4,1c-0.4,0.1-0.7,0-1-0.1c-0.4-0.1-0.7-0.3-1-0.6
		c-0.5-0.5-0.7-1.2-0.8-1.9c0-0.5,0-1.1,0-1.6c0-0.5,0-1,0.2-1.5c0.1,0.5,0.2,1,0.2,1.5c0,0.5,0.1,1,0.2,1.6c0,0.6,0.3,1.2,0.6,1.6
		c0.2,0.2,0.5,0.4,0.7,0.4c0.3,0.1,0.5,0.1,0.8,0.1c0.5-0.1,0.9-0.4,1.2-0.8C461.5,186.7,461.7,186.3,461.9,185.9z"/>
	<path class="st3" d="M432.7,196.5c-0.1,0-0.6-0.9-1.6-1.8s-2-1.4-1.9-1.5c0.8,0.3,1.5,0.8,2.1,1.4
		C431.8,195.1,432.3,195.8,432.7,196.5z"/>
	<path class="st3" d="M431.6,195c-0.2-0.4-0.3-0.9-0.3-1.4c-0.1-0.5,0-1,0.1-1.5c0.1,0.5,0.2,1,0.1,1.5
		C431.5,194.4,431.6,195,431.6,195z"/>
	<path class="st3" d="M431.9,195.5c-0.3,0.2-0.7,0.3-1,0.3c-0.3,0.1-0.7,0.1-1,0.1c0.3-0.2,0.6-0.3,1-0.3
		C431.3,195.4,431.6,195.4,431.9,195.5z"/>
	<path class="st3" d="M472.3,220.5c-0.1,0-0.7-0.9-1.6-1.8s-2-1.5-1.9-1.5c0.8,0.3,1.5,0.8,2.1,1.4
		C471.5,219.1,472,219.8,472.3,220.5z"/>
	<path class="st3" d="M471.2,219.1c-0.2-0.4-0.3-0.9-0.3-1.4c-0.1-0.5,0-1,0.1-1.5c0.1,0.5,0.2,1,0.2,1.4
		C471.1,218.4,471.3,219.1,471.2,219.1z"/>
	<path class="st3" d="M471.6,219.5c-0.3,0.2-0.6,0.3-1,0.3c-0.3,0.1-0.7,0.1-1,0.1c0.3-0.2,0.7-0.3,1-0.3
		C470.9,219.5,471.2,219.5,471.6,219.5z"/>
	<path class="st3" d="M438,254.6c-0.5-0.6-1.1-1.2-1.6-1.8c-1-0.9-1.9-1.5-1.9-1.5c0.8,0.3,1.5,0.8,2.1,1.4
		C437.2,253.1,437.7,253.8,438,254.6z"/>
	<path class="st3" d="M436.9,253.1c-0.2-0.4-0.3-0.9-0.3-1.4c-0.1-0.5,0-1,0.1-1.5c0.1,0.5,0.2,1,0.1,1.5
		C436.8,252.5,436.9,253.1,436.9,253.1z"/>
	<path class="st3" d="M437.2,253.5c-0.3,0.2-0.6,0.3-1,0.3c-0.3,0.1-0.7,0.1-1,0.1c0.3-0.2,0.6-0.3,1-0.3
		C436.6,253.5,436.9,253.5,437.2,253.5z"/>
	<path class="st3" d="M451,211.9c0,0,0.8-0.7,1.7-1.8s1.3-2.1,1.3-2C453.4,209.7,452.4,211,451,211.9L451,211.9z"/>
	<path class="st3" d="M452.4,210.6c0.4-0.3,0.9-0.4,1.4-0.4c0.5-0.1,1-0.1,1.5-0.1c-0.5,0.2-0.9,0.3-1.4,0.3
		C453,210.5,452.4,210.7,452.4,210.6z"/>
	<path class="st3" d="M452,211c-0.2-0.3-0.3-0.6-0.4-1c-0.1-0.3-0.2-0.7-0.2-1c0.2,0.3,0.3,0.6,0.4,0.9
		C451.9,210.3,452,210.7,452,211z"/>
	<path class="st3" d="M482.8,204.7c0,0.1-1-0.4-2.3-0.7s-2.4-0.2-2.4-0.3c0.8-0.1,1.7-0.1,2.5,0.1
		C481.3,204,482.1,204.3,482.8,204.7z"/>
	<path class="st3" d="M481.1,204.1c-0.4-0.3-0.8-0.6-1-1.1c-0.3-0.4-0.5-0.8-0.7-1.3c0.3,0.4,0.6,0.7,0.9,1.2
		C480.7,203.5,481.1,204,481.1,204.1z"/>
	<path class="st3" d="M481.6,204.2c0,0-0.3,0.4-0.7,0.8c-0.2,0.3-0.5,0.5-0.8,0.6c0,0,0.3-0.4,0.7-0.8
		C481,204.6,481.3,204.4,481.6,204.2z"/>
	<path class="st3" d="M447.2,197.3c0,0,0.8-0.7,1.7-1.8s1.3-2.1,1.3-2c-0.2,0.8-0.6,1.5-1.2,2.2
		C448.5,196.4,447.9,196.9,447.2,197.3z"/>
	<path class="st3" d="M448.5,196.1c0.4-0.3,0.9-0.4,1.4-0.5c0.5-0.1,1-0.1,1.5-0.1c-0.5,0.2-0.9,0.3-1.4,0.3
		C449.2,196,448.6,196.2,448.5,196.1z"/>
	<path class="st3" d="M448.2,196.5c-0.2-0.3-0.3-0.6-0.4-1c-0.1-0.3-0.2-0.7-0.2-1c0.2,0.3,0.3,0.6,0.4,1
		C448.1,195.8,448.2,196.2,448.2,196.5z"/>
	<path class="st3" d="M483.5,224c0,0,0.8-0.7,1.7-1.8s1.3-2.1,1.3-2c-0.2,0.8-0.6,1.5-1.2,2.2C484.9,223.1,484.3,223.6,483.5,224z"
		/>
	<path class="st3" d="M484.9,222.8c0.4-0.3,0.9-0.4,1.4-0.4c0.5-0.1,1-0.1,1.5-0.1c-0.5,0.1-0.9,0.2-1.4,0.3
		C485.5,222.7,484.9,222.8,484.9,222.8z"/>
	<path class="st3" d="M484.5,223.2c-0.2-0.3-0.3-0.6-0.4-1c-0.1-0.3-0.2-0.7-0.2-1c0.2,0.3,0.3,0.6,0.4,0.9
		C484.5,222.5,484.5,222.8,484.5,223.2z"/>
	<path class="st3" d="M466.6,197.2c0,0,0.8-0.7,1.7-1.8s1.3-2.1,1.3-2C469,194.9,468,196.3,466.6,197.2L466.6,197.2z"/>
	<path class="st3" d="M467.9,195.9c0.4-0.3,0.9-0.4,1.4-0.5c0.5-0.1,1-0.1,1.5-0.1c-0.5,0.2-0.9,0.2-1.4,0.3
		C468.6,195.8,468,195.9,467.9,195.9z"/>
	<path class="st3" d="M467.6,196.3c-0.2-0.3-0.3-0.6-0.4-0.9c-0.1-0.3-0.2-0.7-0.2-1c0.2,0.3,0.3,0.6,0.4,1
		C467.5,195.6,467.6,195.9,467.6,196.3z"/>
	<path class="st3" d="M457.1,225.4c0,0.1-1.1-0.2-2.4-0.2s-2.4,0.3-2.4,0.2C453.8,224.9,455.5,224.9,457.1,225.4L457.1,225.4z"/>
	<path class="st3" d="M455.3,225.1c-0.5-0.2-0.9-0.4-1.2-0.8c-0.4-0.3-0.7-0.7-1-1.1c0.4,0.3,0.8,0.6,1.1,1
		C454.8,224.7,455.3,225.1,455.3,225.1z"/>
	<path class="st3" d="M455.8,225.2c-0.1,0.3-0.3,0.6-0.5,0.9c-0.2,0.3-0.4,0.6-0.7,0.8c0,0,0.2-0.4,0.5-0.9S455.7,225.2,455.8,225.2
		z"/>
	<path class="st0" d="M463.3,208.7c0,0,0.2-0.2,0.5-0.1c0.2,0.1,0.3,0.3,0.3,0.5c0,0.3-0.2,0.5-0.5,0.5c-0.3,0.1-0.6-0.1-0.7-0.4
		c-0.1-0.2,0-0.4,0.2-0.6l0.1-0.1h0.1c0.2,0.1,0.3,0.2,0.3,0.2s-0.1,0.1-0.3,0.1l0.2,0c0,0.1,0.1,0.3,0.2,0.3s0.2-0.1,0.1-0.3
		S463.3,208.8,463.3,208.7z"/>
	<path class="st0" d="M464.4,222.2c0-0.1,0.2-0.2,0.5-0.1c0.2,0.1,0.3,0.3,0.3,0.5c0,0.3-0.2,0.5-0.5,0.5c-0.3,0-0.6-0.2-0.7-0.5
		c0-0.2,0-0.4,0.2-0.5l0.1-0.1h0.1c0.2,0.1,0.3,0.2,0.3,0.2s-0.1,0.1-0.3,0.1l0.2,0c0,0.1,0.1,0.3,0.2,0.3s0.2-0.1,0.1-0.3
		S464.4,222.2,464.4,222.2z"/>
	<path class="st0" d="M465.3,234c0-0.1,0.2-0.2,0.5-0.1c0.2,0.1,0.3,0.3,0.3,0.5c0,0.3-0.3,0.5-0.5,0.5c-0.3,0.1-0.6-0.1-0.7-0.4
		c-0.1-0.2,0-0.4,0.2-0.6l0.1-0.1h0.1c0.2,0.1,0.3,0.2,0.3,0.2s-0.2,0.1-0.3,0.1l0.2,0c0,0.1,0.1,0.3,0.2,0.3s0.2-0.1,0.1-0.3
		S465.3,234.1,465.3,234z"/>
	<path class="st0" d="M461.3,196.1c0-0.1,0.2-0.2,0.5-0.1c0.2,0.1,0.3,0.3,0.3,0.5c0,0.3-0.2,0.5-0.5,0.5c-0.3,0.1-0.6-0.1-0.7-0.4
		c-0.1-0.2,0-0.4,0.2-0.6l0.1-0.1h0.1c0.2,0.1,0.3,0.2,0.3,0.2s-0.1,0.1-0.3,0.1l0.2,0c0,0.1,0.1,0.3,0.2,0.3s0.2-0.1,0.1-0.3
		S461.3,196.2,461.3,196.1z"/>
	<path class="st0" d="M428.2,257.2c0,0-10.1,27.9,14.4,29c21.9,1,51,0.9,62.2,0.9c5.2,0,9.4,0.9,14.2-1.3
		c5.2-2.3,10.5-6.2,10.9-12.2c0.5-7.9-4.7-15.3-22.9-16.3C488.9,256.2,428.2,257.2,428.2,257.2z"/>
	<path class="st1" d="M432.6,259.1c-0.1,0-0.1-0.5,0.1-1s0.4-0.9,0.6-0.9s0.1,0.5-0.1,1S432.8,259.1,432.6,259.1z"/>
	<path class="st1" d="M431.3,267c-0.1,0-0.3-0.9-0.3-2c0-0.7,0.1-1.4,0.5-2c0.1,0,0.1,0.9,0,2C431.6,265.6,431.5,266.3,431.3,267z"
		/>
	<path class="st1" d="M434.6,274.1c-0.1,0.1-0.9-0.4-1.6-1.3s-0.9-1.9-0.8-1.9s0.6,0.7,1.2,1.6S434.8,274,434.6,274.1z"/>
	<path class="st1" d="M442.1,277c0,0.1-0.9,0.1-2-0.1s-1.9-0.7-1.9-0.8c0.7,0,1.4,0.1,2,0.3C441.3,276.6,442.1,276.9,442.1,277z"/>
	<path class="st1" d="M450.2,277.6c0,0.1-0.9,0.2-2,0.2s-2-0.2-2-0.3s0.9-0.2,2-0.2C448.8,277.2,449.5,277.3,450.2,277.6z"/>
	<path class="st1" d="M458.3,277.7c0,0.1-0.9,0.2-2,0.2s-2-0.1-2-0.3C455.6,277.3,456.9,277.3,458.3,277.7L458.3,277.7z"/>
	<path class="st1" d="M466.3,277.7c0,0.1-0.9,0.3-2,0.3c-0.7,0.1-1.4,0-2-0.3c0.6-0.2,1.3-0.3,2-0.2
		C465,277.4,465.7,277.5,466.3,277.7z"/>
	<path class="st1" d="M474.4,277.7c0,0.1-0.9,0.3-2,0.3c-0.7,0.1-1.4,0-2-0.3c0-0.1,0.9-0.3,2-0.3
		C473.1,277.4,473.8,277.5,474.4,277.7z"/>
	<path class="st1" d="M482.5,277.7c0,0.1-0.9,0.3-2,0.3c-0.7,0.1-1.4,0-2-0.2c0-0.1,0.9-0.3,2-0.3
		C481.2,277.3,481.9,277.4,482.5,277.7z"/>
	<path class="st1" d="M490.6,277.6c-0.6,0.3-1.3,0.4-2,0.3c-1.1,0-2-0.1-2-0.2c0.6-0.2,1.3-0.3,2-0.3
		C489.7,277.3,490.6,277.5,490.6,277.6z"/>
	<path class="st1" d="M498.7,277.5c-0.6,0.3-1.3,0.3-2,0.3c-0.7,0.1-1.4,0-2-0.2c0-0.1,0.9-0.3,2-0.3S498.7,277.3,498.7,277.5z"/>
	<path class="st1" d="M506.8,277.4c-0.6,0.3-1.3,0.4-2,0.3c-1.1,0-2-0.1-2-0.2s0.9-0.3,2-0.3C505.4,277.1,506.1,277.2,506.8,277.4z"
		/>
	<path class="st1" d="M514.8,277.3c0,0.1-0.9,0.3-2,0.3c-0.7,0.1-1.4,0-2-0.2C512.2,277,513.5,277,514.8,277.3L514.8,277.3z"/>
	<path class="st1" d="M522.9,277.3c0,0.1-0.9,0.3-2,0.3c-0.7,0.1-1.4,0-2-0.2c0.6-0.3,1.3-0.3,2-0.3
		C521.6,277,522.3,277.1,522.9,277.3z"/>
	<path class="st1" d="M529,277.3c0,0.1-0.5,0.3-1,0.3s-1-0.1-1-0.2s0.5-0.3,1-0.3S529,277.1,529,277.3z"/>
	<path class="st1" d="M527.7,279.3h-0.3h-0.9l-3.4,0.1l-12.4,0.1c-10.5,0.1-25,0.3-41,0.2c-8,0-15.6-0.1-22.6-0.3
		c-3.3,0.1-6.6-0.2-9.9-0.8c-1.5-0.3-2.9-0.9-4.1-1.8c-1.1-0.9-2-1.9-2.8-3.1c-0.6-1.1-0.9-2.4-0.9-3.7c-0.1-1.1-0.1-2.2,0-3.4
		c0.2-1.8,0.5-3.5,1-5.3c0.4-1.4,0.7-2.5,1-3.2c0.1-0.4,0.2-0.6,0.3-0.8s0.1-0.3,0.1-0.3c0,0.1,0,0.2-0.1,0.3l-0.2,0.9
		c-0.2,0.7-0.5,1.8-0.9,3.2c-0.4,1.7-0.7,3.5-0.9,5.2c-0.1,1.1,0,2.2,0,3.3c0,1.2,0.3,2.4,0.9,3.5c0.7,1.1,1.6,2.2,2.7,3
		c1.2,0.9,2.6,1.4,4,1.7c3.2,0.6,6.5,0.8,9.8,0.7c6.9,0.1,14.6,0.2,22.6,0.2c16,0.1,30.5,0,41,0h12.4h3.4h0.9
		C527.5,279.2,527.6,279.2,527.7,279.3z"/>
	<path class="st8" d="M479.1,252c0,0-51,4.6-54-18.8c-3.2-24.8-1.6-28-1.6-28l19.6,0.2c0,0,1,23.8,3.2,25.1
		c9.6,5.7,26.2,7.5,31.7,7.5L479.1,252z"/>
	<path class="st0" d="M479.1,252c-0.1-0.3-0.1-0.7-0.1-1c-0.1-0.7-0.2-1.6-0.3-2.8c-0.2-2.5-0.5-6-0.9-10.2l0.2,0.2
		c-7.6-0.6-15.2-1.8-22.7-3.5c-2.5-0.6-5-1.2-7-2.8c-1.9-1.5-3.2-3.6-3.7-5.9c-0.6-2-0.9-4.1-0.9-6.2c-0.2-2-0.3-3.8-0.4-5.5
		c-0.2-3.3-0.3-6-0.4-7.9c0-0.9,0-1.7,0-2.2c0-0.3,0-0.5,0.1-0.8c0,0.3,0,0.5,0,0.8c0,0.5,0,1.2,0.1,2.1c0.1,1.9,0.3,4.6,0.5,7.9
		c0.2,1.7,0.3,3.5,0.5,5.5c0.1,2.1,0.4,4.1,1,6.1c0.6,2.2,1.8,4.2,3.6,5.6c2,1.4,4.3,2.3,6.8,2.7c7.4,1.7,15,2.9,22.6,3.6h0.2v0.2
		c0.3,4.2,0.5,7.7,0.7,10.2c0.1,1.2,0.1,2.1,0.2,2.8C479.1,251.3,479.1,251.7,479.1,252z"/>
	<path class="st0" d="M479.9,251.9c-0.2,0.1-0.4,0.1-0.7,0.1c-0.5,0.1-1.1,0.2-2,0.3c-2.4,0.3-4.8,0.4-7.2,0.4
		c-8-0.2-15.9-1.2-23.6-2.9c-4.3-0.8-8.5-2.2-12.4-4.2c-1.7-0.9-3.3-2.1-4.6-3.4c-1.2-1.2-2.2-2.5-3-4c-1.2-2.1-1.9-4.5-1.9-7
		c0-0.9,0.1-1.8,0.4-2.6c0.1,0-0.2,0.9-0.1,2.6c0.1,2.4,0.8,4.7,2,6.8c0.8,1.4,1.8,2.7,3,3.9c1.4,1.3,2.9,2.4,4.6,3.3
		c3.9,2,8.1,3.3,12.4,4.1c7.7,1.7,15.6,2.8,23.5,3.1c2.4,0.1,4.8,0,7.2-0.2c0.8-0.1,1.5-0.2,2-0.2
		C479.4,251.9,479.6,251.9,479.9,251.9z"/>
	<path class="st3" d="M439.2,209.5c-0.5-0.6-1.1-1.2-1.6-1.8c-1-0.9-2-1.5-1.9-1.5c0.8,0.3,1.5,0.8,2.1,1.4
		C438.3,208.1,438.8,208.8,439.2,209.5z"/>
	<path class="st3" d="M438,208.1c-0.2-0.4-0.3-0.9-0.3-1.4c-0.1-0.5,0-1,0.1-1.5c0.1,0.5,0.2,1,0.1,1.4
		C438,207.4,438.1,208,438,208.1z"/>
	<path class="st3" d="M438.4,208.5c-0.3,0.2-0.6,0.3-1,0.3c-0.3,0.1-0.7,0.1-1,0.1c0.3-0.2,0.6-0.3,1-0.3
		C437.7,208.5,438.1,208.4,438.4,208.5z"/>
	<path class="st15" d="M478.5,241.3c0,0,8.5-0.1,9.8,2.3s2.5,8,2.5,8l-11.7-0.5L478.5,241.3z"/>
	<path class="st3" d="M467.5,246.4c0,0,0.8-0.7,1.7-1.8s1.3-2.1,1.3-2C469.9,244.2,468.9,245.6,467.5,246.4L467.5,246.4z"/>
	<path class="st3" d="M468.8,245.2c0.4-0.3,0.9-0.4,1.4-0.4c0.5-0.1,1-0.1,1.5-0.1c-0.5,0.2-0.9,0.3-1.4,0.3
		C469.5,245,468.9,245.2,468.8,245.2z"/>
	<path class="st3" d="M468.5,245.6c-0.3-0.6-0.5-1.3-0.6-2c0.2,0.3,0.3,0.6,0.4,0.9C468.4,244.9,468.5,245.2,468.5,245.6z"/>
	<path class="st3" d="M433.4,240c0,0,0.8-0.7,1.6-1.8s1.3-2.1,1.3-2c-0.2,0.8-0.6,1.5-1.2,2.2C434.8,239,434.1,239.6,433.4,240z"/>
	<path class="st3" d="M434.8,238.7c0.4-0.3,0.9-0.4,1.4-0.5c0.5-0.1,1-0.1,1.5-0.1c-0.5,0.2-0.9,0.2-1.4,0.3
		C435.4,238.6,434.8,238.8,434.8,238.7z"/>
	<path class="st3" d="M434.4,239.1c-0.2-0.3-0.3-0.6-0.4-0.9c-0.1-0.3-0.2-0.7-0.2-1c0.2,0.3,0.3,0.6,0.4,1
		C434.3,238.5,434.4,238.8,434.4,239.1z"/>
	<path class="st3" d="M455.4,241.3c-0.1,0-0.6-0.9-1.5-1.9s-1.8-1.6-1.8-1.6c0.8,0.4,1.4,0.9,2,1.5
		C454.7,239.9,455.1,240.6,455.4,241.3z"/>
	<path class="st3" d="M454.4,239.8c-0.2-0.5-0.3-1-0.2-1.4c0-0.5,0-1,0.2-1.5c0.1,0.5,0.1,1,0,1.5
		C454.4,238.8,454.4,239.3,454.4,239.8z"/>
	<path class="st3" d="M454.7,240.2c-0.3,0.1-0.7,0.2-1,0.2c-0.3,0.1-0.7,0.1-1,0c0.3-0.1,0.7-0.2,1-0.2
		C454.1,240.1,454.4,240.1,454.7,240.2z"/>
	<path class="st3" d="M432,223.1c0,0-0.6-0.9-1.5-1.9s-1.8-1.6-1.8-1.6C430.2,220.4,431.3,221.6,432,223.1L432,223.1z"/>
	<path class="st3" d="M431,221.6c-0.2-0.5-0.3-1-0.2-1.5c0-0.5,0-1,0.2-1.4c0.1,0.5,0.1,1,0,1.5C431,221,431,221.6,431,221.6z"/>
	<path class="st3" d="M431.3,222c-0.3,0.1-0.7,0.2-1,0.2c-0.3,0.1-0.7,0.1-1,0C430,222,430.6,222,431.3,222L431.3,222z"/>
	<path class="st0" d="M429.1,203c0.3-0.4,0.5-0.8,0.9-1.2c0.2-0.4,0.5-0.8,0.8-1.2c-0.1,0.5-0.3,1-0.6,1.4
		C429.9,202.4,429.5,202.7,429.1,203z"/>
	<path class="st0" d="M440.2,195.9c-0.3-0.4-0.6-0.9-0.8-1.4c-0.3-0.5-0.5-1-0.6-1.5c0.3,0.4,0.6,0.9,0.8,1.4
		C439.8,194.9,440,195.4,440.2,195.9z"/>
	<path class="st0" d="M451.1,205c0.4-0.6,0.9-1.1,1.4-1.6c0.5-0.6,1-1.1,1.5-1.5c-0.4,0.6-0.9,1.1-1.4,1.6
		C452.2,204.1,451.7,204.6,451.1,205z"/>
	<path class="st0" d="M452.6,218.3c-0.5-0.1-1-0.3-1.3-0.7c-0.4-0.3-0.7-0.7-0.9-1.2c0.1,0,0.4,0.5,1.1,1S452.6,218.3,452.6,218.3z"
		/>
	<path class="st0" d="M458.3,219c0-0.4,0.1-0.8,0.2-1.2c0.1-0.4,0.2-0.8,0.4-1.1c0,0.4-0.1,0.8-0.2,1.2
		C458.7,218.2,458.5,218.6,458.3,219z"/>
	<path class="st0" d="M451.4,230.6c-0.5-0.3-0.9-0.6-1.2-0.9c-0.4-0.3-0.8-0.7-1.1-1.1c0.5,0.3,0.9,0.6,1.2,0.9
		C450.7,229.8,451,230.2,451.4,230.6z"/>
	<path class="st0" d="M459.2,233.3c-0.1-0.3-0.1-0.6-0.1-1c0-0.3,0-0.6,0.1-0.9c0.1,0.3,0.1,0.6,0.1,0.9
		C459.3,232.7,459.3,233,459.2,233.3z"/>
	<path class="st0" d="M472.3,228.8c-0.5,0.3-1.1,0.6-1.7,0.8c-0.6,0.3-1.2,0.5-1.8,0.6c0.5-0.3,1.1-0.6,1.7-0.8
		C471.1,229.1,471.7,228.9,472.3,228.8z"/>
	<path class="st0" d="M475.8,218.7c-0.1-0.5-0.1-0.9-0.1-1.4c0-0.5,0-0.9,0.2-1.4C476,216.8,476,217.7,475.8,218.7z"/>
	<path class="st0" d="M470,210.7c-0.5,0-1.1-0.2-1.5-0.5c-0.5-0.2-0.9-0.6-1.2-1c0,0,0.5,0.5,1.3,0.9S470,210.7,470,210.7z"/>
	<path class="st0" d="M471,199.6c0.3-0.5,0.7-0.9,1.2-1.2c0.4-0.4,0.8-0.8,1.3-1.1c-0.3,0.5-0.7,0.9-1.2,1.2
		C471.9,198.9,471.5,199.2,471,199.6z"/>
	<path class="st0" d="M466.4,190.3c-0.4,0-0.8-0.1-1.2-0.2c-0.4-0.1-0.8-0.2-1.1-0.4c0.4,0,0.8,0.1,1.2,0.2
		C465.7,190,466.1,190.1,466.4,190.3z"/>
	<path class="st0" d="M451.7,186.5c0.1-0.4,0.3-0.7,0.6-1c0.2-0.3,0.5-0.6,0.8-0.8c-0.1,0.3-0.3,0.7-0.6,1
		C452.3,186,452,186.3,451.7,186.5z"/>
	<path class="st0" d="M456.2,193.9c-0.3-0.3-0.6-0.7-0.9-1.2c-0.3-0.4-0.5-0.8-0.7-1.3c0.3,0.3,0.6,0.7,0.9,1.2
		C455.8,193,456,193.4,456.2,193.9z"/>
	<path class="st0" d="M446.1,208.4c-0.1-0.5-0.2-1.1-0.2-1.7c-0.1-0.6-0.1-1.1,0-1.7c0.1,0.5,0.2,1.1,0.2,1.7
		C446.2,207.3,446.2,207.8,446.1,208.4z"/>
	<path class="st0" d="M484.7,214.5c-0.4-0.2-0.8-0.4-1.1-0.6c-0.4-0.2-0.7-0.5-1-0.8c0.4,0.2,0.8,0.4,1.1,0.6
		C484,213.9,484.4,214.2,484.7,214.5z"/>
	<path class="st0" d="M479.6,229.3c0-0.5,0.1-1,0.3-1.4c0.1-0.5,0.3-0.9,0.5-1.4c0,0.5-0.1,1-0.3,1.4
		C480,228.4,479.8,228.8,479.6,229.3z"/>
	<path class="st0" d="M485.2,233.6c-0.5-0.2-1-0.4-1.5-0.7c-0.5-0.2-0.9-0.5-1.3-0.9c0.5,0.2,1,0.4,1.4,0.7
		C484.3,232.9,484.8,233.2,485.2,233.6z"/>
	<path class="st0" d="M444.6,252.3c-0.4,0.4-0.8,0.8-1.3,1.2c-0.4,0.4-0.9,0.7-1.4,1c0.4-0.4,0.8-0.8,1.3-1.2
		C443.7,253,444.1,252.6,444.6,252.3z"/>
	<path class="st0" d="M454.3,255.2c-0.4-0.2-0.7-0.5-1-0.9c-0.3-0.3-0.6-0.6-0.8-1C453.2,253.8,453.8,254.5,454.3,255.2L454.3,255.2
		z"/>
	<path class="st0" d="M433.3,247.9c-0.5,0.8-1.3,1.2-2.2,1.3c0-0.1,0.5-0.2,1.2-0.5S433.2,247.9,433.3,247.9z"/>
	<path class="st0" d="M431.1,212.1c-0.5-0.3-1-0.7-1.5-1.1c-0.5-0.4-0.9-0.8-1.3-1.3c0.5,0.3,1,0.7,1.5,1.1
		C430.3,211.2,430.7,211.6,431.1,212.1z"/>
	<path class="st0" d="M439.7,217.1c-0.4,0.5-0.9,1-1.4,1.5c-0.5,0.5-1,0.9-1.5,1.3c0.4-0.5,0.9-1,1.4-1.5
		C438.7,217.9,439.2,217.5,439.7,217.1z"/>
	<path class="st0" d="M432.5,231.3c-0.6-0.2-1.2-0.6-1.8-1c-0.6-0.4-1.1-0.8-1.5-1.4c0.6,0.4,1.1,0.8,1.6,1.2
		C431.8,230.8,432.5,231.2,432.5,231.3z"/>
	<path class="st0" d="M443,234.9c-0.2-0.7-0.4-1.5-0.5-2.2c-0.2-0.7-0.2-1.5-0.2-2.2c0.2,0.7,0.4,1.5,0.5,2.2
		C442.9,233.4,443,234.1,443,234.9z"/>
	<path class="st0" d="M447.9,244.3c-0.6,0.3-1.2,0.5-1.8,0.7c-0.6,0.2-1.3,0.3-1.9,0.2c0,0,0.8-0.2,1.9-0.5
		C446.7,244.6,447.3,244.5,447.9,244.3z"/>
	<path class="st0" d="M462.2,241.7c-0.2,0.7-0.6,1.4-0.9,2c-0.3,0.7-0.7,1.4-1.1,2c0.3-0.7,0.6-1.4,0.9-2
		C461.4,243,461.8,242.3,462.2,241.7z"/>
	<path class="st0" d="M475.3,248.6c-0.4,0.4-0.9,0.7-1.3,0.9c-0.4,0.3-0.9,0.6-1.5,0.8c0.4-0.4,0.9-0.7,1.3-0.9
		C474.3,249,474.7,248.8,475.3,248.6z"/>
	<path class="st0" d="M467.3,208.1c0.4-0.1,0.9-0.2,1.3-0.3c0.9-0.2,2.2-0.4,3.8-0.6h0.2v0.2c0.2,1.7,0.5,3.7,0.8,5.8v0.1l-0.1,0.1
		l-0.5,0.4l-1.8,1.7l-0.1,0.1l-0.2-0.1c-1-0.6-2.1-1.1-3-1.6l-0.1-0.1v-0.1c-0.2-1.8-0.3-3.2-0.3-4.2
		C467.3,209.1,467.3,208.6,467.3,208.1c0.1,0.5,0.2,1.1,0.2,1.6c0.2,1,0.3,2.4,0.6,4.1l-0.1-0.2l3,1.5l-0.3,0l1.8-1.7l0.5-0.4
		l-0.1,0.2l-0.7-5.8l0.2,0.2c-1.5,0.2-2.8,0.3-3.7,0.4C468.3,208,467.8,208.1,467.3,208.1z"/>
	<path class="st0" d="M472.4,209.9c-0.8,0.2-1.7,0.3-2.5,0.3c-0.8,0.1-1.6,0.1-2.3,0C469.1,209.8,470.8,209.7,472.4,209.9
		L472.4,209.9z"/>
	<polygon class="st2" points="460.7,256.6 460.7,254.8 481.4,251.9 491.7,226 531,226 516.9,256.6 	"/>
	<path class="st3" d="M508.3,241.7c-0.6,0.9-1.8,1.2-2.8,0.6c-0.9-0.6-1.2-1.8-0.6-2.8c0.6-0.9,1.8-1.2,2.8-0.6c0,0,0,0,0,0
		C508.6,239.6,508.9,240.8,508.3,241.7z"/>
</g>
<g id="freepik--character-1--inject-116">
	<path class="st8" d="M35.7,300l5.3-5.7l-10.5-10l-7.8,8.2l0.6,0.7c2.8,2.9,14.2,14.6,16.7,15.8C42.8,310.5,35.7,300,35.7,300z"/>
	<path class="st11" d="M26.6,296.1c0.7-1,1-2.3,0.8-3.5c-0.2-1.2-0.8-2.3-1.7-3.1l-2.8,2.9L26.6,296.1z"/>
	<path class="st11" d="M39,305.3c0,0,2.3,3.9,1.4,4s-12.9-11.2-17.8-16.7l0.2-0.2l13.9,13.4C36.8,305.7,38.4,304.7,39,305.3z"/>
	<path class="st0" d="M22.7,292.2l0.2,0.2l0.5,0.5l1.8,1.9c1.6,1.6,3.8,3.8,6.2,6.1s4.8,4.4,6.4,5.9l2,1.7l0.6,0.5
		c0.1,0.1,0.2,0.2,0.2,0.1l-0.2-0.2l-0.5-0.5l-2-1.8c-1.7-1.5-3.9-3.6-6.4-5.9s-4.7-4.5-6.2-6l-1.9-1.9l-0.5-0.5
		C22.8,292.3,22.8,292.3,22.7,292.2z"/>
	<path class="st0" d="M36.7,305.9c0.4-0.2,0.8-0.4,1.2-0.6c0.4-0.1,0.9-0.1,1.3-0.1c-0.4-0.2-0.9-0.2-1.4-0.1
		C37.4,305.3,37,305.5,36.7,305.9z"/>
	<path class="st0" d="M35,301.4c0.2,0,0.5,0,0.7-0.1c0.4-0.1,0.7-0.2,0.7-0.3s-0.3,0-0.7,0.1C35.5,301.2,35.2,301.3,35,301.4z"/>
	<path class="st0" d="M34.6,300.1c0,0,0.3,0.1,0.6,0.1c0.2,0,0.4,0,0.6-0.1c0,0-0.3-0.1-0.6-0.1C35,300,34.8,300.1,34.6,300.1z"/>
	<path class="st0" d="M35,298.6c0,0,0.2,0.3,0.5,0.6s0.6,0.5,0.6,0.5s-0.2-0.3-0.5-0.6S35.1,298.6,35,298.6z"/>
	<path class="st0" d="M35.5,297.8c-0.1,0,0.1,0.4,0.4,0.8c0.2,0.2,0.4,0.4,0.7,0.5c0,0-0.3-0.3-0.6-0.6
		C35.9,298.2,35.7,298,35.5,297.8z"/>
	<path class="st0" d="M36.3,300.8c0.2,0.2,0.4,0.5,0.7,0.6c0.3,0.2,0.6,0.4,0.9,0.5c0.2,0.1,0.4,0.2,0.6,0.2c0.1,0,0.3,0,0.4,0
		c0.1-0.1,0.2-0.2,0.2-0.4c-0.3-0.8-1.1-1.2-1.9-1.1c-0.2,0-0.5,0.1-0.7,0.2c-0.1,0.1-0.2,0.2-0.2,0.2c0.3-0.1,0.6-0.2,0.8-0.3
		c0.3,0,0.7,0,0.9,0.2c0.3,0.2,0.6,0.4,0.8,0.8c0,0.2-0.1,0.3-0.3,0.2c-0.2,0-0.4-0.1-0.5-0.2c-0.3-0.1-0.6-0.3-0.9-0.5
		C36.5,301,36.3,300.8,36.3,300.8z"/>
	<path class="st0" d="M36.4,301c0,0,0.3-0.1,0.5-0.4c0.1-0.2,0.2-0.4,0.3-0.7c0.1-0.3,0-0.6-0.2-0.9c-0.2-0.1-0.4-0.1-0.5,0.1
		c0,0,0,0,0,0c-0.1,0.1-0.1,0.3-0.2,0.4c-0.1,0.2-0.1,0.5-0.1,0.7C36.2,300.5,36.3,300.8,36.4,301c0-0.1,0-0.3,0-0.7
		c0-0.2,0-0.5,0.1-0.7c0-0.2,0.2-0.5,0.4-0.4c0.2,0.2,0.2,0.5,0.2,0.7c0,0.2-0.1,0.4-0.2,0.6C36.7,300.7,36.6,300.9,36.4,301z"/>
	<path class="st0" d="M25.7,289.5c0,0,0.3,0.3,0.8,0.8c1.1,1.3,1.4,3.2,0.7,4.8c-0.2,0.3-0.3,0.6-0.5,0.9c0,0,0.1-0.1,0.2-0.2
		c0.2-0.2,0.3-0.4,0.4-0.7c0.8-1.6,0.5-3.6-0.7-4.9c-0.2-0.2-0.4-0.4-0.6-0.5C25.8,289.6,25.7,289.5,25.7,289.5z"/>
	<path class="st0" d="M30.9,286.2c-0.7,0.7-1.5,1.3-2.1,2.1c-0.7,0.7-1.4,1.4-2,2.2c0.7-0.7,1.5-1.4,2.1-2.1
		C29.6,287.7,30.3,286.9,30.9,286.2z"/>
	<path class="st0" d="M28.9,296.3c0.4,0.6,0.9,1.1,1.4,1.6c0.5,0.5,1,1,1.7,1.3c0,0-0.7-0.6-1.5-1.5S28.9,296.3,28.9,296.3z"/>
	<path class="st0" d="M26.8,294.4c0,0-0.1,0.2-0.2,0.4s-0.2,0.4-0.1,0.4s0.2-0.1,0.3-0.4S26.8,294.4,26.8,294.4z"/>
	<path class="st0" d="M26.9,292.7c0,0-0.1,0.2-0.1,0.4s0,0.4,0.1,0.4s0.1-0.2,0.1-0.4S27,292.7,26.9,292.7z"/>
	<path class="st0" d="M26.2,291.2c0,0,0.1,0.2,0.2,0.4s0.1,0.4,0.2,0.4s0.1-0.2,0-0.5S26.3,291.2,26.2,291.2z"/>
	<path class="st0" d="M25.7,290.2c0,0,0,0.1,0,0.2s0.1,0.2,0.2,0.2s0-0.1,0-0.2S25.7,290.2,25.7,290.2z"/>
	<path class="st8" d="M133.2,311.1l-0.3-7.7l-14.5,0.4l0.3,11.3h0.9c4,0.1,20.4,0.3,23-0.6C145.6,313.5,133.2,311.1,133.2,311.1z"/>
	<path class="st8" d="M124,314.8c-0.3-1.2-0.9-2.3-1.9-3c-1-0.8-2.2-1.1-3.4-1l0.1,4H124z"/>
	<path class="st11" d="M139.3,312.5c0,0,4.4,1.1,3.8,1.9s-17.1,1.2-24.4,0.8v-0.3l19.4-0.4C138.1,314.3,138.4,312.5,139.3,312.5z"/>
	<path class="st0" d="M118.5,314.8c0.1,0,0.2,0,0.2,0h0.7h2.6c2.2,0,5.3,0,8.7-0.1c3.4-0.1,6.5-0.2,8.7-0.4l2.6-0.2l0.7-0.1h0.2
		h-0.2h-0.7l-2.6,0.1c-2.2,0.1-5.3,0.2-8.7,0.3c-3.4,0.1-6.5,0.1-8.7,0.1h-2.6h-1L118.5,314.8z"/>
	<path class="st0" d="M138.1,314.6c0.1-0.4,0.2-0.9,0.4-1.3c0.3-0.4,0.5-0.7,0.9-1c-0.4,0.2-0.8,0.6-1,1
		C138.2,313.7,138.1,314.2,138.1,314.6z"/>
	<path class="st0" d="M133.7,312.6c0,0,0.2-0.2,0.4-0.6c0.1-0.2,0.2-0.4,0.3-0.7c0,0-0.2,0.2-0.4,0.6
		C133.8,312.2,133.7,312.5,133.7,312.6z"/>
	<path class="st0" d="M132.5,312c0,0,0.3-0.1,0.5-0.4c0.2-0.2,0.4-0.4,0.4-0.5s-0.3,0.1-0.5,0.4C132.7,311.7,132.5,311.9,132.5,312z
		"/>
	<path class="st0" d="M131.8,310.6c0.2,0.1,0.5,0.1,0.8,0.1c0.3,0,0.5,0,0.8-0.1c-0.2-0.1-0.5-0.1-0.8-0.1
		C132.2,310.5,132,310.5,131.8,310.6z"/>
	<path class="st0" d="M131.5,309.7c0.5,0.3,1.2,0.3,1.7,0.1c-0.3,0-0.6,0-0.9,0C132,309.7,131.8,309.7,131.5,309.7z"/>
	<path class="st0" d="M134.2,311.3c0.3,0.1,0.6,0.1,0.9,0c0.3-0.1,0.7-0.1,1-0.2c0.2-0.1,0.4-0.1,0.6-0.2c0.1-0.1,0.2-0.2,0.2-0.3
		c0-0.1,0-0.3-0.2-0.4c-0.7-0.3-1.6-0.1-2.1,0.6c-0.1,0.2-0.2,0.4-0.3,0.6c0,0.1,0,0.2,0,0.2c0.1-0.3,0.2-0.6,0.4-0.8
		c0.2-0.2,0.5-0.4,0.8-0.5c0.4-0.1,0.8-0.1,1.1,0c0.1,0.1,0.1,0.3-0.1,0.4c-0.2,0.1-0.3,0.2-0.5,0.2c-0.3,0.1-0.7,0.2-1,0.3
		C134.5,311.2,134.2,311.3,134.2,311.3z"/>
	<path class="st0" d="M134.4,311.3c0.1-0.2,0.1-0.4,0.1-0.6c0-0.2-0.1-0.5-0.3-0.7c-0.2-0.3-0.5-0.5-0.8-0.5c-0.2,0-0.3,0.2-0.3,0.4
		c0,0.1,0.1,0.3,0.2,0.4c0.1,0.2,0.3,0.4,0.5,0.5C134,311.1,134.1,311.3,134.4,311.3c-0.1,0-0.3-0.2-0.5-0.5
		c-0.1-0.2-0.3-0.4-0.4-0.5c-0.1-0.2-0.2-0.5,0-0.6c0.2,0,0.5,0.2,0.6,0.4c0.1,0.2,0.2,0.4,0.3,0.6
		C134.4,310.9,134.4,311.1,134.4,311.3z"/>
	<path class="st0" d="M118.7,310.8c0,0,0.4,0,1.1,0c0.9,0.1,1.7,0.4,2.4,0.9c0.7,0.5,1.2,1.2,1.5,2c0.1,0.3,0.2,0.7,0.3,1
		c0-0.1,0-0.2,0-0.3c0-0.3-0.1-0.5-0.2-0.8c-0.3-0.8-0.8-1.6-1.5-2.1c-0.7-0.5-1.6-0.8-2.5-0.9c-0.3,0-0.5,0-0.8,0
		C118.9,310.6,118.8,310.7,118.7,310.8z"/>
	<path class="st0" d="M120,304.7c-0.1,1-0.1,2,0,3c0,1,0,2,0.1,3C120.3,308.7,120.2,306.7,120,304.7L120,304.7z"/>
	<path class="st0" d="M125.8,313.3c0.7,0.1,1.4,0.2,2.1,0.1c0.7,0,1.4-0.1,2.1-0.2c0-0.1-0.9,0-2.1,0
		C126.7,313.4,125.8,313.3,125.8,313.3z"/>
	<path class="st0" d="M122.9,313.4c0,0,0.1,0.2,0.2,0.4s0.2,0.4,0.2,0.4s0.1-0.2-0.1-0.5S123,313.4,122.9,313.4z"/>
	<path class="st0" d="M121.8,312.1c0,0,0.1,0.2,0.2,0.3s0.3,0.2,0.3,0.2s-0.1-0.2-0.2-0.3S121.9,312.1,121.8,312.1z"/>
	<path class="st0" d="M120.3,311.6c0,0,0.2,0,0.4,0.1s0.4,0.2,0.4,0.1s-0.1-0.2-0.4-0.3S120.3,311.5,120.3,311.6z"/>
	<path class="st0" d="M119.2,311.3c0,0,0.1,0.1,0.2,0.2s0.2,0,0.2,0s-0.1-0.1-0.2-0.2S119.2,311.3,119.2,311.3z"/>
	<path class="st0" d="M98.2,197.6l-5.6,34.5c-1.6,6.8-3.6,15.1-7.3,21l-42.8,50.9l-19.3-19.8L66,229.3L76.3,173L98.2,197.6z"/>
	<path class="st0" d="M72.2,187.3l24.3,53l17.2,67.7l27.7,0.4l-18.3-73.5L100,160.8l-36.1-6.5l-0.4,3.8c-1,8.7,0.9,17.4,5.5,24.8
		C69.9,184.4,71,185.9,72.2,187.3z"/>
	<path class="st1" d="M80.6,186c-0.1,0.1-0.5-0.5-0.9-1.2s-0.6-1.4-0.5-1.5s0.5,0.5,0.9,1.2S80.7,185.9,80.6,186z"/>
	<path class="st1" d="M83.3,191.3c-0.1,0.1-0.5-0.5-0.9-1.2s-0.6-1.4-0.4-1.5s0.5,0.5,0.9,1.2S83.4,191.3,83.3,191.3z"/>
	<path class="st1" d="M86,196.7c-0.1,0.1-0.5-0.5-0.9-1.2s-0.6-1.4-0.4-1.5s0.5,0.5,0.9,1.2S86.1,196.7,86,196.7z"/>
	<path class="st1" d="M88.5,202.1c-0.1,0.1-0.5-0.5-0.9-1.2s-0.5-1.4-0.4-1.5s0.5,0.5,0.9,1.2S88.7,202.1,88.5,202.1z"/>
	<path class="st1" d="M91,207.6c-0.1,0.1-0.5-0.5-0.9-1.3s-0.5-1.4-0.4-1.5s0.5,0.5,0.9,1.3S91.1,207.5,91,207.6z"/>
	<path class="st1" d="M93.4,213.1c-0.1,0.1-0.5-0.5-0.8-1.3s-0.5-1.4-0.4-1.5s0.5,0.5,0.8,1.3S93.6,213,93.4,213.1z"/>
	<path class="st1" d="M95.8,218.6c-0.1,0.1-0.5-0.5-0.8-1.3s-0.5-1.4-0.3-1.5s0.5,0.5,0.8,1.3S95.9,218.6,95.8,218.6z"/>
	<path class="st1" d="M98,224.2c-0.1,0.1-0.5-0.5-0.8-1.3s-0.4-1.4-0.3-1.5s0.5,0.5,0.8,1.3S98.2,224.1,98,224.2z"/>
	<path class="st1" d="M100.2,229.8c-0.1,0-0.5-0.5-0.8-1.3S99,227,99.1,227s0.5,0.5,0.8,1.3S100.3,229.7,100.2,229.8z"/>
	<path class="st1" d="M102.3,235.4c-0.1,0-0.5-0.5-0.8-1.3s-0.4-1.5-0.3-1.5s0.5,0.5,0.8,1.3S102.4,235.3,102.3,235.4z"/>
	<path class="st1" d="M104.3,241.1c-0.1,0-0.5-0.5-0.7-1.3s-0.4-1.5-0.2-1.5s0.5,0.5,0.7,1.3S104.4,241,104.3,241.1z"/>
	<path class="st1" d="M106.2,246.7c-0.1,0-0.5-0.6-0.7-1.3s-0.4-1.5-0.2-1.5s0.5,0.6,0.7,1.3S106.4,246.7,106.2,246.7z"/>
	<path class="st1" d="M108.1,252.4c-0.1,0-0.4-0.6-0.7-1.4s-0.3-1.5-0.2-1.5s0.4,0.6,0.7,1.4S108.2,252.4,108.1,252.4z"/>
	<path class="st1" d="M109.8,258.2c-0.1,0-0.4-0.6-0.7-1.4s-0.3-1.5-0.2-1.5s0.4,0.6,0.7,1.4C109.9,257.5,110,258.1,109.8,258.2z"/>
	<path class="st1" d="M111.5,263.9c-0.1,0-0.4-0.6-0.7-1.4s-0.3-1.5-0.2-1.5s0.4,0.6,0.7,1.4S111.7,263.9,111.5,263.9z"/>
	<path class="st1" d="M113.1,269.7c-0.1,0-0.4-0.6-0.6-1.4s-0.3-1.5-0.1-1.5s0.4,0.6,0.6,1.4S113.3,269.7,113.1,269.7z"/>
	<path class="st1" d="M114.6,275.5c-0.1,0-0.4-0.6-0.6-1.4s-0.3-1.5-0.1-1.5s0.4,0.6,0.6,1.4S114.8,275.5,114.6,275.5z"/>
	<path class="st1" d="M116.1,281.3c-0.1,0-0.4-0.6-0.6-1.4s-0.2-1.5-0.1-1.5s0.4,0.6,0.6,1.4S116.2,281.3,116.1,281.3z"/>
	<path class="st1" d="M117.4,287.2c-0.1,0-0.4-0.6-0.6-1.4s-0.2-1.5-0.1-1.5s0.4,0.6,0.6,1.4S117.5,287.2,117.4,287.2z"/>
	<path class="st1" d="M118.7,293.1c-0.1,0-0.4-0.6-0.6-1.4s-0.2-1.5-0.1-1.5s0.4,0.6,0.6,1.4S118.8,293,118.7,293.1z"/>
	<path class="st1" d="M119.9,298.9c-0.1,0-0.4-0.6-0.6-1.4s-0.2-1.5,0-1.5s0.4,0.6,0.5,1.4S120,298.9,119.9,298.9z"/>
	<path class="st1" d="M120.7,303.3c-0.1,0-0.3-0.3-0.4-0.7s0-0.8,0.1-0.8s0.3,0.3,0.4,0.7S120.8,303.3,120.7,303.3z"/>
	<polygon class="st1" points="112.3,303.4 113.7,308 141.4,308.4 140.3,303.8 	"/>
	<path class="st1" d="M118.5,303.8c0-0.1-0.1-0.2-0.1-0.3c-0.1-0.2-0.2-0.5-0.3-0.9c-0.2-0.9-0.6-2.1-0.9-3.6
		c-0.8-3.2-2-7.7-3.4-13.3l-5.2-19.8c-2-7.4-4.2-15.6-6.8-24.1c-1.3-4.2-2.8-8.3-4.4-12.2s-3.1-7.6-4.7-11.1c-3.1-7-6-13.3-8.4-18.6
		s-4.5-9.5-5.9-12.5l-1.6-3.4l-0.4-0.9c-0.1-0.1-0.1-0.2-0.1-0.3c0,0,0.1,0.1,0.2,0.3l0.5,0.9l1.7,3.3c1.5,2.9,3.5,7.1,6,12.4
		s5.4,11.5,8.5,18.6c1.5,3.5,3.1,7.2,4.7,11.1s3.1,8,4.4,12.2c2.6,8.5,4.8,16.7,6.8,24.1s3.7,14.1,5.1,19.8l3.3,13.4
		c0.4,1.6,0.6,2.8,0.9,3.6c0.1,0.4,0.1,0.7,0.2,1C118.4,303.5,118.4,303.7,118.5,303.8z"/>
	<path class="st1" d="M32.1,280.8c0.1,0.1-0.2,0.7-0.8,1.3s-1.1,1.1-1.2,1s0.2-0.7,0.8-1.3S32,280.7,32.1,280.8z"/>
	<path class="st1" d="M35.9,276.2c0.1,0.1-0.2,0.7-0.8,1.3s-1,1.1-1.2,1s0.2-0.7,0.8-1.3S35.8,276.1,35.9,276.2z"/>
	<path class="st1" d="M39.7,271.5c0.1,0.1-0.2,0.7-0.7,1.3s-1,1.1-1.1,1s0.2-0.7,0.7-1.3S39.6,271.5,39.7,271.5z"/>
	<path class="st1" d="M43.5,266.9c0.1,0.1-0.2,0.7-0.7,1.3s-1,1.1-1.1,1s0.2-0.7,0.7-1.3S43.4,266.8,43.5,266.9z"/>
	<path class="st1" d="M47.2,262.2c0.1,0.1-0.2,0.7-0.7,1.3s-1,1.1-1.1,1s0.2-0.7,0.7-1.3S47.1,262.1,47.2,262.2z"/>
	<path class="st1" d="M50.9,257.5c0.1,0.1-0.2,0.7-0.7,1.3s-1,1.1-1.1,1s0.2-0.7,0.7-1.3S50.8,257.3,50.9,257.5z"/>
	<path class="st1" d="M54.7,252.8c0.1,0.1-0.2,0.7-0.7,1.3s-1,1.1-1.2,1s0.2-0.7,0.7-1.3S54.6,252.7,54.7,252.8z"/>
	<path class="st1" d="M58.5,248.1c0.1,0.1-0.2,0.7-0.8,1.3s-1.1,1.1-1.2,1s0.2-0.7,0.8-1.3S58.4,248.1,58.5,248.1z"/>
	<path class="st1" d="M62.4,243.6c0.1,0.1-0.2,0.7-0.8,1.3s-1.1,1.1-1.2,1s0.2-0.7,0.8-1.3S62.3,243.5,62.4,243.6z"/>
	<path class="st1" d="M66.3,239c0.1,0.1-0.2,0.7-0.8,1.3s-1,1.1-1.2,1s0.2-0.7,0.8-1.3S66.2,238.9,66.3,239z"/>
	<path class="st1" d="M70.1,234.3c0.1,0.1-0.2,0.7-0.7,1.3s-1,1.1-1.1,1s0.2-0.7,0.7-1.3S69.9,234.3,70.1,234.3z"/>
	<path class="st1" d="M72.6,229c0.1,0,0.1,0.7-0.1,1.5c-0.1,0.3-0.2,0.7-0.4,1c-0.1,0.2-0.3,0.4-0.3,0.4s-0.1-0.2,0-0.5
		c0-0.3,0.1-0.7,0.2-1C72.2,229.6,72.5,228.9,72.6,229z"/>
	<path class="st1" d="M74,223.2c0.1,0,0.1,0.7-0.1,1.5s-0.5,1.4-0.6,1.4s-0.1-0.7,0.1-1.5S73.9,223.1,74,223.2z"/>
	<path class="st1" d="M75.2,217.3c0.1,0,0.1,0.7,0,1.5s-0.4,1.5-0.5,1.4s-0.1-0.7,0-1.5S75.1,217.3,75.2,217.3z"/>
	<path class="st1" d="M76.3,211.3c0.1,0,0.1,0.7,0,1.5s-0.4,1.5-0.5,1.4s-0.1-0.7,0-1.5S76.1,211.3,76.3,211.3z"/>
	<path class="st1" d="M77.2,205.5c0.1,0,0.1,0.7,0,1.5s-0.4,1.5-0.5,1.4s-0.1-0.7,0-1.5S77.1,205.4,77.2,205.5z"/>
	<path class="st1" d="M78.1,200.5c0.1,0,0.2,0.5,0.1,1.1s-0.3,1-0.4,1s-0.2-0.5-0.1-1.1S77.9,200.4,78.1,200.5z"/>
	<polygon class="st1" points="23.2,284.1 27,279.1 46.1,299.7 42.5,303.9 	"/>
	<path class="st16" d="M73.3,189.6c0,0,15.7,55.6,15.9,55s3.4-12.5,3.4-12.5L73.3,189.6z"/>
	<path class="st9" d="M92.7,115.1l16.8-2.5c0,0,7.9,17.1,10,17.7c11.7,3.2,25.2,1.5,29.9,0.7c0.6-0.4,1.2-1,1.9-1.6
		c0.6-0.6,1.1-1.2,1.5-1.9c0.5-0.9,0.9-1.8,1.2-2.8c0.1-0.5,0.6-0.9,1.2-0.8c0.2,0,0.4,0.2,0.5,0.3c0.4,0.8,0.1,3.3-1.6,5.9
		c-1.7,2.6,2.9,1.1,4.6,0.6c1.7-0.5,6.9-1.8,7.5-1.4c0.8,0.6,0.4,1.6-1.3,2c-1.7,0.4-6.6,2.2-6.3,3.1s8.8-1.8,8.8-1.8
		s1.7-0.9,2.1,0.1c0.7,1.8-8.5,4-9.4,4.1c-0.6,0.1-0.3,1.1,0.3,0.9s8.4-2.9,9.1-1c0.6,1.4-7.6,1.9-8.9,3.3s6.1-1,6.6,0.4
		c0.2,0.5,0.2,0.9-4.2,1.7c-3.2,0.4-6.5,0.7-9.8,0.8l0,0c0,0-41.4,9.9-51-8.2C92.8,116.5,92.7,115.1,92.7,115.1z"/>
	<path class="st1" d="M94.6,76.7c1.5-1.1,3.7-0.7,5.1,0.4c1.4,1.2,2.6,2.7,3.6,4.2c1.2,1.4,2.7,2.8,4.5,2.9c-0.7,2.5-3.4,4-5.9,3.3
		c-0.7-0.2-1.3-0.6-1.9-1c0.5,0.3,1,0.8,1.3,1.3c0.3,0.6,0.2,1.3-0.2,1.7c-0.4,0.3-0.9,0.4-1.4,0.3c-4.9-0.6-8.3-4.9-7.8-9.8
		c0-0.1,0-0.1,0-0.2c0.1-1.1,0.6-2.2,1.3-3.1c0.7-0.9,1.8-1.4,3-1.3"/>
	<path class="st12" d="M93.3,92.7c-0.1-2.3-0.1-4.6,0-6.9c0,0,6-0.6,6.4-6.6s0-19.8,0-19.8l-11-5.4l-11.2,9.3l0.2,29.2l-6.1,0.2
		l19.2,26.5c2.7-10.3,6.1-19.8,6.3-26L93.3,92.7z"/>
	<path class="st0" d="M98.5,69.5c0,0.4-0.3,0.8-0.8,0.8c-0.4,0-0.8-0.3-0.8-0.8c0-0.4,0.3-0.8,0.8-0.8
		C98.1,68.7,98.5,69.1,98.5,69.5z"/>
	<path class="st0" d="M99.2,68.7c-0.1,0.1-0.7-0.4-1.5-0.4s-1.4,0.4-1.5,0.2s0.1-0.2,0.3-0.4c0.4-0.2,0.8-0.4,1.2-0.3
		c0.4,0,0.8,0.2,1.2,0.5C99.2,68.4,99.2,68.6,99.2,68.7z"/>
	<path class="st0" d="M89.6,69.5c0,0.4-0.3,0.8-0.7,0.9s-0.8-0.3-0.9-0.7c0-0.1,0-0.1,0-0.2c0-0.4,0.4-0.7,0.9-0.7
		C89.3,68.9,89.5,69.1,89.6,69.5z"/>
	<path class="st0" d="M90.1,68.7c-0.1,0.1-0.7-0.4-1.5-0.4s-1.4,0.4-1.5,0.2s0.1-0.2,0.3-0.4c0.4-0.2,0.8-0.4,1.2-0.3
		c0.4,0,0.8,0.2,1.2,0.5C90,68.4,90.1,68.6,90.1,68.7z"/>
	<path class="st3" d="M90.3,76.4c1.3,0.6,2.6,1.1,4,1.4c-0.6,0.9-1.7,1.2-2.7,0.8c-0.9-0.2-1.5-1.1-1.3-2
		C90.3,76.5,90.3,76.5,90.3,76.4z"/>
	<path class="st10" d="M93.3,85.9c-2.8-0.1-5.6-1.1-7.9-2.7c0,0,1.8,4.4,7.8,4.2L93.3,85.9z"/>
	<path class="st1" d="M68.4,65C72,52.6,82.6,50.2,84.8,50.2c2.3,0,6.4-1.3,12.3,4.9c0.9,0.9,1.6,2,2.2,3.1c1.3,1.6,2.2,3.6,2.6,5.6
		c0.3,1,0.3,2,0.1,3c-0.1,0-0.1-1.1-0.6-2.9c-0.3-1-0.7-2-1.1-2.9c0.5,2.3,0.3,4.7-0.6,6.9l-2.1-0.6l-7.6-2.6
		c0.7-2.4-0.3-5.3-0.9-6.7h-0.1c-1.8,8.9-11.6,9.9-11.6,9.9l0.5,17c-10.1-2.2-10.3-13.2-10.2-16C67.9,67.6,68.1,66.3,68.4,65z"/>
	<path class="st0" d="M93,75.6c0.4-0.1,0.9-0.2,1.4-0.2c0.2,0,0.4,0,0.5-0.2c0-0.2,0-0.5-0.1-0.7c-0.2-0.5-0.4-1.1-0.6-1.7
		c-0.4-1.2-0.7-2.3-1-3.1c-0.2-0.4-0.3-0.9-0.3-1.3c0.2,0.4,0.4,0.8,0.5,1.2c0.3,0.8,0.7,1.9,1.1,3.1l0.5,1.7
		c0.1,0.3,0.2,0.6,0.1,0.9c-0.1,0.1-0.2,0.3-0.4,0.3c-0.1,0-0.2,0-0.4,0C93.9,75.7,93.5,75.7,93,75.6z"/>
	<path class="st0" d="M79.1,70.8c1.9-0.4,3.4-0.6,4-0.7c-0.1-0.3-0.1-0.7-0.1-1c0-1,0.3-2,0.9-2.9c0.6-0.8,1.4-1.4,2.3-1.7
		c0.8-0.3,1.7-0.4,2.5-0.2c0.7,0.1,1.4,0.5,2,0.9c0.9,0.7,1.5,1.6,1.7,2.7c0.1,0.3,0.1,0.6,0.1,0.9c0,0.1,0,0.2,0,0.3
		c0,0,0-0.4-0.2-1.1c-0.3-1-0.9-1.9-1.7-2.5c-2-1.5-4.9-1.1-6.4,1c0,0,0,0,0,0c-1.5,2-1,4.9,1,6.4c0.3,0.2,0.7,0.4,1.1,0.6
		c0.8,0.3,1.6,0.3,2.4,0.2c0.7-0.1,1.4-0.4,1.9-0.8c0.8-0.6,1.4-1.5,1.7-2.5c0.1-0.3,0.1-0.6,0.2-0.9c-0.1,0-0.2-0.1-0.2-0.1
		s0.1-0.1,0.3-0.1l0,0l0,0c0.2,0,0.4,0,0.6,0c0.2,0,0.5,0,0.7,0.1c0,0,0,0,0-0.1c0-1,0.3-2,0.9-2.9c0.6-0.8,1.4-1.4,2.3-1.7
		c0.8-0.3,1.7-0.4,2.5-0.2c0.7,0.1,1.4,0.5,2,0.9c0.9,0.7,1.5,1.6,1.7,2.7c0.1,0.3,0.1,0.6,0.1,0.9c0,0.1,0,0.2,0,0.3
		c0,0,0-0.4-0.2-1.1c-0.3-1-0.9-1.9-1.7-2.5c-1.2-0.9-2.9-1.2-4.3-0.6c-0.8,0.3-1.6,0.9-2.1,1.6c-1.5,2-1,4.9,1,6.4
		c0.3,0.2,0.7,0.4,1.1,0.6c0.8,0.3,1.6,0.3,2.4,0.2c0.7-0.1,1.4-0.4,1.9-0.8c0.8-0.6,1.4-1.5,1.7-2.5c0.2-0.7,0.2-1.1,0.2-1.1
		c0,0.1,0,0.2,0,0.3c0,0.3,0,0.6-0.1,0.9c-0.2,1.1-0.8,2-1.7,2.7c-1.3,1-3,1.3-4.6,0.7c-0.9-0.3-1.7-0.9-2.3-1.7
		c-0.6-0.8-0.9-1.7-0.9-2.6c-0.2,0.1-0.5,0.1-0.7,0.1c-0.2,0-0.4,0-0.6,0l0,0c0,0.3,0,0.6-0.1,0.9c-0.2,1.1-0.8,2-1.7,2.7
		c-1.3,1-3,1.3-4.6,0.7c-1.6-0.5-2.7-1.9-3.1-3.5c-0.5,0.2-2.1,0.5-3.9,0.9c-1.4,0.3-2.8,0.5-4.2,0.7C76.3,71.4,77.7,71,79.1,70.8z"
		/>
	<path class="st1" d="M71.2,79c-1.5-1.1-3.7-0.7-5.1,0.4c-1.4,1.2-2.6,2.7-3.6,4.2c-1.2,1.4-2.7,2.8-4.5,2.9c0.7,2.5,3.4,4,5.9,3.3
		c0.7-0.2,1.3-0.6,1.9-1c-0.5,0.3-1,0.8-1.3,1.3c-0.3,0.5-0.3,1.3,0.2,1.7C65,92,65.5,92.1,66,92c4.8-0.5,8.3-4.9,7.8-9.7
		c0-0.1,0-0.1,0-0.2c-0.1-1.1-0.6-2.2-1.3-3.1c-0.7-0.9-1.9-1.4-3-1.3"/>
	<path class="st0" d="M73.8,83.6c-0.1,0,0-0.4-0.1-1.1c-0.1-0.9-0.5-1.7-1-2.4c-0.5-0.7-1.3-1.2-2.1-1.4c-0.6-0.2-1.1-0.2-1.1-0.3
		s0.4-0.2,1.2,0c0.9,0.2,1.8,0.7,2.4,1.5c0.6,0.8,0.9,1.7,0.9,2.7C74,83.2,73.8,83.6,73.8,83.6z"/>
	<path class="st1" d="M107.4,79.7c0,0,0.2-0.1,0.5-0.1c0.5,0.1,1,0.4,1.2,0.9c0.3,0.8,0.1,1.6-0.6,2.1c-0.7,0.6-1.7,0.8-2.6,0.5
		c-0.8-0.3-1.6-0.7-2.3-1.2c-0.6-0.4-1.1-0.9-1.5-1.5c-0.5-0.5-0.8-1.1-0.9-1.7c0.1,0,0.4,0.6,1.2,1.5c0.5,0.5,1,1,1.5,1.4
		c0.6,0.5,1.4,0.9,2.1,1.1c0.7,0.2,1.6,0.1,2.2-0.4c0.5-0.4,0.7-1,0.5-1.6c-0.1-0.4-0.5-0.7-0.9-0.8
		C107.6,79.7,107.5,79.7,107.4,79.7z"/>
	<path class="st1" d="M68.3,79.9c0,0.1-0.6,0.2-1.6,0.8s-2.1,1.5-3.4,2.5c-0.7,0.5-1.4,0.9-2.1,1.1c-0.6,0.2-1.3,0.3-2,0.3
		c-0.6,0-1.2-0.2-1.7-0.7c0.6,0.2,1.1,0.3,1.7,0.3c1.4-0.1,2.7-0.6,3.8-1.4c1.1-0.9,2.3-1.7,3.6-2.4C67.1,80,67.7,79.9,68.3,79.9z"
		/>
	<path class="st0" d="M73.4,67.2c0-0.1,1.1,0.1,2.8,0.1c4.6-0.1,8.9-2.5,11.4-6.4c0.9-1.5,1.3-2.5,1.4-2.5c0,0.3-0.1,0.5-0.2,0.8
		c-0.2,0.7-0.5,1.3-0.9,1.9c-2.4,4.1-6.9,6.7-11.7,6.6c-0.7,0-1.4-0.1-2.1-0.2C73.6,67.3,73.4,67.2,73.4,67.2z"/>
	<path class="st8" d="M104.1,132l15.3-11L102.3,97l0,0c-2-2.8-5.2-4.5-8.6-4.5c0,0,2.3,14.4-6.8,14.5S76.5,92.7,76.5,92.7l-0.1-0.3
		L75,92.4v-0.1c0,0-0.7,0-1.8,0.1l-2.8,0.1l-0.1,0.3c-2.1,0.3-4.1,0.9-5.9,2c-3.2,2.2-19.8,21.3-19.8,21.3l17.3,12.7l3.7-4.8l1.7,7
		c1.5,5.9-5.6,19.8-5.4,26.3l43.8,4.9l-1.6-22.1V132z"/>
	<path class="st3" d="M111.7,111.2c0,0-0.3,0-0.7,0c-0.7,0-1.4,0.3-2,0.7c-0.9,0.6-1.8,1.4-2.4,2.3c-0.9,1.2-2,2.3-3.2,3.2
		c-1.6,1-3.4,1.6-5.2,1.7c-2.1,0.2-4.3-0.3-6.2-1.4c-1.9-1.1-3.5-3-5.7-3.9s-4.8-0.4-7,0.8s-4.2,2.8-6.4,3.9c-1.1,0.6-2.2,1-3.4,1.2
		c-1.1,0.2-2.3,0.2-3.5,0c-2.1-0.4-4.1-1.4-5.6-2.9c-1.4-1.4-2.5-2.9-4-3.6c-1.3-0.7-2.8-1.1-4.2-1c-1.1,0.1-2.2,0.3-3.2,0.8
		c-0.6,0.3-1.2,0.7-1.8,1.2c-0.2,0.2-0.4,0.3-0.6,0.5c0.1-0.2,0.3-0.4,0.5-0.6c0.5-0.5,1.1-0.9,1.8-1.3c1-0.5,2.2-0.8,3.3-0.9
		c1.5-0.1,3.1,0.2,4.4,0.9c1.5,0.8,2.7,2.3,4.1,3.6c1.5,1.5,3.3,2.4,5.4,2.8c2.3,0.4,4.6,0,6.6-1.2c2.1-1.1,4-2.7,6.4-3.9
		c1.1-0.6,2.4-1,3.6-1.2c1.3-0.2,2.6-0.1,3.7,0.4c2.3,1,3.9,2.8,5.7,3.9c1.8,1,3.8,1.5,5.9,1.4c1.8-0.1,3.5-0.7,5.1-1.6
		c1.2-0.8,2.3-1.9,3.2-3.1c0.7-0.9,1.5-1.7,2.5-2.3c0.6-0.4,1.4-0.6,2.1-0.6C111.2,111.1,111.5,111.2,111.7,111.2z"/>
	<path class="st3" d="M104.9,100.9c-0.7,0.1-1.3,0.3-1.9,0.6c-0.7,0.3-1.4,0.7-2.1,1.2c-0.9,0.6-1.7,1.3-2.4,2c-0.9,0.9-2,1.7-3,2.5
		c-1.2,0.9-2.6,1.5-4,2c-3.3,1.1-6.9,1-10.1-0.2c-3.4-1.3-6.2-3.3-8.9-4.9c-1.2-0.8-2.6-1.4-3.9-2c-1.2-0.5-2.4-0.9-3.6-1.1
		c-1.8-0.3-3.7-0.2-5.5,0.2c-1.2,0.4-1.9,0.8-1.9,0.7c0.1-0.1,0.3-0.2,0.4-0.3c0.4-0.2,0.9-0.5,1.4-0.6c1.8-0.6,3.7-0.7,5.6-0.4
		c1.3,0.2,2.5,0.5,3.7,1c1.4,0.6,2.7,1.2,4,2c2.7,1.5,5.5,3.6,8.9,4.8c1.6,0.6,3.3,0.9,5,0.9c1.6,0,3.2-0.2,4.7-0.7
		c1.4-0.4,2.7-1.1,3.9-1.9c1-0.7,2-1.5,3-2.4c0.8-0.7,1.6-1.4,2.5-2c0.7-0.4,1.4-0.8,2.1-1.1c0.5-0.2,1-0.3,1.5-0.4
		C104.6,100.9,104.7,100.9,104.9,100.9z"/>
	<path class="st3" d="M77.4,96.7c-0.6-0.1-1.2-0.4-1.8-0.6c-1.4-0.5-2.9-0.8-4.4-1c-1.5-0.2-3-0.2-4.5,0c-0.6,0.1-1.2,0.2-1.9,0.2
		c0.6-0.3,1.2-0.5,1.8-0.6c3.1-0.6,6.2-0.2,9.1,1c0.4,0.2,0.8,0.4,1.2,0.6C77.2,96.6,77.4,96.7,77.4,96.7z"/>
	<path class="st3" d="M100.6,95.3c0.1,0.1-0.2,0.4-0.8,0.8c-0.7,0.6-1.5,1-2.4,1.3c-0.9,0.3-1.8,0.4-2.7,0.4c-0.7,0-1.1-0.2-1.1-0.2
		c1.2-0.1,2.4-0.4,3.6-0.6C98.4,96.5,99.6,95.9,100.6,95.3z"/>
	<path class="st3" d="M115.6,123.6c-0.1,0.1-0.2,0.3-0.4,0.4c-0.4,0.3-0.8,0.6-1.3,0.8c-1.7,0.7-3.6,0.9-5.4,0.6
		c-1.1-0.1-2.4-0.4-3.7-0.6c-1.4-0.3-2.8-0.4-4.2-0.4c-3.3,0.2-6.5,0.8-9.6,1.8c-3.1,1-6.3,1.9-9.5,2.6c-2.7,0.6-5.4,0.6-8.1,0.1
		c-1.8-0.3-3.5-1-5-2c-0.4-0.3-0.8-0.6-1.2-0.9c-0.2-0.2-0.4-0.4-0.4-0.4c0.2,0.1,0.3,0.2,0.4,0.3c0.4,0.3,0.8,0.6,1.2,0.8
		c1.5,0.9,3.2,1.5,5,1.8c2.6,0.4,5.3,0.3,7.9-0.2c3.2-0.7,6.3-1.6,9.4-2.6c3.1-1,6.4-1.6,9.7-1.8c1.4,0,2.9,0.1,4.3,0.4
		c1.3,0.3,2.5,0.5,3.7,0.7c1.8,0.3,3.6,0.2,5.3-0.4C114.5,124.3,115.1,123.9,115.6,123.6z"/>
	<path class="st0" d="M75.6,112.6c-0.6,0.9-1.3,1.7-2,2.4c-1.3,1.5-3,3.5-4.9,5.8s-3.5,4.4-4.7,5.9c-0.6,0.9-1.3,1.7-2,2.4
		c0.5-0.9,1.1-1.8,1.7-2.6c1.1-1.6,2.8-3.7,4.6-6s3.7-4.3,5-5.7C74,114,74.7,113.2,75.6,112.6z"/>
	<path class="st0" d="M101.4,131.6c-0.1-0.1,0.9-1.1,2.1-3c0.7-1.1,1.3-2.3,1.7-3.5c0.2-0.7,0.3-1.5,0.2-2.2
		c-0.1-0.8-0.3-1.6-0.6-2.4c-0.7-1.5-1.6-2.8-2.6-4.1c-0.8-1.1-1.6-2.2-2.2-3.3c-0.4-0.8-0.7-1.7-0.9-2.6c0-0.3,0-0.7,0-1
		c0.1,0.3,0.2,0.7,0.2,1c0.2,0.9,0.6,1.7,1,2.4c0.7,1.1,1.5,2.2,2.3,3.2c1,1.3,1.9,2.7,2.6,4.2c0.3,0.8,0.6,1.7,0.6,2.5
		c0,0.8,0,1.6-0.3,2.4c-0.4,1.3-1,2.5-1.8,3.6c-0.5,0.7-1.1,1.4-1.7,2.1C102,131.2,101.7,131.4,101.4,131.6z"/>
	<path class="st0" d="M94.1,92.8c0,0,0,0.5-0.1,1.5s0,2.3-0.1,4.1c0,2.1-0.4,4.1-1.3,5.9c-0.6,1.1-1.5,2-2.5,2.6
		c-1.2,0.6-2.5,0.9-3.9,0.8c-1.3-0.1-2.6-0.6-3.7-1.3c-1-0.7-1.9-1.5-2.6-2.5c-1.2-1.7-2-3.5-2.5-5.5c-0.3-1.3-0.5-2.7-0.7-4
		c-0.1-0.5-0.1-1-0.1-1.5c0.1,0.5,0.2,1,0.3,1.5c0.2,0.9,0.4,2.3,0.8,4c0.5,1.9,1.3,3.8,2.5,5.4c1.4,2,3.6,3.3,6,3.6
		c1.2,0.1,2.5-0.1,3.6-0.7c1-0.6,1.8-1.4,2.4-2.4c0.9-1.8,1.3-3.7,1.4-5.7c0.1-1.7,0.1-3.1,0.3-4.1c0.1-0.5,0.1-0.9,0.2-1.1
		S94.1,92.8,94.1,92.8z"/>
	<path class="st6" d="M135.7,179.3l1.9-41.1c0.2-3.3-2.4-6.1-5.7-6.3c0,0,0,0,0,0l-119.2-5.7c-3.3-0.2-6.1,2.4-6.3,5.7c0,0,0,0,0,0
		l-2,41.1c-0.2,3.3,2.4,6.1,5.7,6.3c0,0,0.1,0,0.1,0l102.8,4.9l10.6,11.4l0.8-10.9l4.9,0.2C132.8,185.1,135.6,182.6,135.7,179.3z"/>
	
		<rect x="89.4" y="117.9" transform="matrix(4.993762e-02 -0.9988 0.9988 4.993762e-02 -62.7588 233.0235)" class="st7" width="3.5" height="63.3"/>
	
		<rect x="89.4" y="126.1" transform="matrix(4.762946e-02 -0.9989 0.9989 4.762946e-02 -70.7289 241.288)" class="st7" width="3.5" height="63.2"/>
	
		<rect x="73.1" y="150" transform="matrix(4.762946e-02 -0.9989 0.9989 4.762946e-02 -94.2149 232.5417)" class="st7" width="3.5" height="31.3"/>
	<circle class="st5" cx="31.2" cy="153.7" r="20.8"/>
	<path class="st15" d="M41.6,149c0,0-0.1,0.1-0.1,0.1c-0.8,0.4-1.7,0.6-2.6,0.6c-5.6,0.5-9.3-2.9-12.1-3.3s-2.8,2.9-2.8,2.9
		l-0.2,7.9h-1.4l-0.7-4.7c-0.4-0.1-0.8-0.1-1.2,0c-1.1,0.1-2.7,0.9-2.6,3.8c0.1,3.3,2.6,3.3,3.8,3l-0.5,12.8
		c2.7,1.5,5.8,2.3,8.9,2.5c1.3,0.1,2.7,0,4-0.2c0.1-1.2,0.3-2.6,0.4-3.6c-5.3-0.1-6.5-4-6.5-4c1.9,1.5,4.2,2.5,6.6,2.7v0.1
		c0.1,0,5.3-0.3,6-5.5C41.1,160.2,41.4,152.8,41.6,149z M21,157.7c-0.2,0.2-0.5,0.2-0.7,0.1c-0.8-0.3-1.2-1.1-1.2-1.9
		c0-0.4,0.1-0.9,0.2-1.3c0.1-0.4,0.4-0.6,0.8-0.7c0.2,0,0.3,0,0.4,0.1c0.1,0.1,0.2,0.2,0.2,0.3c0,0.2,0,0.3,0,0.3s0-0.1-0.1-0.2
		c-0.1-0.2-0.3-0.3-0.5-0.2c-0.3,0.1-0.5,0.3-0.6,0.6c-0.1,0.4-0.2,0.7-0.2,1.1c0,0.7,0.4,1.4,1,1.7C20.7,157.7,20.9,157.7,21,157.7
		c0.2-0.1,0.2-0.2,0.2-0.2S21.2,157.5,21,157.7L21,157.7z M30.3,153.9c0,0,0.1-0.2,0.3-0.4c0.7-0.4,1.5-0.3,2.1,0.3
		c0.2,0.2,0.3,0.4,0.2,0.4s-0.6-0.4-1.3-0.5S30.4,154,30.3,153.9L30.3,153.9z M32.6,155.2c-0.2,0.4-0.7,0.5-1.1,0.2
		s-0.5-0.7-0.2-1.1c0,0,0.1-0.1,0.1-0.1c0.3-0.3,0.7-0.4,1.1-0.1C32.8,154.4,32.9,154.9,32.6,155.2L32.6,155.2z M38.6,153.7
		c0.7-0.4,1.5-0.3,2.1,0.2c0.2,0.2,0.3,0.4,0.2,0.4s-0.6-0.4-1.3-0.5s-1.3,0.2-1.4,0.1S38.3,153.9,38.6,153.7L38.6,153.7z M36.7,158
		c0.1,0.5,0.2,1,0.4,1.5c0.1,0.3,0.1,0.5,0,0.8c-0.1,0.1-0.2,0.2-0.4,0.3c-0.1,0-0.2,0-0.3,0c-0.4,0-0.8,0-1.2-0.2
		c0.4-0.1,0.8-0.2,1.2-0.1c0.2,0,0.3,0,0.4-0.1c0-0.2,0-0.4-0.1-0.6c-0.1-0.5-0.3-1-0.4-1.5c-0.4-1.3-0.7-2.6-0.8-4
		C36,155.4,36.4,156.7,36.7,158L36.7,158z M33.8,163c-1.5-0.8-1-2-1-2c-0.7-0.5,2,1.3,3.4,1.4C35.6,163.1,34.6,163.4,33.8,163
		L33.8,163z M40.6,155.5c-0.3,0.3-0.8,0.3-1.1-0.1c-0.3-0.3-0.3-0.8,0.1-1.1c0.3-0.3,0.8-0.3,1.1,0.1c0,0,0,0,0,0
		C40.9,154.8,40.9,155.2,40.6,155.5C40.6,155.5,40.6,155.5,40.6,155.5L40.6,155.5z"/>
	<path class="st0" d="M40.6,154.4c-0.3-0.3-0.8-0.4-1.1-0.1c0,0,0,0,0,0c-0.3,0.3-0.3,0.8-0.1,1.1c0.3,0.3,0.8,0.3,1.1,0.1
		C40.9,155.2,40.9,154.8,40.6,154.4C40.6,154.4,40.6,154.4,40.6,154.4z"/>
	<path class="st0" d="M39.6,153.9c0.7,0.1,1.2,0.5,1.3,0.5s0-0.2-0.2-0.4c-0.6-0.5-1.4-0.6-2.1-0.2c-0.2,0.1-0.3,0.3-0.3,0.4
		S38.9,153.9,39.6,153.9z"/>
	<path class="st0" d="M32.5,154.1c-0.3-0.2-0.8-0.2-1.1,0.1c-0.3,0.3-0.2,0.8,0.1,1.1s0.8,0.2,1.1-0.1
		C32.9,154.9,32.8,154.4,32.5,154.1z"/>
	<path class="st0" d="M33,154.2c0,0,0-0.2-0.2-0.4c-0.6-0.5-1.4-0.6-2.1-0.3c-0.2,0.1-0.3,0.3-0.3,0.4s0.6-0.2,1.4-0.1
		S32.9,154.3,33,154.2z"/>
	<path class="st0" d="M36.7,159.7c0.1,0.2,0.1,0.4,0.1,0.6c0,0.1-0.2,0.1-0.4,0.1c-0.4,0-0.8,0-1.2,0.1c0.4,0.1,0.8,0.2,1.2,0.2
		c0.1,0,0.2,0,0.3,0c0.2,0,0.3-0.1,0.4-0.3c0.1-0.3,0.1-0.5,0-0.8c-0.1-0.5-0.2-1-0.4-1.5c-0.3-1.3-0.7-2.6-1.2-3.9
		c0.1,1.4,0.4,2.7,0.8,4C36.4,158.7,36.6,159.2,36.7,159.7z"/>
	<path class="st3" d="M32.8,161c0,0-0.5,1.2,1,2c0.8,0.4,1.9,0.2,2.4-0.5C34.7,162.3,32.1,160.5,32.8,161z"/>
	<path class="st17" d="M28.1,166.7c0,0,1.2,4,6.5,4l0,0l0.1-1.3v-0.1C32.3,169.1,30,168.2,28.1,166.7z"/>
	<path class="st0" d="M22.4,157.1h1.4l0.2-7.9c0,0-0.1-3.3,2.8-2.9s6.6,3.8,12.1,3.3c0.9,0,1.8-0.2,2.6-0.6c0,0,0.1-0.1,0.1-0.1
		c0.7-0.5,1.2-1.3,1.2-2.1c-0.1-0.9-0.9-1.7-1.8-1.6c1.1,0.1,2-0.8,2.1-1.9c0.1-1.1-0.8-2-1.9-2.1c-0.4,0-0.8,0.1-1.1,0.3
		c0.7-0.5,1.2-1.1,1.6-1.8c0.4-0.7,0.3-1.6-0.3-2.3c-0.7-0.5-1.5-0.6-2.3-0.2c-1.1,0.4-2.1,1.3-3.2,1.7c-1.2,0.2-2.4,0.2-3.7,0.1
		c-1.4,0-2.7,0.4-3.8,1.1c-1.1,0.8-1.8,2.1-1.9,3.5c-1.7-0.3-3.6-0.4-5,0.6c-1.1,0.9-1.8,2.3-1.8,3.8c0.1,1.5,0.3,2.9,0.8,4.3l0,0
		c0,0.1,0,0.2,0.1,0.2c0.4-0.1,0.8-0.1,1.2,0L22.4,157.1z"/>
	<path class="st17" d="M21,157.6c-0.2,0.1-0.4,0.1-0.6,0c-0.6-0.3-1-1-1-1.7c0-0.4,0-0.8,0.2-1.1c0.1-0.3,0.3-0.5,0.6-0.6
		c0.2-0.1,0.4,0,0.5,0.2c0.1,0.1,0,0.2,0.1,0.2s0.1-0.1,0-0.3c0-0.1-0.1-0.2-0.2-0.3c-0.1-0.1-0.3-0.1-0.4-0.1
		c-0.4,0.1-0.7,0.4-0.8,0.7c-0.2,0.4-0.3,0.8-0.2,1.3c0,0.8,0.5,1.6,1.2,1.9C20.5,157.8,20.7,157.8,21,157.6c0.1,0,0.1-0.1,0.1-0.2
		S21.1,157.5,21,157.6z"/>
	<path class="st9" d="M59,175.1c-2-1.2-4.4-2.9-4.7-4l0,0l-0.3-1.8c-1-6.9-1.8-23.1-0.6-32.5c0.1-1,3.5-4.8,7.2-8.8l-12.5-9.3
		l-2,2.5c-10.6,13.3-6.9,39.9-4.8,50.5l0,0l1.1,5.8c0,0,0.9,6.4,1.8,6.8s1.3-0.6,1.3-0.6s0.9,1.1,1.6,1c0.9-0.1,1.4-1.8,1.4-1.8
		s0.8,1.4,1.6,1.4c1,0,1.2-1.6,1.2-1.6c0.5,0.8,1.3,1.3,2.3,1.3c0.6-0.1,1.2-0.5,1.3-1.2c0,0-1.4-6-0.6-6.6s2,0.5,2.6,0.7
		c0.6,0.2,3.6,1.5,5.1,0.7S61,176.3,59,175.1z"/>
</g>
</svg>
