<?xml version="1.0" encoding="utf-8"?>
<!-- Generator: Adobe Illustrator 24.2.2, SVG Export Plug-In . SVG Version: 6.00 Build 0)  -->
<svg version="1.1" id="Layer_1" xmlns="http://www.w3.org/2000/svg" xmlns:xlink="http://www.w3.org/1999/xlink" x="0px" y="0px"
	 viewBox="0 0 179.9 42.4" style="enable-background:new 0 0 179.9 42.4;" xml:space="preserve">
<style type="text/css">
	.st0{fill:#FFFFFF;}
	.st1{opacity:0.4;fill:#FFFFFF;enable-background:new    ;}
</style>
<g id="Group_16082" transform="translate(-388.533 -178.33)">
	<path id="Path_9472" class="st0" d="M421.7,208.6l-2.4-1.4l-1.6,0.9l0,0l-9.4,5.5v2.9c0,0.4-0.3,0.7-0.7,0.7
		c-0.4,0-0.7-0.3-0.7-0.7v-2.8l-10.1-5.9l-1-0.6l0,0l-2.4,1.4c-0.1,0.1-0.2,0.1-0.4,0.1l0,0c0,0-0.1,0-0.1,0l0,0c0,0-0.1,0-0.1,0
		l0,0l0,0l0,0l0,0l0,0l0,0c0,0,0,0,0,0l0,0c-0.3-0.3-0.3-0.7,0-1c0,0,0.1-0.1,0.2-0.1l2.1-1.2l0.4-0.2v-12.8l-0.6-0.3l-1.9-1.1
		c-0.4-0.2-0.5-0.6-0.3-1c0,0,0,0,0,0l0,0c0,0,0-0.1,0-0.1l0,0c0,0,0,0,0.1-0.1l0,0c0,0,0.1,0,0.1-0.1l0,0c0,0,0.1,0,0.1-0.1l0,0
		c0,0,0,0,0.1,0l0,0l0.1,0h0l0.1,0h0h0.1h0h0.1h0l0,0h0l0,0l0,0l0,0l0,0c0,0,0,0,0.1,0l0,0l2.4,1.4l0,0l1.2-0.7l9.9-5.7v-2.8
		c0-0.4,0.3-0.7,0.7-0.7c0,0,0,0,0,0l0,0c0.4,0,0.7,0.3,0.7,0.7v2.9l0,0l13.6,7.8l3.4-1.9c0.8-0.5,1.1-1.6,0.6-2.4l0,0l0,0l0,0l0,0
		c0,0,0,0,0,0c-0.3-0.5-0.7-0.9-1.1-1.2l-2-1.2l-4.2-2.4l-9.2-5.3c-0.5-0.3-1.1-0.4-1.7-0.4c-0.5,0-0.9,0.1-1.4,0.2
		c-0.1,0-0.2,0.1-0.3,0.2l-15.5,8.9c-0.9,0.6-1.5,1.6-1.7,2.7c0,0.1,0,0.1,0,0.2v17.9c0,0.1,0,0.1,0,0.2c0.1,1.1,0.7,2.1,1.7,2.7
		l15.5,8.9c0.1,0.1,0.2,0.1,0.3,0.2c0.4,0.2,0.9,0.2,1.3,0.2c0.6,0,1.2-0.1,1.7-0.4l7.7-4.4l5.2-3l0,0l2.6-1.5
		c0.5-0.3,0.9-0.7,1.2-1.3C425.8,210.1,421.6,208.6,421.7,208.6L421.7,208.6z"/>
	<g id="Group_16076" transform="translate(436.002 188.587)">
		<g id="Group_16075" transform="translate(0 0)">
			<path id="Path_9473" class="st0" d="M9.8,21.9C3.2,21.9,0,17.6,0,11C0,4.1,3.4,0,10.1,0c2.3-0.1,4.5,0.6,6.3,1.9
				c1.5,1.4,2.5,3.4,2.6,5.5h-2.6c-0.9,0-1.7-0.5-2-1.3c-0.7-1.5-2.1-2.3-4.2-2.3c-4,0-5.8,2.8-5.8,7.1c0,4.2,1.7,7.1,5.7,7.1
				c2.4,0.2,4.4-1.5,4.7-3.8H19C18.6,19.1,15.1,21.9,9.8,21.9z"/>
			<path id="Path_9474" class="st0" d="M29.8,8.9c-2.5,0-3.5,2.1-3.5,4.6v8.5h-4.2V0h2.1c1-0.1,1.9,0.6,2.1,1.6c0,0.2,0,0.3,0,0.5
				v5.6c1.8-2.4,5-3.2,7.8-2c2.3,0.8,3.4,3.1,3.3,6.7v9.6h-4.1v-8.5C33.2,10.7,32.2,8.9,29.8,8.9z"/>
			<path id="Path_9475" class="st0" d="M48,21.9c-5-0.2-7.5-3-7.5-8.5s2.5-8.2,7.6-8.3c5.2,0,7.7,3.1,7.4,9.5H44.8
				c0.2,2.5,1.2,3.7,3.3,3.7c1,0,2-0.4,2.7-1.2c0.4-0.4,0.9-0.6,1.4-0.6h3.1C54.3,20,52.1,21.9,48,21.9z M44.9,11.7h6.2
				c-0.2-2.1-1.3-3.2-3.1-3.2S45.2,9.6,44.9,11.7L44.9,11.7z"/>
			<path id="Path_9476" class="st0" d="M62.9,11.4v10.5h-4.2v-9.7c0-4.7,2.4-7,7.1-7c1.8-0.1,3.5,0.4,4.9,1.4c1.5-1,3.2-1.4,4.9-1.3
				c4.7,0,7.1,2.3,7,7v9.7h-2.2c-1.4-0.1-2.1-0.7-2.1-2.1v-8.5c-0.1-1.7-1-2.6-2.9-2.6s-2.8,0.8-2.8,2.6v10.5h-4.2V11.4
				c-0.1-1.7-1-2.6-2.9-2.6S62.9,9.6,62.9,11.4z"/>
			<path id="Path_9477" class="st0" d="M87.9,0c1.4,0,2,0.7,2,2.1v1.3h-4.2V0L87.9,0z M87.9,5.1c1-0.1,1.9,0.5,2,1.5
				c0,0.2,0,0.4,0,0.5v14.8h-4.2V5.1H87.9z"/>
			<path id="Path_9478" class="st0" d="M97.2,2.1v19.8h-4.2V0h2.2C96.4,0,97.2,1,97.2,2.1z"/>
			<path id="Path_9479" class="st0" d="M107.9,21.9c-5-0.2-7.5-3-7.5-8.5s2.5-8.2,7.6-8.3c5.2,0,7.7,3.1,7.4,9.5h-10.7
				c0.2,2.5,1.2,3.7,3.3,3.7c1,0,2-0.4,2.7-1.2c0.4-0.4,0.9-0.6,1.4-0.6h3.1C114.2,20,111.9,21.9,107.9,21.9z M104.7,11.7h6.2
				c-0.2-2.1-1.3-3.2-3.1-3.2S105,9.6,104.7,11.7L104.7,11.7z"/>
			<path id="Path_9480" class="st0" d="M123.2,9.6H119c0.5-3,2.7-4.5,6.5-4.5c4.6,0,6.9,1.5,7,4.5v5.5c0,4.5-2.7,6.5-7.2,6.8
				c-4,0.3-6.7-1.5-6.7-5.1c0.1-3.9,3-4.9,7.1-5.3c1.8-0.2,2.7-0.7,2.7-1.6c-0.1-0.9-1-1.4-2.7-1.4C124.2,8.5,123.4,8.9,123.2,9.6z
				 M128.4,15v-1.5c-1.1,0.4-2.2,0.8-3.3,1c-1.7,0.3-2.5,1.1-2.5,2.3c0,1,0.7,1.9,1.7,1.9c0.1,0,0.2,0,0.3,0c1.9,0.2,3.5-1.2,3.7-3
				C128.4,15.4,128.4,15.2,128.4,15z"/>
		</g>
	</g>
	<path id="Path_9481" class="st0" d="M421.7,208.6l-2.4-1.4l-1.6,0.9l0,0l-9.4,5.5v2.9c0,0.4-0.3,0.7-0.7,0.7
		c-0.4,0-0.7-0.3-0.7-0.7v-2.8l-10.1-5.9l-1-0.6l0,0l-2.4,1.4c-0.1,0.1-0.2,0.1-0.4,0.1l0,0c0,0-0.1,0-0.1,0l0,0c0,0-0.1,0-0.1,0
		l0,0l0,0l0,0l0,0l0,0l0,0c0,0,0,0,0,0l0,0c-0.3-0.3-0.3-0.7,0-1c0,0,0.1-0.1,0.2-0.1l2.1-1.2l0.4-0.2v-4.2c-2.1,0-4.2-0.1-6.3-0.4
		v7.2c0,0.1,0,0.1,0,0.2c0.1,1.1,0.7,2.1,1.7,2.7l15.5,8.9c0.1,0.1,0.2,0.1,0.3,0.2c0.4,0.2,0.9,0.2,1.3,0.2c0.6,0,1.2-0.1,1.7-0.4
		l7.7-4.4l5.2-3l0,0l2.6-1.5c0.5-0.3,0.9-0.7,1.2-1.3C425.8,210.1,421.6,208.6,421.7,208.6L421.7,208.6z"/>
	<path id="Path_9482" class="st1" d="M421.7,208.6l-2.4-1.4l-1.6,0.9l0,0l-7.9,4.6v7.3l7.1-4.1l5.2-3l0,0l2.6-1.5
		c0.5-0.3,0.9-0.7,1.2-1.3C425.8,210.1,421.6,208.6,421.7,208.6L421.7,208.6z"/>
	<g id="Group_16081" transform="translate(399.132 191.3)">
		<g id="Group_16077" transform="translate(0 0)">
			<path id="Path_9483" class="st0" d="M4.3,10.7C2.9,8.5,3.7,5.6,6,4.3c2.3-1.3,5.2-0.6,6.5,1.7c1.3,2.3,0.6,5.2-1.7,6.5
				c0,0,0,0,0,0C8.5,13.7,5.6,13,4.3,10.7 M1.1,12.5c2.3,4,7.4,5.3,11.4,3c4-2.3,5.3-7.4,3-11.4c-2.3-4-7.4-5.3-11.4-3c0,0,0,0,0,0
				C0.2,3.5-1.2,8.6,1.1,12.5z"/>
		</g>
		<g id="Group_16080" transform="translate(0.261 6.34)">
			<g id="Group_16078">
				<path id="Path_9484" class="st0" d="M12.8,1.4c0.3,2.6-1.5,4.9-4.1,5.3c-2.1,0.3-4.2-1-5-3C2.5,3.9,1.2,4,0,4.1
					c1.1,4.5,5.7,7.2,10.1,6.1C14.6,9,17.3,4.5,16.2,0l0,0C15,0.5,13.9,1,12.8,1.4z"/>
			</g>
			<g id="Group_16079" transform="translate(12.997 4.028)">
				<path id="Path_9485" class="st0" d="M12.8,6.1c0.8,0.5,1.1,1.6,0.6,2.4l0,0.1c-0.5,0.8-1.6,1.1-2.4,0.6L0.9,3.4
					C0,2.9-0.2,1.8,0.2,1l0-0.1C0.8,0,1.8-0.2,2.7,0.2L12.8,6.1z"/>
			</g>
		</g>
	</g>
</g>
</svg>
